<svg xmlns="http://www.w3.org/2000/svg" width="16" height="16" viewBox="0 0 16 16" fill="none">
<g id="circle-remove-large[solid,alert,remove,delete,close,circle]">
<g id="Group">
<path id="Vector" d="M8 0C3.6 0 0 3.6 0 8C0 12.4 3.6 16 8 16C12.4 16 16 12.4 16 8C16 3.6 12.4 0 8 0ZM8 14C4.7 14 2 11.3 2 8C2 4.7 4.7 2 8 2C11.3 2 14 4.7 14 8C14 11.3 11.3 14 8 14Z" fill="black"/>
<path id="Vector_2" d="M9.414 8L11.182 6.232C11.377 6.037 11.377 5.72 11.182 5.525L10.475 4.818C10.28 4.623 9.963 4.623 9.768 4.818L8 6.586L6.232 4.818C6.037 4.623 5.72 4.623 5.525 4.818L4.818 5.525C4.623 5.72 4.623 6.037 4.818 6.232L6.586 8L4.818 9.768C4.623 9.963 4.623 10.28 4.818 10.475L5.525 11.182C5.72 11.377 6.037 11.377 6.232 11.182L8 9.414L9.768 11.182C9.963 11.377 10.28 11.377 10.475 11.182L11.182 10.475C11.377 10.28 11.377 9.963 11.182 9.768L9.414 8Z" fill="black"/>
</g>
</g>
</svg>