<svg xmlns="http://www.w3.org/2000/svg" width="16" height="16" viewBox="0 0 16 16" fill="none">
<g id="square-question-large[solid,alert,question,square]">
<g id="Group">
<path id="Vector" d="M14 0H2C1.46957 0 0.960859 0.210714 0.585786 0.585786C0.210714 0.960859 0 1.46957 0 2L0 14C0 14.5304 0.210714 15.0391 0.585786 15.4142C0.960859 15.7893 1.46957 16 2 16H14C14.5304 16 15.0391 15.7893 15.4142 15.4142C15.7893 15.0391 16 14.5304 16 14V2C16 1.46957 15.7893 0.960859 15.4142 0.585786C15.0391 0.210714 14.5304 0 14 0ZM14 14H2V2H14V14Z" fill="black"/>
<path id="Vector_2" d="M8 13C8.55228 13 9 12.5523 9 12C9 11.4477 8.55228 11 8 11C7.44772 11 7 11.4477 7 12C7 12.5523 7.44772 13 8 13Z" fill="black"/>
<path id="Vector_3" d="M6.687 5.446C7.04423 5.1059 7.50815 4.89991 8 4.863C9 4.863 9 5.381 9 5.575C9 5.941 8.841 6.107 8.35 6.529C7.94687 6.80606 7.61461 7.1741 7.38008 7.60337C7.14556 8.03264 7.01535 8.51108 7 9C7 9.26521 7.10536 9.51957 7.2929 9.7071C7.48043 9.89464 7.73479 10 8 10C8.26522 10 8.51957 9.89464 8.70711 9.7071C8.89465 9.51957 9 9.26521 9 9C9 8.635 9.158 8.468 9.649 8.048C10.0524 7.77068 10.3849 7.40232 10.6196 6.97271C10.8543 6.5431 10.9846 6.06429 11 5.575C11 3.954 9.8 2.864 7.953 2.864C6.9667 2.91422 6.03064 3.31453 5.313 3.993C5.2153 4.08263 5.13639 4.19081 5.08088 4.31122C5.02536 4.43163 4.99435 4.56189 4.98964 4.6944C4.98494 4.82691 5.00663 4.95903 5.05346 5.08308C5.10029 5.20713 5.17133 5.32063 5.26243 5.41697C5.35353 5.51331 5.46289 5.59057 5.58413 5.64426C5.70537 5.69794 5.83607 5.72698 5.96864 5.72968C6.10121 5.73238 6.23299 5.70869 6.35631 5.65999C6.47964 5.61129 6.59205 5.53855 6.687 5.446Z" fill="black"/>
</g>
</g>
</svg>