<svg xmlns="http://www.w3.org/2000/svg" width="16" height="16" viewBox="0 0 16 16" fill="none">
<g id="triangle-warning-large-solid[solid,alert,warning]">
<g id="Group">
<path id="Vector" d="M15.8 12.526L9.483 0.880001C9.3272 0.591065 9.08962 0.354523 8.8 0.200001C8.40652 -0.010568 7.94582 -0.0572588 7.51809 0.0700845C7.09037 0.197428 6.73023 0.488504 6.516 0.880001L0.199999 12.526C0.0618912 12.7823 -0.00716199 13.0701 -0.000375534 13.3611C0.00641092 13.6522 0.0888035 13.9365 0.238706 14.186C0.388608 14.4356 0.600863 14.6419 0.854612 14.7846C1.10836 14.9273 1.39488 15.0015 1.686 15H14.314C14.593 15 14.8678 14.9313 15.114 14.8C15.3091 14.6965 15.4817 14.5553 15.6219 14.3847C15.7622 14.2142 15.8673 14.0175 15.9311 13.8061C15.995 13.5947 16.0164 13.3727 15.9941 13.153C15.9717 12.9333 15.9051 12.7202 15.8 12.526ZM8 13C7.80222 13 7.60888 12.9414 7.44443 12.8315C7.27998 12.7216 7.15181 12.5654 7.07612 12.3827C7.00043 12.2 6.98063 11.9989 7.01921 11.8049C7.0578 11.6109 7.15304 11.4327 7.29289 11.2929C7.43274 11.153 7.61093 11.0578 7.80491 11.0192C7.99889 10.9806 8.19996 11.0004 8.38268 11.0761C8.56541 11.1518 8.72159 11.28 8.83147 11.4444C8.94135 11.6089 9 11.8022 9 12C9 12.2652 8.89464 12.5196 8.7071 12.7071C8.51957 12.8946 8.26521 13 8 13ZM9 9.5C9 9.63261 8.94732 9.75979 8.85355 9.85355C8.75978 9.94732 8.63261 10 8.5 10H7.5C7.36739 10 7.24021 9.94732 7.14645 9.85355C7.05268 9.75979 7 9.63261 7 9.5V5.5C7 5.36739 7.05268 5.24022 7.14645 5.14645C7.24021 5.05268 7.36739 5 7.5 5H8.5C8.63261 5 8.75978 5.05268 8.85355 5.14645C8.94732 5.24022 9 5.36739 9 5.5V9.5Z" fill="black"/>
</g>
</g>
</svg>