<svg xmlns="http://www.w3.org/2000/svg" width="16" height="16" viewBox="0 0 16 16" fill="none">
<g id="cloud-check[connection,wireless,sync,network,weather,cloud,success,done,completed,saved,persisted]">
<path id="Vector" d="M10.5 9.5L7.75 12.25L6.5 11" stroke="black" stroke-linecap="round" stroke-linejoin="round"/>
<path id="Vector_2" d="M4.5 10.8715C4.04145 10.552 3.66607 10.1273 3.40527 9.63305C3.14448 9.13875 3.00585 8.58918 3.00097 8.03032C2.9961 7.47146 3.12513 6.91956 3.37727 6.42079C3.6294 5.92201 3.99732 5.49087 4.45023 5.16343C4.90314 4.83599 5.42788 4.62177 5.98055 4.53869C6.53322 4.45561 7.09776 4.50609 7.62692 4.6859C8.15608 4.86571 8.63449 5.16963 9.02213 5.57223C9.40976 5.97483 9.69535 6.46441 9.855 7H10.75C11.2806 7.00021 11.7941 7.18794 12.1997 7.53002C12.6053 7.87211 12.877 8.34653 12.9667 8.86949C13.0564 9.39246 12.9584 9.9303 12.6901 10.388C12.4217 10.8458 12.0002 11.1939 11.5 11.371" stroke="black" stroke-linecap="round" stroke-linejoin="round"/>
</g>
</svg>