<svg xmlns="http://www.w3.org/2000/svg" width="16" height="16" viewBox="0 0 16 16" fill="none">
<g id="cloud-cog[connection,wireless,sync,network,weather,cloud,settings]">
<path id="Vector" d="M7.426 11.886L7.2345 12.348" stroke="black" stroke-linecap="round" stroke-linejoin="round"/>
<path id="Vector_2" d="M8.57401 9.114L8.76551 8.6525" stroke="black" stroke-linecap="round" stroke-linejoin="round"/>
<path id="Vector_3" d="M8.574 11.886C8.75601 11.8106 8.92139 11.7001 9.0607 11.5608C9.20001 11.4215 9.31053 11.2562 9.38593 11.0742C9.46133 10.8922 9.50014 10.6971 9.50015 10.5001C9.50017 10.3031 9.46138 10.108 9.386 9.926C9.31062 9.74399 9.20013 9.5786 9.06083 9.43929C8.92154 9.29998 8.75617 9.18947 8.57417 9.11407C8.39216 9.03867 8.19709 8.99985 8.00009 8.99984C7.80309 8.99983 7.60801 9.03862 7.426 9.114L7.2345 8.6525" stroke="black" stroke-linecap="round" stroke-linejoin="round"/>
<path id="Vector_4" d="M8.765 12.348L8.574 11.886C8.20641 12.0382 7.79341 12.0382 7.42583 11.8859C7.05826 11.7337 6.76624 11.4416 6.614 11.074C6.46177 10.7064 6.4618 10.2934 6.61408 9.92583C6.76636 9.55826 7.05841 9.26623 7.426 9.114" stroke="black" stroke-linecap="round" stroke-linejoin="round"/>
<path id="Vector_5" d="M9.386 9.926L9.8475 9.7345" stroke="black" stroke-linecap="round" stroke-linejoin="round"/>
<path id="Vector_6" d="M9.386 11.074L9.8475 11.2655" stroke="black" stroke-linecap="round" stroke-linejoin="round"/>
<path id="Vector_7" d="M4.1 9.55C3.75845 9.22802 3.48516 8.84064 3.29638 8.41089C3.10761 7.98114 3.0072 7.51782 3.00113 7.04847C2.99507 6.57913 3.08347 6.11336 3.26108 5.67888C3.43869 5.2444 3.70188 4.85008 4.03499 4.51938C4.3681 4.18869 4.76432 3.92838 5.20008 3.75393C5.63584 3.57949 6.10224 3.49448 6.57153 3.50396C7.04082 3.51344 7.5034 3.61722 7.93177 3.80912C8.36013 4.00102 8.74551 4.27712 9.065 4.621C9.43059 5.01401 9.70089 5.48584 9.855 6H10.75C11.2269 6.00643 11.6895 6.16426 12.0709 6.45071C12.4523 6.73715 12.7328 7.13739 12.8719 7.59364C13.011 8.04988 13.0015 8.53853 12.8448 8.98904C12.688 9.43954 12.3922 9.82858 12 10.1" stroke="black" stroke-linecap="round" stroke-linejoin="round"/>
<path id="Vector_8" d="M6.614 9.926L6.1525 9.7345" stroke="black" stroke-linecap="round" stroke-linejoin="round"/>
<path id="Vector_9" d="M6.614 11.074L6.1525 11.2655" stroke="black" stroke-linecap="round" stroke-linejoin="round"/>
</g>
</svg>