<svg xmlns="http://www.w3.org/2000/svg" width="16" height="16" viewBox="0 0 16 16" fill="none">
<g id="cloud-upload[connection,wireless,sync,network,weather,cloud,file,export,upload]">
<path id="Vector" d="M8 8.5V12.5" stroke="black" stroke-linecap="round" stroke-linejoin="round"/>
<path id="Vector_2" d="M4 9.4495C3.62852 9.06996 3.34829 8.61086 3.18052 8.10697C3.01275 7.60308 2.96185 7.06762 3.03168 6.54115C3.10151 6.01468 3.29023 5.511 3.58355 5.06827C3.87687 4.62554 4.26709 4.25536 4.72467 3.98578C5.18224 3.71619 5.69517 3.55428 6.22459 3.51229C6.75401 3.4703 7.28604 3.54934 7.78039 3.74343C8.27473 3.93752 8.71843 4.24156 9.07787 4.63252C9.43731 5.02348 9.70306 5.49112 9.855 6H10.75C11.2328 5.99995 11.7027 6.15516 12.0905 6.44272C12.4783 6.73028 12.7633 7.13493 12.9034 7.5969C13.0435 8.05887 13.0313 8.55367 12.8687 9.00819C12.706 9.46271 12.4014 9.85286 12 10.121" stroke="black" stroke-linecap="round" stroke-linejoin="round"/>
<path id="Vector_3" d="M6 10.5L8 8.5L10 10.5" stroke="black" stroke-linecap="round" stroke-linejoin="round"/>
</g>
</svg>