<svg xmlns="http://www.w3.org/2000/svg" width="16" height="16" viewBox="0 0 16 16" fill="none">
<g id="cloud-download[connection,wireless,sync,network,weather,cloud,file,import]">
<path id="Vector" d="M8 8.5V12.5L6 10.5" stroke="black" stroke-linecap="round" stroke-linejoin="round"/>
<path id="Vector_2" d="M8 12.5L10 10.5" stroke="black" stroke-linecap="round" stroke-linejoin="round"/>
<path id="Vector_3" d="M4.1965 9.6345C3.78813 9.27726 3.46841 8.82997 3.26258 8.32796C3.05676 7.82594 2.97046 7.28295 3.01051 6.74186C3.05056 6.20077 3.21586 5.6764 3.49336 5.21016C3.77085 4.74392 4.15294 4.34858 4.60945 4.05536C5.06597 3.76213 5.5844 3.57906 6.12381 3.5206C6.66322 3.46213 7.20884 3.52987 7.71758 3.71847C8.22632 3.90707 8.68424 4.21137 9.05519 4.60732C9.42613 5.00328 9.69995 5.48006 9.855 6H10.75C11.236 5.99994 11.709 6.15726 12.0982 6.44843C12.4873 6.73959 12.7718 7.14895 12.9089 7.61524C13.046 8.08153 13.0284 8.57968 12.8588 9.03516C12.6892 9.49064 12.3767 9.87896 11.968 10.142" stroke="black" stroke-linecap="round" stroke-linejoin="round"/>
</g>
</svg>