<svg xmlns="http://www.w3.org/2000/svg" width="16" height="16" viewBox="0 0 16 16" fill="none">
<g id="cloud-off[connection,wireless,sync,network,weather,cloud]">
<path id="Vector" d="M3 3L13 13" stroke="black" stroke-linecap="round" stroke-linejoin="round"/>
<path id="Vector_2" d="M4.891 4.891C4.19414 5.25132 3.63853 5.83531 3.31335 6.54925C2.98817 7.26318 2.91228 8.06567 3.09785 8.82791C3.28342 9.59016 3.7197 10.268 4.33666 10.7525C4.95363 11.2371 5.7155 11.5003 6.5 11.5H10.75C10.9714 11.5002 11.1916 11.4676 11.4035 11.4035" stroke="black" stroke-linecap="round" stroke-linejoin="round"/>
<path id="Vector_3" d="M12.766 10.25C12.9362 9.90693 13.016 9.52609 12.9979 9.14354C12.9798 8.761 12.8643 8.38941 12.6625 8.06396C12.4606 7.73851 12.179 7.46998 11.8443 7.2838C11.5096 7.09761 11.133 6.99993 10.75 7H9.855C9.66374 6.35964 9.29333 5.78732 8.78748 5.35057C8.28162 4.91381 7.66141 4.63083 7 4.535" stroke="black" stroke-linecap="round" stroke-linejoin="round"/>
</g>
</svg>