<svg xmlns="http://www.w3.org/2000/svg" width="16" height="16" viewBox="0 0 16 16" fill="none">
<g id="cloud-alert[connection,wireless,sync,network,danger,warning,alert,error]">
<path id="Vector" d="M8 8V10" stroke="black" stroke-linecap="round" stroke-linejoin="round"/>
<path id="Vector_2" d="M8 12H8.005" stroke="black" stroke-linecap="round" stroke-linejoin="round"/>
<path id="Vector_3" d="M10.5 11H10.75C11.3467 11 11.919 10.7629 12.341 10.341C12.7629 9.91903 13 9.34674 13 8.75C13 8.15326 12.7629 7.58097 12.341 7.15901C11.919 6.73705 11.3467 6.5 10.75 6.5H9.855C9.68182 5.91924 9.3608 5.39339 8.92337 4.97394C8.48595 4.55449 7.9471 4.25581 7.35959 4.10714C6.77207 3.95846 6.15602 3.96489 5.57173 4.12579C4.98744 4.28669 4.45495 4.59654 4.02636 5.02502C3.59778 5.45351 3.2878 5.98593 3.12677 6.57018C2.96574 7.15443 2.95917 7.77049 3.10771 8.35804C3.25625 8.94559 3.55481 9.4845 3.97416 9.92202C4.39351 10.3595 4.91928 10.6807 5.5 10.854" stroke="black" stroke-linecap="round" stroke-linejoin="round"/>
</g>
</svg>