<svg xmlns="http://www.w3.org/2000/svg" width="16" height="16" viewBox="0 0 16 16" fill="none">
<g id="wifi-off[connection,wireless,sync,network]">
<path id="Vector" d="M8 12H8.005" stroke="black" stroke-linecap="round" stroke-linejoin="round"/>
<path id="Vector_2" d="M6.25 10.2145C6.71732 9.75643 7.34562 9.49986 8 9.49986C8.65438 9.49986 9.28268 9.75643 9.75 10.2145" stroke="black" stroke-linecap="round" stroke-linejoin="round"/>
<path id="Vector_3" d="M4.5 8.4295C5.20901 7.73445 6.1089 7.26623 7.085 7.0845" stroke="black" stroke-linecap="round" stroke-linejoin="round"/>
<path id="Vector_4" d="M11.5 8.4295C11.1989 8.13438 10.8618 7.87851 10.4965 7.668" stroke="black" stroke-linecap="round" stroke-linejoin="round"/>
<path id="Vector_5" d="M3 6.41C3.6183 5.85704 4.32405 5.41048 5.0885 5.0885" stroke="black" stroke-linecap="round" stroke-linejoin="round"/>
<path id="Vector_6" d="M13 6.41C12.2374 5.72791 11.3432 5.20907 10.3726 4.88542C9.40197 4.56176 8.37538 4.44013 7.356 4.528" stroke="black" stroke-linecap="round" stroke-linejoin="round"/>
<path id="Vector_7" d="M3 3L13 13" stroke="black" stroke-linecap="round" stroke-linejoin="round"/>
</g>
</svg>