<svg xmlns="http://www.w3.org/2000/svg" width="16" height="16" viewBox="0 0 16 16" fill="none">
<g id="action-notification[workflow,action,megaphone,update]">
<path id="Vector" d="M7.15099 10.401L7.86799 11.826C8.15699 12.391 7.93399 13.084 7.36899 13.374C6.80299 13.663 6.11099 13.439 5.82099 12.874L3.57599 8.5" stroke="black" stroke-linecap="round" stroke-linejoin="round"/>
<path id="Vector_2" d="M11.5 10.5C11.5 10.5 8.548 8.5 6.524 8.5H3.5C2.395 8.5 1.5 7.605 1.5 6.5C1.5 5.395 2.395 4.5 3.5 4.5H6.524C8.5 4.5 11.5 2.5 11.5 2.5V10.5Z" stroke="black" stroke-linecap="round" stroke-linejoin="round"/>
<path id="Vector_3" d="M11.5 4.5C12.6046 4.5 13.5 5.39543 13.5 6.5C13.5 7.60457 12.6046 8.5 11.5 8.5" stroke="black" stroke-linecap="round" stroke-linejoin="round"/>
<path id="Vector_4" d="M9.5 5.5V7.5" stroke="black" stroke-opacity="0.25" stroke-linecap="round" stroke-linejoin="round"/>
</g>
</svg>