<svg xmlns="http://www.w3.org/2000/svg" width="16" height="16" viewBox="0 0 16 16" fill="none">
<g id="action-if[workflow,action,if,branch]">
<path id="Vector" d="M6.5 2.5C6.5 3.05228 6.94772 3.5 7.5 3.5C8.05228 3.5 8.5 3.05228 8.5 2.5C8.5 1.94771 8.05228 1.5 7.5 1.5C6.94772 1.5 6.5 1.94771 6.5 2.5Z" stroke="black" stroke-linecap="round" stroke-linejoin="round"/>
<path id="Vector_2" d="M2.5 13.5C2.5 14.0523 2.94772 14.5 3.5 14.5C4.05228 14.5 4.5 14.0523 4.5 13.5C4.5 12.9477 4.05228 12.5 3.5 12.5C2.94772 12.5 2.5 12.9477 2.5 13.5Z" fill="black" fill-opacity="0.25" stroke="black" stroke-linecap="round" stroke-linejoin="round"/>
<path id="Vector_3" d="M11.5 13.5C11.5 14.0523 11.9477 14.5 12.5 14.5C13.0523 14.5 13.5 14.0523 13.5 13.5C13.5 12.9477 13.0523 12.5 12.5 12.5C11.9477 12.5 11.5 12.9477 11.5 13.5Z" fill="black" fill-opacity="0.25" stroke="black" stroke-linecap="round" stroke-linejoin="round"/>
<path id="Vector_4" d="M3.5 12.5V8.5C3.5 7.94772 3.94772 7.5 4.5 7.5H6.5C7.05228 7.5 7.5 7.05228 7.5 6.5V3.5" stroke="black" stroke-linecap="round" stroke-linejoin="round"/>
<path id="Vector_5" d="M9.5 7.5H11.5C12.0523 7.5 12.5 7.94772 12.5 8.5V12.5" stroke="black" stroke-opacity="0.25" stroke-linecap="round" stroke-linejoin="round"/>
</g>
</svg>