<svg xmlns="http://www.w3.org/2000/svg" width="16" height="16" viewBox="0 0 16 16" fill="none">
<g id="circle-play-solid[circle,solid,play,triangle,forward,next,control]">
<path id="Vector" fill-rule="evenodd" clip-rule="evenodd" d="M0 8C0 3.6 3.6 0 8 0C12.4 0 16 3.6 16 8C16 12.4 12.4 16 8 16C3.6 16 0 12.4 0 8ZM6.52814 5.11833C6.8533 4.94431 7.24784 4.96338 7.5547 5.16795L10.545 7.16146C10.8241 7.34283 11 7.65599 11 8C11 8.20897 10.9347 8.4093 10.8179 8.57544C10.7876 8.61843 10.7539 8.65914 10.717 8.69711C10.6654 8.75017 10.6078 8.7977 10.545 8.83854L7.5547 10.8321C7.24784 11.0366 6.8533 11.0557 6.52814 10.8817C6.20298 10.7077 6 10.3688 6 10V9V7V6C6 5.6312 6.20298 5.29234 6.52814 5.11833Z" fill="black"/>
</g>
</svg>