<svg xmlns="http://www.w3.org/2000/svg" width="16" height="16" viewBox="0 0 16 16" fill="none">
<g id="packaged-outport[workflow,packaged,arrow,right,output,volume,axis,dimension,3d,cube]">
<path id="Vector" d="M13.5 8.5V4.80902C13.5 4.61963 13.393 4.4465 13.2236 4.3618L7.72361 1.61181C7.58284 1.54143 7.41716 1.54143 7.27639 1.61181L1.77639 4.3618C1.607 4.4465 1.5 4.61963 1.5 4.80902V11.191C1.5 11.3804 1.607 11.5535 1.77639 11.6382L6.5 14" stroke="black" stroke-linecap="round" stroke-linejoin="round"/>
<path id="Vector_2" d="M3.5 5.5L7.5 7.5M7.5 7.5L11.5 5.5M7.5 7.5V12.5" stroke="black" stroke-linecap="round" stroke-linejoin="round"/>
<path id="Vector_3" d="M3.5 5.5V10.5L7.5 12.5" stroke="black" stroke-linecap="round" stroke-linejoin="round"/>
<path id="Vector_4" d="M9.5 4.5L7.5 3.5L5.5 4.5" stroke="black" stroke-linecap="round" stroke-linejoin="round"/>
<path id="Vector_5" d="M12.5 10.5L14.5 12.5M14.5 12.5L12.5 14.5M14.5 12.5H9.5" stroke="black" stroke-linecap="round" stroke-linejoin="round"/>
</g>
</svg>