<svg xmlns="http://www.w3.org/2000/svg" width="16" height="16" viewBox="0 0 16 16" fill="none">
<g id="workflow-file-delete[workflow,clear,remove,delete]">
<path id="Vector" d="M11.5 3.5V2.5C11.5 1.94771 11.0523 1.5 10.5 1.5H6.5C5.94772 1.5 5.5 1.94771 5.5 2.5V3.5C5.5 4.05228 5.94772 4.5 6.5 4.5H10.5C11.0523 4.5 11.5 4.05228 11.5 3.5Z" stroke="black" stroke-linecap="round" stroke-linejoin="round"/>
<path id="Vector_2" d="M14.5 13.5V11.5C14.5 10.9477 14.0523 10.5 13.5 10.5H11.5C10.9477 10.5 10.5 10.9477 10.5 11.5V13.5C10.5 14.0523 10.9477 14.5 11.5 14.5H13.5C14.0523 14.5 14.5 14.0523 14.5 13.5Z" stroke="black" stroke-linecap="round" stroke-linejoin="round"/>
<path id="Vector_3" d="M12.5 10.5V8.5C12.5 7.94772 12.0523 7.5 11.5 7.5H8.5V4.5" stroke="black" stroke-linecap="round" stroke-linejoin="round"/>
<path id="Vector_4" d="M8.5 7.5H7.5" stroke="black" stroke-linecap="round" stroke-linejoin="round"/>
<path id="Vector_5" d="M6 11.5H3" stroke="black" stroke-linecap="round" stroke-linejoin="round"/>
<path id="Vector_6" d="M7.5 11.5C7.5 13.1569 6.15685 14.5 4.5 14.5C2.84315 14.5 1.5 13.1569 1.5 11.5C1.5 9.84315 2.84315 8.5 4.5 8.5C6.15685 8.5 7.5 9.84315 7.5 11.5Z" stroke="black" stroke-linecap="round" stroke-linejoin="round"/>
</g>
</svg>