<svg xmlns="http://www.w3.org/2000/svg" width="16" height="16" viewBox="0 0 16 16" fill="none">
<g id="workflow-file-outport[workflow,arrow,right,input,import,output]">
<path id="Vector" d="M4.5 3.5V2.5C4.5 1.94771 4.94772 1.5 5.5 1.5H9.5C10.0523 1.5 10.5 1.94771 10.5 2.5V3.5C10.5 4.05228 10.0523 4.5 9.5 4.5H5.5C4.94772 4.5 4.5 4.05228 4.5 3.5Z" stroke="black" stroke-linecap="round" stroke-linejoin="round"/>
<path id="Vector_2" d="M1.5 13.5V11.5C1.5 10.9477 1.94771 10.5 2.5 10.5H4.5C5.05228 10.5 5.5 10.9477 5.5 11.5V13.5C5.5 14.0523 5.05228 14.5 4.5 14.5H2.5C1.94771 14.5 1.5 14.0523 1.5 13.5Z" stroke="black" stroke-linecap="round" stroke-linejoin="round"/>
<path id="Vector_3" d="M7.5 7.5H4.5C3.94772 7.5 3.5 7.94772 3.5 8.5V10.5M7.5 7.5V4.5M7.5 7.5H9.5C10.0523 7.5 10.5 7.94772 10.5 8.5V10.5" stroke="black" stroke-linecap="round" stroke-linejoin="round"/>
<path id="Vector_4" d="M12.5 10.5L14.5 12.5M14.5 12.5L12.5 14.5M14.5 12.5H7.5" stroke="black" stroke-linecap="round" stroke-linejoin="round"/>
</g>
</svg>