<svg xmlns="http://www.w3.org/2000/svg" width="16" height="16" viewBox="0 0 16 16" fill="none">
<g id="date[forms,question,type,form,calendar,date,time]">
<path id="Vector" d="M4.5 2.5H2.5C1.94771 2.5 1.5 2.94771 1.5 3.5V12.5C1.5 13.0523 1.94771 13.5 2.5 13.5H12.5C13.0523 13.5 13.5 13.0523 13.5 12.5V3.5C13.5 2.94772 13.0523 2.5 12.5 2.5H10.5M6.5 2.5H8.5" stroke="black" stroke-linecap="round" stroke-linejoin="round"/>
<path id="Vector_2" d="M1.5 5.5H13.5" stroke="black" stroke-linecap="round" stroke-linejoin="round"/>
<path id="Vector_3" d="M4.5 1.5V3.5M10.5 1.5V3.5" stroke="black" stroke-linecap="round" stroke-linejoin="round"/>
<path id="Vector_4" d="M3.5 7.5H3.505M5.5 7.5H5.505M7.5 7.5H7.505M3.5 9.5H3.505M5.5 9.5H5.505M7.5 9.5H7.505M9.5 7.5H9.505M9.5 9.5H9.505M11.5 7.5H11.505M11.5 9.5H11.505M3.5 11.5H3.505M5.5 11.5H5.505M7.5 11.5H7.505M9.5 11.5H9.505M11.5 11.5H11.505" stroke="black" stroke-linecap="round" stroke-linejoin="round"/>
</g>
</svg>