<svg xmlns="http://www.w3.org/2000/svg" width="16" height="16" viewBox="0 0 16 16" fill="none">
<g id="design-solid[forms,solid,palette,design,color,paint]">
<path id="Vector" fill-rule="evenodd" clip-rule="evenodd" d="M1 7.5C1 3.92367 3.92513 1 7.5024 1C10.9998 1 13.982 3.57694 14 6.8012V6.804C14 8.91105 12.2728 10.6364 10.1657 10.6364C10.1074 10.6364 10.0406 10.6352 9.96798 10.6338C9.27043 10.6209 8.03489 10.598 8.66451 11.5652C9.30391 12.5476 8.83154 14 7.5024 14C3.92513 14 1 11.0763 1 7.5ZM4 5C4 4.44772 4.44772 4 5 4C5.55228 4 6 4.44772 6 5C6 5.55228 5.55228 6 5 6C4.44772 6 4 5.55228 4 5ZM8 3C7.44772 3 7 3.44772 7 4C7 4.55228 7.44772 5 8 5C8.55228 5 9 4.55228 9 4C9 3.44772 8.55228 3 8 3ZM10 7C10 6.44772 10.4477 6 11 6C11.5523 6 12 6.44772 12 7C12 7.55228 11.5523 8 11 8C10.4477 8 10 7.55228 10 7ZM4 7C3.44772 7 3 7.44772 3 8C3 8.55228 3.44772 9 4 9C4.55228 9 5 8.55228 5 8C5 7.44772 4.55228 7 4 7Z" fill="black"/>
</g>
</svg>