<svg xmlns="http://www.w3.org/2000/svg" width="16" height="16" viewBox="0 0 16 16" fill="none">
<g id="embed-type-standard[forms,embed]">
<path id="Vector" d="M13.5 2.5H1.5C0.947715 2.5 0.5 2.94772 0.5 3.5V11.5C0.5 12.0523 0.947716 12.5 1.5 12.5H13.5C14.0523 12.5 14.5 12.0523 14.5 11.5V3.5C14.5 2.94772 14.0523 2.5 13.5 2.5Z" stroke="black" stroke-linecap="round" stroke-linejoin="round"/>
<path id="Vector_2" d="M9 6.5H3C2.72386 6.5 2.5 6.72386 2.5 7V8C2.5 8.27614 2.72386 8.5 3 8.5H9C9.27614 8.5 9.5 8.27614 9.5 8V7C9.5 6.72386 9.27614 6.5 9 6.5Z" fill="black" fill-opacity="0.25" stroke="black" stroke-linecap="round" stroke-linejoin="round"/>
<path id="Vector_3" d="M2.5 4.5H9.5M2.5 10.5H5.5" stroke="black" stroke-linecap="round" stroke-linejoin="round"/>
</g>
</svg>