<svg xmlns="http://www.w3.org/2000/svg" width="16" height="16" viewBox="0 0 16 16" fill="none">
<g id="rating-smile-solid[forms,solid,rating]">
<path id="Vector" fill-rule="evenodd" clip-rule="evenodd" d="M8 0C3.58172 0 0 3.58172 0 8C0 12.4183 3.58172 16 8 16C12.4183 16 16 12.4183 16 8C16 3.58172 12.4183 0 8 0ZM6 6C6 6.55228 5.55228 7 5 7C4.44772 7 4 6.55228 4 6C4 5.44772 4.44772 5 5 5C5.55228 5 6 5.44772 6 6ZM11 7C11.5523 7 12 6.55228 12 6C12 5.44772 11.5523 5 11 5C10.4477 5 10 5.44772 10 6C10 6.55228 10.4477 7 11 7ZM5.42852 9.54246C5.28629 9.30577 4.97911 9.2292 4.74241 9.37143C4.50572 9.51367 4.42915 9.82085 4.57138 10.0575C4.92693 10.6492 5.42954 11.1388 6.03034 11.4787C6.63114 11.8186 7.30967 11.9972 7.99995 11.9972C8.69023 11.9972 9.36877 11.8186 9.96957 11.4787C10.5704 11.1388 11.073 10.6492 11.4285 10.0575C11.5708 9.82085 11.4942 9.51367 11.2575 9.37143C11.0208 9.2292 10.7136 9.30577 10.5714 9.54246C10.3047 9.98621 9.92776 10.3534 9.47716 10.6083C9.02656 10.8633 8.51766 10.9972 7.99995 10.9972C7.48224 10.9972 6.97334 10.8633 6.52274 10.6083C6.07215 10.3534 5.69519 9.98621 5.42852 9.54246Z" fill="black"/>
</g>
</svg>