<svg xmlns="http://www.w3.org/2000/svg" width="16" height="16" viewBox="0 0 16 16" fill="none">
<g id="statement[forms,question,type,form,quote,marks,blockquote,comment]">
<path id="Vector" d="M12.5 1.5H2.5C1.94771 1.5 1.5 1.94772 1.5 2.5V10.5C1.5 11.0523 1.94771 11.5 2.5 11.5H7C7.27614 11.5 7.5 11.7239 7.5 12V13.5L10.374 11.584C10.4562 11.5292 10.5527 11.5 10.6514 11.5H12.5C13.0523 11.5 13.5 11.0523 13.5 10.5V2.5C13.5 1.94771 13.0523 1.5 12.5 1.5Z" stroke="black" stroke-linecap="round" stroke-linejoin="round"/>
<path id="Vector_2" d="M6.5 4.5H4.5V6.5H6.5V4.5Z" fill="black" fill-opacity="0.25"/>
<path id="Vector_3" d="M6.5 6.5V4.5H4.5V6.5H6.5ZM6.5 6.5C6.5 8.5 4.5 8.5 4.5 8.5" stroke="black" stroke-linecap="round" stroke-linejoin="round"/>
<path id="Vector_4" d="M10.5 4.5H8.5V6.5H10.5V4.5Z" fill="black" fill-opacity="0.25"/>
<path id="Vector_5" d="M10.5 6.5V4.5H8.5V6.5H10.5ZM10.5 6.5C10.5 8.5 8.5 8.5 8.5 8.5" stroke="black" stroke-linecap="round" stroke-linejoin="round"/>
</g>
</svg>