<svg xmlns="http://www.w3.org/2000/svg" width="16" height="16" viewBox="0 0 16 16" fill="none">
<g id="toolbar-preview-solid[forms,solid,eye,view,visible,watch,toolbar]">
<path id="Vector" fill-rule="evenodd" clip-rule="evenodd" d="M15.5 8C15.939 7.76057 15.9388 7.76024 15.9388 7.76024L15.5 8ZM15.9385 8.24022C16.0199 8.09098 16.0202 7.90948 15.9388 7.76024L15.9378 7.75848L15.9356 7.7544L15.9278 7.74037C15.9211 7.72845 15.9116 7.71146 15.8991 7.68974C15.8742 7.64629 15.8379 7.58388 15.7903 7.5052C15.6954 7.3479 15.5556 7.12524 15.3741 6.85896C15.0116 6.32733 14.4791 5.61702 13.7992 4.90476C12.4539 3.49544 10.4556 2 8.00003 2C5.54441 2 3.54611 3.49544 2.20085 4.90476C1.52096 5.61702 0.98845 6.32733 0.625977 6.85896C0.444422 7.12524 0.304705 7.3479 0.209714 7.5052C0.1622 7.58388 0.125821 7.64629 0.100939 7.68974C0.0884969 7.71146 0.0789244 7.72845 0.0722674 7.74037L0.064472 7.7544L0.0622236 7.75848L0.0615135 7.75978C-0.0198895 7.90902 -0.0203229 8.09019 0.0610801 8.23943L0.0622236 8.24152L0.064472 8.2456L0.0722674 8.25963C0.0789244 8.27155 0.0884969 8.28854 0.100939 8.31026C0.125821 8.35371 0.1622 8.41612 0.209714 8.4948C0.304705 8.6521 0.444422 8.87476 0.625977 9.14104C0.98845 9.67267 1.52096 10.383 2.20085 11.0952C3.54611 12.5046 5.54441 14 8.00003 14C10.4556 14 12.4539 12.5046 13.7992 11.0952C14.4791 10.383 15.0116 9.67267 15.3741 9.14104C15.5556 8.87476 15.6954 8.6521 15.7903 8.4948C15.8379 8.41612 15.8742 8.35371 15.8991 8.31026C15.9116 8.28854 15.9211 8.27155 15.9278 8.25963L15.9356 8.2456L15.9378 8.24152L15.9385 8.24022ZM0.500028 8L0.0615135 7.75978C0.0615135 7.75978 0.0610802 7.76057 0.500028 8ZM15.9385 8.24022C15.9385 8.24022 15.939 8.23943 15.5 8L15.9385 8.24022ZM6 8C6 6.89543 6.89543 6 8 6C9.10457 6 10 6.89543 10 8C10 9.10457 9.10457 10 8 10C6.89543 10 6 9.10457 6 8ZM8 5C6.34315 5 5 6.34315 5 8C5 9.65685 6.34315 11 8 11C9.65685 11 11 9.65685 11 8C11 6.34315 9.65685 5 8 5Z" fill="black"/>
</g>
</svg>