<svg xmlns="http://www.w3.org/2000/svg" width="16" height="16" viewBox="0 0 16 16" fill="none">
<g id="hide[view,watch,see,show,visibility,visible,preview,read]">
<path id="Vector" d="M7.5 5.5C8.01185 5.5 8.52369 5.69526 8.91421 6.08579C9.30474 6.47631 9.5 6.98816 9.5 7.5M7.5 9.5C6.98816 9.5 6.47631 9.30474 6.08578 8.91422C5.69526 8.52369 5.5 8.01185 5.5 7.5" stroke="black" stroke-linecap="round" stroke-linejoin="round"/>
<path id="Vector_2" d="M3 5.5C2.40852 6.09148 1.99197 6.68296 1.75034 7.06752C1.58287 7.33403 1.58183 7.66416 1.74922 7.93071C2.39829 8.96429 4.31522 11.5 7.5 11.5C8.0359 11.5 8.5359 11.4282 9 11.3038M12 9.5C12.5915 8.90852 13.008 8.31704 13.2497 7.93248C13.4171 7.66597 13.4182 7.33584 13.2508 7.06929C12.6017 6.03571 10.6848 3.5 7.5 3.5C6.9641 3.5 6.4641 3.5718 6 3.69615" stroke="black" stroke-linecap="round" stroke-linejoin="round"/>
<path id="Vector_3" d="M2.5 2.5L12.5 12.5" stroke="black" stroke-linecap="round" stroke-linejoin="round"/>
</g>
</svg>