<svg xmlns="http://www.w3.org/2000/svg" width="16" height="16" viewBox="0 0 16 16" fill="none">
<g id="image-export[photo,image,media,picture,gallery,photography,graphic,right,arrow,export]">
<path id="Vector" d="M6.5 7.5L8.5 9.5M8.5 9.5L6.5 11.5M8.5 9.5H1.5" stroke="black" stroke-linecap="round" stroke-linejoin="round"/>
<path id="Vector_2" d="M5.5 5.5C6.05228 5.5 6.5 5.05228 6.5 4.5C6.5 3.94772 6.05228 3.5 5.5 3.5C4.94772 3.5 4.5 3.94772 4.5 4.5C4.5 5.05228 4.94772 5.5 5.5 5.5Z" stroke="black" stroke-linecap="round" stroke-linejoin="round"/>
<path id="Vector_3" d="M14.5 10.5L11 7L10 8" stroke="black" stroke-linecap="round" stroke-linejoin="round"/>
<path id="Vector_4" d="M2.5 7.5V3.5C2.5 2.39543 3.39543 1.5 4.5 1.5H12.5C13.6046 1.5 14.5 2.39543 14.5 3.5V11.5C14.5 12.6046 13.6046 13.5 12.5 13.5H4.5C3.39543 13.5 2.5 12.6046 2.5 11.5" stroke="black" stroke-linecap="round" stroke-linejoin="round"/>
</g>
</svg>