<svg xmlns="http://www.w3.org/2000/svg" width="16" height="16" viewBox="0 0 16 16" fill="none">
<g id="image-settings[photo,image,media,picture,gallery,photography,graphic,system,settings,gear,cog,tools,control,preferences]">
<path id="Vector" d="M11.5 13.5C12.6046 13.5 13.5 12.6046 13.5 11.5C13.5 10.3954 12.6046 9.5 11.5 9.5C10.3954 9.5 9.5 10.3954 9.5 11.5C9.5 12.6046 10.3954 13.5 11.5 13.5Z" stroke="black" stroke-linecap="round" stroke-linejoin="round"/>
<path id="Vector_2" d="M11.5 9.5V8.5M11.5 13.5V14.5M13.5 11.5H14.5M9.5 11.5H8.5M12.9142 10.0858L13.6213 9.37868M10.0858 12.9142L9.37868 13.6213M12.9142 12.9142L13.6213 13.6213M10.0858 10.0858L9.37868 9.37868" stroke="black" stroke-linecap="round" stroke-linejoin="round"/>
<path id="Vector_3" d="M4.5 5.5C5.05228 5.5 5.5 5.05228 5.5 4.5C5.5 3.94772 5.05228 3.5 4.5 3.5C3.94772 3.5 3.5 3.94772 3.5 4.5C3.5 5.05228 3.94772 5.5 4.5 5.5Z" stroke="black" stroke-linecap="round" stroke-linejoin="round"/>
<path id="Vector_4" d="M12.5 6.5V3.5C12.5 2.39543 11.6046 1.5 10.5 1.5H3.5C2.39543 1.5 1.5 2.39543 1.5 3.5V10.5C1.5 11.6046 2.39543 12.5 3.5 12.5H6.5" stroke="black" stroke-linecap="round" stroke-linejoin="round"/>
<path id="Vector_5" d="M2 11L4.5 8.5L6 10L9.5 6.5" stroke="black" stroke-linecap="round" stroke-linejoin="round"/>
</g>
</svg>