<svg xmlns="http://www.w3.org/2000/svg" width="16" height="16" viewBox="0 0 16 16" fill="none">
<g id="image-import[photo,image,media,picture,gallery,photography,graphic,right,input,import]">
<path id="Vector" d="M4.5 5.5C5.05228 5.5 5.5 5.05228 5.5 4.5C5.5 3.94772 5.05228 3.5 4.5 3.5C3.94772 3.5 3.5 3.94772 3.5 4.5C3.5 5.05228 3.94772 5.5 4.5 5.5Z" stroke="black" stroke-linecap="round" stroke-linejoin="round"/>
<path id="Vector_2" d="M12.5 8.5V3.5C12.5 2.39543 11.6046 1.5 10.5 1.5H3.5C2.39543 1.5 1.5 2.39543 1.5 3.5V10.5C1.5 11.6046 2.39543 12.5 3.5 12.5H5.5" stroke="black" stroke-linecap="round" stroke-linejoin="round"/>
<path id="Vector_3" d="M2 11L4.5 8.5L6 10L9.5 6.5" stroke="black" stroke-linecap="round" stroke-linejoin="round"/>
<path id="Vector_4" d="M12.5 10.5L14.5 12.5M14.5 12.5L12.5 14.5M14.5 12.5H7.5" stroke="black" stroke-linecap="round" stroke-linejoin="round"/>
</g>
</svg>