<svg xmlns="http://www.w3.org/2000/svg" width="16" height="16" viewBox="0 0 16 16" fill="none">
<g id="image-delete[photo,image,media,picture,gallery,photography,graphic,remove,delete,close]">
<path id="Vector" d="M4.5 5.5C5.05228 5.5 5.5 5.05228 5.5 4.5C5.5 3.94772 5.05228 3.5 4.5 3.5C3.94772 3.5 3.5 3.94772 3.5 4.5C3.5 5.05228 3.94772 5.5 4.5 5.5Z" stroke="black" stroke-linecap="round" stroke-linejoin="round"/>
<path id="Vector_2" d="M12.5 5.5V3.5C12.5 2.39543 11.6046 1.5 10.5 1.5H3.5C2.39543 1.5 1.5 2.39543 1.5 3.5V10.5C1.5 11.6046 2.39543 12.5 3.5 12.5H6.5" stroke="black" stroke-linecap="round" stroke-linejoin="round"/>
<path id="Vector_3" d="M2 11L4.5 8.5" stroke="black" stroke-linecap="round" stroke-linejoin="round"/>
<path id="Vector_4" d="M14.5 9.5H7.5M8.5 9.5V13.5C8.5 14.0523 8.94772 14.5 9.5 14.5H12.5C13.0523 14.5 13.5 14.0523 13.5 13.5V9.5" stroke="black" stroke-linecap="round"/>
<path id="Vector_5" d="M9.5 9.5V7.5H12.5V9.5" stroke="black" stroke-linecap="round" stroke-linejoin="round"/>
</g>
</svg>