<svg xmlns="http://www.w3.org/2000/svg" width="16" height="16" viewBox="0 0 16 16" fill="none">
<g id="image[photo,image,media,picture,gallery,photography,graphic]">
<path id="Vector" d="M4.5 5.5C5.05228 5.5 5.5 5.05228 5.5 4.5C5.5 3.94772 5.05228 3.5 4.5 3.5C3.94772 3.5 3.5 3.94772 3.5 4.5C3.5 5.05228 3.94772 5.5 4.5 5.5Z" stroke="black" stroke-linecap="round" stroke-linejoin="round"/>
<path id="Vector_2" d="M11.5 1.5H3.5C2.39543 1.5 1.5 2.39543 1.5 3.5V11.5C1.5 12.6046 2.39543 13.5 3.5 13.5H11.5C12.6046 13.5 13.5 12.6046 13.5 11.5V3.5C13.5 2.39543 12.6046 1.5 11.5 1.5Z" stroke="black" stroke-linecap="round" stroke-linejoin="round"/>
<path id="Vector_3" d="M13.5 9.5L10 6L6 10L4.5 8.5L1.5 11.5" stroke="black" stroke-linecap="round" stroke-linejoin="round"/>
</g>
</svg>