<svg xmlns="http://www.w3.org/2000/svg" width="16" height="16" viewBox="0 0 16 16" fill="none">
<g id="printer[fax,device,office]">
<path id="Vector" d="M3.5 10.5H2.5C1.94771 10.5 1.5 10.0523 1.5 9.5V6.5C1.5 5.94772 1.94771 5.5 2.5 5.5H12.5C13.0523 5.5 13.5 5.94772 13.5 6.5V9.5C13.5 10.0523 13.0523 10.5 12.5 10.5H11.5M2.5 3.5V2.5C2.5 1.94771 2.94772 1.5 3.5 1.5H11.5C12.0523 1.5 12.5 1.94771 12.5 2.5V3.5M11.5 9.5V12.5C11.5 13.0523 11.0523 13.5 10.5 13.5H4.5C3.94772 13.5 3.5 13.0523 3.5 12.5V9.5C3.5 8.94772 3.94772 8.5 4.5 8.5H10.5C11.0523 8.5 11.5 8.94772 11.5 9.5Z" stroke="black" stroke-linecap="round" stroke-linejoin="round"/>
</g>
</svg>