<svg xmlns="http://www.w3.org/2000/svg" width="16" height="16" viewBox="0 0 16 16" fill="none">
<g id="show[view,watch,see,show,visibility,visible,preview,read]">
<path id="Vector" d="M5.5 7.5C5.5 8.60457 6.39543 9.5 7.5 9.5C8.60457 9.5 9.5 8.60457 9.5 7.5C9.5 6.39543 8.60457 5.5 7.5 5.5C6.39543 5.5 5.5 6.39543 5.5 7.5Z" stroke="black" stroke-linecap="round" stroke-linejoin="round"/>
<path id="Vector_2" d="M7.5 5.5C7.5 6.60457 6.60457 7.5 5.5 7.5" stroke="black" stroke-linecap="round" stroke-linejoin="round"/>
<path id="Vector_3" d="M7.5 3.5C4.31522 3.5 2.39829 6.03571 1.74922 7.06929C1.58182 7.33584 1.58182 7.66416 1.74922 7.93071C2.39829 8.96429 4.31522 11.5 7.5 11.5C10.6848 11.5 12.6017 8.96429 13.2508 7.93071C13.4182 7.66416 13.4182 7.33584 13.2508 7.06929C12.6017 6.03571 10.6848 3.5 7.5 3.5Z" stroke="black" stroke-linecap="round" stroke-linejoin="round"/>
</g>
</svg>