<svg xmlns="http://www.w3.org/2000/svg" width="16" height="16" viewBox="0 0 16 16" fill="none">
<g id="swatchbook[photo,image,media,picture,gallery,photography,graphic,paint,palette,color]">
<path id="Vector" d="M2.5 2.5V11.5C2.5 12.6046 3.39543 13.5 4.5 13.5C5.60457 13.5 6.5 12.6046 6.5 11.5V2.5C6.5 1.94771 6.05228 1.5 5.5 1.5H3.5C2.94772 1.5 2.5 1.94771 2.5 2.5Z" stroke="black" stroke-linecap="round" stroke-linejoin="round"/>
<path id="Vector_2" d="M6.5 6.67157L9.62132 3.55025C10.0118 3.15972 10.645 3.15972 11.0355 3.55025L12.4498 4.96446C12.8403 5.35498 12.8403 5.98815 12.4498 6.37867L5.5 13.3284" stroke="black" stroke-linecap="round" stroke-linejoin="round"/>
<path id="Vector_3" d="M9.5 9.5H12.5C13.0523 9.5 13.5 9.94772 13.5 10.5V12.5C13.5 13.0523 13.0523 13.5 12.5 13.5H4.5" stroke="black" stroke-linecap="round" stroke-linejoin="round"/>
<path id="Vector_4" d="M4.5 11.5H4.505" stroke="black" stroke-linecap="round" stroke-linejoin="round"/>
</g>
</svg>