<svg xmlns="http://www.w3.org/2000/svg" width="16" height="16" viewBox="0 0 16 16" fill="none">
<g id="ai[common,sparks,ai,effect,brightness,interlligence]">
<path id="Vector" d="M1.5 9.5C2.15661 9.5 2.80679 9.37067 3.41342 9.1194C4.02005 8.86812 4.57124 8.49983 5.03553 8.03553C5.49983 7.57124 5.86812 7.02005 6.1194 6.41342C6.37067 5.80679 6.5 5.15661 6.5 4.5C6.5 5.82608 7.02678 7.09785 7.96447 8.03553C8.90215 8.97322 10.1739 9.5 11.5 9.5C10.1739 9.5 8.90215 10.0268 7.96447 10.9645C7.02678 11.9021 6.5 13.1739 6.5 14.5C6.5 13.8434 6.37067 13.1932 6.1194 12.5866C5.86812 11.98 5.49983 11.4288 5.03553 10.9645C4.57124 10.5002 4.02005 10.1319 3.41342 9.8806C2.80679 9.62933 2.15661 9.5 1.5 9.5Z" stroke="black" stroke-linecap="round" stroke-linejoin="round"/>
<path id="Vector_2" d="M10.5 3.5C11.605 3.5 12.5 2.605 12.5 1.5C12.5 2.605 13.395 3.5 14.5 3.5C13.395 3.5 12.5 4.395 12.5 5.5C12.5 4.395 11.605 3.5 10.5 3.5Z" fill="black" stroke="black" stroke-linecap="round" stroke-linejoin="round"/>
</g>
</svg>