<svg xmlns="http://www.w3.org/2000/svg" width="16" height="16" viewBox="0 0 16 16" fill="none">
<g id="at-sign[mention,email,send,sign,at,common]" clip-path="url(#clip0_174_155)">
<path id="Vector" d="M8.00001 10.6667C9.47277 10.6667 10.6667 9.4728 10.6667 8.00004C10.6667 6.52728 9.47277 5.33337 8.00001 5.33337C6.52725 5.33337 5.33334 6.52728 5.33334 8.00004C5.33334 9.4728 6.52725 10.6667 8.00001 10.6667Z" stroke="black" stroke-linecap="round" stroke-linejoin="round"/>
<path id="Vector_2" d="M10.6667 5.33338V8.66671C10.6667 9.19715 10.8774 9.70585 11.2524 10.0809C11.6275 10.456 12.1362 10.6667 12.6667 10.6667C13.1971 10.6667 13.7058 10.456 14.0809 10.0809C14.4559 9.70585 14.6667 9.19715 14.6667 8.66671V8.00005C14.6667 6.49825 14.1596 5.04044 13.2276 3.86282C12.2956 2.6852 10.9933 1.85676 9.53167 1.51172C8.07005 1.16668 6.53474 1.32525 5.1745 1.96175C3.81425 2.59824 2.70876 3.67537 2.03714 5.01862C1.36552 6.36187 1.16711 7.89254 1.47405 9.36263C1.781 10.8327 2.57533 12.1561 3.72834 13.1184C4.88134 14.0807 6.32548 14.6254 7.82677 14.6645C9.32806 14.7035 10.7985 14.2345 12 13.3334" stroke="black" stroke-linecap="round" stroke-linejoin="round"/>
</g>
<defs>
<clipPath id="clip0_174_155">
<rect width="16" height="16" fill="white"/>
</clipPath>
</defs>
</svg>