<svg xmlns="http://www.w3.org/2000/svg" width="16" height="16" viewBox="0 0 16 16" fill="none">
<g id="at-sign-small[mention,email,send,sign,at,common]">
<g id="Group">
<path id="Vector" d="M10.067 5.58703V9.40803C10.067 10.587 11.858 10.849 12.796 9.25503C13.591 7.90603 13.396 5.84903 12.403 4.49503C10.942 2.50203 7.56401 1.75703 5.11001 3.40403C2.85501 4.91803 2.05201 7.98103 3.29801 10.457C4.53101 12.907 7.42501 14.094 10.045 13.208" stroke="black" stroke-linecap="round" stroke-linejoin="round"/>
<path id="Vector_2" d="M7.91101 10.2211C9.09676 10.2211 10.058 9.19267 10.058 7.92407C10.058 6.65548 9.09676 5.62708 7.91101 5.62708C6.72525 5.62708 5.76401 6.65548 5.76401 7.92407C5.76401 9.19267 6.72525 10.2211 7.91101 10.2211Z" stroke="black" stroke-linecap="round" stroke-linejoin="round"/>
</g>
</g>
</svg>