<svg xmlns="http://www.w3.org/2000/svg" width="16" height="16" viewBox="0 0 16 16" fill="none">
<g id="attach-small[attach,file,attachment,inbox,email,common]">
<g id="Group">
<path id="Vector" d="M8.65401 5.98204L6.36001 8.27704C6.23589 8.40103 6.13743 8.54826 6.07024 8.71033C6.00306 8.87239 5.96849 9.04611 5.96849 9.22154C5.96849 9.39698 6.00306 9.5707 6.07024 9.73276C6.13743 9.89482 6.23589 10.0421 6.36001 10.166C6.484 10.2902 6.63123 10.3886 6.79329 10.4558C6.95536 10.523 7.12907 10.5576 7.30451 10.5576C7.47995 10.5576 7.65366 10.523 7.81573 10.4558C7.97779 10.3886 8.12503 10.2902 8.24901 10.166L11.349 7.06604C11.8499 6.56481 12.1313 5.88517 12.1313 5.17654C12.1313 4.46791 11.8499 3.78828 11.349 3.28704C11.101 3.03877 10.8064 2.84182 10.4822 2.70745C10.158 2.57307 9.81047 2.50391 9.45951 2.50391C9.10855 2.50391 8.76104 2.57307 8.43683 2.70745C8.11262 2.84182 7.81807 3.03877 7.57001 3.28704L4.20001 6.65704C3.44836 7.40885 3.02609 8.42843 3.02609 9.49154C3.02609 10.5547 3.44836 11.5742 4.20001 12.326C4.95182 13.0777 5.9714 13.5 7.03451 13.5C8.09762 13.5 9.1172 13.0777 9.86901 12.326L12.969 9.22604" stroke="black" stroke-linecap="round" stroke-linejoin="round"/>
</g>
</g>
</svg>