<svg xmlns="http://www.w3.org/2000/svg" width="16" height="16" viewBox="0 0 16 16" fill="none">
<g id="clipboard-small[paste,clone,copy,duplicate]">
<path id="Vector" d="M9.5 3H6.5C6.22386 3 6 3.22386 6 3.5V4.5C6 4.77614 6.22386 5 6.5 5H9.5C9.77614 5 10 4.77614 10 4.5V3.5C10 3.22386 9.77614 3 9.5 3Z" stroke="black" stroke-linecap="round" stroke-linejoin="round"/>
<path id="Vector_2" d="M10 4H11C11.2652 4 11.5196 4.10536 11.7071 4.29289C11.8946 4.48043 12 4.73478 12 5V12C12 12.2652 11.8946 12.5196 11.7071 12.7071C11.5196 12.8946 11.2652 13 11 13H5C4.73478 13 4.48043 12.8946 4.29289 12.7071C4.10536 12.5196 4 12.2652 4 12V5C4 4.73478 4.10536 4.48043 4.29289 4.29289C4.48043 4.10536 4.73478 4 5 4H6" stroke="black" stroke-linecap="round" stroke-linejoin="round"/>
</g>
</svg>