<svg xmlns="http://www.w3.org/2000/svg" width="16" height="16" viewBox="0 0 16 16" fill="none">
<g id="cogwheel-solid-small[common,system,settings,control,preferences,tools,cog,solid]">
<g id="Group">
<path id="Vector" d="M13.555 7.00001L12.069 6.83501C11.9803 6.52416 11.8561 6.22453 11.699 5.94201L12.633 4.77401C12.7099 4.6779 12.7486 4.55682 12.7418 4.43394C12.735 4.31106 12.6831 4.19501 12.596 4.10801L11.889 3.40001C11.802 3.31296 11.686 3.26105 11.5631 3.25422C11.4402 3.2474 11.3191 3.28613 11.223 3.36301L10.055 4.30001C9.77249 4.1429 9.47286 4.01876 9.16201 3.93001L9.00001 2.44501C8.98641 2.32215 8.92779 2.20868 8.83546 2.1265C8.74312 2.04432 8.62362 1.99926 8.50001 2.00001H7.50001C7.3764 1.99926 7.2569 2.04432 7.16456 2.1265C7.07223 2.20868 7.0136 2.32215 7.00001 2.44501L6.83801 3.93101C6.52716 4.01976 6.22753 4.1439 5.94501 4.30101L4.77701 3.36701C4.6809 3.29013 4.55982 3.2514 4.43694 3.25822C4.31406 3.26505 4.19801 3.31696 4.11101 3.40401L3.40001 4.11101C3.31296 4.19801 3.26105 4.31406 3.25422 4.43694C3.2474 4.55982 3.28613 4.6809 3.36301 4.77701L4.30001 5.94501C4.1429 6.22753 4.01876 6.52716 3.93001 6.83801L2.44501 7.00001C2.32215 7.0136 2.20868 7.07223 2.1265 7.16456C2.04432 7.2569 1.99926 7.3764 2.00001 7.50001V8.50001C1.99926 8.62362 2.04432 8.74312 2.1265 8.83546C2.20868 8.92779 2.32215 8.98641 2.44501 9.00001L3.93101 9.16501C4.01976 9.47586 4.1439 9.77549 4.30101 10.058L3.36701 11.223C3.29013 11.3191 3.2514 11.4402 3.25822 11.5631C3.26505 11.686 3.31696 11.802 3.40401 11.889L4.11101 12.596C4.19801 12.6831 4.31406 12.735 4.43694 12.7418C4.55982 12.7486 4.6809 12.7099 4.77701 12.633L5.94501 11.7C6.22753 11.8571 6.52716 11.9813 6.83801 12.07L7.00001 13.555C7.0136 13.6779 7.07223 13.7913 7.16456 13.8735C7.2569 13.9557 7.3764 14.0008 7.50001 14H8.50001C8.62362 14.0008 8.74312 13.9557 8.83546 13.8735C8.92779 13.7913 8.98641 13.6779 9.00001 13.555L9.16501 12.069C9.47586 11.9803 9.77549 11.8561 10.058 11.699L11.226 12.633C11.3221 12.7099 11.4432 12.7486 11.5661 12.7418C11.689 12.735 11.805 12.6831 11.892 12.596L12.599 11.889C12.6861 11.802 12.738 11.686 12.7448 11.5631C12.7516 11.4402 12.7129 11.3191 12.636 11.223L11.7 10.055C11.8571 9.77249 11.9813 9.47286 12.07 9.16201L13.555 9.00001C13.6779 8.98641 13.7913 8.92779 13.8735 8.83546C13.9557 8.74312 14.0008 8.62362 14 8.50001V7.50001C14.0008 7.3764 13.9557 7.2569 13.8735 7.16456C13.7913 7.07223 13.6779 7.0136 13.555 7.00001ZM8.00001 10C7.60445 10 7.21777 9.88271 6.88887 9.66295C6.55997 9.44319 6.30363 9.13083 6.15225 8.76538C6.00087 8.39992 5.96127 7.99779 6.03844 7.60983C6.11561 7.22187 6.30609 6.8655 6.5858 6.5858C6.8655 6.30609 7.22187 6.11561 7.60983 6.03844C7.99779 5.96127 8.39992 6.00087 8.76538 6.15225C9.13083 6.30363 9.44319 6.55997 9.66295 6.88887C9.88271 7.21777 10 7.60445 10 8.00001C10 8.53044 9.7893 9.03915 9.41422 9.41422C9.03915 9.7893 8.53044 10 8.00001 10Z" fill="black"/>
</g>
</g>
</svg>