<svg xmlns="http://www.w3.org/2000/svg" width="16" height="16" viewBox="0 0 16 16" fill="none">
<g id="ellipsis-vertical-small[common,dots,menu,circle,more,ellipsis,vertical]">
<path id="Vector" d="M8 8.5C8.27614 8.5 8.5 8.27614 8.5 8C8.5 7.72386 8.27614 7.5 8 7.5C7.72386 7.5 7.5 7.72386 7.5 8C7.5 8.27614 7.72386 8.5 8 8.5Z" stroke="black" stroke-linecap="round" stroke-linejoin="round"/>
<path id="Vector_2" d="M8 4.5C8.27614 4.5 8.5 4.27614 8.5 4C8.5 3.72386 8.27614 3.5 8 3.5C7.72386 3.5 7.5 3.72386 7.5 4C7.5 4.27614 7.72386 4.5 8 4.5Z" stroke="black" stroke-linecap="round" stroke-linejoin="round"/>
<path id="Vector_3" d="M8 12.5C8.27614 12.5 8.5 12.2761 8.5 12C8.5 11.7239 8.27614 11.5 8 11.5C7.72386 11.5 7.5 11.7239 7.5 12C7.5 12.2761 7.72386 12.5 8 12.5Z" stroke="black" stroke-linecap="round" stroke-linejoin="round"/>
</g>
</svg>