<svg xmlns="http://www.w3.org/2000/svg" width="16" height="16" viewBox="0 0 16 16" fill="none">
<g id="favorite-solid[common,bookmark,favorite,like,review,rating,solid]">
<g id="Group">
<path id="Vector" d="M12.988 4.05499C12.3841 3.4111 11.5497 3.03258 10.6674 3.00222C9.78515 2.97186 8.92675 3.29214 8.27999 3.89299C8.22199 3.94699 8.16699 4.00199 8.11199 4.06199C8.05699 4.12199 8.02699 4.15599 7.98699 4.20399C7.94599 4.15499 7.90299 4.10399 7.85899 4.05899C7.25488 3.41329 6.41913 3.03384 5.5354 3.00402C4.65166 2.97421 3.79224 3.29647 3.14599 3.89999C3.08799 3.95199 3.03299 4.00699 2.98099 4.06299C2.34611 4.74847 1.99407 5.64875 1.99555 6.58307C1.99703 7.51738 2.35193 8.41654 2.98899 9.09999L7.62999 13.85C7.67655 13.8976 7.73216 13.9355 7.79356 13.9613C7.85495 13.9871 7.92088 14.0004 7.98749 14.0004C8.05409 14.0004 8.12003 13.9871 8.18142 13.9613C8.24281 13.9355 8.29842 13.8976 8.34499 13.85L12.989 9.09999C13.6467 8.42497 14.0146 7.51973 14.0144 6.57729C14.0143 5.63485 13.6459 4.72976 12.988 4.05499Z" fill="black"/>
</g>
</g>
</svg>