<svg xmlns="http://www.w3.org/2000/svg" width="16" height="16" viewBox="0 0 16 16" fill="none">
<g id="network-connection[common,network,share,connections]">
<g id="Group">
<path id="Vector" d="M9.71299 5.39398L6.28799 7.10598" stroke="black" stroke-linecap="round" stroke-linejoin="round"/>
<path id="Vector_2" d="M9.71299 10.606L6.28799 8.89398" stroke="black" stroke-linecap="round" stroke-linejoin="round"/>
<path id="Vector_3" d="M11.5 6.5C12.6046 6.5 13.5 5.60457 13.5 4.5C13.5 3.39543 12.6046 2.5 11.5 2.5C10.3954 2.5 9.5 3.39543 9.5 4.5C9.5 5.60457 10.3954 6.5 11.5 6.5Z" stroke="black" stroke-linecap="round" stroke-linejoin="round"/>
<path id="Vector_4" d="M11.5 13.5C12.6046 13.5 13.5 12.6046 13.5 11.5C13.5 10.3954 12.6046 9.5 11.5 9.5C10.3954 9.5 9.5 10.3954 9.5 11.5C9.5 12.6046 10.3954 13.5 11.5 13.5Z" stroke="black" stroke-linecap="round" stroke-linejoin="round"/>
<path id="Vector_5" d="M4.5 10C5.60457 10 6.5 9.10457 6.5 8C6.5 6.89543 5.60457 6 4.5 6C3.39543 6 2.5 6.89543 2.5 8C2.5 9.10457 3.39543 10 4.5 10Z" stroke="black" stroke-linecap="round" stroke-linejoin="round"/>
</g>
</g>
</svg>