<svg xmlns="http://www.w3.org/2000/svg" width="16" height="16" viewBox="0 0 16 16" fill="none">
<g id="qr-code[common]">
<path id="Vector" d="M5 1.5H2C1.72386 1.5 1.5 1.72386 1.5 2V5C1.5 5.27614 1.72386 5.5 2 5.5H5C5.27614 5.5 5.5 5.27614 5.5 5V2C5.5 1.72386 5.27614 1.5 5 1.5Z" stroke="black" stroke-linecap="round" stroke-linejoin="round"/>
<path id="Vector_2" d="M13 1.5H10C9.72386 1.5 9.5 1.72386 9.5 2V5C9.5 5.27614 9.72386 5.5 10 5.5H13C13.2761 5.5 13.5 5.27614 13.5 5V2C13.5 1.72386 13.2761 1.5 13 1.5Z" stroke="black" stroke-linecap="round" stroke-linejoin="round"/>
<path id="Vector_3" d="M5 9.5H2C1.72386 9.5 1.5 9.72386 1.5 10V13C1.5 13.2761 1.72386 13.5 2 13.5H5C5.27614 13.5 5.5 13.2761 5.5 13V10C5.5 9.72386 5.27614 9.5 5 9.5Z" stroke="black" stroke-linecap="round" stroke-linejoin="round"/>
<path id="Vector_4" d="M7.5 3.5V5.5C7.5 6.60457 6.60457 7.5 5.5 7.5H4.5M1.5 7.5H2.5" stroke="black" stroke-linecap="round" stroke-linejoin="round"/>
<path id="Vector_5" d="M13.5 9.5H10C9.72386 9.5 9.5 9.72386 9.5 10V13.5" stroke="black" stroke-linecap="round" stroke-linejoin="round"/>
<path id="Vector_6" d="M13.5 7.5V7.505" stroke="black" stroke-linecap="round" stroke-linejoin="round"/>
<path id="Vector_7" d="M7.5 9.5V9.505" stroke="black" stroke-linecap="round" stroke-linejoin="round"/>
<path id="Vector_8" d="M7.5 1.5V1.505" stroke="black" stroke-linecap="round" stroke-linejoin="round"/>
<path id="Vector_9" d="M3.5 3.5V3.505" stroke="black" stroke-linecap="round" stroke-linejoin="round"/>
<path id="Vector_10" d="M3.5 11.5V11.505" stroke="black" stroke-linecap="round" stroke-linejoin="round"/>
<path id="Vector_11" d="M11.5 3.5V3.505" stroke="black" stroke-linecap="round" stroke-linejoin="round"/>
<path id="Vector_12" d="M7.5 11.5V13.5M11.5 7.5H9.5" stroke="black" stroke-linecap="round" stroke-linejoin="round"/>
<path id="Vector_13" d="M13.5 12V13C13.5 13.2761 13.2761 13.5 13 13.5H12C11.7239 13.5 11.5 13.2761 11.5 13V12C11.5 11.7239 11.7239 11.5 12 11.5H13C13.2761 11.5 13.5 11.7239 13.5 12Z" stroke="black" stroke-linecap="round" stroke-linejoin="round"/>
</g>
</svg>