<svg xmlns="http://www.w3.org/2000/svg" width="16" height="16" viewBox="0 0 16 16" fill="none">
<g id="settings[common,system,settings,gear,cog,tools,control,preferences]">
<path id="Vector" d="M8 9.5C8.82843 9.5 9.5 8.82843 9.5 8C9.5 7.17157 8.82843 6.5 8 6.5C7.17157 6.5 6.5 7.17157 6.5 8C6.5 8.82843 7.17157 9.5 8 9.5Z" stroke="black" stroke-linecap="round" stroke-linejoin="round"/>
<path id="Vector_2" d="M14.5 8.86667V7.13333L12.6133 6.81873C12.5003 6.3809 12.3252 5.96151 12.0933 5.57333L13.2052 4.01333L11.9867 2.79133L10.4267 3.9024C10.0383 3.67199 9.61887 3.49835 9.18127 3.38673L8.86667 1.5H7.13333L6.81873 3.38673C6.38113 3.49835 5.96175 3.67199 5.57333 3.9024L4.01333 2.79133L2.79133 4.01333L3.9024 5.57333C3.67199 5.96175 3.49835 6.38113 3.38673 6.81873L1.5 7.13333V8.86667L3.38673 9.18127C3.49835 9.61887 3.67199 10.0383 3.9024 10.4267L2.79133 11.9867L4.01333 13.2087L5.57333 12.0976C5.96151 12.3295 6.3809 12.5046 6.81873 12.6176L7.13333 14.5H8.86667L9.18127 12.6133C9.6191 12.5003 10.0385 12.3252 10.4267 12.0933L11.9867 13.2052L13.2087 11.9867L12.0976 10.4267C12.3295 10.0385 12.5046 9.6191 12.6176 9.18127L14.5 8.86667Z" stroke="black" stroke-linecap="round" stroke-linejoin="round"/>
</g>
</svg>