<svg xmlns="http://www.w3.org/2000/svg" width="16" height="16" viewBox="0 0 16 16" fill="none">
<g id="setup-preferences[common,system,settings,control,preferences,tools]">
<path id="Vector" d="M10.5 4.5H14.5" stroke="black" stroke-linecap="round" stroke-linejoin="round"/>
<path id="Vector_2" d="M1.5 4.5H3.5" stroke="black" stroke-linecap="round" stroke-linejoin="round"/>
<path id="Vector_3" d="M5.5 6.5C6.60457 6.5 7.5 5.60457 7.5 4.5C7.5 3.39543 6.60457 2.5 5.5 2.5C4.39543 2.5 3.5 3.39543 3.5 4.5C3.5 5.60457 4.39543 6.5 5.5 6.5Z" stroke="black" stroke-linecap="round" stroke-linejoin="round"/>
<path id="Vector_4" d="M5.5 10.5H1.5" stroke="black" stroke-linecap="round" stroke-linejoin="round"/>
<path id="Vector_5" d="M14.5 10.5H12.5" stroke="black" stroke-linecap="round" stroke-linejoin="round"/>
<path id="Vector_6" d="M10.5 8.5C9.39543 8.5 8.5 9.39543 8.5 10.5C8.5 11.6046 9.39543 12.5 10.5 12.5C11.6046 12.5 12.5 11.6046 12.5 10.5C12.5 9.39543 11.6046 8.5 10.5 8.5Z" stroke="black" stroke-linecap="round" stroke-linejoin="round"/>
</g>
</svg>