<svg xmlns="http://www.w3.org/2000/svg" width="16" height="16" viewBox="0 0 16 16" fill="none">
<g id="support[common,help,lifesaver,preserver]">
<path id="Vector" d="M5.37867 9.62134C6.55025 10.7929 8.44974 10.7929 9.62132 9.62134L11.7426 11.7426C9.3995 14.0858 5.6005 14.0858 3.25735 11.7426L5.37867 9.62134Z" fill="black" fill-opacity="0.25"/>
<path id="Vector_2" d="M5.37867 5.37868C6.55025 4.20711 8.44974 4.20711 9.62132 5.37868L11.7426 3.25736C9.3995 0.914213 5.6005 0.914213 3.25735 3.25736L5.37867 5.37868Z" fill="black" fill-opacity="0.25"/>
<path id="Vector_3" d="M5.37867 9.62134C6.55025 10.7929 8.44974 10.7929 9.62132 9.62134L11.7426 11.7426C9.3995 14.0858 5.6005 14.0858 3.25735 11.7426L5.37867 9.62134Z" stroke="black" stroke-linecap="round" stroke-linejoin="round"/>
<path id="Vector_4" d="M5.37867 5.37868C6.55025 4.20711 8.44974 4.20711 9.62132 5.37868L11.7426 3.25736C9.3995 0.914213 5.6005 0.914213 3.25735 3.25736L5.37867 5.37868Z" stroke="black" stroke-linecap="round" stroke-linejoin="round"/>
<path id="Vector_5" d="M5.37868 5.37864C4.20711 6.55022 4.20711 8.44971 5.37868 9.62128L3.25736 11.7426C0.914213 9.39947 0.914213 5.60047 3.25736 3.25732L5.37868 5.37864Z" stroke="black" stroke-linecap="round" stroke-linejoin="round"/>
<path id="Vector_6" d="M9.62131 9.62128C10.7929 8.44971 10.7929 6.55022 9.62131 5.37864L11.7426 3.25732C14.0858 5.60047 14.0858 9.39947 11.7426 11.7426L9.62131 9.62128Z" stroke="black" stroke-linecap="round" stroke-linejoin="round"/>
</g>
</svg>