<svg xmlns="http://www.w3.org/2000/svg" width="16" height="16" viewBox="0 0 16 16" fill="none">
<g id="system-preferences[common,system,settings,control,preferences,tools]">
<g id="Group">
<path id="Vector" d="M4.5 13.5V11.5" stroke="black" stroke-linecap="round" stroke-linejoin="round"/>
<path id="Vector_2" d="M4.5 5.5V2.5" stroke="black" stroke-linecap="round" stroke-linejoin="round"/>
<path id="Vector_3" d="M4.5 11.5C5.60457 11.5 6.5 10.6046 6.5 9.5C6.5 8.39543 5.60457 7.5 4.5 7.5C3.39543 7.5 2.5 8.39543 2.5 9.5C2.5 10.6046 3.39543 11.5 4.5 11.5Z" stroke="black" stroke-linecap="round" stroke-linejoin="round"/>
<path id="Vector_4" d="M11.5 2.5V4.5" stroke="black" stroke-linecap="round" stroke-linejoin="round"/>
<path id="Vector_5" d="M11.5 10.5V13.5" stroke="black" stroke-linecap="round" stroke-linejoin="round"/>
<path id="Vector_6" d="M11.5 8.5C12.6046 8.5 13.5 7.60457 13.5 6.5C13.5 5.39543 12.6046 4.5 11.5 4.5C10.3954 4.5 9.5 5.39543 9.5 6.5C9.5 7.60457 10.3954 8.5 11.5 8.5Z" stroke="black" stroke-linecap="round" stroke-linejoin="round"/>
</g>
</g>
</svg>