<svg xmlns="http://www.w3.org/2000/svg" width="16" height="16" viewBox="0 0 16 16" fill="none">
<g id="thumb-down[common,bookmark,favorite,like,review,rating]">
<g id="Group">
<path id="Vector" d="M4.5 2.5H2.5V7.5H4.5" stroke="black" stroke-linecap="round" stroke-linejoin="round"/>
<path id="Vector_2" d="M4.5 7.5L6.5 13.5H7C7.39782 13.5 7.77936 13.342 8.06066 13.0607C8.34196 12.7794 8.5 12.3978 8.5 12V9.5H11.77C11.9849 9.50001 12.1973 9.45384 12.3928 9.36462C12.5883 9.2754 12.7624 9.14521 12.9032 8.98287C13.044 8.82054 13.1483 8.62983 13.209 8.42368C13.2697 8.21753 13.2854 8.00074 13.255 7.788L12.684 3.788C12.633 3.43069 12.4548 3.10375 12.1823 2.86717C11.9097 2.63059 11.5609 2.50023 11.2 2.5H4.5V7.5Z" stroke="black" stroke-linecap="round" stroke-linejoin="round"/>
</g>
</g>
</svg>