<svg xmlns="http://www.w3.org/2000/svg" width="16" height="16" viewBox="0 0 16 16" fill="none">
<g id="blueprint[chart,data,statistics,report,analysis,visualization,performance,graph,business]">
<path id="Vector" d="M13.5 7.5V12.5C13.5 13.0523 13.0523 13.5 12.5 13.5H3.5C2.94771 13.5 2.5 13.0523 2.5 12.5V7.5M2.5 3.5V2.5C2.5 1.94771 2.94772 1.5 3.5 1.5H12.5C13.0523 1.5 13.5 1.94771 13.5 2.5V3.5" stroke="black" stroke-linecap="round"/>
<path id="Vector_2" d="M2.5 5.5H13.5" stroke="black" stroke-linecap="round"/>
<path id="Vector_3" d="M4.5 9.5H5.5M7.5 9.5H8.5M10.5 9.5H11.5" stroke="black" stroke-linecap="round"/>
<path id="Vector_4" d="M4.5 7.5H5.5M7.5 7.5H8.5M10.5 7.5H11.5" stroke="black" stroke-linecap="round"/>
<path id="Vector_5" d="M4.5 11.5H5.5M7.5 11.5H8.5M10.5 11.5H11.5" stroke="black" stroke-linecap="round"/>
<path id="Vector_6" d="M4.5 3.5H11.5" stroke="black" stroke-linecap="round"/>
</g>
</svg>