<svg xmlns="http://www.w3.org/2000/svg" width="16" height="16" viewBox="0 0 16 16" fill="none">
<g id="chart-edit[chart,data,statistics,report,analysis,visualization,performance,graph,business,pen,pencil,draw,create]">
<path id="Vector" d="M7.5 14.5L8.5 11.5L12.1464 7.85355C12.3417 7.65829 12.6583 7.65829 12.8536 7.85355L14.1464 9.14645C14.3417 9.34171 14.3417 9.65829 14.1464 9.85355L10.5 13.5L7.5 14.5Z" stroke="black" stroke-linecap="round" stroke-linejoin="round"/>
<path id="Vector_2" d="M1.5 12.5H3.5M3.5 12.5H5.5M3.5 12.5V1.5M3.5 12.5V14.5M5.5 10.5V4C5.5 3.72386 5.72386 3.5 6 3.5H7C7.27614 3.5 7.5 3.72386 7.5 4V8.5M11.5 5.5V5C11.5 4.72386 11.2761 4.5 11 4.5H10C9.72386 4.5 9.5 4.72386 9.5 5V7.5" stroke="black" stroke-linecap="round" stroke-linejoin="round"/>
</g>
</svg>