<svg xmlns="http://www.w3.org/2000/svg" width="16" height="16" viewBox="0 0 16 16" fill="none">
<g id="chart-delete[chart,data,statistics,report,analysis,visualization,performance,graph,business,bar,clear,remove,delete]">
<path id="Vector" d="M13 11.5H10" stroke="black" stroke-linecap="round" stroke-linejoin="round"/>
<path id="Vector_2" d="M14.5 11.5C14.5 13.1569 13.1569 14.5 11.5 14.5C9.84315 14.5 8.5 13.1569 8.5 11.5C8.5 9.84315 9.84315 8.5 11.5 8.5C13.1569 8.5 14.5 9.84315 14.5 11.5Z" stroke="black" stroke-linecap="round" stroke-linejoin="round"/>
<path id="Vector_3" d="M1.5 12.5H3.5M3.5 12.5H6.5M3.5 12.5V1.5M3.5 12.5V14.5M5.5 10.5V4C5.5 3.72386 5.72386 3.5 6 3.5H7C7.27614 3.5 7.5 3.72386 7.5 4V7.5M9.5 6.5V6C9.5 5.72386 9.72386 5.5 10 5.5H11C11.2761 5.5 11.5 5.72386 11.5 6V6.5" stroke="black" stroke-linecap="round" stroke-linejoin="round"/>
</g>
</svg>