<svg xmlns="http://www.w3.org/2000/svg" width="16" height="16" viewBox="0 0 16 16" fill="none">
<g id="column[chart,data,statistics,report,analysis,visualization,performance,graph,business,bar,column]">
<path id="Vector" d="M6 3.5H12C12.2761 3.5 12.5 3.72386 12.5 4V5C12.5 5.27614 12.2761 5.5 12 5.5H6C5.72386 5.5 5.5 5.27614 5.5 5V4C5.5 3.72386 5.72386 3.5 6 3.5Z" stroke="black" stroke-linecap="round" stroke-linejoin="round"/>
<path id="Vector_2" d="M8.5 9V8C8.5 7.72386 8.27614 7.5 8 7.5H6C5.72386 7.5 5.5 7.72386 5.5 8V9C5.5 9.27614 5.72386 9.5 6 9.5H8C8.27614 9.5 8.5 9.27614 8.5 9Z" stroke="black" stroke-linecap="round" stroke-linejoin="round"/>
<path id="Vector_3" d="M1.5 12.5H3.5M3.5 12.5H13.5M3.5 12.5V1.5M3.5 12.5V14.5" stroke="black" stroke-linecap="round" stroke-linejoin="round"/>
</g>
</svg>