<svg xmlns="http://www.w3.org/2000/svg" width="16" height="16" viewBox="0 0 16 16" fill="none">
<g id="mixed-line-and-bar[chart,data,statistics,report,analysis,visualization,performance,graph,business,bar,line]">
<path id="Vector" d="M1.5 12.5H3.5M3.5 12.5H13.5M3.5 12.5V1.5M3.5 12.5V14.5M10.5 9.5V10C10.5 10.2761 10.7239 10.5 11 10.5H12C12.2761 10.5 12.5 10.2761 12.5 10V8.5M6.5 3V2C6.5 1.72386 6.72386 1.5 7 1.5H8C8.27614 1.5 8.5 1.72386 8.5 2V3M8.5 8V10C8.5 10.2761 8.27614 10.5 8 10.5H7C6.72386 10.5 6.5 10.2761 6.5 10V8" stroke="black" stroke-linecap="round" stroke-linejoin="round"/>
<path id="Vector_2" d="M5.5 6.5L7.5 4.5L10.5 7.5L13.5 4.5" stroke="black" stroke-linecap="round" stroke-linejoin="round"/>
</g>
</svg>