<svg xmlns="http://www.w3.org/2000/svg" width="16" height="16" viewBox="0 0 16 16" fill="none">
<g id="view-chart[chart,data,statistics,report,analysis,visualization,performance,graph,business,bar]">
<path id="Vector" d="M12.5 1.5H2.5C1.94771 1.5 1.5 1.94771 1.5 2.5V12.5C1.5 13.0523 1.94771 13.5 2.5 13.5H12.5C13.0523 13.5 13.5 13.0523 13.5 12.5V2.5C13.5 1.94771 13.0523 1.5 12.5 1.5Z" stroke="black" stroke-linecap="round" stroke-linejoin="round"/>
<path id="Vector_2" d="M4.5 11V4C4.5 3.72386 4.72386 3.5 5 3.5H6C6.27614 3.5 6.5 3.72386 6.5 4V11C6.5 11.2761 6.27614 11.5 6 11.5H5C4.72386 11.5 4.5 11.2761 4.5 11Z" stroke="black" stroke-linecap="round" stroke-linejoin="round"/>
<path id="Vector_3" d="M10 7.5H9C8.72386 7.5 8.5 7.72386 8.5 8V11C8.5 11.2761 8.72386 11.5 9 11.5H10C10.2761 11.5 10.5 11.2761 10.5 11V8C10.5 7.72386 10.2761 7.5 10 7.5Z" stroke="black" stroke-linecap="round" stroke-linejoin="round"/>
</g>
</svg>