<svg xmlns="http://www.w3.org/2000/svg" width="16" height="16" viewBox="0 0 16 16" fill="none">
<g id="dingding[brand,logo,dingding,solid]">
<path id="Vector" d="M12.9783 6.23309C12.9538 6.33562 12.8943 6.48566 12.8104 6.66671H12.8124L12.8024 6.68321C12.3141 7.7315 11.0383 9.78707 11.0383 9.78707C11.0383 9.78707 11.0363 9.78206 11.0313 9.77456L10.6585 10.4247H12.4555L9.02332 15L9.80241 11.8876H8.38764L8.87889 9.82958C8.4816 9.9256 8.01184 10.0581 7.45513 10.2372C7.45513 10.2372 6.70252 10.6793 5.28625 9.38696C5.28625 9.38696 4.33174 8.54422 4.88546 8.33317C5.12084 8.24364 6.02837 8.13011 6.7425 8.03308C7.7075 7.90305 8.30169 7.83303 8.30169 7.83303C8.30169 7.83303 5.32573 7.87804 4.62009 7.76651C3.91396 7.65548 3.01892 6.47465 2.82802 5.43687C2.82802 5.43687 2.53318 4.86721 3.46269 5.13679C4.39221 5.40686 8.23872 6.18708 8.23872 6.18708C8.23872 6.18708 3.23581 4.64965 2.90298 4.27455C2.57016 3.89945 1.92349 2.22699 2.00745 1.1992C2.00745 1.1992 2.04393 0.943133 2.30629 1.01165C2.30629 1.01165 6.00488 2.70612 8.53407 3.63337C11.0633 4.56063 13.2621 5.03276 12.9783 6.23309Z" fill="black"/>
</g>
</svg>