<svg xmlns="http://www.w3.org/2000/svg" width="16" height="16" viewBox="0 0 16 16" fill="none">
<g id="dingding-color[brand,logo,dingding,colourful,color,solid]">
<path id="Vector" d="M12.4 2H3.6C2.71633 2 2 2.71633 2 3.6V12.4C2 13.2837 2.71633 14 3.6 14H12.4C13.2837 14 14 13.2837 14 12.4V3.6C14 2.71633 13.2837 2 12.4 2ZM11.1347 6.99233C11.1217 7.05247 11.0877 7.1336 11.0406 7.2422L11.034 7.24873C10.7515 7.84787 10.0228 9.02133 10.0228 9.02133L10.0162 9.0148L9.8004 9.385H10.8313L8.86373 12L9.30853 10.2209H8.50007L8.7826 9.04087C8.55367 9.09453 8.28413 9.16913 7.9676 9.27633C7.9676 9.27633 7.53587 9.5262 6.7274 8.79107C6.7274 8.79107 6.18187 8.30573 6.49847 8.19193C6.6332 8.13827 7.15253 8.07673 7.56333 8.0232C8.11533 7.9486 8.4594 7.908 8.4594 7.908C8.4594 7.908 6.75487 7.93547 6.3506 7.86753C5.9464 7.80733 5.4336 7.12573 5.32627 6.53313C5.32627 6.53313 5.15753 6.21 5.68993 6.3644C6.21587 6.51873 8.42667 6.96353 8.42667 6.96353C8.42667 6.96353 5.55533 6.08967 5.36693 5.8738C5.17853 5.65793 4.80707 4.70167 4.85413 4.11427C4.85413 4.11427 4.87373 3.96647 5.02287 4.007C5.02287 4.007 7.13947 4.97767 8.58767 5.50353C10.0437 6.0426 11.3035 6.31207 11.1347 6.99233Z" fill="#3296FA"/>
</g>
</svg>