<svg xmlns="http://www.w3.org/2000/svg" width="16" height="16" viewBox="0 0 16 16" fill="none">
<g id="google-drive-color[brand,logo,google,drive,colourful,color,solid]">
<g id="Clip path group">
<mask id="mask0_47_684" maskUnits="userSpaceOnUse" x="0" y="0" width="16" height="16" mask-type="luminance">
<g id="clip0_1776_32">
<path id="Vector" d="M16 0H0V16H16V0Z" fill="white"/>
</g>
</mask>
<g mask="url(#mask0_47_684)">
<g id="Group">
<path id="Vector_2" d="M1.20962 13.252L1.91523 14.4708C2.06186 14.7274 2.27262 14.929 2.52005 15.0756L5.04009 10.7136H0C0 10.9977 0.0733104 11.2818 0.219931 11.5384L1.20962 13.252Z" fill="#0066DA"/>
<path id="Vector_3" d="M8 5.58188L5.47995 1.21991C5.23253 1.36653 5.02176 1.56813 4.87514 1.82472L0.219931 9.88887C0.076007 10.1399 0.000191627 10.4242 0 10.7136H5.04009L8 5.58188Z" fill="#00AC47"/>
<path id="Vector_4" d="M13.48 15.0756C13.7274 14.929 13.9382 14.7274 14.0848 14.4708L14.378 13.9668L15.7801 11.5384C15.9267 11.2818 16 10.9977 16 10.7136H10.9595L12.0321 12.8213L13.48 15.0756Z" fill="#EA4335"/>
<path id="Vector_5" d="M8 5.5819L10.52 1.21993C10.2726 1.07331 9.98854 1 9.6953 1H6.30469C6.01145 1 5.72737 1.08247 5.47995 1.21993L8 5.5819Z" fill="#00832D"/>
<path id="Vector_6" d="M10.9599 10.7136H5.0401L2.52005 15.0756C2.76747 15.2222 3.05155 15.2955 3.34479 15.2955H12.6552C12.9485 15.2955 13.2325 15.2131 13.48 15.0756L10.9599 10.7136Z" fill="#2684FC"/>
<path id="Vector_7" d="M13.4525 5.85679L11.1249 1.82472C10.9782 1.56813 10.7675 1.36653 10.52 1.21991L8 5.58188L10.9599 10.7136H15.9908C15.9908 10.4295 15.9175 10.1455 15.7709 9.88887L13.4525 5.85679Z" fill="#FFBA00"/>
</g>
</g>
</g>
</g>
</svg>