<svg xmlns="http://www.w3.org/2000/svg" width="16" height="16" viewBox="0 0 16 16" fill="none">
<g id="teams-color[brand,logo,teams,colourful,color,solid]">
<g id="Clip path group">
<mask id="mask0_47_730" maskUnits="userSpaceOnUse" x="0" y="0" width="16" height="16" mask-type="luminance">
<g id="clip0_1776_39">
<path id="Vector" d="M16 0H0V16H16V0Z" fill="white"/>
</g>
</mask>
<g mask="url(#mask0_47_730)">
<g id="Group">
<path id="Vector_2" d="M10.998 6.23285H14.9194C15.2899 6.23285 15.5902 6.53369 15.5902 6.9048V10.4828C15.5902 11.8467 14.4864 12.9524 13.1248 12.9524H13.1131C11.7515 12.9526 10.6476 11.8471 10.6474 10.4831C10.6474 10.483 10.6474 10.4832 10.6474 10.4831V6.58404C10.6474 6.39008 10.8043 6.23285 10.998 6.23285Z" fill="#5059C9"/>
<path id="Vector_3" d="M13.6484 5.52553C14.5258 5.52553 15.2371 4.81301 15.2371 3.93406C15.2371 3.05512 14.5258 2.34259 13.6484 2.34259C12.7709 2.34259 12.0596 3.05512 12.0596 3.93406C12.0596 4.81301 12.7709 5.52553 13.6484 5.52553Z" fill="#5059C9"/>
<path id="Vector_4" d="M8.70554 5.52551C9.97297 5.52551 11.0004 4.4963 11.0004 3.22671C11.0004 1.95712 9.97297 0.927917 8.70554 0.927917C7.43811 0.927917 6.41066 1.95712 6.41066 3.22671C6.41066 4.4963 7.43811 5.52551 8.70554 5.52551Z" fill="#7B83EB"/>
<path id="Vector_5" d="M11.7655 6.23285H5.29254C4.92647 6.24192 4.63689 6.54624 4.64539 6.91294V10.9938C4.59427 13.1944 6.33228 15.0205 8.52903 15.0744C10.7258 15.0205 12.4638 13.1944 12.4127 10.9938V6.91294C12.4211 6.54624 12.1316 6.24192 11.7655 6.23285Z" fill="#7B83EB"/>
<path id="Vector_6" opacity="0.1" d="M8.88207 6.23285V11.9515C8.88032 12.2138 8.72167 12.4494 8.47959 12.5492C8.40251 12.5819 8.31967 12.5987 8.23598 12.5987H4.95606C4.91017 12.482 4.8678 12.3653 4.83249 12.2451C4.70891 11.8393 4.64585 11.4174 4.64537 10.9931V6.91188C4.63688 6.54576 4.92599 6.24192 5.29147 6.23285H8.88207Z" fill="black"/>
<path id="Vector_7" opacity="0.2" d="M8.52902 6.23285V12.3052C8.529 12.389 8.51219 12.472 8.47959 12.5492C8.37991 12.7917 8.14472 12.9506 7.88292 12.9524H5.122C5.06198 12.8357 5.0055 12.719 4.95606 12.5987C4.90663 12.4785 4.8678 12.3653 4.83249 12.2451C4.70891 11.8393 4.64585 11.4174 4.64537 10.9931V6.91188C4.63688 6.54576 4.92599 6.24192 5.29147 6.23285H8.52902Z" fill="black"/>
<path id="Vector_8" opacity="0.2" d="M8.52903 6.23285V11.5979C8.52633 11.9542 8.23864 12.2424 7.88293 12.2451H4.83251C4.70892 11.8393 4.64586 11.4174 4.64538 10.9931V6.91188C4.6369 6.54576 4.926 6.24192 5.29148 6.23285H8.52903Z" fill="black"/>
<path id="Vector_9" opacity="0.2" d="M8.17596 6.23285V11.5979C8.17327 11.9542 7.88558 12.2424 7.52987 12.2451H4.83251C4.70892 11.8393 4.64586 11.4174 4.64538 10.9931V6.91188C4.6369 6.54576 4.926 6.24192 5.29148 6.23285H8.17596Z" fill="black"/>
<path id="Vector_10" opacity="0.1" d="M8.88207 4.40439V5.51842C8.82205 5.52196 8.76556 5.5255 8.70554 5.5255C8.64552 5.5255 8.58903 5.52196 8.52901 5.51842C8.40984 5.5105 8.29165 5.49156 8.17595 5.46184C7.46101 5.29224 6.87035 4.78998 6.58719 4.11086C6.53847 3.99681 6.50065 3.87839 6.47421 3.7572H8.23597C8.59224 3.75855 8.88072 4.04752 8.88207 4.40439Z" fill="black"/>
<path id="Vector_11" opacity="0.2" d="M8.52902 4.75809V5.51846C8.40985 5.51054 8.29166 5.4916 8.17597 5.46188C7.46102 5.29228 6.87036 4.79002 6.5872 4.1109H7.88292C8.23919 4.11225 8.52767 4.40122 8.52902 4.75809Z" fill="black"/>
<path id="Vector_12" opacity="0.2" d="M8.52902 4.75809V5.51846C8.40985 5.51054 8.29166 5.4916 8.17597 5.46188C7.46102 5.29228 6.87036 4.79002 6.5872 4.1109H7.88292C8.23919 4.11225 8.52767 4.40122 8.52902 4.75809Z" fill="black"/>
<path id="Vector_13" opacity="0.2" d="M8.17597 4.7581V5.46188C7.46102 5.29228 6.87036 4.79002 6.5872 4.1109H7.52987C7.88614 4.11226 8.17461 4.40123 8.17597 4.7581Z" fill="black"/>
<path id="Vector_14" d="M1.05584 4.1109H7.52881C7.88622 4.1109 8.17596 4.40114 8.17596 4.75916V11.2432C8.17596 11.6012 7.88622 11.8914 7.52881 11.8914H1.05584C0.698428 11.8914 0.408691 11.6012 0.408691 11.2432V4.75916C0.408691 4.40114 0.698435 4.1109 1.05584 4.1109Z" fill="url(#paint0_linear_47_730)"/>
<path id="Vector_15" d="M5.99548 6.57873H4.70151V10.1083H3.87713V6.57873H2.58917V5.89404H5.99548V6.57873Z" fill="white"/>
</g>
</g>
</g>
</g>
<defs>
<linearGradient id="paint0_linear_47_730" x1="1.75802" y1="3.60436" x2="6.8396" y2="12.3905" gradientUnits="userSpaceOnUse">
<stop stop-color="#5A62C3"/>
<stop offset="0.5" stop-color="#4D55BD"/>
<stop offset="1" stop-color="#3940AB"/>
</linearGradient>
</defs>
</svg>