<svg xmlns="http://www.w3.org/2000/svg" width="16" height="16" viewBox="0 0 16 16" fill="none">
<g id="wecom-color[brand,logo,wecom,colourful,color,solid]">
<path id="Vector" d="M12.4791 6.78699C12.4446 6.47711 12.3903 6.1699 12.3165 5.86737C12.0207 4.80957 11.3822 3.8875 10.5069 3.25402C9.42884 2.43847 8.12529 1.99905 6.78694 2C6.48209 2 6.17723 2.0209 5.8927 2.0627C5.32286 2.1254 4.77491 2.27171 4.24572 2.50161C3.35913 2.86736 2.58111 3.46543 1.98902 4.23634C1.38549 5.00888 1.03984 5.96072 1.00324 6.95098C0.966636 7.94124 1.24102 8.91732 1.78579 9.73474C2.04999 10.1327 2.35484 10.488 2.70034 10.7798C2.74099 10.8224 2.76132 10.8642 2.76132 10.906C2.74099 11.0732 2.70034 11.2404 2.6597 11.4076C2.59873 11.6166 2.55808 11.8465 2.55808 12.0764C2.55808 12.2227 2.59873 12.369 2.68002 12.5153C2.90358 12.9333 3.43277 13.0595 3.81892 12.8288C4.20507 12.5997 4.59122 12.3481 4.97736 12.1182C5.00768 12.0996 5.0416 12.0881 5.07672 12.0845C5.11184 12.0809 5.1473 12.0852 5.1806 12.0973C5.6285 12.2018 6.09516 12.2854 6.56338 12.2854C7.06104 12.306 7.55929 12.2639 8.047 12.16C8.29166 12.0973 8.53555 12.0346 8.79975 11.9719L8.29166 11.2195H8.25102C7.90473 11.2822 7.55923 11.3867 7.19341 11.4076C6.45262 11.4705 5.707 11.3853 4.99769 11.1568C4.96783 11.1447 4.93559 11.1404 4.90372 11.144C4.87186 11.1476 4.84133 11.1592 4.81477 11.1777C4.46927 11.3867 4.12377 11.5957 3.77827 11.8256C3.63601 11.9092 3.51407 11.9928 3.35148 12.0764C3.3718 11.9928 3.3718 11.9301 3.3718 11.8883C3.4531 11.4494 3.53439 11.0314 3.63601 10.5925C3.65633 10.5298 3.63601 10.4671 3.57504 10.4462C3.24384 10.2071 2.94315 9.92625 2.68002 9.61015C2.32537 9.19891 2.06465 8.71131 1.91696 8.18304C1.76926 7.65478 1.73833 7.09923 1.82643 6.55708C1.94581 5.77462 2.30128 5.05053 2.84261 4.48714C3.30714 3.98425 3.86791 3.58574 4.4896 3.31672C5.03815 3.10317 5.61303 2.96951 6.19756 2.91962C6.59041 2.89524 6.98452 2.90223 7.37632 2.94052C7.78279 2.96142 8.18926 3.06592 8.57619 3.21222C9.40946 3.50483 10.1614 4.00644 10.7305 4.69695C11.137 5.15676 11.4019 5.72107 11.5434 6.32718C11.6052 6.57798 11.6255 6.84969 11.6662 7.10049L12.4994 7.2267C12.4994 7.07959 12.4994 6.93329 12.4791 6.78699Z" fill="#007AFF"/>
<path id="Vector_2" d="M9.75496 11.7211C9.55014 11.7211 9.3537 11.6374 9.20887 11.4885C9.06403 11.3395 8.98267 11.1375 8.98267 10.9269C8.98267 10.5716 9.22655 10.2581 9.55173 10.1536C9.71431 10.1118 9.89723 10.0909 10.0801 10.0282C10.4118 9.88098 10.7201 9.68344 10.9947 9.44215C11.0158 9.42125 11.0564 9.40035 11.0963 9.37945C11.1581 9.35855 11.219 9.35855 11.28 9.33765C11.28 9.40035 11.28 9.46305 11.2597 9.52575C11.2126 9.61402 11.1582 9.69793 11.0971 9.77655C10.8735 10.07 10.6906 10.4036 10.589 10.7806C10.5476 10.8851 10.5476 11.0105 10.5273 11.1359C10.4053 11.4703 10.1005 11.7211 9.75496 11.7211Z" fill="#FCD514"/>
<path id="Vector_3" d="M11.971 14C11.5645 14 11.1987 13.6656 11.1987 13.2476C11.1581 12.9132 11.0158 12.5997 10.8329 12.3272C10.7313 12.1809 10.6086 12.0346 10.5069 11.8674C10.4663 11.8047 10.446 11.7211 10.4663 11.6584C10.5273 11.5748 10.6289 11.6375 10.6898 11.7002C10.9142 11.8465 11.1377 12.0137 11.3816 12.16C11.6052 12.3063 11.8491 12.3899 12.1133 12.4317C12.2919 12.4552 12.4562 12.5445 12.5758 12.6829C12.6953 12.8214 12.7621 12.9997 12.7636 13.1849C12.7636 13.5611 12.5401 13.8955 12.1742 13.9791C12.093 14 12.032 14 11.971 14Z" fill="#FF6702"/>
<path id="Vector_4" d="M15 10.8852C14.9915 11.0915 14.9106 11.2877 14.7724 11.4375C14.6342 11.5873 14.4479 11.6807 14.248 11.7003C13.9603 11.74 13.6873 11.8551 13.4554 12.0347C13.2522 12.1601 13.0685 12.3064 12.8856 12.4527C12.8652 12.4736 12.8449 12.4945 12.8246 12.4945C12.784 12.5154 12.7433 12.4945 12.7027 12.4945C12.6823 12.4527 12.662 12.4109 12.6823 12.3691C12.723 12.2646 12.784 12.181 12.8449 12.0974C13.0888 11.7839 13.2717 11.4286 13.3944 11.0315C13.4351 10.9061 13.4351 10.7598 13.4757 10.6344C13.5302 10.453 13.6466 10.2981 13.8035 10.1982C13.9604 10.0983 14.1472 10.0602 14.3293 10.091C14.6748 10.1537 14.939 10.4254 14.9797 10.7807C14.9797 10.8225 15 10.8643 15 10.8852Z" fill="#0087FA"/>
<path id="Vector_5" d="M11.1784 8.60618C11.1784 8.18818 11.4833 7.85377 11.8897 7.81197C12.2962 7.77017 12.662 8.04187 12.723 8.45988C12.8043 8.96149 13.0278 9.4422 13.3741 9.81841C13.4351 9.90281 13.4757 9.96551 13.5164 10.0491C13.5367 10.0909 13.5367 10.1327 13.4961 10.1745C13.4847 10.1845 13.4703 10.19 13.4554 10.19C13.4405 10.19 13.4261 10.1845 13.4148 10.1745C13.3474 10.1525 13.285 10.117 13.2311 10.07C12.9451 9.82357 12.6226 9.62573 12.2759 9.484C12.1336 9.4422 11.971 9.4004 11.8084 9.3586C11.4223 9.3168 11.1784 8.98239 11.1784 8.60618Z" fill="#2AC402"/>
</g>
</svg>