<svg xmlns="http://www.w3.org/2000/svg" style="display: none;">
  <symbol id="icon-add-tiny" viewBox="0 0 16 16">
    <path stroke="currentColor" stroke-linecap="round" stroke-linejoin="round" d="M8 4v8M4 8h8"/>
  </symbol>
  <symbol id="icon-menu" viewBox="0 0 16 16">
    <path stroke="currentColor" stroke-linecap="round" stroke-linejoin="round" d="M2.5 2.5h11m-11 10h11m-11-5h11"/>
  </symbol>
  <symbol id="icon-search" viewBox="0 0 16 16">
    <path stroke="currentColor" stroke-linecap="round" d="m10.5 10.5 3 3m-2-7a5 5 0 1 1-10 0 5 5 0 0 1 10 0Z"/>
  </symbol>
  <symbol id="icon-settings" viewBox="0 0 16 16">
    <g stroke="currentColor" stroke-linecap="round" stroke-linejoin="round"><path d="M8 9.5a1.5 1.5 0 1 0 0-3 1.5 1.5 0 0 0 0 3"/><path d="M14.5 8.867V7.133l-1.887-.314a4.7 4.7 0 0 0-.52-1.246l1.112-1.56-1.218-1.222-1.56 1.111a4.7 4.7 0 0 0-1.246-.515L8.867 1.5H7.133L6.82 3.387a4.7 4.7 0 0 0-1.246.515l-1.56-1.11-1.222 1.221 1.111 1.56c-.23.389-.404.808-.515 1.246L1.5 7.133v1.734l1.887.314c.111.438.285.857.515 1.246l-1.11 1.56 1.221 1.222 1.56-1.111c.389.231.808.407 1.246.52l.314 1.882h1.734l.314-1.887a4.7 4.7 0 0 0 1.246-.52l1.56 1.112 1.222-1.218-1.111-1.56c.231-.388.407-.808.52-1.246z"/></g>
  </symbol>
  <symbol id="icon-trash" viewBox="0 0 16 16">
    <path stroke="currentColor" stroke-linecap="round" stroke-linejoin="round" d="M1.5 3.5h2m0 0v9a1 1 0 0 0 1 1h6a1 1 0 0 0 1-1v-9m-8 0h2m8 0h-2m0 0h-2m-4 0v-1a1 1 0 0 1 1-1h2a1 1 0 0 1 1 1v1m-4 0h4"/>
  </symbol>
</svg>