<svg xmlns="http://www.w3.org/2000/svg" width="16" height="16" viewBox="0 0 16 16" fill="none">
<g id="cogwheel-small[common,system,settings,control,preferences,tools,cog]">
<g id="Group">
<path id="Vector" d="M13.5 8.9V7.1L11.832 6.915C11.7474 6.6165 11.6283 6.32889 11.477 6.058L12.526 4.747L11.253 3.474L9.942 4.523C9.67111 4.37174 9.3835 4.2526 9.085 4.168L8.9 2.5H7.1L6.915 4.168C6.6165 4.2526 6.32889 4.37174 6.058 4.523L4.747 3.474L3.474 4.747L4.523 6.058C4.37174 6.32889 4.2526 6.6165 4.168 6.915L2.5 7.1V8.9L4.168 9.085C4.2526 9.3835 4.37174 9.67111 4.523 9.942L3.474 11.253L4.747 12.525L6.058 11.477C6.32889 11.6283 6.6165 11.7474 6.915 11.832L7.1 13.5H8.9L9.085 11.832C9.3835 11.7474 9.67111 11.6283 9.942 11.477L11.253 12.525L12.526 11.253L11.477 9.942C11.6283 9.67111 11.7474 9.3835 11.832 9.085L13.5 8.9Z" stroke="black" stroke-linecap="round" stroke-linejoin="round"/>
<path id="Vector_2" d="M8 9.5C8.82843 9.5 9.5 8.82843 9.5 8C9.5 7.17157 8.82843 6.5 8 6.5C7.17157 6.5 6.5 7.17157 6.5 8C6.5 8.82843 7.17157 9.5 8 9.5Z" stroke="black" stroke-linecap="round" stroke-linejoin="round"/>
</g>
</g>
</svg>