<svg xmlns="http://www.w3.org/2000/svg" width="16" height="16" viewBox="0 0 16 16" fill="none">
<g id="favorite[common,bookmark,favorite,like,review,rating]">
<g id="Group">
<path id="Vector" d="M12.64 4.40002C12.3746 4.11549 12.0536 3.8886 11.6968 3.73347C11.34 3.57835 10.9551 3.49829 10.566 3.49829C10.1769 3.49829 9.79203 3.57835 9.43523 3.73347C9.07842 3.8886 8.75736 4.11549 8.492 4.40002C8.29481 4.6141 8.12915 4.85519 8 5.11602C7.87079 4.85498 7.70476 4.61385 7.507 4.40002C7.24148 4.11575 6.92036 3.8891 6.56358 3.73414C6.2068 3.57918 5.82198 3.49922 5.433 3.49922C5.04402 3.49922 4.65919 3.57918 4.30241 3.73414C3.94563 3.8891 3.62451 4.11575 3.359 4.40002C2.80721 4.99004 2.50024 5.76769 2.50024 6.57552C2.50024 7.38335 2.80721 8.161 3.359 8.75102L8 13.5L12.64 8.75202C13.1932 8.1625 13.5011 7.38443 13.5011 6.57602C13.5011 5.7676 13.1932 4.98953 12.64 4.40002Z" stroke="black" stroke-linecap="round" stroke-linejoin="round"/>
</g>
</g>
</svg>