<svg xmlns="http://www.w3.org/2000/svg" width="16" height="16" viewBox="0 0 16 16" fill="none">
<g id="grip-vertical-small[common,dots,menu,circle,more,vertical]">
<path id="Vector" d="M6 8.5C6.27614 8.5 6.5 8.27614 6.5 8C6.5 7.72386 6.27614 7.5 6 7.5C5.72386 7.5 5.5 7.72386 5.5 8C5.5 8.27614 5.72386 8.5 6 8.5Z" stroke="black" stroke-linecap="round" stroke-linejoin="round"/>
<path id="Vector_2" d="M6 4.5C6.27614 4.5 6.5 4.27614 6.5 4C6.5 3.72386 6.27614 3.5 6 3.5C5.72386 3.5 5.5 3.72386 5.5 4C5.5 4.27614 5.72386 4.5 6 4.5Z" stroke="black" stroke-linecap="round" stroke-linejoin="round"/>
<path id="Vector_3" d="M6 12.5C6.27614 12.5 6.5 12.2761 6.5 12C6.5 11.7239 6.27614 11.5 6 11.5C5.72386 11.5 5.5 11.7239 5.5 12C5.5 12.2761 5.72386 12.5 6 12.5Z" stroke="black" stroke-linecap="round" stroke-linejoin="round"/>
<path id="Vector_4" d="M10 8.5C10.2761 8.5 10.5 8.27614 10.5 8C10.5 7.72386 10.2761 7.5 10 7.5C9.72386 7.5 9.5 7.72386 9.5 8C9.5 8.27614 9.72386 8.5 10 8.5Z" stroke="black" stroke-linecap="round" stroke-linejoin="round"/>
<path id="Vector_5" d="M10 4.5C10.2761 4.5 10.5 4.27614 10.5 4C10.5 3.72386 10.2761 3.5 10 3.5C9.72386 3.5 9.5 3.72386 9.5 4C9.5 4.27614 9.72386 4.5 10 4.5Z" stroke="black" stroke-linecap="round" stroke-linejoin="round"/>
<path id="Vector_6" d="M10 12.5C10.2761 12.5 10.5 12.2761 10.5 12C10.5 11.7239 10.2761 11.5 10 11.5C9.72386 11.5 9.5 11.7239 9.5 12C9.5 12.2761 9.72386 12.5 10 12.5Z" stroke="black" stroke-linecap="round" stroke-linejoin="round"/>
</g>
</svg>