<svg xmlns="http://www.w3.org/2000/svg" width="16" height="16" viewBox="0 0 16 16" fill="none">
<g id="share[common,network,share,connections,arrow]">
<g id="Group">
<path id="Vector" d="M10.5 2.5L13.5 5.5L10.5 8.5" stroke="black" stroke-linecap="round" stroke-linejoin="round"/>
<path id="Vector_2" d="M13.5 5.5H8.5C7.96957 5.5 7.46086 5.71071 7.08579 6.08579C6.71071 6.46086 6.5 6.96957 6.5 7.5V9.5" stroke="black" stroke-linecap="round" stroke-linejoin="round"/>
<path id="Vector_3" d="M12.5 10.5V12C12.5 12.3978 12.342 12.7794 12.0607 13.0607C11.7794 13.342 11.3978 13.5 11 13.5H4C3.60218 13.5 3.22064 13.342 2.93934 13.0607C2.65804 12.7794 2.5 12.3978 2.5 12V5C2.5 4.60218 2.65804 4.22064 2.93934 3.93934C3.22064 3.65804 3.60218 3.5 4 3.5H5.5" stroke="black" stroke-linecap="round" stroke-linejoin="round"/>
</g>
</g>
</svg>