<svg xmlns="http://www.w3.org/2000/svg" width="16" height="16" viewBox="0 0 16 16" fill="none">
<g id="star-solid[common,bookmark,favorite,like,review,rating,solid]">
<g id="Group">
<path id="Vector" d="M13.572 6.26998L10.032 5.75598L8.44799 2.54798C8.40211 2.46934 8.33641 2.4041 8.25746 2.35876C8.1785 2.31341 8.08904 2.28955 7.99799 2.28955C7.90694 2.28955 7.81748 2.31341 7.73853 2.35876C7.65957 2.4041 7.59388 2.46934 7.54799 2.54798L5.96799 5.75598L2.42799 6.26998C2.33564 6.2834 2.24889 6.32238 2.17755 6.38254C2.1062 6.44269 2.05312 6.52161 2.02429 6.61036C1.99547 6.69912 1.99206 6.79417 2.01445 6.88476C2.03684 6.97536 2.08414 7.05788 2.15099 7.12298L4.71299 9.62298L4.10699 13.149C4.09117 13.241 4.10143 13.3356 4.13661 13.4221C4.17179 13.5086 4.23048 13.5835 4.30604 13.6383C4.3816 13.6932 4.47101 13.7258 4.56414 13.7324C4.65727 13.7391 4.7504 13.7195 4.83299 13.676L7.99999 12.008L11.167 13.673C11.2384 13.7109 11.3181 13.7305 11.399 13.73C11.4719 13.7301 11.5439 13.7144 11.61 13.6838C11.6761 13.6532 11.7348 13.6085 11.7818 13.5529C11.8289 13.4973 11.8632 13.432 11.8824 13.3617C11.9016 13.2914 11.9052 13.2178 11.893 13.146L11.287 9.61998L13.849 7.11998C13.9158 7.05488 13.9631 6.97236 13.9855 6.88176C14.0079 6.79117 14.0045 6.69612 13.9757 6.60737C13.9469 6.51861 13.8938 6.43969 13.8224 6.37954C13.7511 6.31938 13.6643 6.2804 13.572 6.26698V6.26998Z" fill="black"/>
</g>
</g>
</svg>