<svg xmlns="http://www.w3.org/2000/svg" width="16" height="16" viewBox="0 0 16 16" fill="none">
<g id="member-accounts[user,account,profile,avatar,person,human,member,docment,book]">
<path id="Vector" d="M1.5 13V3.5C1.5 2.39543 2.39543 1.5 3.5 1.5H12.5C13.0523 1.5 13.5 1.94771 13.5 2.5V10.5C13.5 11.0523 13.0523 11.5 12.5 11.5H3C2.17157 11.5 1.5 12.1716 1.5 13ZM1.5 13C1.5 13.8284 2.17157 14.5 3 14.5H12.5C13.0523 14.5 13.5 14.0523 13.5 13.5V13" stroke="black" stroke-linecap="round" stroke-linejoin="round"/>
<path id="Vector_2" d="M6.5 5C6.5 5.82843 7.17157 6.5 8 6.5C8.82843 6.5 9.5 5.82843 9.5 5C9.5 4.17157 8.82843 3.5 8 3.5C7.17157 3.5 6.5 4.17157 6.5 5Z" fill="black" fill-opacity="0.25" stroke="black" stroke-linecap="round" stroke-linejoin="round"/>
<path id="Vector_3" d="M4.5 10.5V11.5H11.5V10.5C11.5 9.39543 10.6046 8.5 9.5 8.5H6.5C5.39543 8.5 4.5 9.39543 4.5 10.5Z" fill="black" fill-opacity="0.25" stroke="black" stroke-linecap="round" stroke-linejoin="round"/>
</g>
</svg>