<svg xmlns="http://www.w3.org/2000/svg" width="16" height="16" viewBox="0 0 16 16" fill="none">
<g id="organization-switch[organization,business,company,building,loading,loop,process,arrow,refresh]">
<path id="Vector" d="M4.5 12.5H6C7.38071 12.5 8.5 11.3807 8.5 10C8.5 9.18209 8.10722 8.45592 7.5 7.99982M5.5 7.5H4C2.61929 7.5 1.5 8.61929 1.5 10C1.5 10.8178 1.89267 11.5439 2.49976 12" stroke="black" stroke-linecap="round" stroke-linejoin="round"/>
<path id="Vector_2" d="M6.5 10.5L4.5 12.5L6.5 14.5" stroke="black" stroke-linecap="round" stroke-linejoin="round"/>
<path id="Vector_3" d="M3.5 5.5L5.5 7.5L3.5 9.5" stroke="black" stroke-linecap="round" stroke-linejoin="round"/>
<path id="Vector_4" d="M7.5 5.5V2.5C7.5 1.94771 7.94772 1.5 8.5 1.5H12.5C13.0523 1.5 13.5 1.94771 13.5 2.5V12.5C13.5 13.0523 13.0523 13.5 12.5 13.5H9.5" stroke="black" stroke-linecap="round" stroke-linejoin="round"/>
<path id="Vector_5" d="M9.5 5.5H9.505M9.5 3.5H9.505" stroke="black" stroke-linecap="round" stroke-linejoin="round"/>
<path id="Vector_6" d="M11.5 5.5H11.505M11.5 7.5H11.505M11.5 9.5H11.505M11.5 11.5H11.505M11.5 3.5H11.505" stroke="black" stroke-linecap="round" stroke-linejoin="round"/>
</g>
</svg>