<svg xmlns="http://www.w3.org/2000/svg" width="16" height="16" viewBox="0 0 16 16" fill="none">
<g id="organization-join[organization,business,company,building,arrow,right,import,input]">
<path id="Vector" d="M9.5 13.5H12.5C13.0523 13.5 13.5 13.0523 13.5 12.5V2.5C13.5 1.94771 13.0523 1.5 12.5 1.5H8.5C7.94772 1.5 7.5 1.94771 7.5 2.5V5.5M5.5 5.5H3.5C2.94772 5.5 2.5 5.94772 2.5 6.5V7.5M5.5 13.5H3.5C2.94772 13.5 2.5 13.0523 2.5 12.5V11.5" stroke="black" stroke-linecap="round" stroke-linejoin="round"/>
<path id="Vector_2" d="M9.5 5.5H9.505M9.5 3.5H9.505" stroke="black" stroke-linecap="round" stroke-linejoin="round"/>
<path id="Vector_3" d="M11.5 5.5H11.505M11.5 7.5H11.505M11.5 9.5H11.505M11.5 11.5H11.505M11.5 3.5H11.505" stroke="black" stroke-linecap="round" stroke-linejoin="round"/>
<path id="Vector_4" d="M7.5 7.5L9.5 9.5M9.5 9.5L7.5 11.5M9.5 9.5H1.5" stroke="black" stroke-linecap="round" stroke-linejoin="round"/>
</g>
</svg>