<svg xmlns="http://www.w3.org/2000/svg" width="16" height="16" viewBox="0 0 16 16" fill="none">
<g id="use-lock[user,account,profile,avatar,person,human,member,lock,security,safe,privacy]">
<path id="Vector" d="M3.5 4.5C3.5 2.84315 4.84315 1.5 6.5 1.5C8.15685 1.5 9.5 2.84315 9.5 4.5C9.5 6.15685 8.15685 7.5 6.5 7.5C4.84315 7.5 3.5 6.15685 3.5 4.5Z" stroke="black" stroke-linecap="round" stroke-linejoin="round"/>
<path id="Vector_2" d="M1.5 13.5V12.5C1.5 10.8432 2.84315 9.5 4.5 9.5H7.5" stroke="black" stroke-linecap="round" stroke-linejoin="round"/>
<path id="Vector_3" d="M13.5 10.5H10.5C9.94772 10.5 9.5 10.9477 9.5 11.5V13.5C9.5 14.0523 9.94772 14.5 10.5 14.5H13.5C14.0523 14.5 14.5 14.0523 14.5 13.5V11.5C14.5 10.9477 14.0523 10.5 13.5 10.5Z" fill="black" fill-opacity="0.25" stroke="black" stroke-linecap="round" stroke-linejoin="round"/>
<path id="Vector_4" d="M10.5 10V9C10.5 8.17157 11.1716 7.5 12 7.5C12.8284 7.5 13.5 8.17157 13.5 9V10" stroke="black" stroke-linecap="round" stroke-linejoin="round"/>
</g>
</svg>