<svg xmlns="http://www.w3.org/2000/svg" width="16" height="16" viewBox="0 0 16 16" fill="none">
<g id="record-duplicate[data,datasheet,table,record,duplicate,copy,clone,paste]">
<path id="Vector" d="M5.5 7.5V4.5C5.5 3.94772 5.94772 3.5 6.5 3.5H13.5C14.0523 3.5 14.5 3.94772 14.5 4.5V7.5C14.5 8.05228 14.0523 8.5 13.5 8.5H6.5C5.94772 8.5 5.5 8.05228 5.5 7.5Z" fill="black" fill-opacity="0.25"/>
<path id="Vector_2" d="M3.5 7.5H2.5C1.94771 7.5 1.5 7.94772 1.5 8.5V11.5C1.5 12.0523 1.94771 12.5 2.5 12.5H9.5C10.0523 12.5 10.5 12.0523 10.5 11.5V10.5M14.5 4.5V7.5C14.5 8.05228 14.0523 8.5 13.5 8.5H6.5C5.94772 8.5 5.5 8.05228 5.5 7.5V4.5C5.5 3.94772 5.94772 3.5 6.5 3.5H13.5C14.0523 3.5 14.5 3.94772 14.5 4.5Z" stroke="black" stroke-linecap="round" stroke-linejoin="round"/>
</g>
</svg>