<svg xmlns="http://www.w3.org/2000/svg" width="16" height="16" viewBox="0 0 16 16" fill="none">
<g id="toolbar-settings[data,datasheet,table,toolbar,control,preferences,system]">
<path id="Vector" d="M14.5 2.5H2.5C1.94771 2.5 1.5 2.94772 1.5 3.5V7.5C1.5 8.05228 1.94771 8.5 2.5 8.5H5.5" stroke="black" stroke-linecap="round"/>
<path id="Vector_2" d="M3.5 5.5H5.5" stroke="black" stroke-linecap="round"/>
<path id="Vector_3" d="M5.24998 12.25L7.99034 9.50963C8.2947 9.20527 8.36747 8.73814 8.26975 8.31895C8.10289 7.60311 8.04893 6.45105 8.99999 5.49999C10.5 3.99999 12.5 4.99999 12.5 4.99999L11.2071 6.29289C10.8166 6.68341 10.8166 7.31658 11.2071 7.7071L11.2929 7.79289C11.6834 8.18341 12.3166 8.18341 12.7071 7.79289L14 6.49999C14 6.49999 15 8.5 13.5 10C12.5489 10.9511 11.3969 10.8971 10.681 10.7302C10.2618 10.6325 9.79469 10.7053 9.49033 11.0096L6.74999 13.75C6.33578 14.1642 5.6642 14.1642 5.24999 13.75C4.83578 13.3358 4.83577 12.6642 5.24998 12.25Z" stroke="black" stroke-linecap="round" stroke-linejoin="round"/>
</g>
</svg>