<svg xmlns="http://www.w3.org/2000/svg" width="16" height="16" viewBox="0 0 16 16" fill="none">
<g id="view-duplicate[data,datasheet,table,view,duplicate,copy,clone,paste]">
<path id="Vector" d="M1.5 6.5V5.5C1.5 4.94772 1.94771 4.5 2.5 4.5H3.5M3.5 14.5H2.5C1.94771 14.5 1.5 14.0523 1.5 13.5V12.5M9.5 14.5H10.5C11.0523 14.5 11.5 14.0523 11.5 13.5V12.5M7.5 14.5H5.5M1.5 8.5V10.5" stroke="black" stroke-linecap="round" stroke-linejoin="round"/>
<path id="Vector_2" d="M6.5 1.5H13.5C14.0523 1.5 14.5 1.94771 14.5 2.5V9.5C14.5 10.0523 14.0523 10.5 13.5 10.5H6.5C5.94772 10.5 5.5 10.0523 5.5 9.5V2.5C5.5 1.94771 5.94772 1.5 6.5 1.5Z" stroke="black" stroke-linecap="round" stroke-linejoin="round"/>
</g>
</svg>