<svg xmlns="http://www.w3.org/2000/svg" width="16" height="16" viewBox="0 0 16 16" fill="none">
<g id="empty-survey[flash-screen,empty,file,document,page,draft,item,sheet,content,data,survey,form]">
<path id="Vector" d="M4.5 7.5C4.5 8.05228 4.94772 8.5 5.5 8.5C6.05228 8.5 6.5 8.05228 6.5 7.5C6.5 6.94772 6.05228 6.5 5.5 6.5C4.94772 6.5 4.5 6.94772 4.5 7.5Z" fill="black" fill-opacity="0.25"/>
<path id="Vector_2" d="M4.5 11.5C4.5 12.0523 4.94772 12.5 5.5 12.5C6.05228 12.5 6.5 12.0523 6.5 11.5C6.5 10.9477 6.05228 10.5 5.5 10.5C4.94772 10.5 4.5 10.9477 4.5 11.5Z" fill="black" fill-opacity="0.25"/>
<path id="Vector_3" d="M8.5 7.5H10.5M8.5 11.5H10.5M5.5 8.5C4.94772 8.5 4.5 8.05228 4.5 7.5C4.5 6.94772 4.94772 6.5 5.5 6.5C6.05228 6.5 6.5 6.94772 6.5 7.5C6.5 8.05228 6.05228 8.5 5.5 8.5ZM5.5 12.5C4.94772 12.5 4.5 12.0523 4.5 11.5C4.5 10.9477 4.94772 10.5 5.5 10.5C6.05228 10.5 6.5 10.9477 6.5 11.5C6.5 12.0523 6.05228 12.5 5.5 12.5Z" stroke="black" stroke-linecap="round" stroke-linejoin="round"/>
<path id="Vector_4" d="M8.5 1.5H3.5C2.94772 1.5 2.5 1.94772 2.5 2.5V13.5C2.5 14.0523 2.94772 14.5 3.5 14.5H11.5C12.0523 14.5 12.5 14.0523 12.5 13.5V5.5M8.5 1.5L12.5 5.5M8.5 1.5V4.5C8.5 5.05228 8.94772 5.5 9.5 5.5H12.5" stroke="black" stroke-linecap="round" stroke-linejoin="round"/>
</g>
</svg>