<svg xmlns="http://www.w3.org/2000/svg" width="16" height="16" viewBox="0 0 16 16" fill="none">
<g id="empty-workflow[flash-screen,empty,workflow,intelligence]">
<path id="Vector" d="M10.5 4.5H4.5C3.94772 4.5 3.5 4.94772 3.5 5.5V7.5C3.5 8.05228 3.94772 8.5 4.5 8.5H10.5C11.0523 8.5 11.5 8.05228 11.5 7.5V5.5C11.5 4.94772 11.0523 4.5 10.5 4.5Z" fill="black" fill-opacity="0.25" stroke="black" stroke-linecap="round" stroke-linejoin="round"/>
<path id="Vector_2" d="M5.5 6.5H9.5" stroke="black" stroke-linecap="round" stroke-linejoin="round"/>
<path id="Vector_3" d="M6 12.5H1C0.723858 12.5 0.5 12.7239 0.5 13V15C0.5 15.2761 0.723858 15.5 1 15.5H6C6.27614 15.5 6.5 15.2761 6.5 15V13C6.5 12.7239 6.27614 12.5 6 12.5Z" stroke="black" stroke-linecap="round" stroke-linejoin="round"/>
<path id="Vector_4" d="M14 12.5H9C8.72386 12.5 8.5 12.7239 8.5 13V15C8.5 15.2761 8.72386 15.5 9 15.5H14C14.2761 15.5 14.5 15.2761 14.5 15V13C14.5 12.7239 14.2761 12.5 14 12.5Z" stroke="black" stroke-linecap="round" stroke-linejoin="round"/>
<path id="Vector_5" d="M7.5 0.5V2.5M13 3L14.5 1.5M2 3L0.5 1.5" stroke="black" stroke-linecap="round"/>
<path id="Vector_6" d="M3.5 12.5V11.5C3.5 10.9477 3.94772 10.5 4.5 10.5H7.5M7.5 10.5H10.5C11.0523 10.5 11.5 10.9477 11.5 11.5V12.5M7.5 10.5V8.5" stroke="black" stroke-linecap="round" stroke-linejoin="round"/>
</g>
</svg>