<svg xmlns="http://www.w3.org/2000/svg" width="16" height="16" viewBox="0 0 16 16" fill="none">
<g id="empty-group[flash-screen,empty,group,check]">
<path id="Vector" d="M1.5 6.5V8.5C1.5 9.05228 1.94772 9.5 2.5 9.5H12.5C13.0523 9.5 13.5 9.05228 13.5 8.5V6.5" stroke="black" stroke-linecap="round" stroke-linejoin="round"/>
<path id="Vector_2" d="M3.5 6.5L4.5 7.5L6.5 5.5M8.5 6.5H11.5" stroke="black" stroke-linecap="round" stroke-linejoin="round"/>
<path id="Vector_3" d="M13.5 14.5V12.5C13.5 11.9477 13.0523 11.5 12.5 11.5H2.5C1.94772 11.5 1.5 11.9477 1.5 12.5V14.5" stroke="black" stroke-linecap="round" stroke-linejoin="round"/>
<path id="Vector_4" d="M3.5 14.5L4.5 15.5L6.5 13.5M8.5 14.5H11.5" stroke="black" stroke-linecap="round" stroke-linejoin="round"/>
<path id="Vector_5" d="M7.5 0.5V2.5M13 3L14.5 1.5M2 3L0.5 1.5" stroke="black" stroke-linecap="round"/>
</g>
</svg>