<svg xmlns="http://www.w3.org/2000/svg" width="16" height="16" viewBox="0 0 16 16" fill="none">
<g id="empty-image[flash-screen,empty,image,photo,picture,media,gallery,graphic]">
<path id="Vector" d="M7.5 0.5V2.5M13 3L14.5 1.5M2 3L0.5 1.5" stroke="black" stroke-linecap="round"/>
<path id="Vector_2" d="M2.5 7.5C2.5 6.39543 3.39543 5.5 4.5 5.5H10.5C11.6046 5.5 12.5 6.39543 12.5 7.5V13.5C12.5 14.6046 11.6046 15.5 10.5 15.5H4.5C3.39543 15.5 2.5 14.6046 2.5 13.5V7.5Z" stroke="black"/>
<path id="Vector_3" d="M6 8C6 7.44772 5.55228 7 5 7C4.44772 7 4 7.44772 4 8C4 8.55228 4.44772 9 5 9C5.55228 9 6 8.55228 6 8Z" fill="black"/>
<path id="Vector_4" d="M3 15L9.5 8.5L12.5 10.5" stroke="black" stroke-linejoin="round"/>
</g>
</svg>