<svg xmlns="http://www.w3.org/2000/svg" width="16" height="16" viewBox="0 0 16 16" fill="none">
<g id="empty-chart[flash-screen,empty,bar,chart,diagram]">
<path id="Vector" d="M7.5 0.5V2.5M13 3L14.5 1.5M2 3L0.5 1.5" stroke="black" stroke-linecap="round"/>
<path id="Vector_2" d="M8 4.5H7C6.72386 4.5 6.5 4.72386 6.5 5V13C6.5 13.2761 6.72386 13.5 7 13.5H8C8.27614 13.5 8.5 13.2761 8.5 13V5C8.5 4.72386 8.27614 4.5 8 4.5Z" fill="black" fill-opacity="0.25" stroke="black" stroke-linecap="round" stroke-linejoin="round"/>
<path id="Vector_3" d="M3 7.5H2C1.72386 7.5 1.5 7.72386 1.5 8V13C1.5 13.2761 1.72386 13.5 2 13.5H3C3.27614 13.5 3.5 13.2761 3.5 13V8C3.5 7.72386 3.27614 7.5 3 7.5Z" stroke="black" stroke-linejoin="round"/>
<path id="Vector_4" d="M13 5.5H12C11.7239 5.5 11.5 5.72386 11.5 6V13C11.5 13.2761 11.7239 13.5 12 13.5H13C13.2761 13.5 13.5 13.2761 13.5 13V6C13.5 5.72386 13.2761 5.5 13 5.5Z" stroke="black" stroke-linejoin="round"/>
<path id="Vector_5" d="M0.5 15.5H14.5" stroke="black" stroke-linecap="round" stroke-linejoin="round"/>
</g>
</svg>