<svg xmlns="http://www.w3.org/2000/svg" width="16" height="16" viewBox="0 0 16 16" fill="none">
<g id="warning-not-found[flash-screen,warning,404]">
<path id="Vector" d="M8.5 4.5H7.5C6.94772 4.5 6.5 4.94772 6.5 5.5V10.5C6.5 11.0523 6.94772 11.5 7.5 11.5H8.5C9.05228 11.5 9.5 11.0523 9.5 10.5V5.5C9.5 4.94772 9.05228 4.5 8.5 4.5Z" fill="black" fill-opacity="0.25" stroke="black" stroke-linecap="round" stroke-linejoin="round"/>
<path id="Vector_2" d="M3.5 6.5V9.5M3.5 9.5V11.5M3.5 9.5H0.5L2.5 4.5M3.5 9.5H4.5" stroke="black" stroke-linecap="round" stroke-linejoin="round"/>
<path id="Vector_3" d="M14.5 6.5V9.5M14.5 9.5V11.5M14.5 9.5H11.5L13.5 4.5M14.5 9.5H15.5" stroke="black" stroke-linecap="round" stroke-linejoin="round"/>
<path id="Vector_4" d="M0.5 2.5H15.5M0.5 13.5H15.5" stroke="black" stroke-linecap="round" stroke-linejoin="round"/>
</g>
</svg>