<svg xmlns="http://www.w3.org/2000/svg" width="16" height="16" viewBox="0 0 16 16" fill="none">
<g id="action-get-records-from-linked-records[workflow,action,arrow,right,input,import,output]">
<path id="Vector" d="M10.5 5.5H14.5" stroke="black" stroke-linecap="round" stroke-linejoin="round"/>
<path id="Vector_2" d="M10.5 10.5H14.5" stroke="black" stroke-linecap="round" stroke-linejoin="round"/>
<path id="Vector_3" d="M8.5 4.5H10.5V6.5H8.5V4.5Z" fill="black" fill-opacity="0.25" stroke="black" stroke-linecap="round" stroke-linejoin="round"/>
<path id="Vector_4" d="M8.5 9.5H10.5V11.5H8.5V9.5Z" fill="black" fill-opacity="0.25" stroke="black" stroke-linecap="round" stroke-linejoin="round"/>
<path id="Vector_5" d="M1.5 10.5H6.5M6.5 10.5L4.5 8.5M6.5 10.5L4.5 12.5" stroke="black" stroke-linecap="round" stroke-linejoin="round"/>
<path id="Vector_6" d="M12.5 12.5V13.5C12.5 14.0523 12.0523 14.5 11.5 14.5H3.5C2.94772 14.5 2.5 14.0523 2.5 13.5V12.5M2.5 8.5V2.5C2.5 1.94771 2.94772 1.5 3.5 1.5H11.5C12.0523 1.5 12.5 1.94771 12.5 2.5V3.5M12.5 8.5V7.5" stroke="black" stroke-linecap="round" stroke-linejoin="round"/>
</g>
</svg>