<svg xmlns="http://www.w3.org/2000/svg" width="16" height="16" viewBox="0 0 16 16" fill="none">
<g id="action-http-request[workflow,action,url]">
<path id="Vector" d="M3.5 5.5V8.5C3.5 9.05228 3.94772 9.5 4.5 9.5C5.05228 9.5 5.5 9.05228 5.5 8.5V5.5M7.5 7.5V5.5H8.5C9.05228 5.5 9.5 5.94772 9.5 6.5C9.5 7.05228 9.05228 7.5 8.5 7.5M7.5 7.5V9.5M7.5 7.5H8.5M8.5 7.5L9.5 9.5M11.5 5.5V9.5H14.5V12.5C14.5 13.0523 14.0523 13.5 13.5 13.5H2.5C1.94771 13.5 1.5 13.0523 1.5 12.5V3.5C1.5 2.94772 1.94771 2.5 2.5 2.5H13.5C14.0523 2.5 14.5 2.94772 14.5 3.5V7.5" stroke="black" stroke-linecap="round" stroke-linejoin="round"/>
<path id="Vector_2" d="M3.5 11.5H12.5" stroke="black" stroke-opacity="0.25" stroke-linecap="round" stroke-linejoin="round"/>
</g>
</svg>