<svg xmlns="http://www.w3.org/2000/svg" width="16" height="16" viewBox="0 0 16 16" fill="none">
<g id="bin-solid[workflow,nodes,solid,trash,clear,remove,delete]">
<path id="Vector" fill-rule="evenodd" clip-rule="evenodd" d="M6 3C6 2.44771 6.44772 2 7 2H9C9.55228 2 10 2.44771 10 3V4H13C13.5523 4 14 4.44772 14 5C14 5.55228 13.5523 6 13 6H3C2.44772 6 2 5.55228 2 5C2 4.44772 2.44771 4 3 4H6V3ZM4.11849 7.17681C4.21349 7.06467 4.35302 7 4.5 7H11.5C11.647 7 11.7865 7.06467 11.8815 7.17681C11.9765 7.28896 12.0174 7.43722 11.9932 7.5822L11.1325 12.7466C11.0119 13.4699 10.3861 14 9.65287 14H6.34713C5.61387 14 4.98808 13.4699 4.86754 12.7466L4.0068 7.5822C3.98264 7.43722 4.02349 7.28896 4.11849 7.17681Z" fill="black"/>
</g>
</svg>