<svg xmlns="http://www.w3.org/2000/svg" width="16" height="16" viewBox="0 0 16 16" fill="none">
<g id="circle-skip-solid[circle,solid,arrow,right,control]">
<path id="Vector" fill-rule="evenodd" clip-rule="evenodd" d="M8 0C3.6 0 0 3.6 0 8C0 12.4 3.6 16 8 16C12.4 16 16 12.4 16 8C16 3.6 12.4 0 8 0ZM11.2071 4.79289C10.8166 4.40237 10.1834 4.40237 9.79289 4.79289C9.40237 5.18342 9.40237 5.81658 9.79289 6.20711L10.5858 7H7C6.44772 7 6 7.44772 6 8C6 8.55229 6.44772 9 7 9H10.5858L9.79289 9.79289C9.40237 10.1834 9.40237 10.8166 9.79289 11.2071C10.1834 11.5976 10.8166 11.5976 11.2071 11.2071L13.7071 8.70711C14.0976 8.31658 14.0976 7.68342 13.7071 7.29289L11.2071 4.79289ZM3 9C2.44772 9 2 8.55228 2 8C2 7.44772 2.44772 7 3 7C3.55228 7 4 7.44772 4 8C4 8.55228 3.55228 9 3 9Z" fill="black"/>
</g>
</svg>