<svg xmlns="http://www.w3.org/2000/svg" width="16" height="16" viewBox="0 0 16 16" fill="none">
<g id="publish[workflow,spaceship,rocket,space]">
<path id="Vector" d="M3.58733 10.7792C2.77183 11.4648 2.5 13.5 2.5 13.5C2.5 13.5 4.5333 13.2279 5.21831 12.4117C5.60432 11.9546 5.59888 11.2526 5.16938 10.8281C4.95807 10.6263 4.6797 10.5096 4.38772 10.5006C4.09574 10.4915 3.8107 10.5907 3.58733 10.7792Z" fill="black" fill-opacity="0.25" stroke="black" stroke-linecap="round" stroke-linejoin="round"/>
<path id="Vector_2" d="M7.5 10.5L5.5 8.49999C6.75362 5.24765 10.0066 2.47795 13.5833 2.50013C13.5833 6.08407 10.7827 9.25148 7.5 10.5Z" stroke="black" stroke-linecap="round" stroke-linejoin="round"/>
<path id="Vector_3" d="M5.5 8.5H2.5C2.5 8.5 2.5 6.14 3.5 5.64C4.5 5.14 6.5 6.14 6.5 6.14" stroke="black" stroke-linecap="round" stroke-linejoin="round"/>
<path id="Vector_4" d="M7.5 10.5V13.5C7.5 13.5 9.86 13.5 10.36 12.5C10.86 11.5 9.86 9.5 9.86 9.5" stroke="black" stroke-linecap="round" stroke-linejoin="round"/>
<path id="Vector_5" d="M10.5 5.5H10.505" stroke="black" stroke-linecap="round" stroke-linejoin="round"/>
</g>
</svg>