<svg xmlns="http://www.w3.org/2000/svg" width="16" height="16" viewBox="0 0 16 16" fill="none">
<g id="feishu-color[brand,logo,feishu,colourful,color,solid]">
<path id="Vector" d="M8.23637 7.95145L8.26615 7.92235C8.2851 7.90329 8.30574 7.88322 8.32604 7.86415L8.36732 7.82501L8.48914 7.70594L8.65664 7.54505L8.79876 7.40556L8.93242 7.27511L9.07183 7.13864L9.19974 7.01388L9.37908 6.83994C9.41258 6.80649 9.44777 6.77438 9.48296 6.74261C9.5476 6.6844 9.61493 6.62788 9.68261 6.57268C9.8348 6.45376 9.99462 6.34471 10.1611 6.24622C10.2568 6.19103 10.355 6.13885 10.4548 6.08935C10.6025 6.01865 10.7545 5.95721 10.9099 5.90538C10.938 5.89635 10.9658 5.88631 10.9952 5.87762C10.7474 4.91328 10.2934 4.01266 9.66366 3.23648C9.60329 3.16267 9.52699 3.10312 9.44034 3.0622C9.35369 3.02129 9.25888 3.00003 9.16286 3H4.01744C3.99706 3 3.97721 3.00635 3.96071 3.01815C3.9442 3.02996 3.93189 3.0466 3.92551 3.06573C3.91914 3.08485 3.91903 3.10548 3.92521 3.12467C3.93139 3.14386 3.94353 3.16063 3.95991 3.1726C5.71623 4.44532 7.17151 6.08041 8.22486 7.9645L8.23637 7.95145Z" fill="#00D6B9"/>
<path id="Vector_2" d="M6.19119 12.4283C8.84849 12.4283 11.1637 10.9786 12.3704 8.8365C12.413 8.76091 12.4539 8.68565 12.4935 8.60871C12.413 8.76311 12.3182 8.9098 12.2103 9.0469C12.1484 9.12541 12.0828 9.20098 12.0137 9.27334C11.9186 9.37237 11.8155 9.46354 11.7054 9.54595C11.6603 9.58061 11.6138 9.61353 11.566 9.64463C11.505 9.68528 11.4423 9.72355 11.3782 9.75936C11.1909 9.86294 10.9916 9.9438 10.7847 10.0002C10.6811 10.029 10.5758 10.0514 10.4693 10.0671C10.3929 10.0788 10.3137 10.0872 10.2359 10.0932C10.1536 10.0989 10.07 10.1005 9.98613 10.1005C9.89296 10.099 9.79992 10.0932 9.7073 10.0831C9.63798 10.0756 9.56892 10.0659 9.50021 10.054C9.43967 10.0435 9.37951 10.0309 9.31986 10.0162C9.28737 10.0089 9.25658 10.0002 9.22443 9.99149C9.13617 9.96792 9.04807 9.94373 8.96016 9.91891C8.91617 9.90586 8.87218 9.89449 8.82954 9.88145C8.76408 9.86248 8.69888 9.84264 8.63396 9.82191C8.58117 9.80585 8.52838 9.78846 8.4756 9.77107C8.42552 9.75501 8.37408 9.73895 8.32434 9.72156L8.22147 9.68677L8.09695 9.64329L8.00897 9.61151C7.95034 9.59108 7.89202 9.56978 7.83403 9.54763C7.80019 9.53425 7.76635 9.52287 7.73251 9.50983L7.59784 9.45765L7.45538 9.40079L7.36266 9.36332L7.24829 9.31649L7.16031 9.2807L7.06895 9.24123L6.98977 9.20645L6.91803 9.17467L6.8446 9.14122L6.76982 9.10643L6.67439 9.06295L6.57457 9.01612C6.53938 8.99906 6.50385 8.98301 6.46866 8.96561L6.37933 8.92213C4.79998 8.143 3.37374 7.09188 2.1675 5.81807C2.15418 5.80421 2.13697 5.7946 2.11809 5.79047C2.09921 5.78635 2.07951 5.78788 2.06152 5.79489C2.04352 5.8019 2.02806 5.81405 2.0171 5.8298C2.00614 5.84555 2.00018 5.86418 2 5.88329L2.00305 10.3721V10.7364C2.00305 10.9481 2.10862 11.1455 2.28627 11.2632C3.442 12.0263 4.80137 12.4316 6.19119 12.4283Z" fill="#3370FF"/>
<path id="Vector_3" d="M14 6.10096C13.0646 5.64793 11.9889 5.56746 10.9952 5.87619C10.9671 5.88488 10.939 5.89358 10.9099 5.90362C10.6496 5.99226 10.3988 6.10597 10.1611 6.24312C10.0629 6.29999 9.96854 6.36086 9.87616 6.42609C9.73799 6.52168 9.60651 6.62639 9.48262 6.73951C9.44743 6.77162 9.41393 6.80339 9.3784 6.83651L9.1994 7.01078L9.07183 7.13588L8.93241 7.27201L8.79875 7.40246L8.65629 7.54195L8.49049 7.70451L8.36867 7.82359L8.32739 7.86272C8.30768 7.88249 8.2876 7.90189 8.26716 7.92092L8.23772 7.95002L8.19237 7.99183L8.14094 8.03866C7.69829 8.44027 7.20597 8.78485 6.67575 9.06421L6.77117 9.10769L6.84629 9.14281L6.91972 9.17626L6.99146 9.20804L7.07064 9.24283L7.162 9.28196L7.24998 9.31842L7.36436 9.36491L7.45673 9.40238L7.59919 9.45924C7.64318 9.47663 7.68886 9.49403 7.73455 9.51142C7.76838 9.52447 7.80188 9.53584 7.83572 9.54922C7.89426 9.57096 7.95314 9.59103 8.01033 9.61277L8.0983 9.64488C8.13959 9.65927 8.18053 9.67398 8.22351 9.68837L8.32603 9.72315C8.37578 9.73921 8.42586 9.7566 8.47729 9.77266C8.53008 9.79005 8.58287 9.80611 8.63565 9.8235C8.70028 9.84357 8.76627 9.86264 8.8309 9.88271C8.96209 9.92103 9.09373 9.95782 9.22579 9.99309C9.25827 10.0018 9.28907 10.0091 9.32121 10.0178C9.38145 10.0322 9.44168 10.0439 9.50191 10.0556C9.57094 10.067 9.63997 10.0774 9.709 10.0844C9.96256 10.1134 10.2189 10.108 10.471 10.0683C10.5766 10.0526 10.6822 10.0295 10.7864 10.0018C10.9197 9.96578 11.0498 9.91925 11.1755 9.86264C11.2793 9.81634 11.3799 9.76349 11.4767 9.70442C11.5088 9.68536 11.5379 9.66529 11.5674 9.64622C11.6144 9.61444 11.6615 9.58267 11.7068 9.54755C11.7464 9.51845 11.7846 9.48801 11.8215 9.45623C11.9648 9.33347 12.0951 9.19675 12.2106 9.04815C12.3167 8.91097 12.411 8.7653 12.4925 8.61265L12.5612 8.47818L13.175 7.26934L13.1821 7.25462C13.383 6.82493 13.66 6.43423 14 6.10096Z" fill="#133C9A"/>
</g>
</svg>