<svg xmlns="http://www.w3.org/2000/svg" width="16" height="16" viewBox="0 0 16 16" fill="none">
<g id="google[brand,logo,google,solid]">
<g id="Clip path group">
<mask id="mask0_47_678" maskUnits="userSpaceOnUse" x="0" y="0" width="16" height="16" mask-type="luminance">
<g id="clip0_1776_8">
<path id="Vector" d="M16 0H0V16H16V0Z" fill="white"/>
</g>
</mask>
<g mask="url(#mask0_47_678)">
<g id="Group">
<path id="Vector_2" d="M15.0333 6.66665H8.03332V9.66665H12C11.3667 11.6666 9.79999 12.3333 7.99999 12.3333C7.303 12.3342 6.61608 12.167 5.9975 11.8458C5.37892 11.5246 4.84695 11.059 4.44671 10.4883C4.04648 9.91773 3.78979 9.25899 3.69842 8.56801C3.60706 7.87704 3.68372 7.17422 3.9219 6.51919C4.16007 5.86415 4.55274 5.27624 5.06658 4.80532C5.58042 4.33441 6.20028 3.99439 6.87355 3.81411C7.54682 3.63384 8.25364 3.61862 8.93405 3.76976C9.61446 3.92091 10.2484 4.23394 10.782 4.68232L12.962 2.60632C12.0841 1.79861 11.0225 1.2173 9.86908 0.912824C8.71569 0.608349 7.50543 0.589904 6.3433 0.85909C5.18117 1.12828 4.10228 1.67696 3.20022 2.45754C2.29817 3.23812 1.6002 4.22702 1.16689 5.33844C0.733568 6.44985 0.577985 7.65021 0.713636 8.83537C0.849287 10.0205 1.27207 11.1547 1.94532 12.1395C2.61856 13.1242 3.52192 13.9298 4.57702 14.4864C5.63212 15.043 6.80709 15.3337 7.99999 15.3333C12.0437 15.3333 15.7 12.6666 15.0333 6.66665Z" fill="black"/>
</g>
</g>
</g>
</g>
</svg>