<svg xmlns="http://www.w3.org/2000/svg" width="16" height="16" viewBox="0 0 16 16" fill="none">
<g id="google-color[brand,logo,google,colourful,color,solid]">
<g id="Clip path group">
<mask id="mask0_47_695" maskUnits="userSpaceOnUse" x="0" y="0" width="16" height="16" mask-type="luminance">
<g id="clip0_1776_2">
<path id="Vector" d="M16 0H0V16H16V0Z" fill="white"/>
</g>
</mask>
<g mask="url(#mask0_47_695)">
<g id="Group">
<path id="Vector_2" d="M8 3.66667C9.01818 3.66604 10.0037 4.02585 10.782 4.68233L12.962 2.60633C12.1252 1.8347 11.12 1.26873 10.0262 0.953354C8.93249 0.637976 7.78029 0.581867 6.66108 0.789481C5.54187 0.997094 4.48645 1.46271 3.57859 2.14939C2.67073 2.83607 1.93542 3.72489 1.431 4.74533L3.88867 6.63967C4.17529 5.77536 4.72659 5.02315 5.46447 4.48957C6.20235 3.95599 7.08941 3.66809 8 3.66667Z" fill="#D94F3D"/>
<path id="Vector_3" d="M3.66665 7.99997C3.66727 7.53755 3.74223 7.07825 3.88865 6.63963L1.43099 4.7453C0.928272 5.7566 0.666656 6.87061 0.666656 7.99997C0.666656 9.12933 0.928272 10.2433 1.43099 11.2546L3.88865 9.3603C3.74223 8.92168 3.66727 8.46238 3.66665 7.99997Z" fill="#F2C042"/>
<path id="Vector_4" d="M15.0333 6.66669H8.03333V9.66669H12C11.764 10.5149 11.2234 11.2463 10.4817 11.7207L12.9203 13.6007C14.4787 12.202 15.3943 9.92769 15.0333 6.66669Z" fill="#5085ED"/>
<path id="Vector_5" d="M10.4807 11.7207C9.72701 12.152 8.86782 12.3642 8 12.3334C7.08941 12.3319 6.20235 12.044 5.46447 11.5105C4.72659 10.9769 4.17529 10.2247 3.88867 9.36035L1.431 11.2547C2.03805 12.4784 2.97448 13.5084 4.13498 14.229C5.29548 14.9495 6.634 15.332 8 15.3334C9.79745 15.3822 11.5495 14.7648 12.9193 13.6L10.4807 11.7207Z" fill="#57A75C"/>
</g>
</g>
</g>
</g>
</svg>