<svg xmlns="http://www.w3.org/2000/svg" width="16" height="16" viewBox="0 0 16 16" fill="none">
<g id="slack-color[brand,logo,slack,colourful,color,solid]">
<g id="Clip path group">
<mask id="mask0_47_704" maskUnits="userSpaceOnUse" x="0" y="0" width="16" height="16" mask-type="luminance">
<g id="clip0_1776_11">
<path id="Vector" d="M16 0H0V16H16V0Z" fill="white"/>
</g>
</mask>
<g mask="url(#mask0_47_704)">
<g id="Group">
<path id="Vector_2" d="M6.04433 0.666687C5.65535 0.666687 5.2823 0.82121 5.00724 1.09626C4.73219 1.37132 4.57767 1.74437 4.57767 2.13335C4.57767 2.52234 4.73219 2.89539 5.00724 3.17044C5.2823 3.4455 5.65535 3.60002 6.04433 3.60002H7.511V2.13335C7.511 1.74437 7.35648 1.37132 7.08142 1.09626C6.80637 0.82121 6.43332 0.666687 6.04433 0.666687Z" fill="#36C5F0"/>
<path id="Vector_3" d="M6.04432 4.57764H2.13332C1.74434 4.57764 1.37129 4.73216 1.09623 5.00721C0.82118 5.28227 0.666656 5.65532 0.666656 6.0443C0.666656 6.43329 0.82118 6.80634 1.09623 7.08139C1.37129 7.35645 1.74434 7.51097 2.13332 7.51097H6.04466C6.43364 7.51097 6.80669 7.35645 7.08175 7.08139C7.3568 6.80634 7.51132 6.43329 7.51132 6.0443C7.51132 5.65532 7.3568 5.28227 7.08175 5.00721C6.80669 4.73216 6.4333 4.57764 6.04432 4.57764Z" fill="#36C5F0"/>
<path id="Vector_4" d="M15.3333 6.04467C15.3333 5.65569 15.1788 5.28263 14.9038 5.00758C14.6287 4.73253 14.2556 4.578 13.8667 4.578C13.4777 4.578 13.1046 4.73253 12.8296 5.00758C12.5545 5.28263 12.4 5.65569 12.4 6.04467V7.51134H13.8667C14.2556 7.51134 14.6287 7.35681 14.9038 7.08176C15.1788 6.80671 15.3333 6.43365 15.3333 6.04467Z" fill="#2EB67D"/>
<path id="Vector_5" d="M11.4223 6.04469V2.13335C11.4223 1.74437 11.2678 1.37132 10.9928 1.09626C10.7177 0.82121 10.3447 0.666687 9.95568 0.666687C9.5667 0.666687 9.19364 0.82121 8.91859 1.09626C8.64354 1.37132 8.48901 1.74437 8.48901 2.13335V6.04435C8.48901 6.43334 8.64354 6.80639 8.91859 7.08144C9.19364 7.3565 9.5667 7.51102 9.95568 7.51102C10.3447 7.51102 10.7177 7.3565 10.9928 7.08144C11.2678 6.80639 11.4223 6.43368 11.4223 6.04469Z" fill="#2EB67D"/>
<path id="Vector_6" d="M9.95534 15.3334C10.3443 15.3334 10.7174 15.1788 10.9924 14.9038C11.2675 14.6287 11.422 14.2557 11.422 13.8667C11.422 13.4777 11.2675 13.1047 10.9924 12.8296C10.7174 12.5545 10.3443 12.4 9.95534 12.4H8.48868V13.8667C8.48868 14.2557 8.6432 14.6287 8.91825 14.9038C9.19331 15.1788 9.56636 15.3334 9.95534 15.3334Z" fill="#ECB22E"/>
<path id="Vector_7" d="M9.95534 11.4223H13.8667C14.2557 11.4223 14.6287 11.2678 14.9038 10.9928C15.1788 10.7177 15.3333 10.3447 15.3333 9.95568C15.3333 9.5667 15.1788 9.19364 14.9038 8.91859C14.6287 8.64354 14.2557 8.48901 13.8667 8.48901H9.95534C9.56636 8.48901 9.19331 8.64354 8.91825 8.91859C8.6432 9.19364 8.48868 9.5667 8.48868 9.95568C8.48868 10.3447 8.6432 10.7177 8.91825 10.9928C9.19331 11.2678 9.56636 11.4223 9.95534 11.4223Z" fill="#ECB22E"/>
<path id="Vector_8" d="M0.666656 9.95531C0.666656 10.3443 0.82118 10.7174 1.09623 10.9924C1.37129 11.2675 1.74434 11.422 2.13332 11.422C2.52231 11.422 2.89536 11.2675 3.17041 10.9924C3.44547 10.7174 3.59999 10.3443 3.59999 9.95531V8.48865H2.13332C1.74434 8.48865 1.37129 8.64317 1.09623 8.91822C0.82118 9.19328 0.666656 9.56633 0.666656 9.95531Z" fill="#E01E5A"/>
<path id="Vector_9" d="M4.57767 9.95531V13.8666C4.57767 14.2556 4.73219 14.6287 5.00724 14.9037C5.2823 15.1788 5.65535 15.3333 6.04433 15.3333C6.43332 15.3333 6.80637 15.1788 7.08142 14.9037C7.35648 14.6287 7.511 14.2556 7.511 13.8666V9.95531C7.511 9.56633 7.35648 9.19328 7.08142 8.91822C6.80637 8.64317 6.43332 8.48865 6.04433 8.48865C5.65535 8.48865 5.2823 8.64317 5.00724 8.91822C4.73219 9.19328 4.57767 9.56633 4.57767 9.95531Z" fill="#E01E5A"/>
</g>
</g>
</g>
</g>
</svg>