<svg xmlns="http://www.w3.org/2000/svg" width="32" height="32" viewBox="0 0 32 32" fill="none">
<g id="welcome-forms[welcome,choiceform,tx,forms]">
<path id="Vector 1404" d="M0.5 31.5H31.5" stroke="black" stroke-linecap="round" stroke-linejoin="round"/>
<path id="Vector" d="M14.5 2.5V0.5H12.5V2.5H14.5ZM14.5 2.5C14.5 4.5 12.5 4.5 12.5 4.5" stroke="black" stroke-linecap="round" stroke-linejoin="round"/>
<path id="Vector_2" d="M10.5 2.5V0.5H8.5V2.5H10.5ZM10.5 2.5C10.5 4.5 8.5 4.5 8.5 4.5" stroke="black" stroke-linecap="round" stroke-linejoin="round"/>
<path id="Vector 1422" d="M15.5 15.5H21.5M12.5 16.5V16.5C13.0523 16.5 13.5 16.0523 13.5 15.5V15.5C13.5 14.9477 13.0523 14.5 12.5 14.5V14.5C11.9477 14.5 11.5 14.9477 11.5 15.5V15.5C11.5 16.0523 11.9477 16.5 12.5 16.5Z" stroke="black" stroke-linecap="round" stroke-linejoin="round"/>
<path id="Vector 1424" d="M21.5 23.5H17.5" stroke="black" stroke-linecap="round" stroke-linejoin="round"/>
<path id="Vector 1423" d="M15.5 19.5H21.5M12.5 20.5V20.5C13.0523 20.5 13.5 20.0523 13.5 19.5V19.5C13.5 18.9477 13.0523 18.5 12.5 18.5V18.5C11.9477 18.5 11.5 18.9477 11.5 19.5V19.5C11.5 20.0523 11.9477 20.5 12.5 20.5Z" stroke="black" stroke-linecap="round" stroke-linejoin="round"/>
<path id="Vector 1415" d="M5.5 19.5H4.5C3.39543 19.5 2.5 18.6046 2.5 17.5V4.5C2.5 3.39543 3.39543 2.5 4.5 2.5H5.5M28.5 2.5H29.5C30.6046 2.5 31.5 3.39543 31.5 4.5V17.5C31.5 18.6046 30.6046 19.5 29.5 19.5H27.5M20.5 2.5H17.5" stroke="black" stroke-opacity="0.25" stroke-linecap="round" stroke-linejoin="round"/>
<path id="Vector 1418" d="M8.5 19.5V11.5C8.5 10.3954 9.39543 9.5 10.5 9.5H18.5M21.5 31.5H22.5C23.6046 31.5 24.5 30.6046 24.5 29.5V14.5" stroke="black" stroke-linecap="round" stroke-linejoin="round"/>
<path id="Vector 958" d="M4.5 27.5L5.5 28.5L7.5 26.5M9.5 27.5H12.5" stroke="black" stroke-linecap="round" stroke-linejoin="round"/>
<path id="Vector 957" d="M13.5 23.5H3.5C2.39543 23.5 1.5 24.3954 1.5 25.5V29.5C1.5 30.6046 2.39543 31.5 3.5 31.5H13.5C14.6046 31.5 15.5 30.6046 15.5 29.5V25.5C15.5 24.3954 14.6046 23.5 13.5 23.5Z" stroke="black" stroke-linecap="round" stroke-linejoin="round"/>
<path id="Vector_3" d="M24.0516 3.40832C24.2351 3.03673 24.7649 3.03673 24.9484 3.40832L25.9288 5.39455C26.0015 5.54197 26.1421 5.6442 26.3048 5.66798L28.4981 5.98856C28.9081 6.04848 29.0715 6.5524 28.7747 6.84148L27.1884 8.3865C27.0705 8.50137 27.0166 8.66694 27.0445 8.8292L27.4187 11.0113C27.4888 11.4198 27.06 11.7313 26.6932 11.5384L24.7327 10.5074C24.587 10.4308 24.413 10.4308 24.2673 10.5074L22.3068 11.5384C21.94 11.7313 21.5112 11.4198 21.5813 11.0113L21.9555 8.82921C21.9834 8.66694 21.9295 8.50137 21.8116 8.3865L20.2253 6.84148C19.9285 6.5524 20.0919 6.04848 20.5019 5.98856L22.6952 5.66798C22.8579 5.6442 22.9985 5.54197 23.0712 5.39455L24.0516 3.40832Z" fill="black" fill-opacity="0.25" stroke="black" stroke-linecap="round" stroke-linejoin="round"/>
</g>
</svg>