<svg xmlns="http://www.w3.org/2000/svg" width="32" height="32" viewBox="0 0 32 32" fill="none">
<g id="welcome-datasheets[welcome,choiceform,tx,datasheets]">
<path id="Vector 1404" d="M0.5 31.5H31.5" stroke="black" stroke-linecap="round" stroke-linejoin="round"/>
<path id="Vector 1405" d="M28.5 18.5V29.5C28.5 30.6046 27.6046 31.5 26.5 31.5H12.5M17.5 10.5H12.5C11.3954 10.5 10.5 11.3954 10.5 12.5V22.5" stroke="black" stroke-linecap="round" stroke-linejoin="round"/>
<path id="Vector 1406" d="M13.5 22.5V20C13.5 19.7239 13.7239 19.5 14 19.5H17.5M13.5 22.5H25.5M13.5 22.5V25.5M25.5 22.5V20C25.5 19.7239 25.2761 19.5 25 19.5H21.5M25.5 22.5V25.5M13.5 25.5V28C13.5 28.2761 13.7239 28.5 14 28.5H17.5M13.5 25.5H25.5M25.5 25.5V28C25.5 28.2761 25.2761 28.5 25 28.5H21.5M17.5 19.5V28.5M17.5 19.5H21.5M17.5 28.5H21.5M21.5 19.5V28.5" stroke="black" stroke-linecap="round" stroke-linejoin="round"/>
<path id="Vector 1407" d="M27.5 13.5L30.5 16.5" stroke="black" stroke-linecap="round" stroke-linejoin="round"/>
<path id="Vector 1408" d="M28.5 10.5C28.5 8.29086 26.7091 6.5 24.5 6.5C22.2909 6.5 20.5 8.29086 20.5 10.5C20.5 12.7091 22.2909 14.5 24.5 14.5C26.7091 14.5 28.5 12.7091 28.5 10.5Z" stroke="black" stroke-linecap="round" stroke-linejoin="round"/>
<path id="Vector 1410" d="M26 9.5L24 11.5L23 10.5" stroke="black" stroke-linecap="round" stroke-linejoin="round"/>
<path id="Vector 1412" d="M2.5 26V31C2.5 31.2761 2.72386 31.5 3 31.5H10C10.2761 31.5 10.5 31.2761 10.5 31V26C10.5 25.7239 10.2761 25.5 10 25.5H3C2.72386 25.5 2.5 25.7239 2.5 26Z" fill="black" fill-opacity="0.25" stroke="black" stroke-linecap="round" stroke-linejoin="round"/>
<path id="Vector 1413" d="M4.5 25.5V23.5C4.5 22.3954 5.39543 21.5 6.5 21.5V21.5C7.60457 21.5 8.5 22.3954 8.5 23.5V25.5" stroke="black" stroke-linecap="round" stroke-linejoin="round"/>
<path id="Vector 1414" d="M5.5 28.5C5.5 29.0523 5.94772 29.5 6.5 29.5C7.05228 29.5 7.5 29.0523 7.5 28.5C7.5 27.9477 7.05228 27.5 6.5 27.5C5.94772 27.5 5.5 27.9477 5.5 28.5Z" stroke="black" stroke-linecap="round" stroke-linejoin="round"/>
<path id="Vector 1415" d="M31.5 13.5V5.5C31.5 4.39543 30.6046 3.5 29.5 3.5H16.5M7.5 18.5H2.5C1.39543 18.5 0.5 17.6046 0.5 16.5V5.5C0.5 4.39543 1.39543 3.5 2.5 3.5H6.5" stroke="black" stroke-opacity="0.25" stroke-linecap="round" stroke-linejoin="round"/>
<path id="Vector 1023" d="M10.5 6.5L12 5M12.5 0.5C11.8333 1.16667 11.8333 1.16667 11 2M11 2C10.1667 2.83333 9.5 3.5 9.5 3.5L12 5M11 2L13.5 3.5L12 5" stroke="black" stroke-linecap="round" stroke-linejoin="round"/>
<path id="Vector 1436" d="M13.5 13.5H17.5" stroke="black" stroke-linecap="round" stroke-linejoin="round"/>
</g>
</svg>