<svg xmlns="http://www.w3.org/2000/svg" width="32" height="32" viewBox="0 0 32 32" fill="none">
<g id="welcome-interface[welcome,choiceform,tx,interface]">
<path id="Vector 1404" d="M0.5 31.5H31.5" stroke="black" stroke-linecap="round" stroke-linejoin="round"/>
<path id="Vector" d="M25 18L27.5 24.5L28.5 21.5L31.5 20.5L25 18Z" stroke="black" stroke-linecap="round" stroke-linejoin="round"/>
<path id="Vector_2" d="M24 14.5L24.5 16M23 17.5L21.5 17M27.5 15.5L26.5 16.5M23.5 19.5L22.5 20.5" stroke="black" stroke-linecap="round" stroke-linejoin="round"/>
<path id="Vector 1135" d="M28.5 13.5V11.5C28.5 10.3954 27.6046 9.5 26.5 9.5H18.5C17.3954 9.5 16.5 10.3954 16.5 11.5V19.5C16.5 20.6046 17.3954 21.5 18.5 21.5H20.5" stroke="black" stroke-linecap="round" stroke-linejoin="round"/>
<path id="Vector 1435" d="M23.5 24.5V29.5C23.5 30.6046 22.6046 31.5 21.5 31.5H8.5C7.39543 31.5 6.5 30.6046 6.5 29.5V16.5C6.5 15.3954 7.39543 14.5 8.5 14.5H13.5" stroke="black" stroke-linecap="round" stroke-linejoin="round"/>
<path id="Rectangle 1662" d="M9.5 26.5C9.5 27.6046 10.3954 28.5 11.5 28.5V28.5C12.6046 28.5 13.5 27.6046 13.5 26.5V26.5C13.5 25.3954 12.6046 24.5 11.5 24.5V24.5C10.3954 24.5 9.5 25.3954 9.5 26.5V26.5Z" stroke="black"/>
<path id="Rectangle 1664" d="M9.5 21C9.5 21.2761 9.72386 21.5 10 21.5H13C13.2761 21.5 13.5 21.2761 13.5 21V18C13.5 17.7239 13.2761 17.5 13 17.5H10C9.72386 17.5 9.5 17.7239 9.5 18V21Z" fill="black" fill-opacity="0.25" stroke="black"/>
<path id="Rectangle 1663" d="M16.5 28C16.5 28.2761 16.7239 28.5 17 28.5H20C20.2761 28.5 20.5 28.2761 20.5 28V25C20.5 24.7239 20.2761 24.5 20 24.5H17C16.7239 24.5 16.5 24.7239 16.5 25V28Z" fill="black" fill-opacity="0.25" stroke="black"/>
<path id="Vector 1415" d="M25.5 9.5V6.5C25.5 5.39543 24.6046 4.5 23.5 4.5H21.5M3.5 21.5H2.5C1.39543 21.5 0.5 20.6046 0.5 19.5V6.5C0.5 5.39543 1.39543 4.5 2.5 4.5H4.5" stroke="black" stroke-opacity="0.25" stroke-linecap="round" stroke-linejoin="round"/>
<path id="Vector_3" d="M8.5 4.5H11.5M11.5 4.5L10 3M11.5 4.5L10 6M18.5 4.5L15.5 4.5M15.5 4.5L17 6M15.5 4.5L17 3M13.5 0.5V8.5" stroke="black" stroke-linecap="round" stroke-linejoin="round"/>
</g>
</svg>