<svg width="16" height="16" viewBox="0 0 16 16" fill="none" xmlns="http://www.w3.org/2000/svg">
<g id="cycle[common,loading,loop,process,arrow]">
<g id="Group">
<path id="Vector" d="M5.5 2.5L7.5 4.5H6C5.07174 4.5 4.1815 4.86875 3.52513 5.52513C2.86875 6.1815 2.5 7.07174 2.5 8C2.5 8.92826 2.86875 9.8185 3.52513 10.4749C4.1815 11.1313 5.07174 11.5 6 11.5H6.5" stroke="black" stroke-linecap="round" stroke-linejoin="round"/>
<path id="Vector_2" d="M10.5 13.5L8.5 11.5H10C10.9283 11.5 11.8185 11.1313 12.4749 10.4749C13.1313 9.8185 13.5 8.92826 13.5 8C13.5 7.07174 13.1313 6.1815 12.4749 5.52513C11.8185 4.86875 10.9283 4.5 10 4.5H9.5" stroke="black" stroke-linecap="round" stroke-linejoin="round"/>
</g>
</g>
</svg>
