<svg xmlns="http://www.w3.org/2000/svg" width="16" height="16" viewBox="0 0 16 16" fill="none">
<g id="field-type-date[field,type,data,datasheet,table]">
<path id="Vector" d="M4.5 3.5H3.5C2.94771 3.5 2.5 3.94772 2.5 4.5V11.5C2.5 12.0523 2.94772 12.5 3.5 12.5H11.5C12.0523 12.5 12.5 12.0523 12.5 11.5V4.5C12.5 3.94772 12.0523 3.5 11.5 3.5H10.5M6.5 3.5H8.5" stroke="black" stroke-linecap="round" stroke-linejoin="round"/>
<path id="Vector_2" d="M2.5 6.5H12.5" stroke="black" stroke-linecap="round" stroke-linejoin="round"/>
<path id="Vector_3" d="M4.5 2.5V4.5M10.5 2.5V4.5" stroke="black" stroke-linecap="round" stroke-linejoin="round"/>
<path id="Vector_4" d="M4.5 8.5H4.505M6.5 8.5H6.505M8.5 8.5H8.505M4.5 10.5H4.505M6.5 10.5H6.505M8.5 10.5H8.505M10.5 8.5H10.505M10.5 10.5H10.505" stroke="black" stroke-linecap="round" stroke-linejoin="round"/>
</g>
</svg>