<svg xmlns="http://www.w3.org/2000/svg" width="16" height="16" viewBox="0 0 16 16" fill="none">
<g id="field-type-system-user[field,type,data,datasheet,table,dynamic]">
<path id="Vector" d="M3.5 12.5C3.5 10.8432 4.84315 9.5 6.5 9.5H7.5M9.5 5.5C9.5 6.60457 8.60457 7.5 7.5 7.5C6.39543 7.5 5.5 6.60457 5.5 5.5C5.5 4.39543 6.39543 3.5 7.5 3.5C8.60457 3.5 9.5 4.39543 9.5 5.5Z" stroke="black" stroke-linecap="round" stroke-linejoin="round"/>
<path id="Vector_2" d="M10.5 13.5L12 12M12 12L9.5 10.5C9.5 10.5 10.1667 9.83333 11 9M12 12L13.5 10.5L11 9M12.5 7.5C11.8333 8.16667 11.8333 8.16667 11 9" stroke="#0055FF" stroke-linecap="round" stroke-linejoin="round"/>
</g>
</svg>