<svg xmlns="http://www.w3.org/2000/svg" width="16" height="16" viewBox="0 0 16 16" fill="none">
<g id="field-type-phone[field,type,data,datasheet,table]">
<path id="Vector" d="M12.4441 9.96005V11.4601C12.4446 11.5993 12.4161 11.7371 12.3603 11.8647C12.3045 11.9923 12.2227 12.1068 12.1201 12.201C12.0175 12.2951 11.8964 12.3668 11.7644 12.4114C11.6325 12.456 11.4927 12.4726 11.3541 12.46C9.81548 12.2929 8.33756 11.7671 7.03906 10.9251C5.83097 10.1574 4.80673 9.13313 4.03906 7.92505C3.19405 6.62065 2.66818 5.13555 2.50406 3.59005C2.49156 3.45178 2.508 3.31243 2.55231 3.18086C2.59662 3.04929 2.66784 2.92839 2.76144 2.82586C2.85504 2.72333 2.96896 2.6414 3.09595 2.58531C3.22295 2.52922 3.36023 2.50018 3.49906 2.50005H4.99906C5.24171 2.49766 5.47695 2.58359 5.66094 2.74182C5.84492 2.90004 5.9651 3.11977 5.99906 3.36005C6.06237 3.84008 6.17978 4.31141 6.34906 4.76505C6.41633 4.94401 6.43089 5.13851 6.39101 5.32549C6.35113 5.51247 6.25849 5.6841 6.12406 5.82005L5.48906 6.45505C6.20084 7.70682 7.23729 8.74327 8.48906 9.45505L9.12406 8.82005C9.26 8.68562 9.43164 8.59297 9.61862 8.5531C9.8056 8.51322 10.0001 8.52778 10.1791 8.59505C10.6327 8.76432 11.104 8.88174 11.5841 8.94505C11.8269 8.97931 12.0488 9.10165 12.2073 9.2888C12.3659 9.47594 12.4501 9.71484 12.4441 9.96005Z" stroke="black" stroke-linecap="round" stroke-linejoin="round"/>
</g>
</svg>