<svg xmlns="http://www.w3.org/2000/svg" width="16" height="16" viewBox="0 0 16 16" fill="none">
<g id="field-type-system-id[field,type,data,datasheet,table,dynamic]">
<path id="Vector" d="M10.5 13.5L12 12M12 12L9.5 10.5C9.5 10.5 10.1667 9.83333 11 9M12 12L13.5 10.5L11 9M12.5 7.5C11.8333 8.16667 11.8333 8.16667 11 9" stroke="#0055FF" stroke-linecap="round" stroke-linejoin="round"/>
<path id="Vector_2" d="M11.5 4C11.5 4.82843 9.48531 5.5 7.00003 5.5C4.51475 5.5 2.50003 4.82843 2.50003 4M11.5 4C11.5 3.17157 9.48531 2.5 7.00003 2.5C4.51475 2.5 2.50003 3.17157 2.50003 4M11.5 4V5.5M2.50003 4L2.50003 7.5M2.50003 7.5V11C2.49725 11.2405 2.66793 11.4776 2.9977 11.6915C3.32747 11.9053 3.80665 12.0897 4.39485 12.2289C4.98306 12.3681 5.66304 12.4581 6.37749 12.4914C7.09194 12.5246 7.81991 12.5002 8.50003 12.42M2.50003 7.5C4 8.5 6.71866 8.67843 8.50003 8.5" stroke="black" stroke-linecap="round" stroke-linejoin="round"/>
</g>
</svg>