<svg xmlns="http://www.w3.org/2000/svg" width="16" height="16" viewBox="0 0 16 16" fill="none">
<g id="block-delete[chart,data,statistics,report,analysis,visualization,performance,graph,business,clear,remove,delete]">
<path id="Vector" d="M14.5 10.5C14.5 8.29086 12.7091 6.5 10.5 6.5C8.29086 6.5 6.5 8.29086 6.5 10.5C6.5 12.7091 8.29086 14.5 10.5 14.5C12.7091 14.5 14.5 12.7091 14.5 10.5Z" stroke="black" stroke-linecap="round" stroke-linejoin="round"/>
<path id="Vector_2" d="M12.5 10.5H8.5" stroke="black" stroke-linecap="round" stroke-linejoin="round"/>
<path id="Vector_3" d="M12.5 1.5H2.5C1.94771 1.5 1.5 1.94771 1.5 2.5V3.5C1.5 4.05228 1.94771 4.5 2.5 4.5H12.5C13.0523 4.5 13.5 4.05228 13.5 3.5V2.5C13.5 1.94771 13.0523 1.5 12.5 1.5Z" stroke="black" stroke-linecap="round"/>
<path id="Vector_4" d="M4.5 7.5H2.5C1.94771 7.5 1.5 7.94772 1.5 8.5V11.5C1.5 12.0523 1.94771 12.5 2.5 12.5H4.5" stroke="black" stroke-linecap="round"/>
</g>
</svg>