<svg xmlns="http://www.w3.org/2000/svg" width="16" height="16" viewBox="0 0 16 16" fill="none">
<g id="blueprint-node[chart,data,statistics,report,analysis,visualization,performance,graph,business]">
<path id="Vector" d="M2.5 6.5V3.5C2.5 2.94772 2.94772 2.5 3.5 2.5H6.5M2.5 8.5V11.5C2.5 12.0523 2.94772 12.5 3.5 12.5H6.5M8.5 12.5H11.5C12.0523 12.5 12.5 12.0523 12.5 11.5V8.5M12.5 6.5V3.5C12.5 2.94772 12.0523 2.5 11.5 2.5H8.5" stroke="black" stroke-linecap="round" stroke-linejoin="round"/>
<path id="Vector_2" d="M6.5 2.5C6.5 3.05228 6.94772 3.5 7.5 3.5C8.05228 3.5 8.5 3.05228 8.5 2.5C8.5 1.94771 8.05228 1.5 7.5 1.5C6.94772 1.5 6.5 1.94771 6.5 2.5Z" stroke="black" stroke-linecap="round"/>
<path id="Vector_3" d="M1.5 7.5C1.5 8.05228 1.94771 8.5 2.5 8.5C3.05228 8.5 3.5 8.05228 3.5 7.5C3.5 6.94772 3.05228 6.5 2.5 6.5C1.94771 6.5 1.5 6.94772 1.5 7.5Z" stroke="black" stroke-linecap="round"/>
<path id="Vector_4" d="M6.5 12.5C6.5 13.0523 6.94772 13.5 7.5 13.5C8.05228 13.5 8.5 13.0523 8.5 12.5C8.5 11.9477 8.05228 11.5 7.5 11.5C6.94772 11.5 6.5 11.9477 6.5 12.5Z" stroke="black" stroke-linecap="round"/>
<path id="Vector_5" d="M11.5 7.5C11.5 8.05228 11.9477 8.5 12.5 8.5C13.0523 8.5 13.5 8.05228 13.5 7.5C13.5 6.94772 13.0523 6.5 12.5 6.5C11.9477 6.5 11.5 6.94772 11.5 7.5Z" stroke="black" stroke-linecap="round"/>
</g>
</svg>