<svg xmlns="http://www.w3.org/2000/svg" width="16" height="16" viewBox="0 0 16 16" fill="none">
<g id="column-group[chart,data,statistics,report,analysis,visualization,performance,graph,business,bar,column]">
<path id="Vector" d="M2.5 12V8C2.5 7.72386 2.72386 7.5 3 7.5H4C4.27614 7.5 4.5 7.72386 4.5 8V12C4.5 12.2761 4.27614 12.5 4 12.5H3C2.72386 12.5 2.5 12.2761 2.5 12Z" stroke="black" stroke-linecap="round" stroke-linejoin="round"/>
<path id="Vector_2" d="M12 12.5H11C10.7239 12.5 10.5 12.2761 10.5 12V5C10.5 4.72386 10.7239 4.5 11 4.5H12C12.2761 4.5 12.5 4.72386 12.5 5V12C12.5 12.2761 12.2761 12.5 12 12.5Z" stroke="black" stroke-linecap="round" stroke-linejoin="round"/>
<path id="Vector_3" d="M8 2.5H7C6.72386 2.5 6.5 2.72386 6.5 3V12C6.5 12.2761 6.72386 12.5 7 12.5H8C8.27614 12.5 8.5 12.2761 8.5 12V3C8.5 2.72386 8.27614 2.5 8 2.5Z" fill="black" stroke="black" stroke-linecap="round" stroke-linejoin="round"/>
</g>
</svg>