<svg xmlns="http://www.w3.org/2000/svg" width="16" height="16" viewBox="0 0 16 16" fill="none">
<g id="number[chart,data,statistics,report,analysis,visualization,performance,graph,business]">
<path id="Vector" d="M12.5 2.5H2.5C1.94771 2.5 1.5 2.94772 1.5 3.5V11.5C1.5 12.0523 1.94771 12.5 2.5 12.5H12.5C13.0523 12.5 13.5 12.0523 13.5 11.5V3.5C13.5 2.94772 13.0523 2.5 12.5 2.5Z" stroke="black" stroke-linecap="round" stroke-linejoin="round"/>
<path id="Vector_2" d="M8.501 6.40898C8.634 5.84798 9.156 5.46398 9.722 5.50198C10.121 5.52898 10.51 5.71398 10.694 6.05798C10.728 6.12098 10.803 6.28098 10.804 6.51998C10.806 7.08098 10.393 7.47898 9.726 8.17598C9.44 8.47498 9.016 8.92498 8.5 9.49898H10.953M4.5 6.49998L5.5 5.49999V9.49999H4.5L6.5 9.5" stroke="black" stroke-linecap="round" stroke-linejoin="round"/>
</g>
</svg>