<svg xmlns="http://www.w3.org/2000/svg" width="16" height="16" viewBox="0 0 16 16" fill="none">
<g id="organization-add[organization,business,company,building,plus,create,add]">
<path id="Vector" d="M13.5 4.5V2.5C13.5 1.94771 13.0523 1.5 12.5 1.5H8.5C7.94772 1.5 7.5 1.94771 7.5 2.5V4.5M5.5 5.5H3.5C2.94772 5.5 2.5 5.94772 2.5 6.5V12.5C2.5 13.0523 2.94772 13.5 3.5 13.5H4.5" stroke="black" stroke-linecap="round" stroke-linejoin="round"/>
<path id="Vector_2" d="M14.5 10.5C14.5 12.7091 12.7091 14.5 10.5 14.5C8.29086 14.5 6.5 12.7091 6.5 10.5C6.5 8.29086 8.29086 6.5 10.5 6.5C12.7091 6.5 14.5 8.29086 14.5 10.5Z" stroke="black" stroke-linecap="round" stroke-linejoin="round"/>
<path id="Vector_3" d="M12.5 10.5H8.5M10.5 12.5V8.5" stroke="black" stroke-linecap="round" stroke-linejoin="round"/>
<path id="Vector_4" d="M4.5 7.5H4.505M4.5 9.5H4.505M4.5 11.5H4.505" stroke="black" stroke-linecap="round" stroke-linejoin="round"/>
<path id="Vector_5" d="M9.5 3.5H9.505M11.5 3.5H11.505" stroke="black" stroke-linecap="round" stroke-linejoin="round"/>
</g>
</svg>