<svg xmlns="http://www.w3.org/2000/svg" width="16" height="16" viewBox="0 0 16 16" fill="none">
<g id="organization[organization,business,company,building]">
<path id="Vector" d="M5.5 5.5H3.5C2.94772 5.5 2.5 5.94772 2.5 6.5V12.5C2.5 13.0523 2.94772 13.5 3.5 13.5H5.5M8.5 13.5H12.5C13.0523 13.5 13.5 13.0523 13.5 12.5V2.5C13.5 1.94771 13.0523 1.5 12.5 1.5H8.5C7.94772 1.5 7.5 1.94771 7.5 2.5V12.5C7.5 13.0523 7.94772 13.5 8.5 13.5Z" stroke="black" stroke-linecap="round" stroke-linejoin="round"/>
<path id="Vector_2" d="M4.5 7.5H4.505M4.5 9.5H4.505M4.5 11.5H4.505" stroke="black" stroke-linecap="round" stroke-linejoin="round"/>
<path id="Vector_3" d="M9.5 5.5H9.505M9.5 7.5H9.505M9.5 9.5H9.505M9.5 11.5H9.505M9.5 3.5H9.505" stroke="black" stroke-linecap="round" stroke-linejoin="round"/>
<path id="Vector_4" d="M11.5 5.5H11.505M11.5 7.5H11.505M11.5 9.5H11.505M11.5 11.5H11.505M11.5 3.5H11.505" stroke="black" stroke-linecap="round" stroke-linejoin="round"/>
</g>
</svg>