<svg xmlns="http://www.w3.org/2000/svg" width="16" height="16" viewBox="0 0 16 16" fill="none">
<g id="use-administer[user,account,profile,avatar,person,human,member]">
<path id="Vector" d="M3.5 4.5C3.5 2.84315 4.84315 1.5 6.5 1.5C8.15685 1.5 9.5 2.84315 9.5 4.5C9.5 6.15685 8.15685 7.5 6.5 7.5C4.84315 7.5 3.5 6.15685 3.5 4.5Z" stroke="black" stroke-linecap="round" stroke-linejoin="round"/>
<path id="Vector_2" d="M1.5 13.5V12.5C1.5 10.8432 2.84315 9.5 4.5 9.5H7.5" stroke="black" stroke-linecap="round" stroke-linejoin="round"/>
<path id="Vector_3" d="M13.7929 8.79289L12.2071 7.20711C11.8166 6.81658 11.1834 6.81658 10.7929 7.20711L10.2071 7.79289C9.81658 8.18342 9.81658 8.81658 10.2071 9.20711L11.7929 10.7929C12.1834 11.1834 12.8166 11.1834 13.2071 10.7929L13.7929 10.2071C14.1834 9.81658 14.1834 9.18342 13.7929 8.79289Z" stroke="black"/>
<path id="Vector_4" d="M11 10L7.5 13.5" stroke="black" stroke-linecap="round"/>
<path id="Vector_5" d="M9.5 13.5L8.5 12.5M10.5 12.5L9.5 11.5" stroke="black" stroke-linecap="round"/>
</g>
</svg>