<svg xmlns="http://www.w3.org/2000/svg" width="16" height="16" viewBox="0 0 16 16" fill="none">
<g id="use-settings[user,account,profile,avatar,person,human,member,control,preferences,system]">
<path id="Vector" d="M10.5 13.5C11.6046 13.5 12.5 12.6046 12.5 11.5C12.5 10.3954 11.6046 9.5 10.5 9.5C9.39543 9.5 8.5 10.3954 8.5 11.5C8.5 12.6046 9.39543 13.5 10.5 13.5Z" stroke="black" stroke-linecap="round" stroke-linejoin="round"/>
<path id="Vector_2" d="M10.5 9.5V8.5M10.5 13.5V14.5M12.5 11.5H13.5M8.5 11.5H7.5M11.9142 10.0858L12.6213 9.37868M9.08579 12.9142L8.37868 13.6213M11.9142 12.9142L12.6213 13.6213M9.08579 10.0858L8.37868 9.37868" stroke="black" stroke-linecap="round" stroke-linejoin="round"/>
<path id="Vector_3" d="M3.5 4.5C3.5 2.84315 4.84315 1.5 6.5 1.5C8.15685 1.5 9.5 2.84315 9.5 4.5C9.5 6.15685 8.15685 7.5 6.5 7.5C4.84315 7.5 3.5 6.15685 3.5 4.5Z" stroke="black" stroke-linecap="round" stroke-linejoin="round"/>
<path id="Vector_4" d="M1.5 13.5V12.5C1.5 10.8432 2.84315 9.5 4.5 9.5H6.5" stroke="black" stroke-linecap="round" stroke-linejoin="round"/>
</g>
</svg>