<svg xmlns="http://www.w3.org/2000/svg" width="16" height="16" viewBox="0 0 16 16" fill="none">
<g id="users-small[user,account,profile,avatar,person,human,member,organization,group,team]">
<path id="Vector" d="M10 12.5V11.5C10 10.9696 9.78929 10.4609 9.41421 10.0858C9.03914 9.71071 8.53043 9.5 8 9.5H5C4.46957 9.5 3.96086 9.71071 3.58579 10.0858C3.21071 10.4609 3 10.9696 3 11.5V12.5" stroke="black" stroke-linecap="round" stroke-linejoin="round"/>
<path id="Vector_2" d="M6.5 7.5C7.60457 7.5 8.5 6.60457 8.5 5.5C8.5 4.39543 7.60457 3.5 6.5 3.5C5.39543 3.5 4.5 4.39543 4.5 5.5C4.5 6.60457 5.39543 7.5 6.5 7.5Z" stroke="black" stroke-linecap="round" stroke-linejoin="round"/>
<path id="Vector_3" d="M13 12.5V11.5C12.9997 11.0569 12.8522 10.6264 12.5807 10.2762C12.3092 9.92593 11.9291 9.67579 11.5 9.565" stroke="black" stroke-linecap="round" stroke-linejoin="round"/>
<path id="Vector_4" d="M10 3.565C10.4302 3.67515 10.8115 3.92535 11.0838 4.27616C11.3561 4.62696 11.5039 5.05842 11.5039 5.5025C11.5039 5.94659 11.3561 6.37804 11.0838 6.72885C10.8115 7.07965 10.4302 7.32985 10 7.44" stroke="black" stroke-linecap="round" stroke-linejoin="round"/>
</g>
</svg>