<svg xmlns="http://www.w3.org/2000/svg" width="16" height="16" viewBox="0 0 16 16" fill="none">
<g id="user-remove-small[user,account,profile,avatar,person,human,member,clear,remove,delete]">
<path id="Vector" d="M10 12.5V11.5C10 10.9696 9.78929 10.4609 9.41421 10.0858C9.03914 9.71071 8.53043 9.5 8 9.5H5C4.46957 9.5 3.96086 9.71071 3.58579 10.0858C3.21071 10.4609 3 10.9696 3 11.5V12.5" stroke="black" stroke-linecap="round" stroke-linejoin="round"/>
<path id="Vector_2" d="M6.5 7.5C7.60457 7.5 8.5 6.60457 8.5 5.5C8.5 4.39543 7.60457 3.5 6.5 3.5C5.39543 3.5 4.5 4.39543 4.5 5.5C4.5 6.60457 5.39543 7.5 6.5 7.5Z" stroke="black" stroke-linecap="round" stroke-linejoin="round"/>
<path id="Vector_3" d="M13 7.5H10" stroke="black" stroke-linecap="round" stroke-linejoin="round"/>
</g>
</svg>