<svg xmlns="http://www.w3.org/2000/svg" width="16" height="16" viewBox="0 0 16 16" fill="none">
<g id="user-settings-small[user,account,profile,avatar,person,human,member,control,preferences,system]">
<path id="Vector" d="M11 11C11.8284 11 12.5 10.3284 12.5 9.5C12.5 8.67157 11.8284 8 11 8C10.1716 8 9.5 8.67157 9.5 9.5C9.5 10.3284 10.1716 11 11 11Z" stroke="black" stroke-linecap="round" stroke-linejoin="round"/>
<path id="Vector_2" d="M6.5 7.5C7.60457 7.5 8.5 6.60457 8.5 5.5C8.5 4.39543 7.60457 3.5 6.5 3.5C5.39543 3.5 4.5 4.39543 4.5 5.5C4.5 6.60457 5.39543 7.5 6.5 7.5Z" stroke="black" stroke-linecap="round" stroke-linejoin="round"/>
<path id="Vector_3" d="M7 9.5H5C4.46957 9.5 3.96086 9.71071 3.58579 10.0858C3.21071 10.4609 3 10.9696 3 11.5V12.5" stroke="black" stroke-linecap="round" stroke-linejoin="round"/>
<path id="Vector_4" d="M12.85 10.2L12.4 10.05" stroke="black" stroke-linecap="round" stroke-linejoin="round"/>
<path id="Vector_5" d="M9.59999 8.94999L9.14999 8.79999" stroke="black" stroke-linecap="round" stroke-linejoin="round"/>
<path id="Vector_6" d="M10.3 11.35L10.45 10.9" stroke="black" stroke-linecap="round" stroke-linejoin="round"/>
<path id="Vector_7" d="M11.55 8.10002L11.7 7.65002" stroke="black" stroke-linecap="round" stroke-linejoin="round"/>
<path id="Vector_8" d="M11.8 11.35L11.6 10.85" stroke="black" stroke-linecap="round" stroke-linejoin="round"/>
<path id="Vector_9" d="M10.4 8.15002L10.2 7.65002" stroke="black" stroke-linecap="round" stroke-linejoin="round"/>
<path id="Vector_10" d="M9.14999 10.3L9.64999 10.1" stroke="black" stroke-linecap="round" stroke-linejoin="round"/>
<path id="Vector_11" d="M12.35 8.90001L12.85 8.70001" stroke="black" stroke-linecap="round" stroke-linejoin="round"/>
</g>
</svg>