<svg xmlns="http://www.w3.org/2000/svg" width="16" height="16" viewBox="0 0 16 16" fill="none">
<g id="font-lowercase[text,font,type,typography,editing,formatting]">
<path id="Vector" d="M2.16803 6.45701C2.68403 5.62301 3.60803 5.14401 4.55403 5.22201C5.78703 5.32501 6.50003 6.09401 6.50003 7.12601V11.5" stroke="black" stroke-linecap="round" stroke-linejoin="round"/>
<path id="Vector_2" d="M6.49999 9.626C5.94399 10.955 4.81399 11.585 3.75899 11.605C3.01299 11.619 2.24999 11.137 2.10599 10.287C1.98199 9.554 2.38799 8.697 3.36199 8.404C4.33599 8.111 6.50099 8.219 6.50099 8.219" stroke="black" stroke-linecap="round" stroke-linejoin="round"/>
<path id="Vector_3" d="M9.5 13.5C9.5 13.5 10.408 14.625 12 14.5C13.395 14.39 14.501 13.553 14.501 12.213V5.5" stroke="black" stroke-linecap="round" stroke-linejoin="round"/>
<path id="Vector_4" d="M12.001 11.512C13.3823 11.512 14.502 10.1662 14.502 8.506C14.502 6.84583 13.3823 5.5 12.001 5.5C10.6197 5.5 9.5 6.84583 9.5 8.506C9.5 10.1662 10.6197 11.512 12.001 11.512Z" stroke="black" stroke-linecap="round" stroke-linejoin="round"/>
</g>
</svg>