<svg xmlns="http://www.w3.org/2000/svg" width="16" height="16" viewBox="0 0 16 16" fill="none">
<g id="paragraph-link[text,font,type,typography,editing,formatting]">
<path id="Vector" d="M7 8.5C7.21473 8.78706 7.48868 9.02459 7.80328 9.19647C8.11787 9.36835 8.46575 9.47056 8.82333 9.49616C9.1809 9.52177 9.53979 9.47018 9.87567 9.34489C10.2116 9.2196 10.5166 9.02353 10.77 8.77L12.27 7.27C12.7254 6.79849 12.9774 6.16699 12.9717 5.51149C12.966 4.856 12.7031 4.22897 12.2395 3.76545C11.776 3.30193 11.149 3.03901 10.4935 3.03331C9.83801 3.02762 9.20651 3.2796 8.735 3.735L7.875 4.59" stroke="black" stroke-linecap="round" stroke-linejoin="round"/>
<path id="Vector_2" d="M8.99999 7.5C8.78527 7.21293 8.51131 6.97541 8.19672 6.80353C7.88212 6.63165 7.53424 6.52944 7.17667 6.50383C6.8191 6.47822 6.4602 6.52981 6.12432 6.65511C5.78844 6.7804 5.48344 6.97646 5.22999 7.23L3.72999 8.73C3.2746 9.2015 3.02261 9.83301 3.02831 10.4885C3.034 11.144 3.29693 11.771 3.76045 12.2345C4.22397 12.6981 4.851 12.961 5.50649 12.9667C6.16198 12.9724 6.79349 12.7204 7.26499 12.265L8.11999 11.41" stroke="black" stroke-linecap="round" stroke-linejoin="round"/>
</g>
</svg>