<svg xmlns="http://www.w3.org/2000/svg" width="16" height="16" viewBox="0 0 16 16" fill="none">
<g id="paragraph-quote[text,font,type,typography,editing,formatting]">
<path id="Vector" d="M10 3.5C9.73478 3.5 9.48043 3.60536 9.29289 3.79289C9.10536 3.98043 9 4.23478 9 4.5V7.5C9 7.76522 9.10536 8.01957 9.29289 8.20711C9.48043 8.39464 9.73478 8.5 10 8.5C10.1326 8.5 10.2598 8.55268 10.3536 8.64645C10.4473 8.74021 10.5 8.86739 10.5 9V9.5C10.5 9.76522 10.3946 10.0196 10.2071 10.2071C10.0196 10.3946 9.76522 10.5 9.5 10.5C9.36739 10.5 9.24021 10.5527 9.14645 10.6464C9.05268 10.7402 9 10.8674 9 11V12C9 12.1326 9.05268 12.2598 9.14645 12.3536C9.24021 12.4473 9.36739 12.5 9.5 12.5C10.2956 12.5 11.0587 12.1839 11.6213 11.6213C12.1839 11.0587 12.5 10.2956 12.5 9.5V4.5C12.5 4.23478 12.3946 3.98043 12.2071 3.79289C12.0196 3.60536 11.7652 3.5 11.5 3.5H10Z" stroke="black" stroke-linecap="round" stroke-linejoin="round"/>
<path id="Vector_2" d="M4.5 3.5C4.23478 3.5 3.98043 3.60536 3.79289 3.79289C3.60536 3.98043 3.5 4.23478 3.5 4.5V7.5C3.5 7.76522 3.60536 8.01957 3.79289 8.20711C3.98043 8.39464 4.23478 8.5 4.5 8.5C4.63261 8.5 4.75979 8.55268 4.85355 8.64645C4.94732 8.74021 5 8.86739 5 9V9.5C5 9.76522 4.89464 10.0196 4.70711 10.2071C4.51957 10.3946 4.26522 10.5 4 10.5C3.86739 10.5 3.74021 10.5527 3.64645 10.6464C3.55268 10.7402 3.5 10.8674 3.5 11V12C3.5 12.1326 3.55268 12.2598 3.64645 12.3536C3.74021 12.4473 3.86739 12.5 4 12.5C4.79565 12.5 5.55871 12.1839 6.12132 11.6213C6.68393 11.0587 7 10.2956 7 9.5V4.5C7 4.23478 6.89464 3.98043 6.70711 3.79289C6.51957 3.60536 6.26522 3.5 6 3.5H4.5Z" stroke="black" stroke-linecap="round" stroke-linejoin="round"/>
</g>
</svg>