<svg xmlns="http://www.w3.org/2000/svg" width="16" height="16" viewBox="0 0 16 16" fill="none">
<g id="paragraph-bold[text,font,type,typography,editing,formatting]">
<path id="Vector" d="M5 8H9.5C10.0304 8 10.5391 8.21071 10.9142 8.58579C11.2893 8.96086 11.5 9.46957 11.5 10C11.5 10.5304 11.2893 11.0391 10.9142 11.4142C10.5391 11.7893 10.0304 12 9.5 12H5.5C5.36739 12 5.24021 11.9473 5.14645 11.8536C5.05268 11.7598 5 11.6326 5 11.5V4.5C5 4.36739 5.05268 4.24021 5.14645 4.14645C5.24021 4.05268 5.36739 4 5.5 4H9C9.53043 4 10.0391 4.21071 10.4142 4.58579C10.7893 4.96086 11 5.46957 11 6C11 6.53043 10.7893 7.03914 10.4142 7.41421C10.0391 7.78929 9.53043 8 9 8" stroke="black" stroke-linecap="round" stroke-linejoin="round"/>
</g>
</svg>