<svg xmlns="http://www.w3.org/2000/svg" width="16" height="16" viewBox="0 0 16 16" fill="none">
<g id="file-duplicate[file,document,note,page,draft,item,sheet,content,duplicate,copy,clone,paste]">
<path id="Vector" d="M12.5 10.5H7.5C6.94772 10.5 6.5 10.0523 6.5 9.5V2.5C6.5 1.94771 6.94772 1.5 7.5 1.5H10.5L13.5 4.5V9.5C13.5 10.0523 13.0523 10.5 12.5 10.5Z" fill="black" fill-opacity="0.25"/>
<path id="Vector_2" d="M10.5 1.5H7.5C6.94772 1.5 6.5 1.94771 6.5 2.5V9.5C6.5 10.0523 6.94772 10.5 7.5 10.5H12.5C13.0523 10.5 13.5 10.0523 13.5 9.5V4.5M10.5 1.5L13.5 4.5M10.5 1.5V4C10.5 4.27614 10.7239 4.5 11 4.5H13.5" stroke="black" stroke-linecap="round" stroke-linejoin="round"/>
<path id="Vector_3" d="M4.5 5.5H3.5C2.94772 5.5 2.5 5.94772 2.5 6.5V13.5C2.5 14.0523 2.94772 14.5 3.5 14.5H8.5C9.05228 14.5 9.5 14.0523 9.5 13.5V12.5" stroke="black" stroke-linecap="round" stroke-linejoin="round"/>
</g>
</svg>