<svg xmlns="http://www.w3.org/2000/svg" width="16" height="16" viewBox="0 0 16 16" fill="none">
<g id="file-settings[file,document,note,page,draft,item,sheet,content,control,preferences,system]">
<path id="Vector" d="M7.5 11.5C8.60457 11.5 9.5 10.6046 9.5 9.5C9.5 8.39543 8.60457 7.5 7.5 7.5C6.39543 7.5 5.5 8.39543 5.5 9.5C5.5 10.6046 6.39543 11.5 7.5 11.5Z" stroke="black" stroke-linecap="round" stroke-linejoin="round"/>
<path id="Vector_2" d="M7.5 7.5V6.5M7.5 11.5V12.5M9.5 9.5H10.5M5.5 9.5H4.5M8.91421 8.08579L9.62132 7.37868M6.08579 10.9142L5.37868 11.6213M8.91421 10.9142L9.62132 11.6213M6.08579 8.08579L5.37868 7.37868" stroke="black" stroke-linecap="round" stroke-linejoin="round"/>
<path id="Vector_3" d="M12.5 5.5L8.5 1.5V4.5C8.5 5.05228 8.94772 5.5 9.5 5.5H12.5Z" fill="black" fill-opacity="0.25" stroke="black" stroke-linecap="round" stroke-linejoin="round"/>
<path id="Vector_4" d="M8.5 1.5H3.5C2.94772 1.5 2.5 1.94771 2.5 2.5V13.5C2.5 14.0523 2.94772 14.5 3.5 14.5H11.5C12.0523 14.5 12.5 14.0523 12.5 13.5V5.5" stroke="black" stroke-linecap="round" stroke-linejoin="round"/>
</g>
</svg>