<svg xmlns="http://www.w3.org/2000/svg" width="16" height="16" viewBox="0 0 16 16" fill="none">
<g id="file-export[file,document,note,page,draft,item,sheet,content,arrow,right,data,share,export,output]">
<path id="Vector" d="M10.5 5.5L6.5 1.5V4.5C6.5 5.05228 6.94772 5.5 7.5 5.5H10.5Z" fill="black" fill-opacity="0.25"/>
<path id="Vector_2" d="M6.5 1.5H2.5C1.94771 1.5 1.5 1.94771 1.5 2.5V13.5C1.5 14.0523 1.94771 14.5 2.5 14.5H9.5C10.0523 14.5 10.5 14.0523 10.5 13.5V12.5M6.5 1.5L10.5 5.5M6.5 1.5V4.5C6.5 5.05228 6.94772 5.5 7.5 5.5H10.5M10.5 5.5V8.5" stroke="black" stroke-linecap="round" stroke-linejoin="round"/>
<path id="Vector_3" d="M12.5 8.5L14.5 10.5M14.5 10.5L12.5 12.5M14.5 10.5H6.5" stroke="black" stroke-linecap="round" stroke-linejoin="round"/>
</g>
</svg>