<svg xmlns="http://www.w3.org/2000/svg" width="16" height="16" viewBox="0 0 16 16" fill="none">
<g id="folder-settings[folder,document,catalog,file,control,preferences,system]">
<path id="Vector" d="M13.5 7.5V5.5C13.5 4.94772 13.0523 4.5 12.5 4.5H6.91421C6.649 4.5 6.39464 4.39464 6.20711 4.20711L4.79289 2.79289C4.60536 2.60536 4.351 2.5 4.08579 2.5H2.5C1.94771 2.5 1.5 2.94772 1.5 3.5V11.5C1.5 12.0523 1.94771 12.5 2.5 12.5H6.5" stroke="black" stroke-linecap="round" stroke-linejoin="round"/>
<path id="Vector_2" d="M11.5 13.5C12.6046 13.5 13.5 12.6046 13.5 11.5C13.5 10.3954 12.6046 9.5 11.5 9.5C10.3954 9.5 9.5 10.3954 9.5 11.5C9.5 12.6046 10.3954 13.5 11.5 13.5Z" stroke="black" stroke-linecap="round" stroke-linejoin="round"/>
<path id="Vector_3" d="M11.5 9.5V8.5M11.5 13.5V14.5M13.5 11.5H14.5M9.5 11.5H8.5M12.9142 10.0858L13.6213 9.37868M10.0858 12.9142L9.37868 13.6213M12.9142 12.9142L13.6213 13.6213M10.0858 10.0858L9.37868 9.37868" stroke="black" stroke-linecap="round" stroke-linejoin="round"/>
</g>
</svg>