<svg xmlns="http://www.w3.org/2000/svg" width="16" height="16" viewBox="0 0 16 16" fill="none">
<g id="empty-workflow-node[flash-screen,empty,workflow,network,intelligence]">
<path id="Vector" d="M8.5 0.5H1.5C0.947715 0.5 0.5 0.947715 0.5 1.5V3.5C0.5 4.05228 0.947715 4.5 1.5 4.5H8.5C9.05229 4.5 9.5 4.05228 9.5 3.5V1.5C9.5 0.947715 9.05229 0.5 8.5 0.5Z" stroke="black" stroke-linecap="round" stroke-linejoin="round"/>
<path id="Vector_2" d="M2.5 2.5H7.5" stroke="black" stroke-linecap="round" stroke-linejoin="round"/>
<path id="Vector_3" d="M14.5 6.5H10.5C9.94772 6.5 9.5 6.94772 9.5 7.5V9.5C9.5 10.0523 9.94772 10.5 10.5 10.5H14.5C15.0523 10.5 15.5 10.0523 15.5 9.5V7.5C15.5 6.94772 15.0523 6.5 14.5 6.5Z" stroke="black" stroke-linecap="round" stroke-linejoin="round"/>
<path id="Vector_4" d="M5.5 11.5H1.5C0.947715 11.5 0.5 11.9477 0.5 12.5V14.5C0.5 15.0523 0.947715 15.5 1.5 15.5H5.5C6.05228 15.5 6.5 15.0523 6.5 14.5V12.5C6.5 11.9477 6.05228 11.5 5.5 11.5Z" fill="black" fill-opacity="0.25" stroke="black" stroke-linecap="round" stroke-linejoin="round"/>
<path id="Vector_5" d="M12.5 10.5V12.5C12.5 13.0523 12.0523 13.5 11.5 13.5H6.5" stroke="black" stroke-linecap="round" stroke-linejoin="round"/>
<path id="Vector_6" d="M3.5 11.5V4.5" stroke="black" stroke-linecap="round" stroke-linejoin="round"/>
<path id="Vector_7" d="M9.5 2.5H11.5C12.0523 2.5 12.5 2.94772 12.5 3.5V6.5" stroke="black" stroke-linecap="round" stroke-linejoin="round"/>
<path id="Vector_8" d="M11.5 8.5H13.5" stroke="black" stroke-linecap="round" stroke-linejoin="round"/>
</g>
</svg>