<svg xmlns="http://www.w3.org/2000/svg" width="16" height="16" viewBox="0 0 16 16" fill="none">
<g id="empty-connector[flash-screen,empty,connector,connect,link]">
<path id="Vector" d="M12.8919 5.5C13.2448 6.70101 12.9475 8.05251 12 9.00001L8.99998 12C8.05248 12.9475 6.70098 13.2448 5.49996 12.8919M10.5 3.10815C9.29897 2.75523 7.94748 3.05251 6.99999 4.00001L3.99999 7.00001C3.05249 7.94751 2.7552 9.29899 3.10812 10.5" stroke="black" stroke-linecap="round" stroke-linejoin="round"/>
<path id="Vector_2" d="M14.5 1.5L9.5 6.5M6.5 9.5L1.5 14.5" stroke="black" stroke-linecap="round" stroke-linejoin="round"/>
<path id="Vector_3" d="M14.6355 4.5C16.1305 7.33216 15.6865 10.9201 13.3033 13.3033C10.9201 15.6865 7.33216 16.1305 4.5 14.6355M1.36449 11.5C-0.130537 8.66784 0.313532 5.07987 2.6967 2.6967C5.14925 0.244148 8.87778 -0.154751 11.7454 1.5" stroke="black" stroke-opacity="0.25" stroke-linecap="round" stroke-linejoin="round"/>
</g>
</svg>