<svg xmlns="http://www.w3.org/2000/svg" width="16" height="16" viewBox="0 0 16 16" fill="none">
<g id="empty-no-authority[flash-screen,empty,lock,locked,secure,password,key,safety,privacy]">
<path id="Vector" d="M12.5 6.5H2.5C1.94772 6.5 1.5 6.94772 1.5 7.5V13.5C1.5 14.0523 1.94772 14.5 2.5 14.5H12.5C13.0523 14.5 13.5 14.0523 13.5 13.5V7.5C13.5 6.94772 13.0523 6.5 12.5 6.5Z" stroke="black" stroke-linecap="round" stroke-linejoin="round"/>
<path id="Vector_2" d="M4.5 6.5V4.5C4.5 2.84315 5.84315 1.5 7.5 1.5C9.15685 1.5 10.5 2.84315 10.5 4.5V6.5" stroke="black" stroke-linecap="round" stroke-linejoin="round"/>
<path id="Vector_3" d="M6.5 9.5C6.5 10.0523 6.94772 10.5 7.5 10.5C8.05228 10.5 8.5 10.0523 8.5 9.5C8.5 8.94772 8.05228 8.5 7.5 8.5C6.94772 8.5 6.5 8.94772 6.5 9.5Z" fill="black" fill-opacity="0.25"/>
<path id="Vector_4" d="M7.5 10.5V12.5M7.5 10.5C8.05228 10.5 8.5 10.0523 8.5 9.5C8.5 8.94772 8.05228 8.5 7.5 8.5C6.94772 8.5 6.5 8.94772 6.5 9.5C6.5 10.0523 6.94772 10.5 7.5 10.5Z" stroke="black" stroke-linecap="round" stroke-linejoin="round"/>
</g>
</svg>