<svg xmlns="http://www.w3.org/2000/svg" width="16" height="16" viewBox="0 0 16 16" fill="none">
<g id="empty-file[flash-screen,empty,file,document,note,page,draft,item,sheet,content,data]">
<path id="Vector" d="M7.5 0.5V2.5M13 3L14.5 1.5M2 3L0.5 1.5" stroke="black" stroke-linecap="round"/>
<path id="Vector_2" d="M3.5 15.5H11.5C12.0523 15.5 12.5 15.0523 12.5 14.5V8.5L8.5 4.5H3.5C2.94772 4.5 2.5 4.94771 2.5 5.5V14.5C2.5 15.0523 2.94772 15.5 3.5 15.5Z" stroke="black" stroke-linecap="round" stroke-linejoin="round"/>
<path id="Vector_3" d="M4.5 8.5H6.5M4.5 11.5H10.5M4.5 13.5H10.5" stroke="black" stroke-linecap="round" stroke-linejoin="round"/>
<path id="Vector_4" d="M12.5 8.5L8.5 4.5V7.5C8.5 8.05228 8.94772 8.5 9.5 8.5H12.5Z" fill="black" fill-opacity="0.25" stroke="black" stroke-linecap="round" stroke-linejoin="round"/>
</g>
</svg>