<svg xmlns="http://www.w3.org/2000/svg" width="16" height="16" viewBox="0 0 16 16" fill="none">
<g id="empty-folder[flash-screen,empty,folder,directory,folder-open,file,catalog]">
<path id="Vector" d="M3.5 12.5L4.27208 10.1838C4.40819 9.77543 4.79033 9.5 5.22076 9.5H13.5M13.5 9.5C13.992 9.5 14.3393 9.98197 14.1838 10.4487L12.7279 14.8162C12.5918 15.2246 12.2097 15.5 11.7792 15.5H2.5C1.94772 15.5 1.5 15.0523 1.5 14.5V6.5C1.5 5.94772 1.94772 5.5 2.5 5.5H4.08579C4.351 5.5 4.60536 5.60536 4.79289 5.79289L6.20711 7.20711C6.39464 7.39464 6.649 7.5 6.91421 7.5H12.5C13.0523 7.5 13.5 7.94772 13.5 8.5V9.5Z" stroke="black" stroke-linecap="round" stroke-linejoin="round"/>
<path id="Vector_2" d="M7.5 0.5V2.5M13 3L14.5 1.5M2 3L0.5 1.5" stroke="black" stroke-linecap="round"/>
</g>
</svg>