<svg xmlns="http://www.w3.org/2000/svg" width="16" height="16" viewBox="0 0 16 16" fill="none">
<g id="empty-logic[flash-screen,empty,branch,logic,merge,commit]">
<path id="Vector" d="M7.5 0.5V2.5M13 3L14.5 1.5M2 3L0.5 1.5" stroke="black" stroke-linecap="round"/>
<path id="Vector_2" d="M3.5 5.5C3.5 6.05228 3.94772 6.5 4.5 6.5C5.05228 6.5 5.5 6.05228 5.5 5.5C5.5 4.94772 5.05228 4.5 4.5 4.5C3.94772 4.5 3.5 4.94772 3.5 5.5Z" stroke="black" stroke-linecap="round" stroke-linejoin="round"/>
<path id="Vector_3" d="M9.5 5.5C9.5 6.05228 9.94772 6.5 10.5 6.5C11.0523 6.5 11.5 6.05228 11.5 5.5C11.5 4.94772 11.0523 4.5 10.5 4.5C9.94772 4.5 9.5 4.94772 9.5 5.5Z" stroke="black" stroke-linecap="round" stroke-linejoin="round"/>
<path id="Vector_4" d="M3.5 13.5C3.5 14.0523 3.94772 14.5 4.5 14.5C5.05228 14.5 5.5 14.0523 5.5 13.5C5.5 12.9477 5.05228 12.5 4.5 12.5C3.94772 12.5 3.5 12.9477 3.5 13.5Z" stroke="black" stroke-linecap="round" stroke-linejoin="round"/>
<path id="Vector_5" d="M4.5 12.5V11.5C4.5 10.3954 5.39543 9.5 6.5 9.5H8.5C9.60457 9.5 10.5 8.60457 10.5 7.5V6.5" stroke="black" stroke-linecap="round" stroke-linejoin="round"/>
<path id="Vector_6" d="M4.5 6.5V8.5" stroke="black" stroke-linecap="round" stroke-linejoin="round"/>
</g>
</svg>