<svg xmlns="http://www.w3.org/2000/svg" width="16" height="16" viewBox="0 0 16 16" fill="none">
<g id="prompt-toolbar-attach[prompt-kit,toolbar]">
<g id="Group">
<path id="Vector" d="M8.654 5.982L6.36 8.277C6.23588 8.40098 6.13741 8.54822 6.07023 8.71028C6.00305 8.87234 5.96847 9.04606 5.96847 9.2215C5.96847 9.39693 6.00305 9.57065 6.07023 9.73271C6.13741 9.89478 6.23588 10.042 6.36 10.166C6.48398 10.2901 6.63121 10.3886 6.79328 10.4558C6.95534 10.5229 7.12906 10.5575 7.3045 10.5575C7.47993 10.5575 7.65365 10.5229 7.81571 10.4558C7.97778 10.3886 8.12501 10.2901 8.249 10.166L11.349 7.066C11.8499 6.56476 12.1313 5.88513 12.1313 5.1765C12.1313 4.46787 11.8499 3.78823 11.349 3.287C11.1009 3.03873 10.8064 2.84177 10.4822 2.7074C10.158 2.57302 9.81045 2.50386 9.4595 2.50386C9.10854 2.50386 8.76102 2.57302 8.43681 2.7074C8.1126 2.84177 7.81805 3.03873 7.57 3.287L4.2 6.657C3.44834 7.40881 3.02608 8.42839 3.02608 9.4915C3.02608 10.5546 3.44834 11.5742 4.2 12.326C4.9518 13.0777 5.97139 13.4999 7.0345 13.4999C8.09761 13.4999 9.11719 13.0777 9.869 12.326L12.969 9.226" stroke="black" stroke-linecap="round" stroke-linejoin="round"/>
</g>
</g>
</svg>