<svg xmlns="http://www.w3.org/2000/svg" width="16" height="16" viewBox="0 0 16 16" fill="none">
<g id="prompt-message-reasoning[prompt-kit,message]">
<path id="Vector" d="M7.49991 10.5001V4.00007M7.49991 10.5001C7.5002 10.7734 7.55654 11.0439 7.66543 11.2946C7.77433 11.5453 7.93347 11.7711 8.13303 11.9579C8.3326 12.1448 8.56835 12.2887 8.82572 12.3809C9.08309 12.473 9.35662 12.5114 9.62942 12.4937C9.90222 12.476 10.1685 12.4026 10.4118 12.2779C10.6551 12.1533 10.8703 11.9801 11.044 11.769C11.2178 11.558 11.3464 11.3135 11.422 11.0508C11.4975 10.7881 11.5185 10.5127 11.4834 10.2416M7.49991 10.5001C7.49962 10.7734 7.44329 11.0439 7.33439 11.2946C7.2255 11.5453 7.06636 11.7711 6.86679 11.9579C6.66723 12.1448 6.43148 12.2887 6.17411 12.3809C5.91673 12.473 5.6432 12.5114 5.3704 12.4937C5.0976 12.476 4.83133 12.4026 4.58802 12.2779C4.34472 12.1533 4.12955 11.9801 3.9558 11.769C3.78206 11.558 3.65343 11.3135 3.57786 11.0508C3.50228 10.7881 3.48137 10.5127 3.51641 10.2416M7.49991 4.00007C7.4999 3.76998 7.55282 3.54297 7.65458 3.33661C7.75634 3.13025 7.90421 2.95006 8.08675 2.80999C8.26928 2.66992 8.4816 2.57371 8.70726 2.52882C8.93293 2.48393 9.1659 2.49156 9.38815 2.55111C9.61039 2.61066 9.81596 2.72055 9.98895 2.87226C10.1619 3.02397 10.2977 3.21344 10.3857 3.42601C10.4738 3.63859 10.5118 3.86857 10.4967 4.09816C10.4816 4.32776 10.414 4.55081 10.2989 4.75007M7.49991 4.00007C7.49992 3.76998 7.447 3.54297 7.34524 3.33661C7.24348 3.13025 7.09562 2.95006 6.91308 2.80999C6.73054 2.66992 6.51823 2.57371 6.29256 2.52882C6.06689 2.48393 5.83393 2.49156 5.61168 2.55111C5.38943 2.61066 5.18386 2.72055 5.01088 2.87226C4.83789 3.02397 4.70212 3.21344 4.61408 3.42601C4.52603 3.63859 4.48807 3.86857 4.50313 4.09816C4.51819 4.32776 4.58586 4.55081 4.70091 4.75007M8.99991 8.00007C8.56731 7.87361 8.18734 7.61038 7.91691 7.24982C7.64649 6.88925 7.50018 6.45077 7.49991 6.00007C7.49964 6.45077 7.35334 6.88925 7.08291 7.24982C6.81249 7.61038 6.43251 7.87361 5.99991 8.00007M10.4984 4.06257C10.7923 4.13813 11.0652 4.27959 11.2963 4.47622C11.5274 4.67285 11.7108 4.9195 11.8325 5.19749C11.9542 5.47548 12.011 5.77751 11.9987 6.08072C11.9864 6.38393 11.9053 6.68036 11.7614 6.94757M10.4999 10.5001C10.9402 10.5 11.3681 10.3548 11.7174 10.0867C12.0666 9.81873 12.3177 9.44296 12.4317 9.01771C12.5456 8.59246 12.5161 8.14149 12.3476 7.73475C12.1791 7.328 11.8812 6.98821 11.4999 6.76807M4.49991 10.5001C4.05966 10.5 3.63172 10.3548 3.28245 10.0867C2.93318 9.81873 2.6821 9.44296 2.56815 9.01771C2.4542 8.59246 2.48375 8.14149 2.65222 7.73475C2.82069 7.328 3.11865 6.98821 3.49991 6.76807M4.50141 4.06257C4.20751 4.13813 3.93466 4.27959 3.70353 4.47622C3.47239 4.67285 3.28903 4.9195 3.16733 5.19749C3.04564 5.47548 2.98879 5.77751 3.00111 6.08072C3.01342 6.38393 3.09457 6.68036 3.23841 6.94757" stroke="black" stroke-linecap="round" stroke-linejoin="round"/>
</g>
</svg>