<svg xmlns="http://www.w3.org/2000/svg" width="16" height="16" viewBox="0 0 16 16" fill="none">
<g id="prompt-message-planning[prompt-kit,message]">
<path id="Vector" d="M7.5 2.5C8.47007 2.49982 9.41924 2.78184 10.2318 3.31168C11.0444 3.84152 11.6854 4.59629 12.0765 5.48402C12.4676 6.37174 12.5921 7.35408 12.4347 8.31129C12.2773 9.26851 11.8448 10.1593 11.19 10.875M7.5 4.5V7.5L9.5 8.5M2.75 5.9375C2.59067 6.42183 2.50637 6.92768 2.5 7.4375M2.915 9.5C3.19575 10.1459 3.60979 10.7252 4.13 11.2M3.818 4.1175C3.95752 3.96562 4.1063 3.82251 4.2635 3.689M5.822 12.21C7.06885 12.6542 8.44095 12.5859 9.6375 12.02" stroke="black" stroke-linecap="round" stroke-linejoin="round"/>
</g>
</svg>