<svg xmlns="http://www.w3.org/2000/svg" width="16" height="16" viewBox="0 0 16 16" fill="none">
<g id="prompt-message-tools[prompt-kit,message]">
<path id="Vector" d="M9.35 5.15C9.25839 5.24346 9.20707 5.36912 9.20707 5.5C9.20707 5.63088 9.25839 5.75654 9.35 5.85L10.15 6.65C10.2435 6.74161 10.3691 6.79293 10.5 6.79293C10.6309 6.79293 10.7565 6.74161 10.85 6.65L12.403 5.0975C12.563 4.9365 12.8345 4.9875 12.8945 5.2065C13.0456 5.75594 13.037 6.33703 12.8699 6.8818C12.7027 7.42656 12.3839 7.91245 11.9507 8.28262C11.5175 8.65279 10.9878 8.89192 10.4236 8.97203C9.85946 9.05215 9.28414 8.96993 8.765 8.735L4.81 12.69C4.61109 12.8888 4.34133 13.0005 4.06007 13.0005C3.77882 13.0004 3.5091 12.8887 3.31025 12.6897C3.1114 12.4908 2.99972 12.2211 2.99977 11.9398C2.99981 11.6586 3.11159 11.3888 3.3105 11.19L7.2655 7.235C7.03057 6.71586 6.94835 6.14054 7.02847 5.57637C7.10858 5.01221 7.34771 4.48252 7.71788 4.04931C8.08805 3.61609 8.57394 3.29725 9.1187 3.13011C9.66347 2.96297 10.2446 2.95443 10.794 3.1055C11.013 3.1655 11.064 3.4365 10.9035 3.5975L9.35 5.15Z" stroke="black" stroke-linecap="round" stroke-linejoin="round"/>
</g>
</svg>