<svg xmlns="http://www.w3.org/2000/svg" width="16" height="16" viewBox="0 0 16 16" fill="none">
<g id="prompt-toolbar-web-search[prompt-kit,toolbar]">
<path id="Vector" d="M12.5 7.5C12.5 10.2614 10.2614 12.5 7.5 12.5M12.5 7.5C12.5 4.73858 10.2614 2.5 7.5 2.5M12.5 7.5H2.5M7.5 12.5C4.73858 12.5 2.5 10.2614 2.5 7.5M7.5 12.5C6.21612 11.1519 5.5 9.36163 5.5 7.5C5.5 5.63837 6.21612 3.84808 7.5 2.5M7.5 12.5C8.78388 11.1519 9.5 9.36163 9.5 7.5C9.5 5.63837 8.78388 3.84808 7.5 2.5M2.5 7.5C2.5 4.73858 4.73858 2.5 7.5 2.5" stroke="black" stroke-linecap="round" stroke-linejoin="round"/>
</g>
</svg>