<svg xmlns="http://www.w3.org/2000/svg" width="16" height="16" viewBox="0 0 16 16" fill="none">
<g id="prompt-actions-thumbs-up[prompt-kit,actions]">
<path id="Vector" d="M5.5 7V13" stroke="black" stroke-linecap="round" stroke-linejoin="round"/>
<path id="Vector_2" d="M9.5 4.94L9 7H11.915C12.0702 7 12.2234 7.03614 12.3622 7.10557C12.5011 7.175 12.6219 7.2758 12.715 7.4C12.8081 7.5242 12.8711 7.66837 12.8989 7.82111C12.9266 7.97386 12.9185 8.13096 12.875 8.28L11.71 12.28C11.6494 12.4877 11.5231 12.6702 11.35 12.8C11.1769 12.9298 10.9664 13 10.75 13H3.5C3.23478 13 2.98043 12.8946 2.79289 12.7071C2.60536 12.5196 2.5 12.2652 2.5 12V8C2.5 7.73478 2.60536 7.48043 2.79289 7.29289C2.98043 7.10536 3.23478 7 3.5 7H5.38C5.56604 6.9999 5.74837 6.94791 5.90648 6.84986C6.06459 6.75181 6.19221 6.61161 6.275 6.445L8 3C8.23579 3.00292 8.46787 3.05908 8.6789 3.1643C8.88994 3.26951 9.07446 3.42105 9.2187 3.6076C9.36294 3.79415 9.46316 4.01088 9.51187 4.2416C9.56058 4.47232 9.55652 4.71107 9.5 4.94Z" stroke="black" stroke-linecap="round" stroke-linejoin="round"/>
</g>
</svg>