<svg xmlns="http://www.w3.org/2000/svg" width="16" height="16" viewBox="0 0 16 16" fill="none">
<g id="prompt-actions-thumbs-down[prompt-kit,actions]">
<path id="Vector" d="M10.5 9V3" stroke="black" stroke-linecap="round" stroke-linejoin="round"/>
<path id="Vector_2" d="M6.5 11.06L7 9H4.085C3.92975 9 3.77664 8.96386 3.63779 8.89443C3.49893 8.825 3.37815 8.7242 3.285 8.6C3.19185 8.4758 3.1289 8.33163 3.10113 8.17889C3.07336 8.02614 3.08153 7.86904 3.125 7.72L4.29 3.72C4.35058 3.51228 4.4769 3.32982 4.65 3.2C4.8231 3.07018 5.03363 3 5.25 3H12.5C12.7652 3 13.0196 3.10536 13.2071 3.29289C13.3946 3.48043 13.5 3.73478 13.5 4V8C13.5 8.26522 13.3946 8.51957 13.2071 8.70711C13.0196 8.89464 12.7652 9 12.5 9H10.62C10.434 9.0001 10.2516 9.05209 10.0935 9.15014C9.93541 9.24819 9.80779 9.38839 9.725 9.555L8 13C7.76421 12.9971 7.53213 12.9409 7.3211 12.8357C7.11006 12.7305 6.92553 12.5789 6.7813 12.3924C6.63706 12.2059 6.53684 11.9891 6.48813 11.7584C6.43942 11.5277 6.44348 11.2889 6.5 11.06Z" stroke="black" stroke-linecap="round" stroke-linejoin="round"/>
</g>
</svg>