<svg xmlns="http://www.w3.org/2000/svg" width="16" height="16" viewBox="0 0 16 16" fill="none">
<g id="alarm-small[alert,alarm,notification,bell]">
<g id="Group">
<path id="Vector" d="M6.592 12.5C6.69383 12.7923 6.88408 13.0456 7.13638 13.2249C7.38867 13.4042 7.6905 13.5005 8 13.5005C8.3095 13.5005 8.61134 13.4042 8.86363 13.2249C9.11593 13.0456 9.30618 12.7923 9.408 12.5" stroke="black" stroke-linecap="round" stroke-linejoin="round"/>
<path id="Vector_2" d="M2.5 10.5H13.5" stroke="black" stroke-linecap="round" stroke-linejoin="round"/>
<path id="Vector_3" d="M13.5 10.5C12.9812 10.4647 12.4927 10.2426 12.1251 9.87495C11.7574 9.50725 11.5353 9.0188 11.5 8.5V6C11.5 5.07174 11.1313 4.1815 10.4749 3.52513C9.8185 2.86875 8.92826 2.5 8 2.5C7.07174 2.5 6.1815 2.86875 5.52513 3.52513C4.86875 4.1815 4.5 5.07174 4.5 6V8.5C4.4647 9.0188 4.24265 9.50725 3.87495 9.87495C3.50725 10.2426 3.0188 10.4647 2.5 10.5" stroke="black" stroke-linecap="round" stroke-linejoin="round"/>
</g>
</g>
</svg>