<svg xmlns="http://www.w3.org/2000/svg" width="16" height="16" viewBox="0 0 16 16" fill="none">
<g id="alarm-small-solid[alert,alarm,notification,bell,solid]">
<g id="Group">
<path id="Vector" d="M13.5 10C13.1134 9.96659 12.751 9.79783 12.4766 9.52343C12.2022 9.24904 12.0334 8.88661 12 8.5V6C12 4.93913 11.5786 3.92172 10.8284 3.17157C10.0783 2.42143 9.06087 2 8 2C6.93913 2 5.92172 2.42143 5.17157 3.17157C4.42143 3.92172 4 4.93913 4 6V8.5C3.96659 8.88661 3.79783 9.24904 3.52343 9.52343C3.24904 9.79783 2.88661 9.96659 2.5 10C2.36739 10 2.24021 10.0527 2.14645 10.1464C2.05268 10.2402 2 10.3674 2 10.5C2 10.6326 2.05268 10.7598 2.14645 10.8536C2.24021 10.9473 2.36739 11 2.5 11H13.5C13.6326 11 13.7598 10.9473 13.8536 10.8536C13.9473 10.7598 14 10.6326 14 10.5C14 10.3674 13.9473 10.2402 13.8536 10.1464C13.7598 10.0527 13.6326 10 13.5 10Z" fill="black"/>
<path id="Vector_2" d="M8 14C8.53043 14 9.03914 13.7893 9.41421 13.4142C9.78929 13.0391 10 12.5304 10 12H6C6 12.5304 6.21071 13.0391 6.58579 13.4142C6.96086 13.7893 7.46957 14 8 14Z" fill="black"/>
</g>
</g>
</svg>