<svg xmlns="http://www.w3.org/2000/svg" width="16" height="16" viewBox="0 0 16 16" fill="none">
<g id="circle-question-large[solid,alert,question,circle]">
<g id="Group">
<path id="Vector" d="M8 0C6.41775 0 4.87103 0.469192 3.55544 1.34824C2.23985 2.22729 1.21447 3.47672 0.608967 4.93853C0.00346625 6.40034 -0.15496 8.00887 0.153721 9.56072C0.462403 11.1126 1.22433 12.538 2.34315 13.6569C3.46197 14.7757 4.88743 15.5376 6.43928 15.8463C7.99113 16.155 9.59966 15.9965 11.0615 15.391C12.5233 14.7855 13.7727 13.7602 14.6518 12.4446C15.5308 11.129 16 9.58225 16 8C15.9937 5.88022 15.1488 3.84906 13.6499 2.35014C12.1509 0.851219 10.1198 0.00633091 8 0ZM8 14C6.81332 14 5.65328 13.6481 4.66658 12.9888C3.67989 12.3295 2.91085 11.3925 2.45673 10.2961C2.0026 9.19974 1.88378 7.99334 2.11529 6.82946C2.3468 5.66557 2.91825 4.59647 3.75736 3.75736C4.59648 2.91824 5.66558 2.3468 6.82946 2.11529C7.99335 1.88378 9.19975 2.0026 10.2961 2.45672C11.3925 2.91085 12.3295 3.67988 12.9888 4.66658C13.6481 5.65327 14 6.81331 14 8C13.9953 9.58984 13.3616 11.1132 12.2374 12.2374C11.1132 13.3616 9.58984 13.9953 8 14Z" fill="black"/>
<path id="Vector_2" d="M8 13C8.55228 13 9 12.5523 9 12C9 11.4477 8.55228 11 8 11C7.44772 11 7 11.4477 7 12C7 12.5523 7.44772 13 8 13Z" fill="black"/>
<path id="Vector_3" d="M8 10C7.73479 10 7.48043 9.89464 7.2929 9.70711C7.10536 9.51957 7 9.26522 7 9C7.0142 8.52004 7.14129 8.05019 7.37097 7.62852C7.60066 7.20685 7.92647 6.84524 8.322 6.573C8.822 6.148 8.944 6.003 8.944 5.667C8.944 5.484 8.944 5 8 5C7.52844 5.03598 7.0839 5.23423 6.742 5.561C6.54893 5.74307 6.29143 5.84099 6.02616 5.8332C5.76089 5.82542 5.50958 5.71258 5.3275 5.5195C5.14543 5.32642 5.04752 5.06893 5.0553 4.80366C5.06308 4.53839 5.17593 4.28707 5.369 4.105C6.07106 3.44344 6.98476 3.05195 7.948 3C8.32414 2.95577 8.70537 2.99176 9.06658 3.1056C9.42779 3.21944 9.76078 3.40854 10.0436 3.66045C10.3264 3.91235 10.5526 4.22133 10.7073 4.56703C10.862 4.91272 10.9416 5.28728 10.941 5.666C10.9273 6.14547 10.8008 6.61496 10.5718 7.03644C10.3428 7.45792 10.0178 7.81954 9.623 8.092C9.126 8.519 9 8.663 9 9C9 9.26522 8.89465 9.51957 8.70711 9.70711C8.51957 9.89464 8.26522 10 8 10Z" fill="black"/>
</g>
</g>
</svg>