<svg xmlns="http://www.w3.org/2000/svg" width="16" height="16" viewBox="0 0 16 16" fill="none">
<g id="circle-check-large[solid,alert,check,circle]">
<g id="Group">
<path id="Vector" d="M8 0C3.589 0 0 3.589 0 8C0 12.411 3.589 16 8 16C12.411 16 16 12.411 16 8C16 3.589 12.411 0 8 0ZM8 14C4.691 14 2 11.309 2 8C2 4.691 4.691 2 8 2C11.309 2 14 4.691 14 8C14 11.309 11.309 14 8 14Z" fill="black"/>
<path id="Vector_2" d="M7 11C6.744 11 6.488 10.902 6.293 10.707L4.293 8.707C3.902 8.316 3.902 7.684 4.293 7.293C4.684 6.902 5.316 6.902 5.707 7.293L7 8.586L10.293 5.293C10.684 4.902 11.316 4.902 11.707 5.293C12.098 5.684 12.098 6.316 11.707 6.707L7.707 10.707C7.512 10.902 7.256 11 7 11Z" fill="black"/>
</g>
</g>
</svg>