<svg xmlns="http://www.w3.org/2000/svg" width="16" height="16" viewBox="0 0 16 16" fill="none">
<g id="square-info-large-solid[solid,alert,info,square]">
<g id="Group">
<path id="Vector" d="M14 0H2C0.895 0 0 0.895 0 2V14C0 15.105 0.895 16 2 16H14C15.105 16 16 15.105 16 14V2C16 0.895 15.105 0 14 0ZM9 11.5C9 11.776 8.776 12 8.5 12H7.5C7.224 12 7 11.776 7 11.5V7.5C7 7.224 7.224 7 7.5 7H8.5C8.776 7 9 7.224 9 7.5V11.5ZM8 6C7.448 6 7 5.552 7 5C7 4.448 7.448 4 8 4C8.552 4 9 4.448 9 5C9 5.552 8.552 6 8 6Z" fill="black"/>
</g>
</g>
</svg>