<svg xmlns="http://www.w3.org/2000/svg" width="16" height="16" viewBox="0 0 16 16" fill="none">
<g id="square-question-large-solid[solid,alert,question,square]">
<g id="Group">
<path id="Vector" d="M14 0H2C0.895 0 0 0.895 0 2V14C0 15.105 0.895 16 2 16H14C15.105 16 16 15.105 16 14V2C16 0.895 15.105 0 14 0ZM8 13C7.448 13 7 12.552 7 12C7 11.448 7.448 11 8 11C8.552 11 9 11.448 9 12C9 12.552 8.552 13 8 13ZM9.647 8.048C9.156 8.468 8.998 8.635 8.998 9C8.998 9.553 8.55 10 7.998 10C7.446 10 6.998 9.553 6.998 9C6.998 7.685 7.809 6.989 8.346 6.529C8.837 6.107 8.996 5.941 8.996 5.575C8.996 5.381 8.996 4.863 7.998 4.863C7.542 4.888 7.058 5.095 6.687 5.446C6.285 5.825 5.653 5.809 5.273 5.406C4.894 5.005 4.911 4.372 5.313 3.993C6.028 3.316 6.963 2.916 7.945 2.864H7.948C9.792 2.864 10.995 3.954 10.995 5.575C10.995 6.891 10.183 7.587 9.646 8.048H9.647Z" fill="black"/>
</g>
</g>
</svg>