<svg xmlns="http://www.w3.org/2000/svg" width="16" height="16" viewBox="0 0 16 16" fill="none">
<g id="triangle-warning-large[solid,alert,warning]">
<g id="Group">
<path id="Vector" d="M8 13C7.448 13 7 12.552 7 12C7 11.448 7.448 11 8 11C8.552 11 9 11.448 9 12C9 12.552 8.552 13 8 13ZM9 9.5C9 9.776 8.776 10 8.5 10H7.5C7.224 10 7 9.776 7 9.5V5.5C7 5.224 7.224 5 7.5 5H8.5C8.776 5 9 5.224 9 5.5V9.5Z" fill="black"/>
<path id="Vector_2" d="M14.037 16H1.955C1.282 16 0.665001 15.651 0.306001 15.068C-0.069999 14.458 -0.102999 13.711 0.220001 13.069L6.228 1.088C6.563 0.419 7.227 0.002 7.959 0H7.964C8.695 0 9.359 0.413 9.696 1.08L15.769 13.062C16.094 13.704 16.063 14.453 15.687 15.065C15.328 15.65 14.711 16 14.037 16ZM7.965 2.087L2.007 13.967L13.972 14L7.965 2.087Z" fill="black"/>
</g>
</g>
</svg>