<svg xmlns="http://www.w3.org/2000/svg" width="16" height="16" viewBox="0 0 16 16" fill="none">
<g id="dynamic-date[data,datasheet,table,date,calendar,dynamic,time]">
<path id="Vector" d="M3.5 2.5H2.5C1.94771 2.5 1.5 2.94772 1.5 3.5V10.5C1.5 11.0523 1.94771 11.5 2.5 11.5H7.5M9.5 2.5H10.5C11.0523 2.5 11.5 2.94772 11.5 3.5V5.5M5.5 2.5H7.5" stroke="black" stroke-linecap="round" stroke-linejoin="round"/>
<path id="Vector_2" d="M1.5 5.5H11.5" stroke="black" stroke-linecap="round" stroke-linejoin="round"/>
<path id="Vector_3" d="M3.5 1.5V3.5M9.5 1.5V3.5" stroke="black" stroke-linecap="round" stroke-linejoin="round"/>
<path id="Vector_4" d="M3.5 7.5H3.505M5.5 7.5H5.505M7.5 7.5H7.505M3.5 9.5H3.505M5.5 9.5H5.505M7.5 9.5H7.505M9.5 7.5H9.505" stroke="black" stroke-linecap="round" stroke-linejoin="round"/>
<path id="Vector_5" d="M10.5 13.5L12 12M12 12L9.5 10.5C9.5 10.5 10.1667 9.83333 11 9M12 12L13.5 10.5L11 9M12.5 7.5C11.8333 8.16667 11.8333 8.16667 11 9" stroke="black" stroke-linecap="round" stroke-linejoin="round"/>
</g>
</svg>