<svg xmlns="http://www.w3.org/2000/svg" width="16" height="16" viewBox="0 0 16 16" fill="none">
<g id="extensions[data,datasheet,table,plug,energy,power]">
<path id="Vector" d="M14 7.99995L8 1.99995C7.72386 1.72381 7.27614 1.72381 7 1.99995C6.72386 2.2761 6.72386 2.72381 7 2.99995L7.5 3.49995L5.91422 5.08574C5.13317 5.86679 5.13317 7.13312 5.91422 7.91417L8.08579 10.0857C8.86684 10.8668 10.1332 10.8668 10.9142 10.0857L12.5 8.49995L13 8.99995C13.2761 9.2761 13.7239 9.2761 14 8.99995C14.2761 8.72381 14.2761 8.2761 14 7.99995Z" fill="black" fill-opacity="0.25"/>
<path id="Vector_2" d="M8.5 5.5L10.5 7.5M7 2.99995C6.72386 2.72381 6.72386 2.2761 7 1.99995C7.27615 1.72381 7.72386 1.72381 8 1.99995L14 7.99995C14.2761 8.2761 14.2761 8.72381 14 8.99995C13.7239 9.2761 13.2761 9.2761 13 8.99995L12.5 8.49995L10.9142 10.0857C10.1332 10.8668 8.86684 10.8668 8.08579 10.0857L5.91422 7.91417C5.13317 7.13312 5.13317 5.86679 5.91422 5.08574L7.5 3.49995L7 2.99995Z" stroke="black" stroke-linecap="round" stroke-linejoin="round"/>
<path id="Vector_3" d="M7 9L4 12M9.5 3.5L11.5 1.5M14.5 4.5L12.5 6.5" stroke="black" stroke-linecap="round" stroke-linejoin="round"/>
<path id="Vector_4" d="M3.5 2.5H2.5C1.94771 2.5 1.5 2.94772 1.5 3.5V13.5C1.5 14.0523 1.94771 14.5 2.5 14.5H12.5C13.0523 14.5 13.5 14.0523 13.5 13.5V12.5" stroke="black" stroke-linecap="round" stroke-linejoin="round"/>
</g>
</svg>