<svg xmlns="http://www.w3.org/2000/svg" width="16" height="16" viewBox="0 0 16 16" fill="none">
<g id="field-freeze[data,datasheet,table,field,lock,security,safe,privacy]">
<path id="Vector" d="M13.5 10.5H8.5C7.94772 10.5 7.5 10.9477 7.5 11.5V13.5C7.5 14.0523 7.94772 14.5 8.5 14.5H13.5C14.0523 14.5 14.5 14.0523 14.5 13.5V11.5C14.5 10.9477 14.0523 10.5 13.5 10.5Z" stroke="black" stroke-linecap="round" stroke-linejoin="round"/>
<path id="Vector_2" d="M9.5 10V9C9.5 8.17157 10.1716 7.5 11 7.5C11.8284 7.5 12.5 8.17157 12.5 9V10" stroke="black" stroke-linecap="round" stroke-linejoin="round"/>
<path id="Vector_3" d="M5.5 13.5V1.5H1.5L1.5 13.5H5.5Z" fill="black" fill-opacity="0.25"/>
<path id="Vector_4" d="M8.5 5.5V2.5C8.5 1.94771 8.94772 1.5 9.5 1.5H11.5C12.0523 1.5 12.5 1.94771 12.5 2.5V5.5M5.5 1.5V13.5H1.5L1.5 1.5H5.5Z" stroke="black" stroke-linecap="round" stroke-linejoin="round"/>
</g>
</svg>