<svg xmlns="http://www.w3.org/2000/svg" width="16" height="16" viewBox="0 0 16 16" fill="none">
<g id="field-duplicate[data,datasheet,table,field,duplicate,copy,clone,paste]">
<path id="Vector" d="M8.5 10.5H11.5C12.0523 10.5 12.5 10.0523 12.5 9.5V2.5C12.5 1.94771 12.0523 1.5 11.5 1.5H8.5C7.94772 1.5 7.5 1.94771 7.5 2.5V9.5C7.5 10.0523 7.94772 10.5 8.5 10.5Z" fill="black" fill-opacity="0.25"/>
<path id="Vector_2" d="M8.5 12.5V13.5C8.5 14.0523 8.05228 14.5 7.5 14.5H4.5C3.94772 14.5 3.5 14.0523 3.5 13.5V6.5C3.5 5.94771 3.94772 5.5 4.5 5.5H5.5M11.5 1.5H8.5C7.94772 1.5 7.5 1.94771 7.5 2.5V9.5C7.5 10.0523 7.94772 10.5 8.5 10.5H11.5C12.0523 10.5 12.5 10.0523 12.5 9.5V2.5C12.5 1.94771 12.0523 1.5 11.5 1.5Z" stroke="black" stroke-linecap="round" stroke-linejoin="round"/>
</g>
</svg>