<svg xmlns="http://www.w3.org/2000/svg" width="16" height="16" viewBox="0 0 16 16" fill="none">
<g id="field-dynamic[data,datasheet,table,field,dynamic]">
<path id="Vector" d="M7.5 3.5V2.5C7.5 1.94771 7.05228 1.5 6.5 1.5H4.5C3.94771 1.5 3.5 1.94771 3.5 2.5V3.5M10.5 4.5V2.5C10.5 1.94772 10.9477 1.5 11.5 1.5H13.5C14.0523 1.5 14.5 1.94771 14.5 2.5V12.5C14.5 13.0523 14.0523 13.5 13.5 13.5H11.5" stroke="black" stroke-linecap="round" stroke-linejoin="round"/>
<path id="Vector_2" d="M7.75904 8.02559V11.1517C7.75904 12.1163 9.28311 12.3306 10.0813 11.0265C10.7578 9.92285 10.5919 8.23994 9.74688 7.13219C8.50363 5.50164 5.62909 4.89213 3.54084 6.2396C1.62192 7.47826 0.938602 9.98421 1.9989 12.0099C3.04813 14.0144 5.51081 14.9855 7.74032 14.2606M7.75138 9.93756C7.75138 10.9754 6.9334 11.8168 5.92437 11.8168C4.91534 11.8168 4.09736 10.9754 4.09736 9.93756C4.09736 8.89968 4.91534 8.0583 5.92437 8.0583C6.9334 8.0583 7.75138 8.89968 7.75138 9.93756Z" stroke="black" stroke-linecap="round" stroke-linejoin="round"/>
</g>
</svg>