<svg xmlns="http://www.w3.org/2000/svg" width="16" height="16" viewBox="0 0 16 16" fill="none">
<g id="record-edit[data,datasheet,table,record,pen,pencil,draw,create]">
<path id="Vector" d="M1.5 4.5V2.5C1.5 1.94771 1.94771 1.5 2.5 1.5H12.5C13.0523 1.5 13.5 1.94771 13.5 2.5V4.5C13.5 5.05228 13.0523 5.5 12.5 5.5H2.5C1.94772 5.5 1.5 5.05228 1.5 4.5Z" fill="black" fill-opacity="0.25"/>
<path id="Vector_2" d="M7.5 8.5H2.5C1.94771 8.5 1.5 8.94772 1.5 9.5V11.5C1.5 12.0523 1.94771 12.5 2.5 12.5H5.5M13.5 2.5V4.5C13.5 5.05228 13.0523 5.5 12.5 5.5H2.5C1.94771 5.5 1.5 5.05228 1.5 4.5V2.5C1.5 1.94771 1.94771 1.5 2.5 1.5H12.5C13.0523 1.5 13.5 1.94771 13.5 2.5Z" stroke="black" stroke-linecap="round" stroke-linejoin="round"/>
<path id="Vector_3" d="M7.5 14.5L8.5 11.5L12.1464 7.85354C12.3417 7.65828 12.6583 7.65828 12.8536 7.85354L14.1464 9.14644C14.3417 9.3417 14.3417 9.65828 14.1464 9.85354L10.5 13.5L7.5 14.5Z" stroke="black" stroke-linecap="round" stroke-linejoin="round"/>
</g>
</svg>