<svg xmlns="http://www.w3.org/2000/svg" width="16" height="16" viewBox="0 0 16 16" fill="none">
<g id="record-settings[data,datasheet,table,record,control,preferences,system]">
<path id="Vector" d="M4.5 6.5C5.60457 6.5 6.5 5.60457 6.5 4.5C6.5 3.39543 5.60457 2.5 4.5 2.5C3.39543 2.5 2.5 3.39543 2.5 4.5C2.5 5.60457 3.39543 6.5 4.5 6.5Z" stroke="black" stroke-linecap="round" stroke-linejoin="round"/>
<path id="Vector_2" d="M4.5 2.5V1.5M4.5 6.5V7.5M6.5 4.5H7.5M2.5 4.5H1.5M5.91421 3.08579L6.62132 2.37868M3.08579 5.91421L2.37868 6.62132M5.91421 5.91421L6.62132 6.62132M3.08579 3.08579L2.37868 2.37868" stroke="black" stroke-linecap="round" stroke-linejoin="round"/>
<path id="Vector_3" d="M14.5 13.5V11.5C14.5 10.9477 14.0523 10.5 13.5 10.5H3.5C2.94772 10.5 2.5 10.9477 2.5 11.5V13.5C2.5 14.0523 2.94772 14.5 3.5 14.5H13.5C14.0523 14.5 14.5 14.0523 14.5 13.5Z" fill="black" fill-opacity="0.25"/>
<path id="Vector_4" d="M9.5 3.5H13.5C14.0523 3.5 14.5 3.94772 14.5 4.5V6.5C14.5 7.05228 14.0523 7.5 13.5 7.5H9.5M2.5 11.5V13.5C2.5 14.0523 2.94772 14.5 3.5 14.5H13.5C14.0523 14.5 14.5 14.0523 14.5 13.5V11.5C14.5 10.9477 14.0523 10.5 13.5 10.5H3.5C2.94772 10.5 2.5 10.9477 2.5 11.5Z" stroke="black" stroke-linecap="round" stroke-linejoin="round"/>
</g>
</svg>