<svg xmlns="http://www.w3.org/2000/svg" width="16" height="16" viewBox="0 0 16 16" fill="none">
<g id="record-add[data,datasheet,table,record,plus,create,add]">
<path id="Vector" d="M11.5 12.5H13.5C14.0523 12.5 14.5 12.0523 14.5 11.5V9.5C14.5 8.94772 14.0523 8.5 13.5 8.5H11.5M2.5 4.5V2.5C2.5 1.94771 2.94772 1.5 3.5 1.5H13.5C14.0523 1.5 14.5 1.94771 14.5 2.5V4.5C14.5 5.05228 14.0523 5.5 13.5 5.5H9.5" stroke="black" stroke-linecap="round" stroke-linejoin="round"/>
<path id="Vector_2" d="M7.5 10.5H3.5M5.5 12.5V8.5" stroke="black" stroke-linecap="round" stroke-linejoin="round"/>
<path id="Vector_3" d="M9.5 10.5C9.5 12.7091 7.70914 14.5 5.5 14.5C3.29086 14.5 1.5 12.7091 1.5 10.5C1.5 8.29086 3.29086 6.5 5.5 6.5C7.70914 6.5 9.5 8.29086 9.5 10.5Z" fill="black" fill-opacity="0.25" stroke="black" stroke-linecap="round" stroke-linejoin="round"/>
</g>
</svg>