<svg xmlns="http://www.w3.org/2000/svg" width="16" height="16" viewBox="0 0 16 16" fill="none">
<g id="record-freeze[data,datasheet,table,record,lock,security,safe,privacy]">
<path id="Vector" d="M1.5 5.5V1.5H13.5V5.5H1.5Z" fill="black" fill-opacity="0.25"/>
<path id="Vector_2" d="M6.5 8.5H2.5C1.94771 8.5 1.5 8.94772 1.5 9.5V11.5C1.5 12.0523 1.94771 12.5 2.5 12.5H4.5M1.5 1.5V5.5H13.5V1.5H1.5Z" stroke="black" stroke-linecap="round" stroke-linejoin="round"/>
<path id="Vector_3" d="M13.5 10.5H8.5C7.94772 10.5 7.5 10.9477 7.5 11.5V13.5C7.5 14.0523 7.94772 14.5 8.5 14.5H13.5C14.0523 14.5 14.5 14.0523 14.5 13.5V11.5C14.5 10.9477 14.0523 10.5 13.5 10.5Z" stroke="black" stroke-linecap="round" stroke-linejoin="round"/>
<path id="Vector_4" d="M9.5 10V9C9.5 8.17157 10.1716 7.5 11 7.5C11.8284 7.5 12.5 8.17157 12.5 9V10" stroke="black" stroke-linecap="round" stroke-linejoin="round"/>
</g>
</svg>