<svg xmlns="http://www.w3.org/2000/svg" width="16" height="16" viewBox="0 0 16 16" fill="none">
<g id="view-settings[data,datasheet,table,view,control,preferences,system]">
<path id="Vector" d="M1.5 10.5V9.5M3.5 1.5H2.5C1.94771 1.5 1.5 1.94771 1.5 2.5V3.5M9.5 1.5H10.5C11.0523 1.5 11.5 1.94771 11.5 2.5V3.5M7.5 1.5H5.5M1.5 7.5V5.5" stroke="black" stroke-linecap="round" stroke-linejoin="round"/>
<path id="Vector_2" d="M9 10.5C9.82843 10.5 10.5 9.82843 10.5 9C10.5 8.17157 9.82843 7.5 9 7.5C8.17157 7.5 7.5 8.17157 7.5 9C7.5 9.82843 8.17157 10.5 9 10.5Z" stroke="black" stroke-linecap="round" stroke-linejoin="round"/>
<path id="Vector_3" d="M13 9C12.9959 8.66195 12.9481 8.32584 12.858 8L14.138 6.9L13.388 5.6L11.809 6.156C11.3214 5.67865 10.7196 5.33435 10.061 5.156L9.75 3.5H8.25L7.939 5.16C7.2804 5.33835 6.67855 5.68265 6.191 6.16L4.612 5.6L3.862 6.9L5.142 8C5.05187 8.32584 5.00415 8.66195 5 9C5.00415 9.33805 5.05187 9.67416 5.142 10L3.862 11.1L4.612 12.4L6.191 11.845C6.67855 12.3223 7.2804 12.6667 7.939 12.845L8.25 14.5H9.75L10.061 12.84C10.7196 12.6617 11.3214 12.3173 11.809 11.84L13.388 12.395L14.138 11.095L12.858 10C12.9481 9.67416 12.9959 9.33805 13 9Z" stroke="black" stroke-linecap="round" stroke-linejoin="round"/>
</g>
</svg>