<svg xmlns="http://www.w3.org/2000/svg" width="16" height="16" viewBox="0 0 16 16" fill="none">
<g id="view-add[data,datasheet,table,view,plus,create,add]">
<path id="Vector" d="M1.5 10.5V11.5C1.5 12.0523 1.94771 12.5 2.5 12.5H3.5M3.5 2.5H2.5C1.94771 2.5 1.5 2.94772 1.5 3.5V4.5M9.5 2.5H10.5C11.0523 2.5 11.5 2.94772 11.5 3.5V4.5M7.5 2.5H5.5M1.5 8.5V6.5" stroke="black" stroke-linecap="round" stroke-linejoin="round"/>
<path id="Vector_2" d="M11.5 10.5H7.5M9.5 8.5V12.5" stroke="black" stroke-linecap="round" stroke-linejoin="round"/>
<path id="Vector_3" d="M13.5 10.5C13.5 8.29086 11.7091 6.5 9.5 6.5C7.29086 6.5 5.5 8.29086 5.5 10.5C5.5 12.7091 7.29086 14.5 9.5 14.5C11.7091 14.5 13.5 12.7091 13.5 10.5Z" fill="black" fill-opacity="0.25" stroke="black" stroke-linecap="round" stroke-linejoin="round"/>
</g>
</svg>