<svg xmlns="http://www.w3.org/2000/svg" width="16" height="16" viewBox="0 0 16 16" fill="none">
<g id="field-type-single-select[field,type,data,datasheet,table]">
<path id="Vector" d="M2.5 4.5C2.5 5.60457 3.39543 6.5 4.5 6.5C5.60457 6.5 6.5 5.60457 6.5 4.5C6.5 3.39543 5.60457 2.5 4.5 2.5C3.39543 2.5 2.5 3.39543 2.5 4.5Z" stroke="black" stroke-linecap="round" stroke-linejoin="round"/>
<path id="Vector_2" d="M8.5 4.5H12.5M8.5 10.5H12.5" stroke="black" stroke-linecap="round" stroke-linejoin="round"/>
<path id="Vector_3" d="M2.5 10.5C2.5 11.6046 3.39543 12.5 4.5 12.5C5.60457 12.5 6.5 11.6046 6.5 10.5C6.5 9.39543 5.60457 8.5 4.5 8.5C3.39543 8.5 2.5 9.39543 2.5 10.5Z" stroke="black" stroke-linecap="round" stroke-linejoin="round"/>
<path id="Vector_4" d="M4.5 4.5H4.505" stroke="black" stroke-linecap="round" stroke-linejoin="round"/>
</g>
</svg>