<svg xmlns="http://www.w3.org/2000/svg" width="16" height="16" viewBox="0 0 16 16" fill="none">
<g id="field-settings[data,datasheet,table,field,control,preferences,system]">
<path id="Vector" d="M5.5 13.5C6.60457 13.5 7.5 12.6046 7.5 11.5C7.5 10.3954 6.60457 9.5 5.5 9.5C4.39543 9.5 3.5 10.3954 3.5 11.5C3.5 12.6046 4.39543 13.5 5.5 13.5Z" stroke="black" stroke-linecap="round" stroke-linejoin="round"/>
<path id="Vector_2" d="M5.5 9.5V8.5M5.5 13.5V14.5M7.5 11.5H8.5M3.5 11.5H2.5M6.91421 10.0858L7.62132 9.37868M4.08579 12.9142L3.37868 13.6213M6.91421 12.9142L7.62132 13.6213M4.08579 10.0858L3.37868 9.37868" stroke="black" stroke-linecap="round" stroke-linejoin="round"/>
<path id="Vector_3" d="M10.5 2.5V12.5C10.5 13.0523 10.9477 13.5 11.5 13.5H13.5C14.0523 13.5 14.5 13.0523 14.5 12.5V2.5C14.5 1.94771 14.0523 1.5 13.5 1.5H11.5C10.9477 1.5 10.5 1.94771 10.5 2.5Z" fill="black" fill-opacity="0.25"/>
<path id="Vector_4" d="M3.5 6.5V2.5C3.5 1.94771 3.94772 1.5 4.5 1.5H6.5C7.05228 1.5 7.5 1.94771 7.5 2.5V6.5M14.5 12.5V2.5C14.5 1.94771 14.0523 1.5 13.5 1.5H11.5C10.9477 1.5 10.5 1.94771 10.5 2.5V12.5C10.5 13.0523 10.9477 13.5 11.5 13.5H13.5C14.0523 13.5 14.5 13.0523 14.5 12.5Z" stroke="black" stroke-linecap="round" stroke-linejoin="round"/>
</g>
</svg>