<svg xmlns="http://www.w3.org/2000/svg" width="16" height="16" viewBox="0 0 16 16" fill="none">
<g id="field-delete[data,datasheet,table,field,clear,remove,delete]">
<path id="Vector" d="M7.5 10.5H3.5" stroke="black" stroke-linecap="round" stroke-linejoin="round"/>
<path id="Vector_2" d="M9.5 10.5C9.5 8.29086 7.70914 6.5 5.5 6.5C3.29086 6.5 1.5 8.29086 1.5 10.5C1.5 12.7091 3.29086 14.5 5.5 14.5C7.70914 14.5 9.5 12.7091 9.5 10.5Z" stroke="black" stroke-linecap="round" stroke-linejoin="round"/>
<path id="Vector_3" d="M3.5 4.5V2.5C3.5 1.94771 3.94772 1.5 4.5 1.5H6.5C7.05228 1.5 7.5 1.94771 7.5 2.5V4.5M11.5 13.5H13.5C14.0523 13.5 14.5 13.0523 14.5 12.5V2.5C14.5 1.94771 14.0523 1.5 13.5 1.5H11.5C10.9477 1.5 10.5 1.94771 10.5 2.5V6.5" stroke="black" stroke-linecap="round" stroke-linejoin="round"/>
</g>
</svg>