<svg xmlns="http://www.w3.org/2000/svg" width="16" height="16" viewBox="0 0 16 16" fill="none">
<g id="record-hide[data,datasheet,table,record,watch,view,eye,visibility,disabled,hidden,hide,look]">
<path id="Vector" d="M13.5 12.5C14.0523 12.5 14.5 12.0523 14.5 11.5V9.5C14.5 8.94772 14.0523 8.5 13.5 8.5M5.5 5.5H13.5C14.0523 5.5 14.5 5.05228 14.5 4.5V2.5C14.5 1.94771 14.0523 1.5 13.5 1.5H3.5C2.94772 1.5 2.5 1.94771 2.5 2.5V3.5" stroke="black" stroke-linecap="round" stroke-linejoin="round"/>
<path id="Vector_2" d="M7.20711 11.2071C6.81658 11.5976 6.18342 11.5976 5.79289 11.2071C5.40237 10.8166 5.40237 10.1834 5.79289 9.79288" stroke="black" stroke-linecap="round" stroke-linejoin="round"/>
<path id="Vector_3" d="M6 7.52089C6.16191 7.5072 6.32855 7.5 6.5 7.5C10 7.5 11.5 10.5 11.5 10.5C11.5 10.5 11.125 11.25 10.3125 12" stroke="black" stroke-linecap="round" stroke-linejoin="round"/>
<path id="Vector_4" d="M1.5 10.5C1.5 10.5 3 13.5 6.5 13.5C7.4625 13.5 8.27375 13.2731 8.94415 12.9442L4.05585 8.05585C2.28844 8.92313 1.5 10.5 1.5 10.5Z" fill="black" fill-opacity="0.25" stroke="black" stroke-linecap="round" stroke-linejoin="round"/>
<path id="Vector_5" d="M1.5 5.5L10.5 14.5" stroke="black" stroke-linecap="round" stroke-linejoin="round"/>
</g>
</svg>