<svg xmlns="http://www.w3.org/2000/svg" width="16" height="16" viewBox="0 0 16 16" fill="none">
<g id="record-color[data,datasheet,table,record,color,bucket,design,fill,paint]">
<path id="Vector" d="M13.5 12.5C13.5 12.7652 13.3946 13.0196 13.2071 13.2071C13.0196 13.3946 12.7652 13.5 12.5 13.5C12.2348 13.5 11.9804 13.3946 11.7929 13.2071C11.6054 13.0196 11.5 12.7652 11.5 12.5C11.5 11.7 12.5 10.5 12.5 10.5C12.5 10.5 13.5 11.7 13.5 12.5Z" fill="black" fill-opacity="0.25"/>
<path id="Vector_2" d="M6.5 6.5C6.5 7.05228 6.94772 7.5 7.5 7.5C8.05229 7.5 8.5 7.05228 8.5 6.5C8.5 5.94772 8.05229 5.5 7.5 5.5C6.94772 5.5 6.5 5.94772 6.5 6.5Z" fill="black" fill-opacity="0.25"/>
<path id="Vector_3" d="M3.5 2.5L6.5 5.5M13.5 12.5C13.5 12.7652 13.3946 13.0196 13.2071 13.2071C13.0196 13.3946 12.7652 13.5 12.5 13.5C12.2348 13.5 11.9804 13.3946 11.7929 13.2071C11.6054 13.0196 11.5 12.7652 11.5 12.5C11.5 11.7 12.5 10.5 12.5 10.5C12.5 10.5 13.5 11.7 13.5 12.5ZM7.5 1.5L2.20711 6.79289C1.81658 7.18342 1.81658 7.81658 2.20711 8.20711L6.29289 12.2929C6.68342 12.6834 7.31658 12.6834 7.70711 12.2929L13 7L7.5 1.5ZM7.5 7.5C6.94772 7.5 6.5 7.05228 6.5 6.5C6.5 5.94772 6.94772 5.5 7.5 5.5C8.05229 5.5 8.5 5.94772 8.5 6.5C8.5 7.05228 8.05229 7.5 7.5 7.5Z" stroke="black" stroke-linecap="round" stroke-linejoin="round"/>
</g>
</svg>