<svg xmlns="http://www.w3.org/2000/svg" width="16" height="16" viewBox="0 0 16 16" fill="none">
<g id="record-copy-url[data,datasheet,table,record,url,duplicate,copy,clone,paste]">
<path id="Vector" d="M11.5 10.5V12.5C11.5 13.0523 11.0523 13.5 10.5 13.5H3.5C2.94772 13.5 2.5 13.0523 2.5 12.5V5.5C2.5 4.94772 2.94772 4.5 3.5 4.5H5.5" stroke="black" stroke-linecap="round" stroke-linejoin="round"/>
<path id="Vector_2" d="M10 3L10.0858 2.91421C10.8668 2.13317 12.1332 2.13316 12.9142 2.91421L13.0858 3.08579C13.8668 3.86683 13.8668 5.13317 13.0858 5.91421L11.2071 7.79289C10.8166 8.18342 10.1834 8.18342 9.79289 7.79289L9 7M9 10L8.91421 10.0858C8.13317 10.8668 6.86684 10.8668 6.08579 10.0858L5.91421 9.91421C5.13317 9.13317 5.13317 7.86683 5.91421 7.08579L7.79289 5.20711C8.18342 4.81658 8.81658 4.81658 9.20711 5.20711L10 6" stroke="black" stroke-linecap="round" stroke-linejoin="round"/>
</g>
</svg>