<svg xmlns="http://www.w3.org/2000/svg" width="16" height="16" viewBox="0 0 16 16" fill="none">
<g id="toolbar-row-height-tall[data,datasheet,table,toolbar,row,view]">
<path id="Vector" d="M3.5 2.5V13.5M3.5 2.5L1.5 4.5M3.5 2.5L5.5 4.5M3.5 13.5L5.5 11.5M3.5 13.5L1.5 11.5" stroke="black" stroke-linecap="round" stroke-linejoin="round"/>
<path id="Vector_2" d="M12.5 2.5H8.5C7.94772 2.5 7.5 2.94772 7.5 3.5V8.5C7.5 9.05228 7.94772 9.5 8.5 9.5H12.5C13.0523 9.5 13.5 9.05228 13.5 8.5V3.5C13.5 2.94772 13.0523 2.5 12.5 2.5Z" fill="black" fill-opacity="0.25"/>
<path id="Vector_3" d="M7.5 12.5H13.5M12.5 9.5H8.5C7.94772 9.5 7.5 9.05228 7.5 8.5V3.5C7.5 2.94772 7.94772 2.5 8.5 2.5H12.5C13.0523 2.5 13.5 2.94772 13.5 3.5V8.5C13.5 9.05228 13.0523 9.5 12.5 9.5Z" stroke="black" stroke-linecap="round" stroke-linejoin="round"/>
</g>
</svg>