<svg xmlns="http://www.w3.org/2000/svg" width="16" height="16" viewBox="0 0 16 16" fill="none">
<g id="view-form[data,datasheet,table,view,form]">
<path id="Vector" d="M12.5 1.5H2.5C1.94771 1.5 1.5 1.94771 1.5 2.5V12.5C1.5 13.0523 1.94771 13.5 2.5 13.5H12.5C13.0523 13.5 13.5 13.0523 13.5 12.5V2.5C13.5 1.94771 13.0523 1.5 12.5 1.5Z" stroke="black" stroke-linecap="round" stroke-linejoin="round"/>
<path id="Vector_2" d="M3.5 3.5H7.5M4 11.5H11C11.2761 11.5 11.5 11.2761 11.5 11V10C11.5 9.72386 11.2761 9.5 11 9.5H4C3.72386 9.5 3.5 9.72386 3.5 10V11C3.5 11.2761 3.72386 11.5 4 11.5ZM4 7.5H11C11.2761 7.5 11.5 7.27614 11.5 7V6C11.5 5.72386 11.2761 5.5 11 5.5H4C3.72386 5.5 3.5 5.72386 3.5 6V7C3.5 7.27614 3.72386 7.5 4 7.5Z" stroke="black" stroke-linecap="round" stroke-linejoin="round"/>
</g>
</svg>