<svg xmlns="http://www.w3.org/2000/svg" width="16" height="16" viewBox="0 0 16 16" fill="none">
<g id="empty-data[flash-screen,empty,data,archive,storage]">
<path id="Vector" d="M4 9.5H0.5V14.5C0.5 15.0523 0.947715 15.5 1.5 15.5H13.5C14.0523 15.5 14.5 15.0523 14.5 14.5V9.5H11C10.7239 9.5 10.5 9.72386 10.5 10V11C10.5 11.2761 10.2761 11.5 10 11.5H5C4.72386 11.5 4.5 11.2761 4.5 11V10C4.5 9.72386 4.27614 9.5 4 9.5Z" stroke="black" stroke-linecap="round" stroke-linejoin="round"/>
<path id="Vector_2" d="M4 9.5H0.5L3.2087 4.9855C3.38942 4.6843 3.71493 4.5 4.06619 4.5H10.9338C11.2851 4.5 11.6106 4.6843 11.7913 4.9855L14.5 9.5H11C10.7239 9.5 10.5 9.72386 10.5 10V11C10.5 11.2761 10.2761 11.5 10 11.5H5C4.72386 11.5 4.5 11.2761 4.5 11V10C4.5 9.72386 4.27614 9.5 4 9.5Z" fill="black" fill-opacity="0.25" stroke="black" stroke-linecap="round" stroke-linejoin="round"/>
<path id="Vector_3" d="M5.5 13.5H9.5" stroke="black" stroke-linecap="round"/>
<path id="Vector_4" d="M7.5 0.5V2.5M13 3L14.5 1.5M2 3L0.5 1.5" stroke="black" stroke-linecap="round"/>
</g>
</svg>