<svg xmlns="http://www.w3.org/2000/svg" width="16" height="16" viewBox="0 0 16 16" fill="none">
<g id="empty-dynamic[flash-screen,empty,sign,inbox,email,dynamic]">
<path id="Vector" d="M9.45449 7.30623V10.7797C9.45449 11.8514 11.1479 12.0896 12.0348 10.6406C12.7865 9.41429 12.6021 7.54439 11.6632 6.31355C10.2818 4.50183 7.08788 3.8246 4.7676 5.32179C2.63547 6.69808 1.87623 9.48247 3.05433 11.7333C4.22015 13.9604 6.95645 15.0394 9.43369 14.234M9.44598 9.43064C9.44598 10.5838 8.53711 11.5187 7.41597 11.5187C6.29483 11.5187 5.38596 10.5838 5.38596 9.43064C5.38596 8.27743 6.29483 7.34257 7.41597 7.34257C8.53711 7.34257 9.44598 8.27743 9.44598 9.43064Z" stroke="black" stroke-linecap="round" stroke-linejoin="round"/>
<path id="Vector_2" d="M7.5 0.5V2.5M13 3L14.5 1.5M2 3L0.5 1.5" stroke="black" stroke-linecap="round"/>
</g>
</svg>