<svg xmlns="http://www.w3.org/2000/svg" width="16" height="16" viewBox="0 0 16 16" fill="none">
<g id="empty-database[flash-screen,empty,database,hosting,server,hardware]">
<path id="Vector" d="M7.5 0.5V2.5M13 3L14.5 1.5M2 3L0.5 1.5" stroke="black" stroke-linecap="round"/>
<path id="Vector_2" d="M7.5 4.5C4.94891 4.5 3.61808 5.11013 2.98868 5.55214C2.65831 5.78416 2.65831 6.21584 2.98868 6.44785C3.61808 6.88987 4.94891 7.5 7.5 7.5C10.0511 7.5 11.3819 6.88987 12.0113 6.44786C12.3417 6.21584 12.3417 5.78416 12.0113 5.55215C11.3819 5.11013 10.0511 4.5 7.5 4.5Z" fill="black" fill-opacity="0.25" stroke="black" stroke-linecap="round" stroke-linejoin="round"/>
<path id="Vector_3" d="M2.5 10C2.5 10 3.5 11.5 7.5 11.5C11.5 11.5 12.5 10 12.5 10" stroke="black" stroke-linecap="round" stroke-linejoin="round"/>
<path id="Vector_4" d="M7.5 4.5C4.46897 4.5 3.16053 5.36129 2.70448 5.77858C2.55882 5.91185 2.5 6.10535 2.5 6.30278V13.6972C2.5 13.8946 2.55882 14.0882 2.70448 14.2214C3.16053 14.6387 4.46897 15.5 7.5 15.5C10.531 15.5 11.8395 14.6387 12.2955 14.2214C12.4412 14.0882 12.5 13.8946 12.5 13.6972V6.30278C12.5 6.10535 12.4412 5.91185 12.2955 5.77858C11.8395 5.36129 10.531 4.5 7.5 4.5Z" stroke="black" stroke-linecap="round" stroke-linejoin="round"/>
</g>
</svg>