<svg xmlns="http://www.w3.org/2000/svg" width="16" height="16" viewBox="0 0 16 16" fill="none">
<g id="empty-filter[flash-screen,empty,filter,funnel,search]">
<path id="Vector" d="M7.5 0.5V2.5M13 3L14.5 1.5M2 3L0.5 1.5" stroke="black" stroke-linecap="round"/>
<path id="Vector_2" d="M7.5 4.5C4 4.5 3.5 5.5 3.5 5.5C3.5 5.5 4 6.5 7.5 6.5C11 6.5 11.5 5.5 11.5 5.5C11.5 5.5 11 4.5 7.5 4.5Z" fill="black" fill-opacity="0.25" stroke="black" stroke-linecap="round" stroke-linejoin="round"/>
<path id="Vector_3" d="M2.5 6.5V6.67157C2.5 7.20201 2.71071 7.71071 3.08579 8.08579L6.20711 11.2071C6.39464 11.3946 6.5 11.649 6.5 11.9142V14.5L8.5 15.5V11.9142C8.5 11.649 8.60536 11.3946 8.79289 11.2071L11.9142 8.08579C12.2893 7.71071 12.5 7.20201 12.5 6.67157V6.5" stroke="black" stroke-linecap="round" stroke-linejoin="round"/>
</g>
</svg>