<svg xmlns="http://www.w3.org/2000/svg" width="16" height="16" viewBox="0 0 16 16" fill="none">
<g id="empty-organizations[flash-screen,empty,organization,team,group,building,business,company,warning]">
<path id="Vector" d="M10.5 5.5V1.5C10.5 0.947715 10.0523 0.5 9.5 0.5H1.5C0.947715 0.5 0.5 0.947715 0.5 1.5V14.5C0.5 15.0523 0.947715 15.5 1.5 15.5H6.5" stroke="black" stroke-linecap="round" stroke-linejoin="round"/>
<path id="Vector_2" d="M4 2.5H3C2.72386 2.5 2.5 2.72386 2.5 3V4C2.5 4.27614 2.72386 4.5 3 4.5H4C4.27614 4.5 4.5 4.27614 4.5 4V3C4.5 2.72386 4.27614 2.5 4 2.5Z" stroke="black" stroke-linecap="round" stroke-linejoin="round"/>
<path id="Vector_3" d="M8 2.5H7C6.72386 2.5 6.5 2.72386 6.5 3V4C6.5 4.27614 6.72386 4.5 7 4.5H8C8.27614 4.5 8.5 4.27614 8.5 4V3C8.5 2.72386 8.27614 2.5 8 2.5Z" stroke="black" stroke-linecap="round" stroke-linejoin="round"/>
<path id="Vector_4" d="M4 6.5H3C2.72386 6.5 2.5 6.72386 2.5 7V8C2.5 8.27614 2.72386 8.5 3 8.5H4C4.27614 8.5 4.5 8.27614 4.5 8V7C4.5 6.72386 4.27614 6.5 4 6.5Z" stroke="black" stroke-linecap="round" stroke-linejoin="round"/>
<path id="Vector_5" d="M4 10.5H3C2.72386 10.5 2.5 10.7239 2.5 11V12C2.5 12.2761 2.72386 12.5 3 12.5H4C4.27614 12.5 4.5 12.2761 4.5 12V11C4.5 10.7239 4.27614 10.5 4 10.5Z" stroke="black" stroke-linecap="round" stroke-linejoin="round"/>
<path id="Vector_6" d="M7.5 11.5C7.5 13.7091 9.29086 15.5 11.5 15.5C13.7091 15.5 15.5 13.7091 15.5 11.5C15.5 9.29086 13.7091 7.5 11.5 7.5C9.29086 7.5 7.5 9.29086 7.5 11.5Z" fill="black" fill-opacity="0.25" stroke="black" stroke-linecap="round" stroke-linejoin="round"/>
<path id="Vector_7" d="M11.5 9.5V11.5" stroke="black" stroke-linecap="round"/>
<path id="Vector_8" d="M11.5 13.5H11.505" stroke="black" stroke-linecap="round" stroke-linejoin="round"/>
<path id="Vector_9" d="M8 6.5H7C6.72386 6.5 6.5 6.72386 6.5 7V8" stroke="black" stroke-linecap="round" stroke-linejoin="round"/>
</g>
</svg>