<svg xmlns="http://www.w3.org/2000/svg" width="16" height="16" viewBox="0 0 16 16" fill="none">
<g id="warning-publish-fail[flash-screen,warning,publish,rocket,space]">
<path id="Vector" d="M7.5 13.5H4.5M7.5 13.5C7.99018 12.7647 8.34769 11.9093 8.5 11C8.5 11 10.5802 11.5 11.0802 12.5C11.5802 13.5 9.58025 15.4999 9.58025 15.4999L7.5 13.5ZM4.5 13.5C2.5 10.5 3.46881 5.49998 6 3M4.5 13.5L2.58025 15.5C2.58025 15.5 0.580248 13.5 1.08025 12.5C1.58024 11.5 3.5 11 3.5 11" stroke="black" stroke-linecap="round" stroke-linejoin="round"/>
<path id="Vector_2" d="M10.5 4V5.5" stroke="black" stroke-linecap="round" stroke-linejoin="round"/>
<path id="Vector_3" d="M10.5 7.5H10.505" stroke="black" stroke-linecap="round" stroke-linejoin="round"/>
<path id="Vector_4" d="M5.91267 8.75719L10.0629 1.28675C10.2534 0.943846 10.7466 0.943846 10.9371 1.28675L15.0873 8.75719C15.2725 9.09045 15.0315 9.50001 14.6502 9.50001H6.34975C5.96851 9.50001 5.72752 9.09045 5.91267 8.75719Z" fill="black" fill-opacity="0.25" stroke="black" stroke-linecap="round" stroke-linejoin="round"/>
</g>
</svg>