<svg xmlns="http://www.w3.org/2000/svg" width="16" height="16" viewBox="0 0 16 16" fill="none">
<g id="file-document[file,document,note,page,draft,item,sheet,content,data,pdf]">
<path id="Vector" d="M4.5 8.5H10.5M4.5 11.5H10.5M4.5 5.5H6.5" stroke="black" stroke-linecap="round" stroke-linejoin="round"/>
<path id="Vector_2" d="M8.5 1.5H3.5C2.94772 1.5 2.5 1.94771 2.5 2.5V13.5C2.5 14.0523 2.94772 14.5 3.5 14.5H11.5C12.0523 14.5 12.5 14.0523 12.5 13.5V5.5M8.5 1.5L12.5 5.5M8.5 1.5V4.5C8.5 5.05228 8.94772 5.5 9.5 5.5H12.5" stroke="black" stroke-linecap="round" stroke-linejoin="round"/>
<path id="Vector_3" d="M12.5 5.5L8.5 1.5V4.5C8.5 5.05228 8.94772 5.5 9.5 5.5H12.5Z" fill="black" fill-opacity="0.25" stroke="black" stroke-linecap="round" stroke-linejoin="round"/>
</g>
</svg>