<svg xmlns="http://www.w3.org/2000/svg" width="16" height="16" viewBox="0 0 16 16" fill="none">
<g id="file-tree[file,document,note,page,draft,item,sheet,content,list,bullet,options]">
<path id="Vector" d="M9.5 11.5H13.5M9.5 7.5H13.5M4.5 3.5H13.5M1.5 2.5V7.5M1.5 7.5V10.5C1.5 11.0523 1.94771 11.5 2.5 11.5H4.5M1.5 7.5H4.5" stroke="black" stroke-linecap="round" stroke-linejoin="round"/>
<path id="Vector_2" d="M4.5 7.5C4.5 8.05228 4.94772 8.5 5.5 8.5C6.05228 8.5 6.5 8.05228 6.5 7.5C6.5 6.94772 6.05228 6.5 5.5 6.5C4.94772 6.5 4.5 6.94772 4.5 7.5Z" stroke="black" stroke-linecap="round" stroke-linejoin="round"/>
<path id="Vector_3" d="M4.5 11.5C4.5 12.0523 4.94772 12.5 5.5 12.5C6.05228 12.5 6.5 12.0523 6.5 11.5C6.5 10.9477 6.05228 10.5 5.5 10.5C4.94772 10.5 4.5 10.9477 4.5 11.5Z" stroke="black" stroke-linecap="round" stroke-linejoin="round"/>
</g>
</svg>