<svg xmlns="http://www.w3.org/2000/svg" width="16" height="16" viewBox="0 0 16 16" fill="none">
<g id="file-edit[file,document,note,page,draft,item,sheet,content,edit,design,pen,pencil,draw,create]">
<path id="Vector" d="M7.5 1.5H2.5C1.94771 1.5 1.5 1.94771 1.5 2.5V13.5C1.5 14.0523 1.94772 14.5 2.5 14.5H10.5C11.0523 14.5 11.5 14.0523 11.5 13.5V10.5" stroke="black" stroke-linecap="round" stroke-linejoin="round"/>
<path id="Vector_2" d="M6.5 9.49999L7.5 6.49999L12.1464 1.85354C12.3417 1.65828 12.6583 1.65828 12.8536 1.85354L14.1464 3.14644C14.3417 3.3417 14.3417 3.65828 14.1464 3.85354L9.5 8.49999L6.5 9.49999Z" fill="black" fill-opacity="0.25" stroke="black" stroke-linecap="round" stroke-linejoin="round"/>
<path id="Vector_3" d="M9.5 10.5V12C9.5 12.2761 9.27614 12.5 9 12.5H4C3.72386 12.5 3.5 12.2761 3.5 12V9C3.5 8.72386 3.72386 8.5 4 8.5H4.5" stroke="black" stroke-linecap="round" stroke-linejoin="round"/>
</g>
</svg>