<svg xmlns="http://www.w3.org/2000/svg" width="16" height="16" viewBox="0 0 16 16" fill="none">
<g id="file-microphone[file,document,note,draft,item,data]">
<path id="Vector" d="M12.5 7.5V8C12.5 9.19347 12.0259 10.3381 11.182 11.182C10.3381 12.0259 9.19347 12.5 8 12.5M8 12.5C6.80653 12.5 5.66193 12.0259 4.81802 11.182C3.97411 10.3381 3.5 9.19347 3.5 8V7.5M8 12.5V14.5M4.75 14.5H2.5C1.94772 14.5 1.5 14.0523 1.5 13.5V2.5C1.5 1.94772 1.94772 1.5 2.5 1.5H13.5C14.0523 1.5 14.5 1.94772 14.5 2.5V13.5C14.5 14.0523 14.0523 14.5 13.5 14.5H11.25M8 3.5C9.38071 3.5 10.5 4.61929 10.5 6V8C10.5 9.38071 9.38071 10.5 8 10.5C6.61929 10.5 5.5 9.38071 5.5 8V6C5.5 4.61929 6.61929 3.5 8 3.5Z" stroke="black" stroke-linecap="round" stroke-linejoin="round"/>
</g>
</svg>