<svg xmlns="http://www.w3.org/2000/svg" width="16" height="16" viewBox="0 0 16 16" fill="none">
<g id="file-picture[file,document,note,draft,item,data]">
<path id="Vector" d="M14.5 10.5L10 6L6 10L4.5 8.5L1.5 11.5M2.5 1.5H13.5C14.0523 1.5 14.5 1.94772 14.5 2.5V13.5C14.5 14.0523 14.0523 14.5 13.5 14.5H2.5C1.94772 14.5 1.5 14.0523 1.5 13.5V2.5C1.5 1.94772 1.94772 1.5 2.5 1.5ZM4.5 5.5C5.05228 5.5 5.5 5.05228 5.5 4.5C5.5 3.94772 5.05228 3.5 4.5 3.5C3.94772 3.5 3.5 3.94772 3.5 4.5C3.5 5.05228 3.94772 5.5 4.5 5.5Z" stroke="black" stroke-linecap="round" stroke-linejoin="round"/>
</g>
</svg>