<svg xmlns="http://www.w3.org/2000/svg" width="16" height="16" viewBox="0 0 16 16" fill="none">
<g id="file-sound[file,document,note,draft,item,data]">
<path id="Vector" d="M11.146 5C11.5716 5.37537 11.9125 5.83701 12.146 6.35425C12.3795 6.87149 12.5002 7.4325 12.5002 8C12.5002 8.5675 12.3795 9.12851 12.146 9.64575C11.9125 10.163 11.5716 10.6246 11.146 11M5.5 6.5H4.5C4.23478 6.5 3.98043 6.60536 3.79289 6.79289C3.60536 6.98043 3.5 7.23478 3.5 7.5V8.5C3.5 8.76522 3.60536 9.01957 3.79289 9.20711C3.98043 9.39464 4.23478 9.5 4.5 9.5H5.5L9.5 12.5V3.5L5.5 6.5ZM2.5 1.5H13.5C14.0523 1.5 14.5 1.94772 14.5 2.5V13.5C14.5 14.0523 14.0523 14.5 13.5 14.5H2.5C1.94772 14.5 1.5 14.0523 1.5 13.5V2.5C1.5 1.94772 1.94772 1.5 2.5 1.5Z" stroke="black" stroke-linecap="round" stroke-linejoin="round"/>
</g>
</svg>