<svg xmlns="http://www.w3.org/2000/svg" width="16" height="16" viewBox="0 0 16 16" fill="none">
<g id="file-code[file,document,note,page,draft,item,content,data,code]">
<path id="Vector" d="M14.5 5.5L10.5 1.5V4.5C10.5 5.05228 10.9477 5.5 11.5 5.5H14.5Z" fill="black" fill-opacity="0.25"/>
<path id="Vector_2" d="M10.5 1.5H6.5C5.94772 1.5 5.5 1.94771 5.5 2.5V6.5M10.5 1.5L14.5 5.5M10.5 1.5V4.5C10.5 5.05228 10.9477 5.5 11.5 5.5H14.5M14.5 5.5V13.5C14.5 14.0523 14.0523 14.5 13.5 14.5H6.5C5.94772 14.5 5.5 14.0523 5.5 13.5V12.5" stroke="black" stroke-linecap="round" stroke-linejoin="round"/>
<path id="Vector_3" d="M3.5 6.5C3.5 6.5 2.5 6.49999 2.5 7.5C2.5 8.50001 2.5 7.99999 2.5 7.99999C2.5 9.49999 1 9.49999 1 9.49999C1 9.49999 2.5 9.49999 2.5 11C2.5 11 2.5 10.5 2.5 11.5C2.5 12.5 3.5 12.5 3.5 12.5" stroke="black" stroke-linecap="round" stroke-linejoin="round"/>
<path id="Vector_4" d="M7.5 6.5C7.5 6.5 8.5 6.49999 8.5 7.5C8.5 8.50001 8.5 7.99999 8.5 7.99999C8.5 9.49999 10 9.49999 10 9.49999C10 9.49999 8.5 9.49999 8.5 11C8.5 11 8.5 10.5 8.5 11.5C8.5 12.5 7.5 12.5 7.5 12.5" stroke="black" stroke-linecap="round" stroke-linejoin="round"/>
</g>
</svg>