<svg xmlns="http://www.w3.org/2000/svg" width="16" height="16" viewBox="0 0 16 16" fill="none">
<g id="file-refresh[file,document,note,page,draft,item,sheet,content,loading,loop,process,arrow,refresh]">
<path id="Vector" d="M13.5 5.5L9.5 1.5V4.5C9.5 5.05228 9.94772 5.5 10.5 5.5H13.5Z" fill="black" fill-opacity="0.25"/>
<path id="Vector_2" d="M9.5 1.5H5.5C4.94772 1.5 4.5 1.94771 4.5 2.5V4.5M9.5 1.5L13.5 5.5M9.5 1.5V4.5C9.5 5.05228 9.94772 5.5 10.5 5.5H13.5M13.5 5.5V12.5C13.5 13.0523 13.0523 13.5 12.5 13.5H10.5" stroke="black" stroke-linecap="round" stroke-linejoin="round"/>
<path id="Vector_3" d="M9.3637 9.46471C8.79193 7.33085 6.59858 6.06452 4.46472 6.63628C2.33085 7.20805 1.06452 9.4014 1.63629 11.5353C2.20806 13.6691 4.4014 14.9355 6.53527 14.3637C7.79556 14.026 8.75324 13.1227 9.20833 12" stroke="black" stroke-linecap="round" stroke-linejoin="round"/>
<path id="Vector_4" d="M7.4217 9.09473L9.35355 9.61236L9.87119 7.68051" stroke="black" stroke-linecap="round" stroke-linejoin="round"/>
</g>
</svg>