<svg xmlns="http://www.w3.org/2000/svg" width="16" height="16" viewBox="0 0 16 16" fill="none">
<g id="file-archive[file,zip,document,note,page,draft,item,sheet,content,data,archive]">
<path id="Vector" d="M12.5 5.5L8.5 1.5V4.5C8.5 5.05228 8.94772 5.5 9.5 5.5H12.5Z" fill="black" fill-opacity="0.25" stroke="black" stroke-linecap="round" stroke-linejoin="round"/>
<path id="Vector_2" d="M8.5 1.5H3.5C2.94772 1.5 2.5 1.94771 2.5 2.5V13.5C2.5 14.0523 2.94772 14.5 3.5 14.5M12.5 5.5V13.5C12.5 14.0523 12.0523 14.5 11.5 14.5H9.5M6.5 3.5V4.5M6.5 6.5V7.5M6.5 9.5V10.5M6.5 12.5V13.5M6.5 15.5V15.5C7.05228 15.5 7.5 15.0523 7.5 14.5V14.5C7.5 13.9477 7.05228 13.5 6.5 13.5V13.5C5.94772 13.5 5.5 13.9477 5.5 14.5V14.5C5.5 15.0523 5.94772 15.5 6.5 15.5Z" stroke="black" stroke-linecap="round" stroke-linejoin="round"/>
</g>
</svg>