<svg xmlns="http://www.w3.org/2000/svg" width="16" height="16" viewBox="0 0 16 16" fill="none">
<g id="folder-open[folder,document,catalog,file,open,archive]">
<path id="Vector" d="M3.5 9.5L4.27208 7.18377C4.40819 6.77543 4.79033 6.5 5.22076 6.5H13.5M13.5 6.5C13.992 6.5 14.3393 6.98197 14.1838 7.44868L12.7279 11.8162C12.5918 12.2246 12.2097 12.5 11.7792 12.5H2.5C1.94771 12.5 1.5 12.0523 1.5 11.5V3.5C1.5 2.94772 1.94771 2.5 2.5 2.5H4.08579C4.351 2.5 4.60536 2.60536 4.79289 2.79289L6.20711 4.20711C6.39464 4.39464 6.649 4.5 6.91421 4.5H12.5C13.0523 4.5 13.5 4.94772 13.5 5.5V6.5Z" stroke="black" stroke-linecap="round" stroke-linejoin="round"/>
</g>
</svg>