<svg xmlns="http://www.w3.org/2000/svg" width="16" height="16" viewBox="0 0 16 16" fill="none">
<g id="folder-pen[folder,document,catalog,file,edit,design,pen,pencil,draw,create]">
<path id="Vector" d="M1.5 8.5V3.5C1.5 2.94772 1.94771 2.5 2.5 2.5H4.08579C4.351 2.5 4.60536 2.60536 4.79289 2.79289L6.20711 4.20711C6.39464 4.39464 6.649 4.5 6.91421 4.5H12.5C13.0523 4.5 13.5 4.94772 13.5 5.5V11.5C13.5 12.0523 13.0523 12.5 12.5 12.5H7.5" stroke="black" stroke-linecap="round" stroke-linejoin="round"/>
<path id="Vector_2" d="M1.5 13.5L2.5 10.5L6.14645 6.85354C6.34171 6.65828 6.65829 6.65828 6.85355 6.85354L8.14645 8.14644C8.34171 8.3417 8.34171 8.65828 8.14645 8.85354L4.5 12.5L1.5 13.5Z" fill="black" fill-opacity="0.25" stroke="black" stroke-linecap="round" stroke-linejoin="round"/>
</g>
</svg>