<svg xmlns="http://www.w3.org/2000/svg" width="16" height="16" viewBox="0 0 16 16" fill="none">
<g id="boolean-intersection[interface,boolean,group,path]">
<path id="Vector" d="M6.5 12.5H11.5C12.0523 12.5 12.5 12.0523 12.5 11.5V6.5C12.5 5.94772 12.0523 5.5 11.5 5.5H9.5V8.5C9.5 9.05228 9.05228 9.5 8.5 9.5H5.5V11.5C5.5 12.0523 5.94772 12.5 6.5 12.5Z" stroke="black" stroke-linecap="round" stroke-linejoin="round"/>
<path id="Vector_2" d="M8.5 2.5H3.5C2.94771 2.5 2.5 2.94771 2.5 3.5V8.5C2.5 9.05228 2.94772 9.5 3.5 9.5H5.5V6.5C5.5 5.94771 5.94772 5.5 6.5 5.5H9.5V3.5C9.5 2.94771 9.05228 2.5 8.5 2.5Z" stroke="black" stroke-linecap="round" stroke-linejoin="round"/>
<path id="Vector_3" d="M6.5 5.5H9.5V8.5C9.5 9.05228 9.05228 9.5 8.5 9.5H5.5V6.5C5.5 5.94772 5.94772 5.5 6.5 5.5Z" fill="black" fill-opacity="0.25" stroke="black" stroke-linecap="round" stroke-linejoin="round"/>
</g>
</svg>