<svg xmlns="http://www.w3.org/2000/svg" width="16" height="16" viewBox="0 0 16 16" fill="none">
<g id="color-opacity[interface,color,opacity,alpha]">
<path id="Vector" d="M11.5 2.5H3.5C2.94771 2.5 2.5 2.94771 2.5 3.5V11.5C2.5 12.0523 2.94771 12.5 3.5 12.5H11.5C12.0523 12.5 12.5 12.0523 12.5 11.5V3.5C12.5 2.94771 12.0523 2.5 11.5 2.5Z" stroke="black" stroke-linecap="round" stroke-linejoin="round"/>
<path id="Vector_2" d="M3 3H6V6H3V3Z" fill="black" fill-opacity="0.5"/>
<path id="Vector_3" d="M9 3H12V6H9V3Z" fill="black" fill-opacity="0.5"/>
<path id="Vector_4" d="M6 6H9V9H6V6Z" fill="black" fill-opacity="0.5"/>
<path id="Vector_5" d="M3 9H6V12H3V9Z" fill="black" fill-opacity="0.5"/>
<path id="Vector_6" d="M9 9H12V12H9V9Z" fill="black" fill-opacity="0.5"/>
</g>
</svg>