<svg xmlns="http://www.w3.org/2000/svg" width="16" height="16" viewBox="0 0 16 16" fill="none">
<g id="color-type-solid[interface,color]">
<path id="Vector" d="M2.5 4.5C2.5 3.39543 3.39543 2.5 4.5 2.5H10.5C11.6046 2.5 12.5 3.39543 12.5 4.5V10.5C12.5 11.6046 11.6046 12.5 10.5 12.5H4.5C3.39543 12.5 2.5 11.6046 2.5 10.5V4.5Z" stroke="black"/>
<path id="Vector_2" d="M10 4.5H5C4.72386 4.5 4.5 4.72386 4.5 5V10C4.5 10.2761 4.72386 10.5 5 10.5H10C10.2761 10.5 10.5 10.2761 10.5 10V5C10.5 4.72386 10.2761 4.5 10 4.5Z" fill="black" fill-opacity="0.25" stroke="black"/>
</g>
</svg>