<svg xmlns="http://www.w3.org/2000/svg" width="16" height="16" viewBox="0 0 16 16" fill="none">
<g id="duplicate-group[interface,add,plus,create,new,paste,clone,copy,duplicate]">
<path id="Vector" d="M12.5 5.5H6.5C5.94772 5.5 5.5 5.94772 5.5 6.5V12.5C5.5 13.0523 5.94772 13.5 6.5 13.5H12.5C13.0523 13.5 13.5 13.0523 13.5 12.5V6.5C13.5 5.94772 13.0523 5.5 12.5 5.5Z" stroke="black" stroke-linecap="round" stroke-linejoin="round"/>
<path id="Vector_2" d="M5.5 10.5H3.5C2.94771 10.5 2.5 10.0523 2.5 9.5V3.5C2.5 2.94771 2.94771 2.5 3.5 2.5H9.5C10.0523 2.5 10.5 2.94771 10.5 3.5V5.5" stroke="black" stroke-linecap="round" stroke-linejoin="round"/>
<path id="Vector_3" d="M11.5 9.5H7.5M9.5 11.5V7.5" stroke="black" stroke-linecap="round" stroke-linejoin="round"/>
</g>
</svg>