<svg xmlns="http://www.w3.org/2000/svg" width="16" height="16" viewBox="0 0 16 16" fill="none">
<g id="image-small[interface,image,photo,picture,media,gallery,graphic]">
<path id="Vector" d="M2.5 4.5C2.5 3.39543 3.39543 2.5 4.5 2.5H10.5C11.6046 2.5 12.5 3.39543 12.5 4.5V10.5C12.5 11.6046 11.6046 12.5 10.5 12.5H4.5C3.39543 12.5 2.5 11.6046 2.5 10.5V4.5Z" stroke="black"/>
<path id="Vector_2" d="M6 5C6 4.44772 5.55228 4 5 4C4.44772 4 4 4.44772 4 5C4 5.55228 4.44772 6 5 6C5.55228 6 6 5.55228 6 5Z" fill="black"/>
<path id="Vector_3" d="M3 12L9.5 5.5L12.5 7.5" stroke="black" stroke-linejoin="round"/>
</g>
</svg>