<svg xmlns="http://www.w3.org/2000/svg" width="16" height="16" viewBox="0 0 16 16" fill="none">
<g id="interaction-action-set-variable-mode[interface,interaction,photo,image,media,picture,gallery,photography,graphic,paint,palette,color]">
<path id="Vector" d="M7.5 10.5C7.5 11.0304 7.28929 11.5391 6.91421 11.9142C6.53914 12.2893 6.03043 12.5 5.5 12.5C4.96957 12.5 4.46086 12.2893 4.08579 11.9142C3.71071 11.5391 3.5 11.0304 3.5 10.5V4.5C3.5 4.23478 3.60536 3.98043 3.79289 3.79289C3.98043 3.60536 4.23478 3.5 4.5 3.5H6.5C6.76522 3.5 7.01957 3.60536 7.20711 3.79289C7.39464 3.98043 7.5 4.23478 7.5 4.5V10.5Z" stroke="black" stroke-linecap="round" stroke-linejoin="round"/>
<path id="Vector_2" d="M10.35 8.5H11.5C11.7652 8.5 12.0196 8.60536 12.2071 8.79289C12.3946 8.98043 12.5 9.23478 12.5 9.5V11.5C12.5 11.7652 12.3946 12.0196 12.2071 12.2071C12.0196 12.3946 11.7652 12.5 11.5 12.5H5.5" stroke="black" stroke-linecap="round" stroke-linejoin="round"/>
<path id="Vector_3" d="M5.5 10.5H5.505" stroke="black" stroke-linecap="round" stroke-linejoin="round"/>
<path id="Vector_4" d="M7.50001 6.00002L8.65001 4.85002C8.76166 4.73798 8.89437 4.64911 9.04048 4.58854C9.1866 4.52797 9.34325 4.49688 9.50143 4.49707C9.6596 4.49725 9.81618 4.52871 9.96216 4.58962C10.1081 4.65054 10.2406 4.73971 10.352 4.85202L11.3 5.80002C11.4153 5.91092 11.5073 6.04376 11.5705 6.19072C11.6337 6.33769 11.6669 6.4958 11.6681 6.65578C11.6693 6.81575 11.6385 6.97436 11.5775 7.12226C11.5166 7.27016 11.4266 7.40438 11.313 7.51702L6.95001 11.9" stroke="black" stroke-linecap="round" stroke-linejoin="round"/>
</g>
</svg>