<svg xmlns="http://www.w3.org/2000/svg" width="16" height="16" viewBox="0 0 16 16" fill="none">
<g id="stack-column-wrap[interface,stack,layout,grid]">
<path id="Vector" d="M2.5 3.5C2.5 2.94771 2.94771 2.5 3.5 2.5H5.5C6.05228 2.5 6.5 2.94771 6.5 3.5V6.5C6.5 7.05228 6.05228 7.5 5.5 7.5H3.5C2.94771 7.5 2.5 7.05228 2.5 6.5V3.5Z" stroke="black"/>
<path id="Vector_2" d="M2.5 10.5C2.5 9.94772 2.94771 9.5 3.5 9.5H5.5C6.05228 9.5 6.5 9.94772 6.5 10.5V11.5C6.5 12.0523 6.05228 12.5 5.5 12.5H3.5C2.94771 12.5 2.5 12.0523 2.5 11.5V10.5Z" stroke="black"/>
<path id="Vector_3" d="M8.5 3.5C8.5 2.94771 8.94772 2.5 9.5 2.5H11.5C12.0523 2.5 12.5 2.94771 12.5 3.5V4.5C12.5 5.05228 12.0523 5.5 11.5 5.5H9.5C8.94772 5.5 8.5 5.05228 8.5 4.5V3.5Z" stroke="black"/>
<path id="Vector_4" d="M8.5 8.5C8.5 7.94772 8.94772 7.5 9.5 7.5H11.5C12.0523 7.5 12.5 7.94772 12.5 8.5V11.5C12.5 12.0523 12.0523 12.5 11.5 12.5H9.5C8.94772 12.5 8.5 12.0523 8.5 11.5V8.5Z" stroke="black"/>
</g>
</svg>