<svg xmlns="http://www.w3.org/2000/svg" width="16" height="16" viewBox="0 0 16 16" fill="none">
<g id="stack-column[interface,vertical,stack,layout,column]">
<path id="Vector" d="M2.5 3.5C2.5 2.94772 2.94771 2.5 3.5 2.5H5.5C6.05228 2.5 6.5 2.94771 6.5 3.5V11.5C6.5 12.0523 6.05228 12.5 5.5 12.5H3.5C2.94771 12.5 2.5 12.0523 2.5 11.5V3.5Z" stroke="black"/>
<path id="Vector_2" d="M8.5 3.5C8.5 2.94772 8.94772 2.5 9.5 2.5H11.5C12.0523 2.5 12.5 2.94771 12.5 3.5V11.5C12.5 12.0523 12.0523 12.5 11.5 12.5H9.5C8.94772 12.5 8.5 12.0523 8.5 11.5V3.5Z" stroke="black"/>
</g>
</svg>