<svg xmlns="http://www.w3.org/2000/svg" width="16" height="16" viewBox="0 0 16 16" fill="none">
<g id="module-charts[workspaces,module,charts,bar]">
<path id="Vector" d="M5.5 10V4C5.5 3.72386 5.72386 3.5 6 3.5H7C7.27614 3.5 7.5 3.72386 7.5 4V10C7.5 10.2761 7.27614 10.5 7 10.5H6C5.72386 10.5 5.5 10.2761 5.5 10Z" fill="black" fill-opacity="0.25"/>
<path id="Vector_2" d="M11 7.5H10C9.72386 7.5 9.5 7.72386 9.5 8V10C9.5 10.2761 9.72386 10.5 10 10.5H11C11.2761 10.5 11.5 10.2761 11.5 10V8C11.5 7.72386 11.2761 7.5 11 7.5Z" fill="black" fill-opacity="0.25"/>
<path id="Vector_3" d="M1.5 12.5H3.5M3.5 12.5H13.5M3.5 12.5V1.5M3.5 12.5V14.5M10 10.5H11C11.2761 10.5 11.5 10.2761 11.5 10V8C11.5 7.72386 11.2761 7.5 11 7.5H10C9.72386 7.5 9.5 7.72386 9.5 8V10C9.5 10.2761 9.72386 10.5 10 10.5ZM7.5 10V4C7.5 3.72386 7.27614 3.5 7 3.5H6C5.72386 3.5 5.5 3.72386 5.5 4V10C5.5 10.2761 5.72386 10.5 6 10.5H7C7.27614 10.5 7.5 10.2761 7.5 10Z" stroke="black" stroke-linecap="round" stroke-linejoin="round"/>
</g>
</svg>