<svg xmlns="http://www.w3.org/2000/svg" width="16" height="16" viewBox="0 0 16 16" fill="none">
<g id="workspace-download[workspaces,arrow,down,data,download]">
<path id="Vector" d="M5.5 1.5H2.5C1.94771 1.5 1.5 1.94771 1.5 2.5V5.5C1.5 6.05228 1.94771 6.5 2.5 6.5H5.5C6.05228 6.5 6.5 6.05228 6.5 5.5V2.5C6.5 1.94771 6.05228 1.5 5.5 1.5Z" fill="black" fill-opacity="0.25" stroke="black" stroke-linecap="round" stroke-linejoin="round"/>
<path id="Vector_2" d="M12.5 1.5H9.5C8.94772 1.5 8.5 1.94771 8.5 2.5V5.5C8.5 6.05228 8.94772 6.5 9.5 6.5H12.5C13.0523 6.5 13.5 6.05228 13.5 5.5V2.5C13.5 1.94771 13.0523 1.5 12.5 1.5Z" stroke="black" stroke-linecap="round" stroke-linejoin="round"/>
<path id="Vector_3" d="M5.5 8.5H2.5C1.94771 8.5 1.5 8.94772 1.5 9.5V12.5C1.5 13.0523 1.94771 13.5 2.5 13.5H5.5C6.05228 13.5 6.5 13.0523 6.5 12.5V9.5C6.5 8.94772 6.05228 8.5 5.5 8.5Z" stroke="black" stroke-linecap="round" stroke-linejoin="round"/>
<path id="Vector_4" d="M11.5 9.5V14.5M11.5 14.5L13.5 12.5M11.5 14.5L9.5 12.5" stroke="black" stroke-linecap="round" stroke-linejoin="round"/>
</g>
</svg>