<svg xmlns="http://www.w3.org/2000/svg" width="16" height="16" viewBox="0 0 16 16" fill="none">
<g id="workspace-template-convert[workspaces,convert,loading,loop,process,arrow,refresh]">
<path id="Vector" d="M5.5 12.5H2.5C1.94771 12.5 1.5 12.0523 1.5 11.5V2.5C1.5 1.94771 1.94771 1.5 2.5 1.5H11.5C12.0523 1.5 12.5 1.94771 12.5 2.5V4.5" stroke="black" stroke-linecap="round"/>
<path id="Vector_2" d="M6.5 3.5H3.5V6.5H6.5V3.5Z" fill="black" stroke="black" stroke-linejoin="round"/>
<path id="Vector_3" d="M10.5 12.5H12C13.3807 12.5 14.5 11.3807 14.5 10C14.5 9.18209 14.1072 8.45592 13.5 7.99982M11.5 7.5H10C8.61929 7.5 7.5 8.61929 7.5 10C7.5 10.8178 7.89267 11.5439 8.49976 12" stroke="black" stroke-linecap="round" stroke-linejoin="round"/>
<path id="Vector_4" d="M12.5 10.5L10.5 12.5L12.5 14.5" stroke="black" stroke-linecap="round" stroke-linejoin="round"/>
<path id="Vector_5" d="M9.5 5.5L11.5 7.5L9.5 9.5" stroke="black" stroke-linecap="round" stroke-linejoin="round"/>
</g>
</svg>