<svg xmlns="http://www.w3.org/2000/svg" width="16" height="16" viewBox="0 0 16 16" fill="none">
<g id="choiceform[brand,logo,choiceform,solid]">
<path id="Vector" d="M6.58932 2.23999L3.54932 5.27999C3.06272 5.76657 2.67671 6.34424 2.41336 6.98C2.15001 7.61576 2.01447 8.29717 2.01447 8.98532C2.01447 9.67347 2.15001 10.3549 2.41336 10.9906C2.67671 11.6264 3.06272 12.2041 3.54932 12.6907L3.98505 13.1264C3.74168 12.8831 3.54862 12.5943 3.4169 12.2764C3.28518 11.9584 3.21738 11.6177 3.21738 11.2736C3.21738 10.9295 3.28518 10.5887 3.4169 10.2708C3.54862 9.95291 3.74168 9.66407 3.98505 9.42079L6.01172 7.39412C6.19487 7.2112 6.34016 6.99396 6.43927 6.75483C6.53838 6.5157 6.58937 6.25938 6.58932 6.00052V2.23999Z" fill="black"/>
<path id="Vector_2" d="M13.9995 2.23999L6.7616 9.47732C6.51596 9.72292 6.18282 9.86089 5.83546 9.86089C5.48811 9.86089 5.15497 9.72292 4.90933 9.47732L4.78346 9.35145L4.34773 9.78665C4.15228 9.98204 3.99725 10.214 3.89147 10.4693C3.78569 10.7246 3.73123 10.9983 3.73123 11.2747C3.73123 11.551 3.78569 11.8247 3.89147 12.08C3.99725 12.3353 4.15228 12.5673 4.34773 12.7627L4.71253 13.1275C5.10718 13.5219 5.64231 13.7435 6.20027 13.7435C6.75823 13.7435 7.29336 13.5219 7.688 13.1275L13.4224 7.39305C13.7917 7.02326 13.9992 6.52207 13.9995 5.99945V2.23999Z" fill="black"/>
</g>
</svg>