<svg xmlns="http://www.w3.org/2000/svg" width="16" height="16" viewBox="0 0 16 16" fill="none">
<g id="wechat[brand,logo,wechat,solid]">
<path id="Vector" d="M5.803 1.534C2.516 1.534 0 3.765 0 6.196C0 8.627 2.172 10.037 2.172 10.037L1.819 11.375C1.772 11.551 1.961 11.697 2.12 11.607L3.707 10.708C4.409 10.931 5.898 11.003 6.043 11.009C5.939 10.648 5.888 10.293 5.888 9.961C5.888 8.084 7.522 5.441 11.154 5.441C11.237 5.441 11.319 5.443 11.402 5.446C10.918 3.134 8.516 1.534 5.803 1.534ZM3.639 5.408C3.241 5.408 2.918 5.085 2.918 4.687C2.918 4.289 3.241 3.966 3.639 3.966C4.037 3.966 4.36 4.289 4.36 4.687C4.361 5.085 4.038 5.408 3.639 5.408ZM7.832 5.408C7.434 5.408 7.111 5.085 7.111 4.687C7.111 4.289 7.434 3.966 7.832 3.966C8.23 3.966 8.553 4.289 8.553 4.687C8.553 5.085 8.231 5.408 7.832 5.408Z" fill="black"/>
<path id="Vector_2" d="M16 9.66803C16 7.53803 13.501 5.97803 11.153 5.97803C7.832 5.97803 6.423 8.37603 6.423 9.96103C6.423 11.549 7.832 13.944 11.153 13.944C11.888 13.944 12.534 13.839 13.096 13.652L14.345 14.445C14.444 14.508 14.568 14.419 14.542 14.305L14.259 13.075C15.439 12.254 16 10.958 16 9.66803ZM9.635 9.26303C9.283 9.26303 8.998 8.97803 8.998 8.62603C8.998 8.27403 9.283 7.98903 9.635 7.98903C9.987 7.98903 10.272 8.27403 10.272 8.62603C10.272 8.97803 9.987 9.26303 9.635 9.26303ZM12.822 9.26303C12.47 9.26303 12.185 8.97803 12.185 8.62603C12.185 8.27403 12.47 7.98903 12.822 7.98903C13.174 7.98903 13.459 8.27403 13.459 8.62603C13.459 8.97803 13.173 9.26303 12.822 9.26303Z" fill="black"/>
</g>
</svg>