<svg xmlns="http://www.w3.org/2000/svg" width="16" height="16" viewBox="0 0 16 16" fill="none">
<g id="wecom[brand,logo,wecom,solid]">
<path id="Vector" d="M6.19 2.03931C4.73266 2.20264 3.40799 2.83931 2.458 3.83264C2.08711 4.21684 1.77951 4.65742 1.54666 5.13798C1.19314 5.86458 1.03617 6.67112 1.09138 7.47727C1.14659 8.28341 1.41205 9.06103 1.86133 9.73264C2.16843 10.1887 2.52775 10.6073 2.932 10.98L2.75666 12.3853L2.73733 12.444C2.73349 12.4574 2.73126 12.4713 2.73066 12.4853C2.73051 12.49 2.73029 12.4946 2.73 12.4993L2.726 12.5446L2.73 12.59C2.75266 12.84 2.968 13.0233 3.21 13.002C3.27623 12.9957 3.34023 12.9748 3.39733 12.9406H3.40533L3.432 12.9206L3.852 12.708L5.10133 12.068C5.69465 12.2413 6.31133 12.328 6.92933 12.324C7.59199 12.3257 8.25091 12.2247 8.88266 12.0246C8.62891 11.8057 8.44372 11.5182 8.34933 11.1966C8.25011 10.8168 8.30463 10.4131 8.50106 10.0732C8.69749 9.73321 9.02 9.48439 9.39866 9.38064L9.44133 9.36931L9.48533 9.36331C9.94466 9.30331 10.4707 8.99931 10.626 8.73998C10.686 8.63998 10.7087 8.47398 10.7333 8.28864C10.7733 7.99598 10.8193 7.65398 11.0313 7.43731C11.2535 7.2078 11.5447 7.0573 11.8605 7.00879C12.1762 6.96028 12.4992 7.01642 12.78 7.16864C12.7804 6.4748 12.6236 5.78988 12.3213 5.16531C12.0913 4.68486 11.7866 4.24385 11.4187 3.85864C10.4281 2.84067 9.11248 2.2015 7.7 2.05198C7.19928 1.98648 6.6918 1.98268 6.19 2.03931Z" fill="black"/>
<path id="Vector_2" d="M10.4967 11.556C10.4603 11.5929 10.4397 11.6425 10.4391 11.6943C10.4384 11.7462 10.4579 11.7962 10.4933 11.834C10.5009 11.8437 10.5104 11.8517 10.5213 11.8573C10.9459 12.2646 11.2182 12.8051 11.2927 13.3887C11.4107 13.83 11.8593 14.092 12.2927 13.97C12.7213 13.8533 12.9773 13.4007 12.8647 12.9593C12.8647 12.9573 12.8627 12.9553 12.8627 12.9513C12.821 12.7913 12.7318 12.6477 12.6068 12.5394C12.4819 12.4311 12.327 12.3632 12.1627 12.3447C11.625 12.2417 11.1365 11.9637 10.7733 11.554C10.7363 11.5178 10.6864 11.4978 10.6346 11.4981C10.5828 11.4985 10.5332 11.5193 10.4967 11.556ZM14.17 10.0273C14.0308 10.0659 13.9043 10.1406 13.8033 10.244H13.8013C13.67 10.3773 13.588 10.5533 13.5687 10.742C13.4709 11.2859 13.1999 11.7835 12.796 12.1607C12.7594 12.1974 12.7384 12.2468 12.7374 12.2986C12.7364 12.3504 12.7555 12.4006 12.7907 12.4387L12.792 12.4407C12.8099 12.4596 12.8314 12.4746 12.8553 12.485C12.8792 12.4954 12.9049 12.5008 12.9309 12.501C12.9569 12.5012 12.9827 12.4961 13.0067 12.4861C13.0308 12.4761 13.0525 12.4613 13.0707 12.4427C13.08 12.4327 13.088 12.4253 13.0933 12.4133C13.4867 11.984 14.0183 11.7064 14.5953 11.6287C14.8053 11.5685 14.9832 11.4281 15.0906 11.2379C15.198 11.0477 15.2263 10.8229 15.1693 10.612C15.1428 10.5076 15.0957 10.4094 15.0308 10.3233C14.966 10.2372 14.8847 10.1649 14.7916 10.1105C14.6986 10.0561 14.5957 10.0207 14.4888 10.0064C14.382 9.99217 14.2741 9.99927 14.17 10.0273ZM11.1093 9.19934L11.096 9.21267C10.7019 9.65794 10.1607 9.94642 9.57135 10.0253C9.36224 10.0837 9.18453 10.222 9.07672 10.4104C8.9689 10.5989 8.93967 10.8222 8.99535 11.032C9.03135 11.176 9.10801 11.308 9.21068 11.412C9.52935 11.7353 10.044 11.7353 10.3633 11.41C10.4927 11.2767 10.5753 11.1007 10.596 10.914C10.6952 10.3698 10.9677 9.87217 11.3727 9.49534C11.4104 9.45991 11.4332 9.41143 11.4364 9.35977C11.4396 9.30812 11.423 9.25718 11.39 9.21734L11.388 9.21534C11.3709 9.19583 11.35 9.17993 11.3267 9.16855C11.3033 9.15717 11.2779 9.15054 11.252 9.14905C11.2261 9.14756 11.2001 9.15124 11.1756 9.15987C11.1511 9.16851 11.1286 9.18192 11.1093 9.19934ZM11.8647 7.69C11.7293 7.72734 11.6053 7.80267 11.508 7.90334C11.3574 8.05883 11.2726 8.26641 11.2712 8.48287C11.2699 8.69932 11.3521 8.90796 11.5007 9.06534L11.51 9.07534C11.6413 9.20934 11.8133 9.29201 11.9967 9.31401C12.5307 9.41401 13.0193 9.69001 13.3873 10.1C13.405 10.1186 13.4262 10.1335 13.4497 10.1437C13.4733 10.1539 13.4986 10.1592 13.5242 10.1594C13.5499 10.1596 13.5753 10.1546 13.599 10.1447C13.6226 10.1349 13.6441 10.1203 13.662 10.102C13.6826 10.0813 13.6984 10.0564 13.7083 10.0289C13.7182 10.0015 13.7221 9.97222 13.7195 9.94315C13.717 9.91408 13.7081 9.88592 13.6936 9.86062C13.6791 9.83532 13.6592 9.8135 13.6353 9.79667C13.2111 9.39006 12.9391 8.85026 12.8647 8.26734C12.8379 8.16317 12.7907 8.06539 12.7256 7.97972C12.6606 7.89406 12.5792 7.82223 12.486 7.76846C12.3929 7.71469 12.29 7.68006 12.1833 7.66658C12.0766 7.65311 11.9682 7.66107 11.8647 7.69Z" fill="black"/>
</g>
</svg>