<svg xmlns="http://www.w3.org/2000/svg" width="16" height="16" viewBox="0 0 16 16" fill="none">
<g id="app-store 1">
<g id="Group">
<path id="Vector" d="M5.5 1.5H2.5C1.94772 1.5 1.5 1.94772 1.5 2.5V5.5C1.5 6.05228 1.94772 6.5 2.5 6.5H5.5C6.05228 6.5 6.5 6.05228 6.5 5.5V2.5C6.5 1.94772 6.05228 1.5 5.5 1.5Z" stroke="black" stroke-linecap="round" stroke-linejoin="round"/>
<path id="Vector_2" d="M11.2926 1.17173L9.17128 3.29305C8.78075 3.68357 8.78075 4.31674 9.17128 4.70726L11.2926 6.82858C11.6831 7.2191 12.3163 7.2191 12.7068 6.82858L14.8281 4.70726C15.2187 4.31674 15.2187 3.68357 14.8281 3.29305L12.7068 1.17173C12.3163 0.781201 11.6831 0.781201 11.2926 1.17173Z" stroke="black" stroke-linecap="round" stroke-linejoin="round"/>
<path id="Vector_3" d="M5.5 9.5H2.5C1.94772 9.5 1.5 9.94772 1.5 10.5V13.5C1.5 14.0523 1.94772 14.5 2.5 14.5H5.5C6.05228 14.5 6.5 14.0523 6.5 13.5V10.5C6.5 9.94772 6.05228 9.5 5.5 9.5Z" stroke="black" stroke-linecap="round" stroke-linejoin="round"/>
<path id="Vector_4" d="M13.5 9.5H10.5C9.94772 9.5 9.5 9.94772 9.5 10.5V13.5C9.5 14.0523 9.94772 14.5 10.5 14.5H13.5C14.0523 14.5 14.5 14.0523 14.5 13.5V10.5C14.5 9.94772 14.0523 9.5 13.5 9.5Z" stroke="black" stroke-linecap="round" stroke-linejoin="round"/>
</g>
</g>
</svg>