<svg xmlns="http://www.w3.org/2000/svg" width="16" height="16" viewBox="0 0 16 16" fill="none">
<g id="application-tidy">
<path id="Vector 3" d="M2 0.5H1.5C0.947715 0.5 0.5 0.947715 0.5 1.5V2" stroke="black" stroke-linecap="round"/>
<path id="Vector 9" d="M5 0.5H5.5C6.05228 0.5 6.5 0.947715 6.5 1.5V2" stroke="black" stroke-linecap="round"/>
<path id="Vector 10" d="M2 6.5H1.5C0.947715 6.5 0.5 6.05228 0.5 5.5V5" stroke="black" stroke-linecap="round"/>
<path id="Vector 11" d="M5 6.5H5.5C6.05228 6.5 6.5 6.05228 6.5 5.5V5" stroke="black" stroke-linecap="round"/>
<path id="Vector 12" d="M10 0.5H10.5C11.0523 0.5 11.5 0.947715 11.5 1.5V2" stroke="black" stroke-opacity="0.5" stroke-linecap="round"/>
<path id="Vector 13" d="M10 6.5H10.5C11.0523 6.5 11.5 6.05228 11.5 5.5V5" stroke="black" stroke-opacity="0.5" stroke-linecap="round"/>
<path id="Vector 14" d="M14 0.5H14.5C15.0523 0.5 15.5 0.947715 15.5 1.5V2" stroke="black" stroke-opacity="0.25" stroke-linecap="round"/>
<path id="Vector 15" d="M14 6.5H14.5C15.0523 6.5 15.5 6.05228 15.5 5.5V5" stroke="black" stroke-opacity="0.25" stroke-linecap="round"/>
<path id="Vector 7" d="M14.5 9.5H10.5C9.94772 9.5 9.5 9.94772 9.5 10.5V14.5C9.5 15.0523 9.94772 15.5 10.5 15.5H14.5C15.0523 15.5 15.5 15.0523 15.5 14.5V10.5C15.5 9.94772 15.0523 9.5 14.5 9.5Z" stroke="black" stroke-linecap="round"/>
<path id="Vector 8" d="M6.5 12.5H2.5C1.94772 12.5 1.5 12.0523 1.5 11.5V9.5M6.5 12.5L4.5 10.5M6.5 12.5L4.5 14.5" stroke="black" stroke-linecap="round"/>
</g>
</svg>