<svg xmlns="http://www.w3.org/2000/svg" width="16" height="16" viewBox="0 0 16 16" fill="none">
<g id="json-data-schema">
<g id="Vector">
<path d="M13.5 7.5C13.5 6.94772 13.0523 6.5 12.5 6.5H6.5C5.94772 6.5 5.5 6.94772 5.5 7.5V7.5C5.5 8.05228 5.94772 8.5 6.5 8.5H12.5C13.0523 8.5 13.5 8.05228 13.5 7.5V7.5Z" stroke="black" stroke-linecap="round" stroke-linejoin="round"/>
<path d="M11.5 2.5C11.5 1.94772 11.0523 1.5 10.5 1.5H2.5C1.94772 1.5 1.5 1.94772 1.5 2.5V2.5C1.5 3.05228 1.94772 3.5 2.5 3.5H10.5C11.0523 3.5 11.5 3.05228 11.5 2.5V2.5Z" stroke="black" stroke-linecap="round" stroke-linejoin="round"/>
<path d="M13.5 12.5C13.5 11.9477 13.0523 11.5 12.5 11.5H6.5C5.94772 11.5 5.5 11.9477 5.5 12.5V12.5C5.5 13.0523 5.94772 13.5 6.5 13.5H12.5C13.0523 13.5 13.5 13.0523 13.5 12.5V12.5Z" stroke="black" stroke-linecap="round" stroke-linejoin="round"/>
</g>
</g>
</svg>