<svg xmlns="http://www.w3.org/2000/svg" width="16" height="16" viewBox="0 0 16 16" fill="none">
<g id="pin-off[automation,lock,fix,map,save]">
<path id="Vector" d="M8 10.6667V14" stroke="black" stroke-linecap="round" stroke-linejoin="round"/>
<path id="Vector_2" d="M10.6579 3.18088C10.5871 2.56526 10.1014 2.0796 9.4858 2.00875C9.4098 2 9.31947 2 9.1388 2H6.8612C6.68053 2 6.59019 2 6.51422 2.00875C5.89859 2.0796 5.41293 2.56526 5.34208 3.18088C5.33333 3.25686 5.33333 3.34719 5.33333 3.52787C5.33333 3.5859 5.33333 3.61491 5.33551 3.64176C5.35278 3.85521 5.47154 4.04736 5.65472 4.15827C5.67777 4.17221 5.70372 4.18519 5.75563 4.21115L5.92968 4.29817C6.19863 4.43265 6.3331 4.49989 6.42129 4.60376C6.4933 4.68857 6.54294 4.79006 6.56568 4.89897C6.59353 5.03236 6.56404 5.17979 6.50507 5.47465L6 8H5.77778C5.36446 8 5.15779 8 4.98824 8.0454C4.52812 8.16873 4.16872 8.52813 4.04543 8.98827C4 9.1578 4 9.36447 4 9.7778M10.5 8C10.9133 8 10.8422 8 11.0117 8.0454C11.4719 8.16873 11.8313 8.52813 11.9546 8.98827C12 9.1578 12 9.36447 12 9.7778C12 9.98447 12 10.0878 11.9773 10.1725C11.9157 10.4026 11.7359 10.5823 11.5059 10.6439C11.4211 10.6667 11.3178 10.6667 11.1111 10.6667H8" stroke="black" stroke-linecap="round" stroke-linejoin="round"/>
<path id="Vector 46" d="M14 2L2 14" stroke="black" stroke-linecap="round"/>
</g>
</svg>