<svg xmlns="http://www.w3.org/2000/svg" width="16" height="16" viewBox="0 0 16 16" fill="none">
<g id="switch-bottom-panel[sidebar,bottom,automation]">
<path id="Vector 42" d="M1.5 13.5L1.5 10.5C1.5 9.94772 1.94772 9.5 2.5 9.5L13.5 9.5C14.0523 9.5 14.5 9.94771 14.5 10.5L14.5 13.5C14.5 14.0523 14.0523 14.5 13.5 14.5L2.5 14.5C1.94772 14.5 1.5 14.0523 1.5 13.5Z" stroke="black"/>
<path id="Vector 44" d="M9.5 7.5L9.5 5.5M9.5 3.5L9.5 2.5C9.5 1.94772 9.94772 1.5 10.5 1.5L11 1.5M13 1.5L13.5 1.5C14.0523 1.5 14.5 1.94772 14.5 2.5L14.5 3.5M14.5 5.5L14.5 7.5" stroke="black" stroke-opacity="0.5" stroke-linecap="round"/>
</g>
</svg>