<svg xmlns="http://www.w3.org/2000/svg" width="16" height="16" viewBox="0 0 16 16" fill="none">
<g id="create-solid[forms,solid,edit,design,pen,pencil,draw,create]">
<path id="Vector" fill-rule="evenodd" clip-rule="evenodd" d="M10.4394 1.85352C11.0251 1.26774 11.9749 1.26774 12.5607 1.85352L13.1465 2.43931C13.7322 3.0251 13.7322 3.97485 13.1465 4.56063L12.3536 5.35352C12.1583 5.54879 11.8417 5.54879 11.6465 5.35352L9.64646 3.35352C9.55269 3.25976 9.50001 3.13258 9.50001 2.99997C9.50001 2.86736 9.55269 2.74019 9.64646 2.64642L10.4394 1.85352ZM8.14646 4.14642C8.34172 3.95116 8.6583 3.95116 8.85357 4.14642L10.8536 6.14642C10.9473 6.24019 11 6.36736 11 6.49997C11 6.63258 10.9473 6.75976 10.8536 6.85352L4.85357 12.8535C4.79868 12.9084 4.73177 12.9498 4.65813 12.9743L1.65813 13.9743C1.47846 14.0342 1.28038 13.9874 1.14646 13.8535C1.01254 13.7196 0.965783 13.5215 1.02567 13.3419L2.02567 10.3419C2.05022 10.2682 2.09157 10.2013 2.14646 10.1464L8.14646 4.14642Z" fill="black"/>
</g>
</svg>