<svg xmlns="http://www.w3.org/2000/svg" width="16" height="16" viewBox="0 0 16 16" fill="none">
<g id="design-regular[forms,palette,design,color,paint]">
<path id="Vector" d="M5 5.5C5.27614 5.5 5.5 5.27614 5.5 5C5.5 4.72386 5.27614 4.5 5 4.5C4.72386 4.5 4.5 4.72386 4.5 5C4.5 5.27614 4.72386 5.5 5 5.5Z" fill="black" stroke="black" stroke-linecap="round" stroke-linejoin="round"/>
<path id="Vector_2" d="M8 4.5C8.27614 4.5 8.5 4.27614 8.5 4C8.5 3.72386 8.27614 3.5 8 3.5C7.72386 3.5 7.5 3.72386 7.5 4C7.5 4.27614 7.72386 4.5 8 4.5Z" fill="black" stroke="black" stroke-linecap="round" stroke-linejoin="round"/>
<path id="Vector_3" d="M11 7.5C11.2761 7.5 11.5 7.27614 11.5 7C11.5 6.72386 11.2761 6.5 11 6.5C10.7239 6.5 10.5 6.72386 10.5 7C10.5 7.27614 10.7239 7.5 11 7.5Z" fill="black" stroke="black" stroke-linecap="round" stroke-linejoin="round"/>
<path id="Vector_4" d="M4 8.5C4.27614 8.5 4.5 8.27614 4.5 8C4.5 7.72386 4.27614 7.5 4 7.5C3.72386 7.5 3.5 7.72386 3.5 8C3.5 8.27614 3.72386 8.5 4 8.5Z" fill="black" stroke="black" stroke-linecap="round" stroke-linejoin="round"/>
<path id="Vector_5" d="M7.5024 1.5C4.20108 1.5 1.5 4.2 1.5 7.5C1.5 10.8 4.20108 13.5 7.5024 13.5C8.05822 13.5 8.4916 13.0524 8.4916 12.4872C8.4916 11.9484 7.96639 11.6772 7.96639 11.1372C7.94585 9.9452 9.37671 10.1364 10.1657 10.1364C11.997 10.1364 13.5 8.6346 13.5 6.804C13.4838 3.9072 10.7803 1.5 7.5024 1.5Z" stroke="black" stroke-linecap="round" stroke-linejoin="round"/>
</g>
</svg>