<svg xmlns="http://www.w3.org/2000/svg" width="16" height="16" viewBox="0 0 16 16" fill="none">
<g id="embed-type-popover[forms,embed]">
<path id="Vector" d="M13.5 2.5H1.5C0.947715 2.5 0.5 2.94772 0.5 3.5V11.5C0.5 12.0523 0.947716 12.5 1.5 12.5H13.5C14.0523 12.5 14.5 12.0523 14.5 11.5V3.5C14.5 2.94772 14.0523 2.5 13.5 2.5Z" stroke="black" stroke-linecap="round" stroke-linejoin="round"/>
<path id="Vector_2" d="M10 4.5H8C7.72386 4.5 7.5 4.72386 7.5 5V8C7.5 8.27614 7.72386 8.5 8 8.5H10C10.2761 8.5 10.5 8.27614 10.5 8V5C10.5 4.72386 10.2761 4.5 10 4.5Z" fill="black" fill-opacity="0.25" stroke="black" stroke-linecap="round" stroke-linejoin="round"/>
<path id="Vector_3" d="M11.5 10C11.5 10.2761 11.7239 10.5 12 10.5C12.2761 10.5 12.5 10.2761 12.5 10C12.5 9.72386 12.2761 9.5 12 9.5C11.7239 9.5 11.5 9.72386 11.5 10Z" stroke="black" stroke-linecap="round" stroke-linejoin="round"/>
</g>
</svg>