<svg xmlns="http://www.w3.org/2000/svg" width="16" height="16" viewBox="0 0 16 16" fill="none">
<g id="group[forms,question,type,form]">
<path id="Vector" d="M12.5 1.5H3.5C2.39543 1.5 1.5 2.39543 1.5 3.5V12.5C1.5 13.6046 2.39543 14.5 3.5 14.5H12.5C13.6046 14.5 14.5 13.6046 14.5 12.5V3.5C14.5 2.39543 13.6046 1.5 12.5 1.5Z" stroke="black" stroke-linecap="round" stroke-linejoin="round"/>
<path id="Vector_2" d="M9.5 3.5H4.5C3.94772 3.5 3.5 3.94772 3.5 4.5V9.5C3.5 10.0523 3.94772 10.5 4.5 10.5H9.5C10.0523 10.5 10.5 10.0523 10.5 9.5V4.5C10.5 3.94772 10.0523 3.5 9.5 3.5Z" stroke="black" stroke-linecap="round" stroke-linejoin="round"/>
<path id="Vector_3" d="M12.5 7.5V11.5C12.5 12.0523 12.0523 12.5 11.5 12.5H7.5" stroke="black" stroke-linecap="round" stroke-linejoin="round"/>
</g>
</svg>