<svg xmlns="http://www.w3.org/2000/svg" width="16" height="16" viewBox="0 0 16 16" fill="none">
<g id="layout-float-right[forms,layout,place,interface,widget,template]">
<path id="Vector" d="M1.5 2.5H13.5C14.0523 2.5 14.5 2.94772 14.5 3.5V11.5C14.5 12.0523 14.0523 12.5 13.5 12.5H1.5C0.947716 12.5 0.5 12.0523 0.5 11.5V3.5C0.5 2.94772 0.947716 2.5 1.5 2.5Z" stroke="black" stroke-linecap="round" stroke-linejoin="round"/>
<path id="Vector_2" d="M9 6.5H12C12.2761 6.5 12.5 6.72386 12.5 7V8C12.5 8.27614 12.2761 8.5 12 8.5H9C8.72386 8.5 8.5 8.27614 8.5 8V7C8.5 6.72386 8.72386 6.5 9 6.5Z" fill="black" fill-opacity="0.25" stroke="black" stroke-linecap="round" stroke-linejoin="round"/>
<path id="Vector_3" d="M6.5 6.5H2.5M6.5 8.5H4.5" stroke="black" stroke-linecap="round" stroke-linejoin="round"/>
</g>
</svg>