<svg xmlns="http://www.w3.org/2000/svg" width="16" height="16" viewBox="0 0 16 16" fill="none">
<g id="logic-solid[forms,logic,branch]">
<path id="Vector" d="M2.5 2.5C2.5 3.05228 2.94772 3.5 3.5 3.5C4.05228 3.5 4.5 3.05228 4.5 2.5C4.5 1.94771 4.05228 1.5 3.5 1.5C2.94772 1.5 2.5 1.94771 2.5 2.5Z" fill="black" stroke="black" stroke-linecap="round" stroke-linejoin="round"/>
<path id="Vector_2" d="M10.5 2.5C10.5 3.05228 10.9477 3.5 11.5 3.5C12.0523 3.5 12.5 3.05228 12.5 2.5C12.5 1.94771 12.0523 1.5 11.5 1.5C10.9477 1.5 10.5 1.94771 10.5 2.5Z" fill="black" stroke="black" stroke-linecap="round" stroke-linejoin="round"/>
<path id="Vector_3" d="M2.5 12.5C2.5 13.0523 2.94772 13.5 3.5 13.5C4.05228 13.5 4.5 13.0523 4.5 12.5C4.5 11.9477 4.05228 11.5 3.5 11.5C2.94772 11.5 2.5 11.9477 2.5 12.5Z" fill="black" stroke="black" stroke-linecap="round" stroke-linejoin="round"/>
<path id="Vector_4" d="M3.5 11.5V9.5C3.5 8.39543 4.39543 7.5 5.5 7.5H9.5C10.6046 7.5 11.5 6.60457 11.5 5.5V3.5" stroke="black" stroke-linecap="round" stroke-linejoin="round"/>
<path id="Vector_5" d="M3.5 3.5V6.5" stroke="black" stroke-linecap="round" stroke-linejoin="round"/>
</g>
</svg>