<svg xmlns="http://www.w3.org/2000/svg" width="16" height="16" viewBox="0 0 16 16" fill="none">
<g id="opinion-scale[forms,question,type,form]">
<path id="Vector" d="M1.5 13.5H13.5" stroke="black" stroke-linecap="round" stroke-linejoin="round"/>
<path id="Vector_2" d="M12.5 3V11C12.5 11.2761 12.2761 11.5 12 11.5H11C10.7239 11.5 10.5 11.2761 10.5 11V3C10.5 2.72386 10.7239 2.5 11 2.5H12C12.2761 2.5 12.5 2.72386 12.5 3Z" stroke="black" stroke-linecap="round" stroke-linejoin="round"/>
<path id="Vector_3" d="M8.5 6V11C8.5 11.2761 8.27614 11.5 8 11.5H7C6.72386 11.5 6.5 11.2761 6.5 11V6C6.5 5.72386 6.72386 5.5 7 5.5H8C8.27614 5.5 8.5 5.72386 8.5 6Z" stroke="black" stroke-linecap="round" stroke-linejoin="round"/>
<path id="Vector_4" d="M2.5 8V11C2.5 11.2761 2.72386 11.5 3 11.5H4C4.27614 11.5 4.5 11.2761 4.5 11V8C4.5 7.72386 4.27614 7.5 4 7.5H3C2.72386 7.5 2.5 7.72386 2.5 8Z" stroke="black" stroke-linecap="round" stroke-linejoin="round"/>
</g>
</svg>