<svg xmlns="http://www.w3.org/2000/svg" width="16" height="16" viewBox="0 0 16 16" fill="none">
<g id="rating-heart-solid[forms,solid,rating,shapes,heart]">
<path id="Vector" d="M11 2.00002C10.4307 1.99845 9.86769 2.12018 9.34983 2.35684C8.83197 2.59351 8.37149 2.93949 8.00003 3.37102C7.62858 2.93949 7.1681 2.59351 6.65024 2.35684C6.13238 2.12018 5.56941 1.99845 5.00003 2.00002C4.21463 2.00124 3.44696 2.23365 2.79276 2.66826C2.13857 3.10288 1.62679 3.72048 1.32127 4.44402C1.01575 5.16757 0.929998 5.96506 1.07471 6.73702C1.21942 7.50898 1.58819 8.22126 2.13503 8.78502L7.64303 14.414C7.68958 14.4615 7.74512 14.4992 7.80642 14.525C7.86772 14.5507 7.93354 14.564 8.00003 14.564C8.06676 14.564 8.13282 14.5506 8.1943 14.5247C8.25579 14.4988 8.31146 14.4608 8.35803 14.413L13.673 8.95902C14.2754 8.41964 14.6996 7.70991 14.8894 6.92392C15.0791 6.13794 15.0255 5.31284 14.7356 4.55804C14.4456 3.80324 13.9331 3.1544 13.266 2.69755C12.5988 2.24071 11.8086 1.99744 11 2.00002Z" fill="black"/>
</g>
</svg>