<svg xmlns="http://www.w3.org/2000/svg" width="16" height="16" viewBox="0 0 16 16" fill="none">
<g id="rating-thumb-up-regular[forms,rating]">
<path id="Vector" d="M3 7.5H0V15.5H3V7.5Z" stroke="black" stroke-linecap="round" stroke-linejoin="round"/>
<path id="Vector_2" d="M5 15.5H11.9C12.355 15.4999 12.7963 15.3447 13.1512 15.06C13.5061 14.7753 13.7533 14.3781 13.852 13.934L14.963 8.934C15.0281 8.64133 15.0265 8.33778 14.9584 8.04579C14.8903 7.75381 14.7574 7.48088 14.5696 7.24717C14.3818 7.01347 14.1439 6.82498 13.8734 6.69565C13.6029 6.56632 13.3068 6.49945 13.007 6.5H9V2.5C9 1.96957 8.78929 1.46086 8.41421 1.08579C8.03914 0.710714 7.53043 0.5 7 0.5L5 6.5" stroke="black" stroke-linecap="round" stroke-linejoin="round"/>
</g>
</svg>