<svg xmlns="http://www.w3.org/2000/svg" width="16" height="16" viewBox="0 0 16 16" fill="none">
<g id="rating-heart-regular[forms,rating,shapes,heart]">
<path id="Vector" d="M14.5 6.00001C14.5024 5.23294 14.2519 4.48647 13.7874 3.87602C13.323 3.26557 12.6703 2.82515 11.9304 2.62287C11.1905 2.42058 10.4045 2.46771 9.69406 2.75695C8.98361 3.04619 8.38824 3.56143 8.00002 4.22301C7.74908 3.79763 7.41076 3.43031 7.0074 3.14532C6.60404 2.86033 6.14481 2.66415 5.66004 2.56972C5.17527 2.47528 4.67598 2.48476 4.19514 2.59751C3.7143 2.71027 3.26285 2.92373 2.87059 3.22382C2.47833 3.52391 2.15419 3.90379 1.91957 4.33839C1.68494 4.77298 1.54518 5.2524 1.50949 5.74499C1.47381 6.23758 1.54302 6.73214 1.71256 7.19601C1.8821 7.65988 2.14811 8.08252 2.49302 8.43601L8.00002 14.065L13.338 8.58801C13.7027 8.26251 13.9947 7.86379 14.1949 7.41787C14.3951 6.97194 14.4991 6.48882 14.5 6.00001Z" stroke="black" stroke-linecap="round" stroke-linejoin="round"/>
</g>
</svg>