<svg xmlns="http://www.w3.org/2000/svg" width="16" height="16" viewBox="0 0 16 16" fill="none">
<g id="settings-solid[forms,solid,control,preferences,system]">
<path id="Vector" fill-rule="evenodd" clip-rule="evenodd" d="M6.64014 1.41776C6.68034 1.17669 6.88893 1 7.13333 1H8.86667C9.11107 1 9.31966 1.17669 9.35986 1.41776L9.6227 2.99411C9.88736 3.07975 10.1448 3.18635 10.3925 3.31289L11.6966 2.38407C11.8957 2.24227 12.1681 2.2652 12.3407 2.43828L13.5593 3.66028C13.7315 3.83303 13.754 4.10488 13.6124 4.30355L12.6834 5.60677C12.811 5.85459 12.9185 6.1122 13.005 6.37714L14.5822 6.64014C14.8233 6.68034 15 6.88893 15 7.13333V8.86667C15 9.111 14.8234 9.31955 14.5824 9.35983L13.0093 9.62273C12.9228 9.88776 12.8153 10.1454 12.6877 10.3933L13.6159 11.6966C13.7577 11.8957 13.7348 12.1681 13.5617 12.3407L12.3397 13.5593C12.167 13.7315 11.8951 13.754 11.6965 13.6124L10.3932 12.6834C10.1454 12.811 9.8878 12.9185 9.62286 13.005L9.35986 14.5822C9.31966 14.8233 9.11107 15 8.86667 15H7.13333C6.889 15 6.68045 14.8234 6.64017 14.5824L6.37727 13.0093C6.11224 12.9228 5.85455 12.8153 5.60665 12.6877L4.3034 13.6159C4.10452 13.7576 3.83243 13.7349 3.65978 13.5622L2.43778 12.3402C2.26513 12.1676 2.24243 11.8955 2.38407 11.6966L3.31289 10.3925C3.18635 10.1448 3.07975 9.88736 2.99411 9.6227L1.41776 9.35986C1.17669 9.31966 1 9.11107 1 8.86667V7.13333C1 6.88893 1.17669 6.68034 1.41776 6.64014L2.99411 6.3773C3.07975 6.11264 3.18635 5.85523 3.31289 5.60751L2.38407 4.3034C2.24243 4.10452 2.26513 3.83243 2.43778 3.65978L3.65978 2.43778C3.83243 2.26513 4.10452 2.24243 4.3034 2.38407L5.60751 3.31289C5.85523 3.18635 6.11264 3.07975 6.3773 2.99411L6.64014 1.41776ZM8 6C6.89543 6 6 6.89543 6 8C6 9.10457 6.89543 10 8 10C9.10457 10 10 9.10457 10 8C10 6.89543 9.10457 6 8 6ZM5 8C5 6.34315 6.34315 5 8 5C9.65685 5 11 6.34315 11 8C11 9.65685 9.65685 11 8 11C6.34315 11 5 9.65685 5 8Z" fill="black"/>
</g>
</svg>