<svg xmlns="http://www.w3.org/2000/svg" width="16" height="16" viewBox="0 0 16 16" fill="none">
<g id="contactInfo[forms,question,type,form,profile,account,avatar,person,member]">
<path id="Vector" d="M12.5 1.5H3.5C2.94772 1.5 2.5 1.94771 2.5 2.5V13.5C2.5 14.0523 2.94771 14.5 3.5 14.5H12.5C13.0523 14.5 13.5 14.0523 13.5 13.5V2.5C13.5 1.94771 13.0523 1.5 12.5 1.5Z" stroke="black"/>
<path id="Vector_2" d="M11.5 12.5V11.5C11.5 10.9696 11.2893 10.4609 10.9142 10.0858C10.5391 9.71071 10.0304 9.5 9.5 9.5H6.5C5.96957 9.5 5.46086 9.71071 5.08579 10.0858C4.71071 10.4609 4.5 10.9696 4.5 11.5V12.5" stroke="black" stroke-linecap="round" stroke-linejoin="round"/>
<path id="Vector_3" d="M8 7.5C9.10457 7.5 10 6.60457 10 5.5C10 4.39543 9.10457 3.5 8 3.5C6.89543 3.5 6 4.39543 6 5.5C6 6.60457 6.89543 7.5 8 7.5Z" fill="black" fill-opacity="0.25" stroke="black" stroke-linecap="round" stroke-linejoin="round"/>
</g>
</svg>