<svg xmlns="http://www.w3.org/2000/svg" width="16" height="16" viewBox="0 0 16 16" fill="none">
<g id="embed-type-side-tab[forms,embed]">
<path id="Vector" d="M13.5 2.5H1.5C0.947715 2.5 0.5 2.94772 0.5 3.5V11.5C0.5 12.0523 0.947716 12.5 1.5 12.5H13.5C14.0523 12.5 14.5 12.0523 14.5 11.5V3.5C14.5 2.94772 14.0523 2.5 13.5 2.5Z" stroke="black" stroke-linecap="round" stroke-linejoin="round"/>
<path id="Vector_2" d="M12 4.5H10C9.72386 4.5 9.5 4.72386 9.5 5V10C9.5 10.2761 9.72386 10.5 10 10.5H12C12.2761 10.5 12.5 10.2761 12.5 10V5C12.5 4.72386 12.2761 4.5 12 4.5Z" fill="black" fill-opacity="0.25" stroke="black" stroke-linecap="round" stroke-linejoin="round"/>
<path id="Vector_3" d="M7.5 7V8" stroke="black" stroke-linecap="round" stroke-linejoin="round"/>
</g>
</svg>