<svg xmlns="http://www.w3.org/2000/svg" width="16" height="16" viewBox="0 0 16 16" fill="none">
<g id="phone[forms,question,type,form,phone,message,sms]">
<path id="Vector" d="M4.5 1.5H2.5C1.94771 1.5 1.5 1.94771 1.5 2.5V13.5C1.5 14.0523 1.94771 14.5 2.5 14.5H9.5C10.0523 14.5 10.5 14.0523 10.5 13.5V8.5" stroke="black" stroke-linecap="round" stroke-linejoin="round"/>
<path id="Vector_2" d="M5.5 12C5.5 12.2761 5.72386 12.5 6 12.5C6.27614 12.5 6.5 12.2761 6.5 12C6.5 11.7239 6.27614 11.5 6 11.5C5.72386 11.5 5.5 11.7239 5.5 12Z" stroke="black" stroke-linecap="round" stroke-linejoin="round"/>
<path id="Vector_3" d="M13.5 1.5H7.5C6.94772 1.5 6.5 1.94771 6.5 2.5V8.5L9.5 6.5H13.5C14.0523 6.5 14.5 6.05228 14.5 5.5V2.5C14.5 1.94771 14.0523 1.5 13.5 1.5Z" stroke="black" stroke-linecap="round" stroke-linejoin="round"/>
</g>
</svg>