<svg xmlns="http://www.w3.org/2000/svg" width="16" height="16" viewBox="0 0 16 16" fill="none">
<g id="rating-thumb-up-solid[forms,solid,rating]">
<path id="Vector" d="M1.99999 6.99999H0.999994C0.86658 6.99197 0.732983 7.01235 0.608023 7.05976C0.483063 7.10718 0.369583 7.18057 0.275075 7.27507C0.180567 7.36958 0.107182 7.48306 0.0597638 7.60802C0.0123458 7.73298 -0.00802585 7.86658 -6.20529e-06 7.99999V15C-0.00802585 15.1334 0.0123458 15.267 0.0597638 15.392C0.107182 15.5169 0.180567 15.6304 0.275075 15.7249C0.369583 15.8194 0.483063 15.8928 0.608023 15.9402C0.732983 15.9876 0.86658 16.008 0.999994 16H1.99999V6.99999Z" fill="black"/>
<path id="Vector_2" d="M14 5.99999H9V1.99999C9.01604 1.73316 8.9753 1.46597 8.88046 1.21605C8.78562 0.966126 8.63885 0.739166 8.44984 0.55015C8.26082 0.361135 8.03386 0.214364 7.78394 0.119528C7.53402 0.0246917 7.26683 -0.0160517 7 -1.24166e-05L4 6.99999V16H12C12.6894 16.0087 13.3595 15.7721 13.8907 15.3325C14.4219 14.8929 14.7796 14.2789 14.9 13.6L15.9 8.39999C15.9706 8.11316 15.9747 7.81397 15.9119 7.52532C15.8492 7.23667 15.7212 6.9662 15.5379 6.73459C15.3545 6.50299 15.1206 6.31639 14.8541 6.18906C14.5875 6.06174 14.2954 5.99706 14 5.99999Z" fill="black"/>
</g>
</svg>