<svg xmlns="http://www.w3.org/2000/svg" width="16" height="16" viewBox="0 0 16 16" fill="none">
<g id="toolbar-create-solid[forms,solid,edit,design,pen,pencil,draw,create]">
<path id="Vector" d="M1 15.5H15" stroke="black" stroke-linecap="round" stroke-linejoin="round"/>
<path id="Vector_2" d="M11.5607 0.853524C10.9749 0.267738 10.0251 0.267738 9.43935 0.853525L8.85354 1.43933C8.65828 1.63459 8.65828 1.95118 8.85354 2.14644L11.8535 5.14644C12.0488 5.3417 12.3654 5.3417 12.5607 5.14644L13.1465 4.56063C13.7322 3.97484 13.7322 3.0251 13.1465 2.43931L11.5607 0.853524Z" fill="black"/>
<path id="Vector_3" d="M11.1464 6.56065C11.3417 6.36539 11.3417 6.04881 11.1464 5.85354L8.14644 2.85354C7.95117 2.65828 7.63459 2.65828 7.43933 2.85354L1.84231 8.45056C1.65008 8.6428 1.5137 8.88367 1.44776 9.14742L0.514939 12.8787C0.472342 13.0491 0.522267 13.2293 0.646457 13.3535C0.770647 13.4777 0.950891 13.5276 1.12128 13.485L4.85256 12.5522C5.11631 12.4863 5.35718 12.3499 5.54942 12.1577L11.1464 6.56065Z" fill="black"/>
</g>
</svg>