<svg xmlns="http://www.w3.org/2000/svg" width="16" height="16" viewBox="0 0 16 16" fill="none">
<g id="url-redirect[forms,question,type,form,url,end]">
<path id="Vector" d="M13.5 2.5L9.5 6.5M13.5 2.5V5.5M13.5 2.5H10.5" stroke="black" stroke-linecap="round" stroke-linejoin="round"/>
<path id="Vector_2" d="M7.5 3.5H2.5C1.94771 3.5 1.5 3.94772 1.5 4.5V12.5C1.5 13.0523 1.94771 13.5 2.5 13.5H13.5M5.5 5.5H3.5V11.5H5.5M3.5 8.5H5.5" stroke="black" stroke-linecap="round" stroke-linejoin="round"/>
<path id="Vector_3" d="M7.5 11.5V8.5L9.5 11.5V8.5M11.5 8.5V11.5H12.5C13.0523 11.5 13.5 11.0523 13.5 10.5V9.5C13.5 8.94772 13.0523 8.5 12.5 8.5H11.5Z" stroke="black" stroke-linecap="round" stroke-linejoin="round"/>
</g>
</svg>