<svg xmlns="http://www.w3.org/2000/svg" width="16" height="16" viewBox="0 0 16 16" fill="none">
<g id="image-duplicate[photo,image,media,picture,gallery,photography,graphic,duplicate,copy]">
<path id="Vector" d="M6 9L10.5 4.5L13.5 7.5" stroke="black" stroke-linecap="round" stroke-linejoin="round"/>
<path id="Vector_2" d="M12.5 1.5H6.5C5.94772 1.5 5.5 1.94771 5.5 2.5V8.5C5.5 9.05228 5.94772 9.5 6.5 9.5H12.5C13.0523 9.5 13.5 9.05228 13.5 8.5V2.5C13.5 1.94771 13.0523 1.5 12.5 1.5Z" stroke="black" stroke-linecap="round" stroke-linejoin="round"/>
<path id="Vector_3" d="M3.25 6.5H2.5C1.94771 6.5 1.5 6.94772 1.5 7.5V12.5C1.5 13.0523 1.94771 13.5 2.5 13.5H7.5C8.05228 13.5 8.5 13.0523 8.5 12.5V11.75" stroke="black" stroke-linecap="round" stroke-linejoin="round"/>
<path id="Vector_4" d="M7.5 3.5H7.505" stroke="black" stroke-linecap="round" stroke-linejoin="round"/>
</g>
</svg>