<svg xmlns="http://www.w3.org/2000/svg" width="16" height="16" viewBox="0 0 16 16" fill="none">
<g id="image-ai[image,photo,picture,media,gallery,graphic,ai]">
<path id="Vector" d="M4.5 7.5C5.05228 7.5 5.5 7.05228 5.5 6.5C5.5 5.94772 5.05228 5.5 4.5 5.5C3.94772 5.5 3.5 5.94772 3.5 6.5C3.5 7.05228 3.94772 7.5 4.5 7.5Z" stroke="black" stroke-linecap="round" stroke-linejoin="round"/>
<path id="Vector 1455" d="M12.5 8.5V12.5C12.5 13.6046 11.6046 14.5 10.5 14.5H3.5C2.39543 14.5 1.5 13.6046 1.5 12.5V5.5C1.5 4.39543 2.39543 3.5 3.5 3.5H7.5" stroke="black" stroke-linecap="round" stroke-linejoin="round"/>
<path id="Vector_2" d="M2 13L4.5 10.5L6 12L9.5 8.5" stroke="black" stroke-linecap="round" stroke-linejoin="round"/>
<path id="Vector_3" d="M10.5 3.5C11.605 3.5 12.5 2.605 12.5 1.5C12.5 2.605 13.395 3.5 14.5 3.5C13.395 3.5 12.5 4.395 12.5 5.5C12.5 4.395 11.605 3.5 10.5 3.5Z" fill="#AB0A83" stroke="#AB0A83" stroke-linecap="round" stroke-linejoin="round"/>
</g>
</svg>