<svg xmlns="http://www.w3.org/2000/svg" width="16" height="16" viewBox="0 0 16 16" fill="none">
<g id="view-small[view,watch,see,show,visibility,visible,preview,read]">
<g id="Group">
<path id="Vector" d="M2.638 8.528C2.454 8.202 2.454 7.799 2.638 7.472C3.308 6.283 5.179 3.5 8 3.5C10.821 3.5 12.692 6.283 13.362 7.472C13.546 7.798 13.546 8.201 13.362 8.528C12.692 9.717 10.821 12.5 8 12.5C5.179 12.5 3.308 9.717 2.638 8.528Z" stroke="black" stroke-linecap="round" stroke-linejoin="round"/>
<path id="Vector_2" d="M8 10C9.10457 10 10 9.10457 10 8C10 6.89543 9.10457 6 8 6C6.89543 6 6 6.89543 6 8C6 9.10457 6.89543 10 8 10Z" stroke="black" stroke-linecap="round" stroke-linejoin="round"/>
</g>
</g>
</svg>