<svg xmlns="http://www.w3.org/2000/svg" width="16" height="16" viewBox="0 0 16 16" fill="none">
<g id="emoji-travel-places[emoji]">
<path id="Vector" d="M12.5 6L11.5 7L10.75 5.15C10.6793 4.96067 10.5528 4.79721 10.3873 4.68117C10.2219 4.56514 10.0251 4.50197 9.823 4.5H6.2C5.99625 4.49532 5.79594 4.553 5.62588 4.66533C5.45583 4.77766 5.32416 4.93926 5.2485 5.1285L4.5 7L3.5 6" stroke="black" stroke-linecap="round" stroke-linejoin="round"/>
<path id="Vector_2" d="M5.5 9H5.505" stroke="black" stroke-linecap="round" stroke-linejoin="round"/>
<path id="Vector_3" d="M10.5 9H10.505" stroke="black" stroke-linecap="round" stroke-linejoin="round"/>
<path id="Vector_4" d="M11.5 7H4.5C3.94772 7 3.5 7.44772 3.5 8V10C3.5 10.5523 3.94772 11 4.5 11H11.5C12.0523 11 12.5 10.5523 12.5 10V8C12.5 7.44772 12.0523 7 11.5 7Z" stroke="black" stroke-linecap="round" stroke-linejoin="round"/>
<path id="Vector_5" d="M4.5 11V12" stroke="black" stroke-linecap="round" stroke-linejoin="round"/>
<path id="Vector_6" d="M11.5 11V12" stroke="black" stroke-linecap="round" stroke-linejoin="round"/>
</g>
</svg>