<svg xmlns="http://www.w3.org/2000/svg" width="16" height="16" viewBox="0 0 16 16" fill="none">
<g id="emoji-activity[emoji]">
<path id="Vector" d="M10.798 8.384C10.9856 8.57158 11.24 8.67696 11.5052 8.67696C11.7705 8.67696 12.0249 8.57158 12.2125 8.384C12.4001 8.19643 12.5054 7.94202 12.5054 7.67675C12.5054 7.41148 12.4001 7.15708 12.2125 6.9695L11.3285 6.086C11.5161 6.27351 11.7704 6.37883 12.0357 6.37878C12.167 6.37876 12.297 6.35287 12.4184 6.30259C12.5397 6.25231 12.6499 6.17863 12.7427 6.08575C12.8356 5.99288 12.9092 5.88262 12.9595 5.76128C13.0097 5.63995 13.0355 5.5099 13.0355 5.37858C13.0355 5.24725 13.0096 5.11722 12.9593 4.9959C12.9091 4.87458 12.8354 4.76435 12.7425 4.6715L11.3285 3.2575C11.141 3.06993 10.8866 2.96452 10.6214 2.96448C10.3562 2.96443 10.1018 3.06975 9.91425 3.25725C9.72667 3.44476 9.62127 3.6991 9.62122 3.96433C9.62117 4.22955 9.72649 4.48393 9.914 4.6715L9.0305 3.7875C8.93762 3.69463 8.82736 3.62095 8.70601 3.57069C8.58466 3.52042 8.45459 3.49455 8.32325 3.49455C8.1919 3.49455 8.06184 3.52042 7.94049 3.57069C7.81913 3.62095 7.70887 3.69463 7.616 3.7875C7.52312 3.88038 7.44944 3.99064 7.39918 4.11199C7.34891 4.23334 7.32304 4.3634 7.32304 4.49475C7.32304 4.6261 7.34891 4.75616 7.39918 4.87751C7.44944 4.99886 7.52312 5.10913 7.616 5.202L10.798 8.384Z" stroke="black" stroke-linecap="round" stroke-linejoin="round"/>
<path id="Vector_2" d="M3.25 12.75L3.95 12.05" stroke="black" stroke-linecap="round" stroke-linejoin="round"/>
<path id="Vector_3" d="M12.05 3.95L12.75 3.25" stroke="black" stroke-linecap="round" stroke-linejoin="round"/>
<path id="Vector_4" d="M4.6715 12.7425C4.85901 12.9301 5.11335 13.0355 5.37858 13.0355C5.5099 13.0355 5.63995 13.0097 5.76128 12.9595C5.88262 12.9092 5.99288 12.8356 6.08575 12.7427C6.17863 12.6499 6.25231 12.5397 6.30259 12.4184C6.35287 12.297 6.37876 12.167 6.37878 12.0357C6.3788 11.9043 6.35296 11.7743 6.30272 11.653C6.25249 11.5316 6.17885 11.4214 6.086 11.3285L6.9695 12.2125C7.15708 12.4001 7.41148 12.5054 7.67675 12.5054C7.94202 12.5054 8.19643 12.4001 8.384 12.2125C8.57158 12.0249 8.67696 11.7705 8.67696 11.5052C8.67696 11.24 8.57158 10.9856 8.384 10.798L5.202 7.616C5.10913 7.52312 4.99886 7.44944 4.87751 7.39918C4.75616 7.34891 4.6261 7.32304 4.49475 7.32304C4.3634 7.32304 4.23334 7.34891 4.11199 7.39918C3.99064 7.44944 3.88038 7.52312 3.7875 7.616C3.69463 7.70887 3.62095 7.81913 3.57069 7.94049C3.52042 8.06184 3.49455 8.1919 3.49455 8.32325C3.49455 8.45459 3.52042 8.58466 3.57069 8.70601C3.62095 8.82736 3.69463 8.93762 3.7875 9.0305L4.6715 9.914C4.48393 9.72649 4.22955 9.62117 3.96433 9.62122C3.6991 9.62127 3.44476 9.72667 3.25725 9.91425C3.06975 10.1018 2.96443 10.3562 2.96448 10.6214C2.96452 10.8866 3.06993 11.141 3.2575 11.3285L4.6715 12.7425Z" stroke="black" stroke-linecap="round" stroke-linejoin="round"/>
<path id="Vector_5" d="M6.8 9.2L9.2 6.8" stroke="black" stroke-linecap="round" stroke-linejoin="round"/>
</g>
</svg>