<svg xmlns="http://www.w3.org/2000/svg" width="16" height="16" viewBox="0 0 16 16" fill="none">
<g id="emoji-food-drink[emoji]">
<path id="Vector" d="M5.5 12.5H10.5" stroke="black" stroke-linecap="round" stroke-linejoin="round"/>
<path id="Vector_2" d="M8 12.5C9.19347 12.5 10.3381 12.0259 11.182 11.182C12.0259 10.3381 12.5 9.19347 12.5 8H3.5C3.5 9.19347 3.97411 10.3381 4.81802 11.182C5.66193 12.0259 6.80653 12.5 8 12.5Z" stroke="black" stroke-linecap="round" stroke-linejoin="round"/>
<path id="Vector_3" d="M7.69 8C7.38718 8.00282 7.09449 7.89105 6.87064 7.6871C6.64678 7.48315 6.50832 7.2021 6.48301 6.90033C6.45771 6.59856 6.54743 6.29838 6.73419 6.05999C6.92096 5.82161 7.19094 5.66265 7.49 5.615C7.44212 5.40311 7.45265 5.1822 7.52047 4.97583C7.5883 4.76947 7.71087 4.58538 7.87511 4.4432C8.03935 4.30103 8.23911 4.20611 8.45306 4.16856C8.66702 4.13101 8.88716 4.15225 9.09 4.23C9.17882 4.09018 9.29562 3.97026 9.43305 3.8778C9.57048 3.78533 9.72557 3.72232 9.88855 3.69273C10.0515 3.66314 10.2189 3.66762 10.38 3.70587C10.5412 3.74412 10.6927 3.81533 10.825 3.915C11.0558 3.73361 11.345 3.6431 11.6381 3.6606C11.9311 3.67809 12.2075 3.80238 12.4151 4.00994C12.6226 4.2175 12.7469 4.49393 12.7644 4.78694C12.7819 5.07996 12.6914 5.36922 12.51 5.6C12.6229 5.74996 12.699 5.92432 12.7323 6.10907C12.7656 6.29381 12.755 6.48378 12.7016 6.6637C12.6481 6.84363 12.5531 7.0085 12.4243 7.14507C12.2955 7.28163 12.1365 7.38607 11.96 7.45C12.0056 7.62997 12.0107 7.81781 11.975 8" stroke="black" stroke-linecap="round" stroke-linejoin="round"/>
<path id="Vector_4" d="M8.5 8L10.5 6" stroke="black" stroke-linecap="round" stroke-linejoin="round"/>
<path id="Vector_5" d="M7.45 5.625C7.17575 5.33263 6.81978 5.12967 6.42849 5.04256C6.0372 4.95545 5.62875 4.98824 5.25637 5.13665C4.88399 5.28507 4.56495 5.54222 4.34085 5.87459C4.11675 6.20696 3.99797 6.59914 4 7C4 7.365 4.1 7.705 4.27 8" stroke="black" stroke-linecap="round" stroke-linejoin="round"/>
</g>
</svg>