<svg xmlns="http://www.w3.org/2000/svg" width="16" height="16" viewBox="0 0 16 16" fill="none">
<g id="emoji-animals-nature[emoji]">
<path id="Vector" d="M8 4.5C8.335 4.5 8.675 4.545 9 4.63C9.89 3.63 11.515 3.21 12.21 3.5C12.91 3.79 12 7 12 7C12.285 7.535 12.5 8.12 12.5 8.72C12.5 10.95 10.485 12.5 8 12.5C5.515 12.5 3.5 11 3.5 8.72C3.5 8.095 3.75 7.52 4 7C4 7 3.055 3.79 3.75 3.5C4.445 3.21 6.11 3.615 7 4.615C7.32801 4.53956 7.66343 4.50098 8 4.5Z" stroke="black" stroke-linecap="round" stroke-linejoin="round"/>
<path id="Vector_2" d="M6 9V9.25" stroke="black" stroke-linecap="round" stroke-linejoin="round"/>
<path id="Vector_3" d="M10 9V9.25" stroke="black" stroke-linecap="round" stroke-linejoin="round"/>
<path id="Vector_4" d="M7.625 10.125H8.375L8 10.5L7.625 10.125Z" stroke="black" stroke-linecap="round" stroke-linejoin="round"/>
</g>
</svg>