<svg xmlns="http://www.w3.org/2000/svg" width="16" height="16" viewBox="0 0 16 16" fill="none">
<g id="emoji-smileys-people[emoji]">
<path id="Vector" d="M8 13C10.7614 13 13 10.7614 13 8C13 5.23858 10.7614 3 8 3C5.23858 3 3 5.23858 3 8C3 10.7614 5.23858 13 8 13Z" stroke="black" stroke-linecap="round" stroke-linejoin="round"/>
<path id="Vector_2" d="M11 8.5C10.8807 9.20621 10.5127 9.84644 9.96246 10.305C9.41225 10.7635 8.71615 11.01 8 11C7.28385 11.01 6.58775 10.7635 6.03754 10.305C5.48732 9.84644 5.1193 9.20621 5 8.5H11Z" stroke="black" stroke-linecap="round" stroke-linejoin="round"/>
<path id="Vector_3" d="M6.5 6.5H6.505" stroke="black" stroke-linecap="round" stroke-linejoin="round"/>
<path id="Vector_4" d="M9.5 6.5H9.505" stroke="black" stroke-linecap="round" stroke-linejoin="round"/>
</g>
</svg>