<svg xmlns="http://www.w3.org/2000/svg" width="16" height="16" viewBox="0 0 16 16" fill="none">
<g id="sad[nps,emoticon]">
<g id="Group">
<path id="Vector" d="M8 15.5C12.1421 15.5 15.5 12.1421 15.5 8C15.5 3.85786 12.1421 0.5 8 0.5C3.85786 0.5 0.5 3.85786 0.5 8C0.5 12.1421 3.85786 15.5 8 15.5Z" stroke="black" stroke-linecap="round" stroke-linejoin="round"/>
<path id="Vector_2" d="M5 7C5.55228 7 6 6.55228 6 6C6 5.44772 5.55228 5 5 5C4.44772 5 4 5.44772 4 6C4 6.55228 4.44772 7 5 7Z" fill="black"/>
<path id="Vector_3" d="M11 7C11.5523 7 12 6.55228 12 6C12 5.44772 11.5523 5 11 5C10.4477 5 10 5.44772 10 6C10 6.55228 10.4477 7 11 7Z" fill="black"/>
<path id="Vector_4" d="M5 11.2C5.31111 10.6823 5.75089 10.2539 6.27659 9.95649C6.80229 9.65908 7.396 9.50278 8 9.50278C8.604 9.50278 9.19771 9.65908 9.72341 9.95649C10.2491 10.2539 10.6889 10.6823 11 11.2" stroke="black" stroke-linecap="round" stroke-linejoin="round"/>
</g>
</g>
</svg>