<svg xmlns="http://www.w3.org/2000/svg" width="16" height="16" viewBox="0 0 16 16" fill="none">
<g id="satisfied[nps,emoticon]">
<g id="Group">
<path id="Vector" d="M8 15.5C12.1421 15.5 15.5 12.1421 15.5 8C15.5 3.85786 12.1421 0.5 8 0.5C3.85786 0.5 0.5 3.85786 0.5 8C0.5 12.1421 3.85786 15.5 8 15.5Z" stroke="black" stroke-linecap="round" stroke-linejoin="round"/>
<path id="Vector_2" d="M12.388 9C12.1618 9.99469 11.6044 10.883 10.8072 11.5194C10.0099 12.1557 9.02008 12.5023 8 12.5023C6.97992 12.5023 5.99011 12.1557 5.19284 11.5194C4.39558 10.883 3.83817 9.99469 3.612 9" stroke="black" stroke-linecap="round" stroke-linejoin="round"/>
<path id="Vector_3" d="M3.5 6C3.5 5.60218 3.65804 5.22064 3.93934 4.93934C4.22064 4.65804 4.60218 4.5 5 4.5C5.39782 4.5 5.77936 4.65804 6.06066 4.93934C6.34196 5.22064 6.5 5.60218 6.5 6" stroke="black" stroke-linecap="round" stroke-linejoin="round"/>
<path id="Vector_4" d="M9.5 6C9.5 5.60218 9.65804 5.22064 9.93934 4.93934C10.2206 4.65804 10.6022 4.5 11 4.5C11.3978 4.5 11.7794 4.65804 12.0607 4.93934C12.342 5.22064 12.5 5.60218 12.5 6" stroke="black" stroke-linecap="round" stroke-linejoin="round"/>
</g>
</g>
</svg>