<svg xmlns="http://www.w3.org/2000/svg" width="16" height="16" viewBox="0 0 16 16" fill="none">
<g id="reload[loading,loop,process,arrow,refresh]">
<g id="Group">
<path id="Vector" d="M2.591 6.99999C2.81545 5.78104 3.44504 4.67363 4.37771 3.85732C5.31037 3.041 6.49141 2.56365 7.72936 2.50264C8.9673 2.44164 10.1896 2.80056 11.198 3.52121C12.2064 4.24187 12.9418 5.28201 13.285 6.47299" stroke="black" stroke-linecap="round" stroke-linejoin="round"/>
<path id="Vector_2" d="M13.5 2.5V6.5L9.531 6.007" stroke="black" stroke-linecap="round" stroke-linejoin="round"/>
<path id="Vector_3" d="M13.409 9C13.1846 10.219 12.555 11.3264 11.6223 12.1427C10.6896 12.959 9.50859 13.4363 8.27064 13.4973C7.0327 13.5584 5.81044 13.1994 4.80204 12.4788C3.79364 11.7581 3.05821 10.718 2.715 9.527" stroke="black" stroke-linecap="round" stroke-linejoin="round"/>
<path id="Vector_4" d="M2.5 13.5V9.5L6.469 9.993" stroke="black" stroke-linecap="round" stroke-linejoin="round"/>
</g>
</g>
</svg>