<svg xmlns="http://www.w3.org/2000/svg" width="16" height="16" viewBox="0 0 16 16" fill="none">
<g id="download[arrow,data,file,import,download]">
<g id="Group">
<path id="Vector" d="M5.5 5.5H4C3.60218 5.5 3.22064 5.65804 2.93934 5.93934C2.65804 6.22064 2.5 6.60218 2.5 7V11C2.5 11.3978 2.65804 11.7794 2.93934 12.0607C3.22064 12.342 3.60218 12.5 4 12.5H12C12.3978 12.5 12.7794 12.342 13.0607 12.0607C13.342 11.7794 13.5 11.3978 13.5 11V7C13.5 6.60218 13.342 6.22064 13.0607 5.93934C12.7794 5.65804 12.3978 5.5 12 5.5H10.5" stroke="black" stroke-linecap="round" stroke-linejoin="round"/>
<path id="Vector_2" d="M11 7.5L8 10.5L5 7.5" stroke="black" stroke-linecap="round" stroke-linejoin="round"/>
<path id="Vector_3" d="M8 2.5V10.5" stroke="black" stroke-linecap="round" stroke-linejoin="round"/>
</g>
</g>
</svg>