<svg xmlns="http://www.w3.org/2000/svg" width="16" height="16" viewBox="0 0 16 16" fill="none">
<g id="upload-data[arrow,top,up,upload,push,file]">
<g id="Group">
<path id="Vector" d="M11.5 7.5L8 3.5L4.5 7.5H6.5V11.5H9.5V7.5H11.5Z" stroke="black" stroke-linecap="round" stroke-linejoin="round"/>
<path id="Vector_2" d="M13.5 10.5V12C13.5 12.3978 13.342 12.7794 13.0607 13.0607C12.7794 13.342 12.3978 13.5 12 13.5H10.5" stroke="black" stroke-linecap="round" stroke-linejoin="round"/>
<path id="Vector_3" d="M2.5 10.5V12C2.5 12.3978 2.65804 12.7794 2.93934 13.0607C3.22064 13.342 3.60218 13.5 4 13.5H5.5" stroke="black" stroke-linecap="round" stroke-linejoin="round"/>
<path id="Vector_4" d="M13.5 5.5V4C13.5 3.60218 13.342 3.22064 13.0607 2.93934C12.7794 2.65804 12.3978 2.5 12 2.5H10.5" stroke="black" stroke-linecap="round" stroke-linejoin="round"/>
<path id="Vector_5" d="M2.5 5.5V4C2.5 3.60218 2.65804 3.22064 2.93934 2.93934C3.22064 2.65804 3.60218 2.5 4 2.5H5.5" stroke="black" stroke-linecap="round" stroke-linejoin="round"/>
</g>
</g>
</svg>