<svg xmlns="http://www.w3.org/2000/svg" width="16" height="16" viewBox="0 0 16 16" fill="none">
<g id="ai-override-field">
<path id="Vector" d="M7.50862 3.4081C7.53004 3.29343 7.59089 3.18986 7.68063 3.11533C7.77037 3.0408 7.88335 3 8 3C8.11665 3 8.22963 3.0408 8.31938 3.11533C8.40912 3.18986 8.46996 3.29343 8.49138 3.4081L9.01676 6.18643C9.05407 6.38396 9.15006 6.56565 9.29221 6.7078C9.43435 6.84994 9.61604 6.94593 9.81357 6.98324L12.5919 7.50862C12.7066 7.53004 12.8101 7.59089 12.8847 7.68063C12.9592 7.77037 13 7.88335 13 8C13 8.11665 12.9592 8.22963 12.8847 8.31938C12.8101 8.40912 12.7066 8.46996 12.5919 8.49138L9.81357 9.01676C9.61604 9.05407 9.43435 9.15006 9.29221 9.29221C9.15006 9.43435 9.05407 9.61604 9.01676 9.81357L8.49138 12.5919C8.46996 12.7066 8.40912 12.8101 8.31938 12.8847C8.22963 12.9592 8.11665 13 8 13C7.88335 13 7.77037 12.9592 7.68063 12.8847C7.59089 12.8101 7.53004 12.7066 7.50862 12.5919L6.98324 9.81357C6.94593 9.61604 6.84994 9.43435 6.7078 9.29221C6.56565 9.15006 6.38396 9.05407 6.18643 9.01676L3.4081 8.49138C3.29343 8.46996 3.18986 8.40912 3.11533 8.31938C3.0408 8.22963 3 8.11665 3 8C3 7.88335 3.0408 7.77037 3.11533 7.68063C3.18986 7.59089 3.29343 7.53004 3.4081 7.50862L6.18643 6.98324C6.38396 6.94593 6.56565 6.84994 6.7078 6.7078C6.84994 6.56565 6.94593 6.38396 6.98324 6.18643L7.50862 3.4081Z" stroke="black" stroke-linecap="round" stroke-linejoin="round"/>
</g>
</svg>