<svg xmlns="http://www.w3.org/2000/svg" width="16" height="16" viewBox="0 0 16 16" fill="none">
<g id="color-type-gradient[interface,color,gradient,opacity,blur,alpha]">
<path id="Vector" d="M2.5 4.5C2.5 3.39543 3.39543 2.5 4.5 2.5H10.5C11.6046 2.5 12.5 3.39543 12.5 4.5V10.5C12.5 11.6046 11.6046 12.5 10.5 12.5H4.5C3.39543 12.5 2.5 11.6046 2.5 10.5V4.5Z" stroke="black"/>
<path id="Vector_2" d="M4.5 4.5H4.505M4.5 6.5H4.505M4.5 10.5H4.505M4.5 8.5H4.505" stroke="black" stroke-linecap="round" stroke-linejoin="round"/>
<path id="Vector_3" d="M6.5 4.5H6.505M6.5 6.5H6.505M6.5 10.5H6.505M6.5 8.5H6.505" stroke="black" stroke-opacity="0.75" stroke-linecap="round" stroke-linejoin="round"/>
<path id="Vector_4" d="M8.5 4.5H8.505M8.5 6.5H8.505M8.5 10.5H8.505M8.5 8.5H8.505" stroke="black" stroke-opacity="0.5" stroke-linecap="round" stroke-linejoin="round"/>
<path id="Vector_5" d="M10.5 4.5H10.505M10.5 6.5H10.505M10.5 10.5H10.505M10.5 8.5H10.505" stroke="black" stroke-opacity="0.25" stroke-linecap="round" stroke-linejoin="round"/>
</g>
</svg>