<svg xmlns="http://www.w3.org/2000/svg" width="16" height="16" viewBox="0 0 16 16" fill="none">
<g id="color-type-image[interface,color,image,photo,picture,media,gallery,graphic]">
<path id="Vector" d="M2.5 4.5C2.5 3.39543 3.39543 2.5 4.5 2.5H10.5C11.6046 2.5 12.5 3.39543 12.5 4.5V10.5C12.5 11.6046 11.6046 12.5 10.5 12.5H4.5C3.39543 12.5 2.5 11.6046 2.5 10.5V4.5Z" stroke="black"/>
<path id="Vector_2" d="M2.5 9.99999L5.64645 6.85354C5.84171 6.65828 6.15829 6.65828 6.35355 6.85354L11.5 12" stroke="black" stroke-linejoin="round"/>
<path id="Vector_3" d="M8.5 5.5C8.5 6.05228 8.94772 6.5 9.5 6.5C10.0523 6.5 10.5 6.05228 10.5 5.5C10.5 4.94772 10.0523 4.5 9.5 4.5C8.94772 4.5 8.5 4.94772 8.5 5.5Z" stroke="black"/>
</g>
</svg>