<svg xmlns="http://www.w3.org/2000/svg" width="16" height="16" viewBox="0 0 16 16" fill="none">
<g id="color-type-pattern[interface,color,gradient,opacity,blur,alpha,pattern,texture,material]">
<path id="Vector" d="M2.5 4.5C2.5 3.39543 3.39543 2.5 4.5 2.5H10.5C11.6046 2.5 12.5 3.39543 12.5 4.5V10.5C12.5 11.6046 11.6046 12.5 10.5 12.5H4.5C3.39543 12.5 2.5 11.6046 2.5 10.5V4.5Z" stroke="black"/>
<path id="Vector_2" d="M2.5 6.5H4C4.27614 6.5 4.5 6.72386 4.5 7V8C4.5 8.27614 4.27614 8.5 4 8.5H2.5M12.5 6.5H11C10.7239 6.5 10.5 6.72386 10.5 7V8C10.5 8.27614 10.7239 8.5 11 8.5H12.5M6.5 12.5V11C6.5 10.7239 6.27614 10.5 6 10.5H5C4.72386 10.5 4.5 10.7239 4.5 11V12.5M10.5 12.5V11C10.5 10.7239 10.2761 10.5 10 10.5H9C8.72386 10.5 8.5 10.7239 8.5 11V12.5M4.5 2.5V4C4.5 4.27614 4.72386 4.5 5 4.5H6C6.27614 4.5 6.5 4.27614 6.5 4V2.5M8.5 2.5V4C8.5 4.27614 8.72386 4.5 9 4.5H10C10.2761 4.5 10.5 4.27614 10.5 4V2.5M7 8.5H8C8.27614 8.5 8.5 8.27614 8.5 8V7C8.5 6.72386 8.27614 6.5 8 6.5H7C6.72386 6.5 6.5 6.72386 6.5 7V8C6.5 8.27614 6.72386 8.5 7 8.5Z" stroke="black"/>
</g>
</svg>