<svg xmlns="http://www.w3.org/2000/svg" width="16" height="16" viewBox="0 0 16 16" fill="none">
<g id="component-outline[interface,component,widget]">
<path id="Vector" d="M9.64644 4.14644L8.35354 2.85354C8.15828 2.65828 7.8417 2.65828 7.64644 2.85354L6.35354 4.14644C6.15828 4.3417 6.15828 4.65828 6.35354 4.85354L7.64644 6.14644C7.8417 6.3417 8.15828 6.3417 8.35354 6.14644L9.64644 4.85354C9.8417 4.65828 9.8417 4.3417 9.64644 4.14644Z" stroke="black" stroke-linejoin="round"/>
<path id="Vector_2" d="M6.14644 7.64644L4.85354 6.35354C4.65828 6.15828 4.3417 6.15828 4.14644 6.35354L2.85354 7.64644C2.65828 7.8417 2.65828 8.15828 2.85354 8.35354L4.14644 9.64644C4.3417 9.8417 4.65828 9.8417 4.85354 9.64644L6.14644 8.35354C6.3417 8.15828 6.3417 7.8417 6.14644 7.64644Z" stroke="black" stroke-linejoin="round"/>
<path id="Vector_3" d="M13.1464 7.64644L11.8535 6.35354C11.6583 6.15828 11.3417 6.15828 11.1464 6.35354L9.85354 7.64644C9.65828 7.8417 9.65828 8.15828 9.85354 8.35354L11.1464 9.64644C11.3417 9.8417 11.6583 9.8417 11.8535 9.64644L13.1464 8.35354C13.3417 8.15828 13.3417 7.8417 13.1464 7.64644Z" stroke="black" stroke-linejoin="round"/>
<path id="Vector_4" d="M9.64644 11.1464L8.35354 9.85354C8.15828 9.65828 7.8417 9.65828 7.64644 9.85354L6.35354 11.1464C6.15828 11.3417 6.15828 11.6583 6.35354 11.8535L7.64644 13.1464C7.8417 13.3417 8.15828 13.3417 8.35354 13.1464L9.64644 11.8535C9.8417 11.6583 9.8417 11.3417 9.64644 11.1464Z" stroke="black" stroke-linejoin="round"/>
</g>
</svg>