<svg xmlns="http://www.w3.org/2000/svg" width="16" height="16" viewBox="0 0 16 16" fill="none">
<g id="component-solid[interface,solid,component,widget]">
<path id="Vector" d="M5.78427 4.68629C5.40524 4.30726 5.40524 3.69274 5.78427 3.31371L6.81371 2.28427C7.19274 1.90524 7.80726 1.90524 8.18629 2.28427L9.21573 3.31371C9.59476 3.69274 9.59476 4.30726 9.21573 4.68629L8.18629 5.71573C7.80726 6.09476 7.19274 6.09476 6.81371 5.71573L5.78427 4.68629Z" fill="black"/>
<path id="Vector_2" d="M5.78427 11.6863C5.40524 11.3073 5.40524 10.6927 5.78427 10.3137L6.81371 9.28427C7.19274 8.90524 7.80726 8.90524 8.18629 9.28427L9.21573 10.3137C9.59476 10.6927 9.59476 11.3073 9.21573 11.6863L8.18629 12.7157C7.80726 13.0948 7.19274 13.0948 6.81371 12.7157L5.78427 11.6863Z" fill="black"/>
<path id="Vector_3" d="M10.3137 5.78427C10.6927 5.40524 11.3073 5.40524 11.6863 5.78427L12.7157 6.81371C13.0948 7.19274 13.0948 7.80726 12.7157 8.18629L11.6863 9.21573C11.3073 9.59476 10.6927 9.59476 10.3137 9.21573L9.28427 8.18629C8.90524 7.80726 8.90524 7.19274 9.28427 6.81371L10.3137 5.78427Z" fill="black"/>
<path id="Vector_4" d="M3.31371 5.78427C3.69274 5.40524 4.30726 5.40524 4.68629 5.78427L5.71573 6.81371C6.09476 7.19274 6.09476 7.80726 5.71573 8.18629L4.68629 9.21573C4.30726 9.59476 3.69274 9.59476 3.31371 9.21573L2.28427 8.18629C1.90524 7.80726 1.90524 7.19274 2.28427 6.81371L3.31371 5.78427Z" fill="black"/>
</g>
</svg>