<svg xmlns="http://www.w3.org/2000/svg" width="16" height="16" viewBox="0 0 16 16" fill="none">
<g id="effect-background-blur[interface,effect,gradient,opacity,blur,alpha]">
<path id="Vector" d="M11.6 2.5H4.4C3.90294 2.5 3.5 2.90294 3.5 3.4V10.6C3.5 11.0971 3.90294 11.5 4.4 11.5H11.6C12.0971 11.5 12.5 11.0971 12.5 10.6V3.4C12.5 2.90294 12.0971 2.5 11.6 2.5Z" stroke="black" stroke-linecap="round" stroke-linejoin="round"/>
<path id="Vector_2" d="M5.21996 4.4694C5.35772 4.4694 5.4694 4.35772 5.4694 4.21996C5.4694 4.0822 5.35772 3.97052 5.21996 3.97052C5.0822 3.97052 4.97052 4.0822 4.97052 4.21996C4.97052 4.35772 5.0822 4.4694 5.21996 4.4694Z" fill="black"/>
<path id="Vector_3" d="M5.21994 6.5733C5.49608 6.5733 5.71994 6.34945 5.71994 6.0733C5.71994 5.79716 5.49608 5.5733 5.21994 5.5733C4.9438 5.5733 4.71994 5.79716 4.71994 6.0733C4.71994 6.34945 4.9438 6.5733 5.21994 6.5733Z" fill="black"/>
<path id="Vector_4" d="M5.21994 8.42667C5.49608 8.42667 5.71994 8.20281 5.71994 7.92667C5.71994 7.65052 5.49608 7.42667 5.21994 7.42667C4.9438 7.42667 4.71994 7.65052 4.71994 7.92667C4.71994 8.20281 4.9438 8.42667 5.21994 8.42667Z" fill="black"/>
<path id="Vector_5" d="M5.21995 10.0298C5.35793 10.0298 5.46978 9.91799 5.46978 9.78001C5.46978 9.64203 5.35793 9.53018 5.21995 9.53018C5.08198 9.53018 4.97012 9.64203 4.97012 9.78001C4.97012 9.91799 5.08198 10.0298 5.21995 10.0298Z" fill="black"/>
<path id="Vector_6" d="M7.07327 4.71997C7.34942 4.71997 7.57327 4.49611 7.57327 4.21997C7.57327 3.94383 7.34942 3.71997 7.07327 3.71997C6.79713 3.71997 6.57327 3.94383 6.57327 4.21997C6.57327 4.49611 6.79713 4.71997 7.07327 4.71997Z" fill="black"/>
<path id="Vector_7" d="M7.07324 6.8233C7.48746 6.8233 7.82324 6.48752 7.82324 6.0733C7.82324 5.65909 7.48746 5.3233 7.07324 5.3233C6.65903 5.3233 6.32324 5.65909 6.32324 6.0733C6.32324 6.48752 6.65903 6.8233 7.07324 6.8233Z" fill="black"/>
<path id="Vector_8" d="M7.07324 8.6767C7.48746 8.6767 7.82324 8.34091 7.82324 7.9267C7.82324 7.51248 7.48746 7.1767 7.07324 7.1767C6.65903 7.1767 6.32324 7.51248 6.32324 7.9267C6.32324 8.34091 6.65903 8.6767 7.07324 8.6767Z" fill="black"/>
<path id="Vector_9" d="M7.07327 10.2801C7.34942 10.2801 7.57327 10.0562 7.57327 9.78006C7.57327 9.50392 7.34942 9.28006 7.07327 9.28006C6.79713 9.28006 6.57327 9.50392 6.57327 9.78006C6.57327 10.0562 6.79713 10.2801 7.07327 10.2801Z" fill="black"/>
<path id="Vector_10" d="M8.92664 4.71997C9.20278 4.71997 9.42664 4.49611 9.42664 4.21997C9.42664 3.94383 9.20278 3.71997 8.92664 3.71997C8.65049 3.71997 8.42664 3.94383 8.42664 4.21997C8.42664 4.49611 8.65049 4.71997 8.92664 4.71997Z" fill="black"/>
<path id="Vector_11" d="M8.92658 6.8233C9.34079 6.8233 9.67657 6.48752 9.67657 6.0733C9.67657 5.65909 9.34079 5.3233 8.92658 5.3233C8.51236 5.3233 8.17657 5.65909 8.17657 6.0733C8.17657 6.48752 8.51236 6.8233 8.92658 6.8233Z" fill="black"/>
<path id="Vector_12" d="M8.92658 8.6767C9.34079 8.6767 9.67657 8.34091 9.67657 7.9267C9.67657 7.51248 9.34079 7.1767 8.92658 7.1767C8.51236 7.1767 8.17657 7.51248 8.17657 7.9267C8.17657 8.34091 8.51236 8.6767 8.92658 8.6767Z" fill="black"/>
<path id="Vector_13" d="M8.92664 10.2801C9.20278 10.2801 9.42664 10.0562 9.42664 9.78006C9.42664 9.50392 9.20278 9.28006 8.92664 9.28006C8.65049 9.28006 8.42664 9.50392 8.42664 9.78006C8.42664 10.0562 8.65049 10.2801 8.92664 10.2801Z" fill="black"/>
<path id="Vector_14" d="M10.78 4.46911C10.9176 4.46911 11.0292 4.35757 11.0292 4.21997C11.0292 4.08237 10.9176 3.97083 10.78 3.97083C10.6424 3.97083 10.5309 4.08237 10.5309 4.21997C10.5309 4.35757 10.6424 4.46911 10.78 4.46911Z" fill="black"/>
<path id="Vector_15" d="M10.7801 6.5733C11.0562 6.5733 11.2801 6.34945 11.2801 6.0733C11.2801 5.79716 11.0562 5.5733 10.7801 5.5733C10.5039 5.5733 10.2801 5.79716 10.2801 6.0733C10.2801 6.34945 10.5039 6.5733 10.7801 6.5733Z" fill="black"/>
<path id="Vector_16" d="M10.7801 8.42667C11.0562 8.42667 11.2801 8.20281 11.2801 7.92667C11.2801 7.65052 11.0562 7.42667 10.7801 7.42667C10.5039 7.42667 10.2801 7.65052 10.2801 7.92667C10.2801 8.20281 10.5039 8.42667 10.7801 8.42667Z" fill="black"/>
<path id="Vector_17" d="M10.78 10.0292C10.9176 10.0292 11.0292 9.91762 11.0292 9.78003C11.0292 9.64243 10.9176 9.53088 10.78 9.53088C10.6424 9.53088 10.5309 9.64243 10.5309 9.78003C10.5309 9.91762 10.6424 10.0292 10.78 10.0292Z" fill="black"/>
</g>
</svg>