<svg xmlns="http://www.w3.org/2000/svg" width="16" height="16" viewBox="0 0 16 16" fill="none">
<g id="effect-layer-blur[interface,effect,gradient,opacity,blur,alpha]">
<path id="Vector" d="M3.36667 11.4333C3.47721 11.4333 3.56683 11.5229 3.56683 11.6335C3.56683 11.744 3.47721 11.8336 3.36667 11.8336C3.25612 11.8336 3.1665 11.744 3.1665 11.6335C3.1665 11.5229 3.25612 11.4333 3.36667 11.4333Z" fill="black"/>
<path id="Vector_2" d="M3.36674 9.49698C3.52307 9.49698 3.6498 9.62371 3.6498 9.78004C3.6498 9.93637 3.52307 10.0631 3.36674 10.0631C3.21041 10.0631 3.08368 9.93637 3.08368 9.78004C3.08368 9.62371 3.21041 9.49698 3.36674 9.49698Z" fill="black"/>
<path id="Vector_3" d="M3.36663 7.56012C3.56911 7.56012 3.73325 7.72427 3.73325 7.92675C3.73325 8.12923 3.56911 8.29338 3.36663 8.29338C3.16414 8.29338 3 8.12923 3 7.92675C3 7.72427 3.16414 7.56012 3.36663 7.56012Z" fill="black"/>
<path id="Vector_4" d="M3.36663 5.70679C3.56911 5.70679 3.73325 5.87093 3.73325 6.07342C3.73325 6.2759 3.56911 6.44004 3.36663 6.44004C3.16414 6.44004 3 6.2759 3 6.07342C3 5.87093 3.16414 5.70679 3.36663 5.70679Z" fill="black"/>
<path id="Vector_5" d="M3.36674 3.93698C3.52307 3.93698 3.6498 4.06371 3.6498 4.22003C3.6498 4.37636 3.52307 4.50309 3.36674 4.50309C3.21041 4.50309 3.08368 4.37636 3.08368 4.22003C3.08368 4.06371 3.21041 3.93698 3.36674 3.93698Z" fill="black"/>
<path id="Vector_6" d="M3.36667 2.16644C3.47721 2.16644 3.56683 2.25606 3.56683 2.3666C3.56683 2.47715 3.47721 2.56677 3.36667 2.56677C3.25612 2.56677 3.1665 2.47715 3.1665 2.3666C3.1665 2.25606 3.25612 2.16644 3.36667 2.16644Z" fill="black"/>
<path id="Vector_7" d="M5.22004 11.3504C5.37637 11.3504 5.5031 11.4771 5.5031 11.6335C5.5031 11.7898 5.37637 11.9165 5.22004 11.9165C5.06371 11.9165 4.93698 11.7898 4.93698 11.6335C4.93698 11.4771 5.06371 11.3504 5.22004 11.3504Z" fill="black"/>
<path id="Vector_8" d="M5.22012 9.37231C5.4453 9.37231 5.62785 9.55486 5.62785 9.78005C5.62785 10.0052 5.4453 10.1878 5.22012 10.1878C4.99493 10.1878 4.81238 10.0052 4.81238 9.78005C4.81238 9.55486 4.99493 9.37231 5.22012 9.37231Z" fill="black"/>
<path id="Vector_9" d="M5.22004 7.39432C5.51409 7.39432 5.75246 7.63269 5.75246 7.92674C5.75246 8.22079 5.51409 8.45916 5.22004 8.45916C4.92599 8.45916 4.68762 8.22079 4.68762 7.92674C4.68762 7.63269 4.92599 7.39432 5.22004 7.39432Z" fill="black"/>
<path id="Vector_10" d="M5.22004 5.54095C5.51409 5.54095 5.75246 5.77932 5.75246 6.07337C5.75246 6.36741 5.51409 6.60578 5.22004 6.60578C4.92599 6.60578 4.68762 6.36741 4.68762 6.07337C4.68762 5.77932 4.92599 5.54095 5.22004 5.54095Z" fill="black"/>
<path id="Vector_11" d="M5.22012 3.81229C5.4453 3.81229 5.62785 3.99484 5.62785 4.22003C5.62785 4.44522 5.4453 4.62777 5.22012 4.62777C4.99493 4.62777 4.81238 4.44522 4.81238 4.22003C4.81238 3.99484 4.99493 3.81229 5.22012 3.81229Z" fill="black"/>
<path id="Vector_12" d="M5.22004 2.08365C5.37637 2.08365 5.5031 2.21038 5.5031 2.36671C5.5031 2.52304 5.37637 2.64976 5.22004 2.64976C5.06371 2.64976 4.93698 2.52304 4.93698 2.36671C4.93698 2.21038 5.06371 2.08365 5.22004 2.08365Z" fill="black"/>
<path id="Vector_13" d="M7.07329 11.2668C7.27578 11.2668 7.43992 11.4309 7.43992 11.6334C7.43992 11.8359 7.27578 12 7.07329 12C6.87081 12 6.70667 11.8359 6.70667 11.6334C6.70667 11.4309 6.87081 11.2668 7.07329 11.2668Z" fill="black"/>
<path id="Vector_14" d="M7.0734 9.24765C7.36745 9.24765 7.60582 9.48602 7.60582 9.78007C7.60582 10.0741 7.36745 10.3125 7.0734 10.3125C6.77936 10.3125 6.54099 10.0741 6.54099 9.78007C6.54099 9.48602 6.77936 9.24765 7.0734 9.24765Z" fill="black"/>
<path id="Vector_15" d="M7.07336 7.22781C7.45935 7.22781 7.77225 7.54071 7.77225 7.9267C7.77225 8.31268 7.45935 8.62558 7.07336 8.62558C6.68738 8.62558 6.37448 8.31268 6.37448 7.9267C6.37448 7.54071 6.68738 7.22781 7.07336 7.22781Z" fill="black"/>
<path id="Vector_16" d="M7.0734 5.37448C7.45938 5.37448 7.77228 5.68738 7.77228 6.07336C7.77228 6.45935 7.45938 6.77225 7.0734 6.77225C6.68741 6.77225 6.37451 6.45935 6.37451 6.07336C6.37451 5.68738 6.68741 5.37448 7.0734 5.37448Z" fill="black"/>
<path id="Vector_17" d="M7.07337 3.68762C7.36742 3.68762 7.60579 3.92599 7.60579 4.22003C7.60579 4.51408 7.36742 4.75245 7.07337 4.75245C6.77933 4.75245 6.54095 4.51408 6.54095 4.22003C6.54095 3.92599 6.77933 3.68762 7.07337 3.68762Z" fill="black"/>
<path id="Vector_18" d="M7.07329 2.00003C7.27578 2.00003 7.43992 2.16418 7.43992 2.36666C7.43992 2.56914 7.27578 2.73329 7.07329 2.73329C6.87081 2.73329 6.70667 2.56914 6.70667 2.36666C6.70667 2.16418 6.87081 2.00003 7.07329 2.00003Z" fill="black"/>
<path id="Vector_19" d="M8.92669 11.2668C9.12917 11.2668 9.29331 11.4309 9.29331 11.6334C9.29331 11.8359 9.12917 12 8.92669 12C8.7242 12 8.56006 11.8359 8.56006 11.6334C8.56006 11.4309 8.7242 11.2668 8.92669 11.2668Z" fill="black"/>
<path id="Vector_20" d="M8.92677 9.24765C9.22081 9.24765 9.45918 9.48602 9.45918 9.78007C9.45918 10.0741 9.22081 10.3125 8.92677 10.3125C8.63272 10.3125 8.39435 10.0741 8.39435 9.78007C8.39435 9.48602 8.63272 9.24765 8.92677 9.24765Z" fill="black"/>
<path id="Vector_21" d="M8.92667 7.22781C9.31265 7.22781 9.62555 7.54071 9.62555 7.9267C9.62555 8.31268 9.31265 8.62558 8.92667 8.62558C8.54068 8.62558 8.22778 8.31268 8.22778 7.9267C8.22778 7.54071 8.54068 7.22781 8.92667 7.22781Z" fill="black"/>
<path id="Vector_22" d="M8.92667 5.37448C9.31265 5.37448 9.62555 5.68738 9.62555 6.07336C9.62555 6.45935 9.31265 6.77225 8.92667 6.77225C8.54068 6.77225 8.22778 6.45935 8.22778 6.07336C8.22778 5.68738 8.54068 5.37448 8.92667 5.37448Z" fill="black"/>
<path id="Vector_23" d="M8.92677 3.68762C9.22081 3.68762 9.45918 3.92599 9.45918 4.22003C9.45918 4.51408 9.22081 4.75245 8.92677 4.75245C8.63272 4.75245 8.39435 4.51408 8.39435 4.22003C8.39435 3.92599 8.63272 3.68762 8.92677 3.68762Z" fill="black"/>
<path id="Vector_24" d="M8.92669 2.00003C9.12917 2.00003 9.29331 2.16418 9.29331 2.36666C9.29331 2.56914 9.12917 2.73329 8.92669 2.73329C8.7242 2.73329 8.56006 2.56914 8.56006 2.36666C8.56006 2.16418 8.7242 2.00003 8.92669 2.00003Z" fill="black"/>
<path id="Vector_25" d="M10.7801 11.3504C10.9364 11.3504 11.0632 11.4771 11.0632 11.6335C11.0632 11.7898 10.9364 11.9165 10.7801 11.9165C10.6238 11.9165 10.497 11.7898 10.497 11.6335C10.497 11.4771 10.6238 11.3504 10.7801 11.3504Z" fill="black"/>
<path id="Vector_26" d="M10.7802 9.37231C11.0054 9.37231 11.1879 9.55486 11.1879 9.78005C11.1879 10.0052 11.0054 10.1878 10.7802 10.1878C10.555 10.1878 10.3724 10.0052 10.3724 9.78005C10.3724 9.55486 10.555 9.37231 10.7802 9.37231Z" fill="black"/>
<path id="Vector_27" d="M10.7801 7.39432C11.0741 7.39432 11.3125 7.63269 11.3125 7.92674C11.3125 8.22079 11.0741 8.45916 10.7801 8.45916C10.486 8.45916 10.2477 8.22079 10.2477 7.92674C10.2477 7.63269 10.486 7.39432 10.7801 7.39432Z" fill="black"/>
<path id="Vector_28" d="M10.7801 5.54095C11.0741 5.54095 11.3125 5.77932 11.3125 6.07337C11.3125 6.36741 11.0741 6.60578 10.7801 6.60578C10.486 6.60578 10.2477 6.36741 10.2477 6.07337C10.2477 5.77932 10.486 5.54095 10.7801 5.54095Z" fill="black"/>
<path id="Vector_29" d="M10.7802 3.81229C11.0054 3.81229 11.1879 3.99484 11.1879 4.22003C11.1879 4.44522 11.0054 4.62777 10.7802 4.62777C10.555 4.62777 10.3724 4.44522 10.3724 4.22003C10.3724 3.99484 10.555 3.81229 10.7802 3.81229Z" fill="black"/>
<path id="Vector_30" d="M10.7801 2.08365C10.9364 2.08365 11.0632 2.21038 11.0632 2.36671C11.0632 2.52304 10.9364 2.64976 10.7801 2.64976C10.6238 2.64976 10.497 2.52304 10.497 2.36671C10.497 2.21038 10.6238 2.08365 10.7801 2.08365Z" fill="black"/>
<path id="Vector_31" d="M12.6335 11.4333C12.744 11.4333 12.8336 11.5229 12.8336 11.6335C12.8336 11.744 12.744 11.8336 12.6335 11.8336C12.5229 11.8336 12.4333 11.744 12.4333 11.6335C12.4333 11.5229 12.5229 11.4333 12.6335 11.4333Z" fill="black"/>
<path id="Vector_32" d="M12.6336 9.49698C12.7899 9.49698 12.9166 9.62371 12.9166 9.78004C12.9166 9.93637 12.7899 10.0631 12.6336 10.0631C12.4772 10.0631 12.3505 9.93637 12.3505 9.78004C12.3505 9.62371 12.4772 9.49698 12.6336 9.49698Z" fill="black"/>
<path id="Vector_33" d="M12.6334 7.56012C12.8359 7.56012 13.0001 7.72427 13.0001 7.92675C13.0001 8.12923 12.8359 8.29338 12.6334 8.29338C12.431 8.29338 12.2668 8.12923 12.2668 7.92675C12.2668 7.72427 12.431 7.56012 12.6334 7.56012Z" fill="black"/>
<path id="Vector_34" d="M12.6334 5.70679C12.8359 5.70679 13.0001 5.87093 13.0001 6.07342C13.0001 6.2759 12.8359 6.44004 12.6334 6.44004C12.431 6.44004 12.2668 6.2759 12.2668 6.07342C12.2668 5.87093 12.431 5.70679 12.6334 5.70679Z" fill="black"/>
<path id="Vector_35" d="M12.6336 3.93698C12.7899 3.93698 12.9166 4.06371 12.9166 4.22003C12.9166 4.37636 12.7899 4.50309 12.6336 4.50309C12.4772 4.50309 12.3505 4.37636 12.3505 4.22003C12.3505 4.06371 12.4772 3.93698 12.6336 3.93698Z" fill="black"/>
<path id="Vector_36" d="M12.6335 2.16644C12.744 2.16644 12.8336 2.25606 12.8336 2.3666C12.8336 2.47715 12.744 2.56677 12.6335 2.56677C12.5229 2.56677 12.4333 2.47715 12.4333 2.3666C12.4333 2.25606 12.5229 2.16644 12.6335 2.16644Z" fill="black"/>
</g>
</svg>