<svg xmlns="http://www.w3.org/2000/svg" width="16" height="16" viewBox="0 0 16 16" fill="none">
<g id="interaction-action-swap-overlay[interface,arrow,horizontal,interaction]">
<path id="Vector" d="M2.5 7.5H12.5M2.5 7.5L4 6M2.5 7.5L4 9M12.5 7.5L11 6M12.5 7.5L11 9" stroke="black" stroke-linecap="round" stroke-linejoin="round"/>
<path id="Vector_2" d="M2.5 2.5H5.5C6.05228 2.5 6.5 2.94771 6.5 3.5V5.5M6.5 9.5V11.5C6.5 12.0523 6.05228 12.5 5.5 12.5H2.5M8.5 5.5V3.5C8.5 2.94771 8.94772 2.5 9.5 2.5H12.5M8.5 9.5V11.5C8.5 12.0523 8.94772 12.5 9.5 12.5H12.5" stroke="black" stroke-linecap="round" stroke-linejoin="round"/>
</g>
</svg>