<svg xmlns="http://www.w3.org/2000/svg" width="16" height="16" viewBox="0 0 16 16" fill="none">
<g id="interaction-trigger-while-hovering[interface,interaction,dot]">
<path id="Vector" d="M2.5 9.5C2.5 8.5 4.5 7.5 7.5 7.5C10.5 7.5 12.5 8.5 12.5 9.5M2.5 9.5C2.5 10.5 4.5 11.5 7.5 11.5C10.5 11.5 12.5 10.5 12.5 9.5M2.5 9.5C2.5 9.5 2.5 10.5 2.5 11.5C2.5 12.5 4.5 13.5 7.5 13.5C10.5 13.5 12.5 12.5 12.5 11.5C12.5 10.5 12.5 9.5 12.5 9.5" stroke="black" stroke-linecap="round" stroke-linejoin="round"/>
<path id="Vector_2" d="M6 4.5C6 5.32843 6.67157 6 7.5 6C8.32843 6 9 5.32843 9 4.5C9 3.67157 8.32843 3 7.5 3C6.67157 3 6 3.67157 6 4.5Z" stroke="black" stroke-linecap="round" stroke-linejoin="round"/>
</g>
</svg>