<svg xmlns="http://www.w3.org/2000/svg" width="16" height="16" viewBox="0 0 16 16" fill="none">
<g id="interaction-action-scroll-to[interface,interaction]">
<path id="Vector" d="M7.50001 5.5C8.32844 5.5 9.00001 4.82843 9.00001 4C9.00001 3.17157 8.32844 2.5 7.50001 2.5C6.67158 2.5 6.00001 3.17157 6.00001 4C6.00001 4.82843 6.67158 5.5 7.50001 5.5ZM7.50001 5.5V12.5M11.5 9.50002C11.3589 9.68821 11.2038 9.86725 11.0356 10.0355C10.0979 10.9732 8.82609 11.5 7.50001 11.5C6.17393 11.5 4.90216 10.9732 3.96448 10.0355C3.79619 9.86725 3.64114 9.68821 3.5 9.50002M6.5 7.5H8.5" stroke="black" stroke-linecap="round" stroke-linejoin="round"/>
</g>
</svg>