<svg xmlns="http://www.w3.org/2000/svg" width="16" height="16" viewBox="0 0 16 16" fill="none">
<g id="mask[interface,boolean,group,mask]">
<path id="Vector" d="M6 5.5H8.5C9.05228 5.5 9.5 5.94772 9.5 6.5V9M3.5 5.5C2.94771 5.5 2.5 5.94772 2.5 6.5M5.5 12.5H6.5M2.5 8.5V9.5M3.5 12.5C2.94771 12.5 2.5 12.0523 2.5 11.5M9.5 11.5C9.5 12.0523 9.05228 12.5 8.5 12.5" stroke="black" stroke-linecap="round" stroke-linejoin="round"/>
<path id="Vector_2" d="M5.5 6C5.5 7.933 7.067 9.5 9 9.5C10.933 9.5 12.5 7.933 12.5 6C12.5 4.067 10.933 2.5 9 2.5C7.067 2.5 5.5 4.067 5.5 6Z" stroke="black" stroke-linecap="round" stroke-linejoin="round"/>
</g>
</svg>