<svg xmlns="http://www.w3.org/2000/svg" width="16" height="16" viewBox="0 0 16 16" fill="none">
<g id="opacity[interface,gradient,opacity,blur,alpha]">
<path id="Vector" d="M11.5 2.5H3.5C2.94771 2.5 2.5 2.94771 2.5 3.5V11.5C2.5 12.0523 2.94771 12.5 3.5 12.5H11.5C12.0523 12.5 12.5 12.0523 12.5 11.5V3.5C12.5 2.94771 12.0523 2.5 11.5 2.5Z" stroke="black" stroke-linecap="round" stroke-linejoin="round"/>
<path id="Vector_2" d="M4.5 10.5H4.505M6.5 8.5H6.505M8.5 6.5H8.505M10.5 4.5H10.505M10.5 6.5H10.505M8.5 8.5H8.505M6.5 10.5H6.505M8.5 10.5H8.505M10.5 10.5H10.505M10.5 8.5H10.505" stroke="black" stroke-opacity="0.25" stroke-linecap="round" stroke-linejoin="round"/>
</g>
</svg>