<svg xmlns="http://www.w3.org/2000/svg" width="16" height="16" viewBox="0 0 16 16" fill="none">
<g id="panel-transparency-small[interface,panel]">
<path id="Vector" d="M5.75373 10.4934C5.83526 10.4978 5.91737 10.5 6 10.5C8.48528 10.5 10.5 8.48528 10.5 6C10.5 5.47652 10.4106 4.97392 10.2463 4.50663C10.1647 4.50223 10.0826 4.5 10 4.5C7.51472 4.5 5.5 6.51472 5.5 9C5.5 9.52348 5.58939 10.0261 5.75373 10.4934Z" fill="black" fill-opacity="0.25"/>
<path id="Vector_2" d="M10.2463 4.50663C9.6304 2.75538 7.9618 1.5 6 1.5C3.51472 1.5 1.5 3.51472 1.5 6C1.5 8.40265 3.38298 10.3655 5.75373 10.4934M10.2463 4.50663C10.1647 4.50223 10.0826 4.5 10 4.5C7.51472 4.5 5.5 6.51472 5.5 9C5.5 9.52348 5.58939 10.0261 5.75373 10.4934M10.2463 4.50663C10.4106 4.97392 10.5 5.47652 10.5 6C10.5 8.48528 8.48528 10.5 6 10.5C5.91737 10.5 5.83526 10.4978 5.75373 10.4934M10.2463 4.50663C12.617 4.63449 14.5 6.59735 14.5 9C14.5 11.4853 12.4853 13.5 10 13.5C8.0382 13.5 6.36961 12.2446 5.75373 10.4934" stroke="black" stroke-linecap="round" stroke-linejoin="round"/>
<path id="Vector_3" fill-rule="evenodd" clip-rule="evenodd" d="M1.5 6C1.5 3.51472 3.51472 1.5 6 1.5C7.9618 1.5 9.6304 2.75538 10.2463 4.50663C10.1647 4.50223 10.0826 4.5 10 4.5C7.51472 4.5 5.5 6.51472 5.5 9C5.5 9.52348 5.58939 10.0261 5.75373 10.4934C3.38298 10.3655 1.5 8.40265 1.5 6Z" fill="black" stroke="black" stroke-linecap="round" stroke-linejoin="round"/>
</g>
</svg>