<svg xmlns="http://www.w3.org/2000/svg" width="16" height="16" viewBox="0 0 16 16" fill="none">
<g id="span-column[interface,grid,span]">
<path id="Vector" d="M7.5 2.5H3.5C2.94771 2.5 2.5 2.94771 2.5 3.5V8.5C2.5 9.05228 2.94771 9.5 3.5 9.5H7.5C8.05228 9.5 8.5 9.05228 8.5 8.5V3.5C8.5 2.94771 8.05228 2.5 7.5 2.5Z" stroke="black"/>
<path id="Vector_2" d="M10.5 2.5H11.5C12.0523 2.5 12.5 2.94771 12.5 3.5V8.5C12.5 9.05228 12.0523 9.5 11.5 9.5H10.5" stroke="black" stroke-opacity="0.5" stroke-linecap="round"/>
<path id="Vector_3" d="M4.5 11.5C4.5 11.5 5.5 12.5 7.5 12.5C9.5 12.5 10.5 11.5 10.5 11.5" stroke="black" stroke-linecap="round"/>
</g>
</svg>