<svg xmlns="http://www.w3.org/2000/svg" width="16" height="16" viewBox="0 0 16 16" fill="none">
<g id="span-row[interface,grid,span]">
<path id="Vector" d="M12.5 7.5V3.5C12.5 2.94771 12.0523 2.5 11.5 2.5H6.5C5.94772 2.5 5.5 2.94771 5.5 3.5V7.5C5.5 8.05228 5.94772 8.5 6.5 8.5H11.5C12.0523 8.5 12.5 8.05228 12.5 7.5Z" stroke="black"/>
<path id="Vector_2" d="M12.5 10.5V11.5C12.5 12.0523 12.0523 12.5 11.5 12.5H6.5C5.94772 12.5 5.5 12.0523 5.5 11.5V10.5" stroke="black" stroke-opacity="0.5" stroke-linecap="round"/>
<path id="Vector_3" d="M3.5 4.5C3.5 4.5 2.5 5.5 2.5 7.5C2.5 9.5 3.5 10.5 3.5 10.5" stroke="black" stroke-linecap="round"/>
</g>
</svg>