<svg xmlns="http://www.w3.org/2000/svg" width="16" height="16" viewBox="0 0 16 16" fill="none">
<g id="stack-row-wrap[interface,stack,layout,grid]">
<path id="Vector" d="M2.5 3.5C2.5 2.94771 2.94771 2.5 3.5 2.5H6.5C7.05228 2.5 7.5 2.94771 7.5 3.5V5.5C7.5 6.05228 7.05228 6.5 6.5 6.5H3.5C2.94771 6.5 2.5 6.05228 2.5 5.5V3.5Z" stroke="black"/>
<path id="Vector_2" d="M2.5 9.5C2.5 8.94772 2.94771 8.5 3.5 8.5H4.5C5.05228 8.5 5.5 8.94772 5.5 9.5V11.5C5.5 12.0523 5.05228 12.5 4.5 12.5H3.5C2.94771 12.5 2.5 12.0523 2.5 11.5V9.5Z" stroke="black"/>
<path id="Vector_3" d="M9.5 3.5C9.5 2.94771 9.94772 2.5 10.5 2.5H11.5C12.0523 2.5 12.5 2.94771 12.5 3.5V5.5C12.5 6.05228 12.0523 6.5 11.5 6.5H10.5C9.94772 6.5 9.5 6.05228 9.5 5.5V3.5Z" stroke="black"/>
<path id="Vector_4" d="M7.5 9.5C7.5 8.94772 7.94772 8.5 8.5 8.5H11.5C12.0523 8.5 12.5 8.94772 12.5 9.5V11.5C12.5 12.0523 12.0523 12.5 11.5 12.5H8.5C7.94772 12.5 7.5 12.0523 7.5 11.5V9.5Z" stroke="black"/>
</g>
</svg>