<svg xmlns="http://www.w3.org/2000/svg" width="16" height="16" viewBox="0 0 16 16" fill="none">
<g id="styles[interface,app,application,dots,circles]">
<path id="Vector" d="M6.5 4.5C6.5 3.39543 5.60457 2.5 4.5 2.5C3.39543 2.5 2.5 3.39543 2.5 4.5C2.5 5.60457 3.39543 6.5 4.5 6.5C5.60457 6.5 6.5 5.60457 6.5 4.5Z" stroke="black"/>
<path id="Vector_2" d="M12.5 4.5C12.5 3.39543 11.6046 2.5 10.5 2.5C9.39543 2.5 8.5 3.39543 8.5 4.5C8.5 5.60457 9.39543 6.5 10.5 6.5C11.6046 6.5 12.5 5.60457 12.5 4.5Z" stroke="black"/>
<path id="Vector_3" d="M6.5 10.5C6.5 9.39543 5.60457 8.5 4.5 8.5C3.39543 8.5 2.5 9.39543 2.5 10.5C2.5 11.6046 3.39543 12.5 4.5 12.5C5.60457 12.5 6.5 11.6046 6.5 10.5Z" stroke="black"/>
<path id="Vector_4" d="M12.5 10.5C12.5 9.39543 11.6046 8.5 10.5 8.5C9.39543 8.5 8.5 9.39543 8.5 10.5C8.5 11.6046 9.39543 12.5 10.5 12.5C11.6046 12.5 12.5 11.6046 12.5 10.5Z" stroke="black"/>
</g>
</svg>