<svg xmlns="http://www.w3.org/2000/svg" width="16" height="16" viewBox="0 0 16 16" fill="none">
<g id="style-color[style,clone,picker,drop,fill,paint,color,design]">
<path id="Vector" d="M3 13L3.5 12.5H5L9.5 8" stroke="black" stroke-linecap="round" stroke-linejoin="round"/>
<path id="Vector_2" d="M3.5 12.5V11L8 6.5" stroke="black" stroke-linecap="round" stroke-linejoin="round"/>
<path id="Vector_3" d="M9.50001 4.99999L11.2 3.29999C11.3989 3.10108 11.6687 2.98933 11.95 2.98933C12.2313 2.98933 12.5011 3.10108 12.7 3.29999C12.8989 3.49891 13.0107 3.76869 13.0107 4.04999C13.0107 4.3313 12.8989 4.60108 12.7 4.79999L11 6.49999L11.2 6.69999C11.2985 6.79849 11.3766 6.91541 11.4299 7.0441C11.4832 7.17278 11.5107 7.31071 11.5107 7.44999C11.5107 7.58928 11.4832 7.72721 11.4299 7.85589C11.3766 7.98458 11.2985 8.1015 11.2 8.19999C11.1015 8.29849 10.9846 8.37661 10.8559 8.42992C10.7272 8.48322 10.5893 8.51065 10.45 8.51065C10.3107 8.51065 10.1728 8.48322 10.0441 8.42992C9.91543 8.37661 9.7985 8.29849 9.70001 8.19999L7.80001 6.29999C7.70152 6.2015 7.62339 6.08458 7.57009 5.95589C7.51678 5.82721 7.48935 5.68928 7.48935 5.54999C7.48935 5.41071 7.51678 5.27278 7.57009 5.1441C7.62339 5.01541 7.70152 4.89849 7.80001 4.79999C7.8985 4.7015 8.01543 4.62338 8.14411 4.57007C8.2728 4.51677 8.41072 4.48933 8.55001 4.48933C8.6893 4.48933 8.82722 4.51677 8.95591 4.57007C9.08459 4.62338 9.20152 4.7015 9.30001 4.79999L9.50001 4.99999Z" stroke="black" stroke-linecap="round" stroke-linejoin="round"/>
</g>
</svg>