<svg xmlns="http://www.w3.org/2000/svg" width="16" height="16" viewBox="0 0 16 16" fill="none">
<g id="toolbar-component[interface,toolbar,component,widget]">
<path id="Vector" d="M8.35354 0.853554L10.6464 3.14645C10.8417 3.34171 10.8417 3.65829 10.6464 3.85355L8.35354 6.14645C8.15828 6.34171 7.8417 6.34171 7.64644 6.14645L5.35354 3.85355C5.15828 3.65829 5.15828 3.34171 5.35354 3.14645L7.64644 0.853554C7.8417 0.658292 8.15828 0.658292 8.35354 0.853554Z" stroke="black"/>
<path id="Vector_2" d="M8.35354 9.85355L10.6464 12.1464C10.8417 12.3417 10.8417 12.6583 10.6464 12.8536L8.35354 15.1464C8.15828 15.3417 7.8417 15.3417 7.64644 15.1464L5.35354 12.8536C5.15828 12.6583 5.15828 12.3417 5.35354 12.1464L7.64644 9.85355C7.8417 9.65829 8.15828 9.65829 8.35354 9.85355Z" stroke="black"/>
<path id="Vector_3" d="M15.1464 8.35355L12.8536 10.6464C12.6583 10.8417 12.3417 10.8417 12.1464 10.6464L9.85354 8.35355C9.65828 8.15829 9.65828 7.84171 9.85354 7.64645L12.1464 5.35355C12.3417 5.15829 12.6583 5.15829 12.8536 5.35355L15.1464 7.64645C15.3417 7.84171 15.3417 8.15829 15.1464 8.35355Z" stroke="black"/>
<path id="Vector_4" d="M6.14644 8.35355L3.85354 10.6464C3.65828 10.8417 3.3417 10.8417 3.14644 10.6464L0.853539 8.35355C0.658277 8.15829 0.658277 7.84171 0.853539 7.64645L3.14644 5.35355C3.3417 5.15829 3.65828 5.15829 3.85354 5.35355L6.14644 7.64645C6.3417 7.84171 6.3417 8.15829 6.14644 8.35355Z" stroke="black"/>
</g>
</svg>