<svg xmlns="http://www.w3.org/2000/svg" width="16" height="16" viewBox="0 0 16 16" fill="none">
<g id="toolbar-hand[interface,toolbar,cursor,grab,hand,hold]">
<path id="Vector" d="M7.50001 3.5V3C7.50001 2.60218 7.34197 2.22064 7.06067 1.93934C6.77937 1.65804 6.39783 1.5 6.00001 1.5C5.60219 1.5 5.22065 1.65804 4.93935 1.93934C4.65805 2.22064 4.50001 2.60218 4.50001 3V9.5L2.17901 8.587C1.9598 8.50001 1.71993 8.47903 1.48894 8.52664C1.25796 8.57426 1.04594 8.6884 0.879008 8.855C0.661844 9.07131 0.53495 9.36204 0.523997 9.66836C0.513044 9.97468 0.618849 10.2737 0.820008 10.505L3.43901 13.405C4.01453 14.0641 4.72434 14.5924 5.52082 14.9546C6.31731 15.3168 7.18204 15.5045 8.05701 15.505H9.36401C10.1702 15.505 10.9685 15.3461 11.7133 15.0374C12.4581 14.7288 13.1347 14.2763 13.7046 13.706C14.2744 13.1357 14.7263 12.4587 15.0344 11.7137C15.3424 10.9687 15.5007 10.1702 15.5 9.364V3.5C15.5 3.23478 15.3946 2.98043 15.2071 2.79289C15.0196 2.60536 14.7652 2.5 14.5 2.5C14.2348 2.5 13.9804 2.60536 13.7929 2.79289C13.6054 2.98043 13.5 3.23478 13.5 3.5V4.5" stroke="black" stroke-linecap="round" stroke-linejoin="round"/>
<path id="Vector_2" d="M10.5 3.5V3C10.5 2.60218 10.658 2.22064 10.9393 1.93934C11.2206 1.65804 11.6022 1.5 12 1.5C12.3978 1.5 12.7794 1.65804 13.0607 1.93934C13.342 2.22064 13.5 2.60218 13.5 3V6.5" stroke="black" stroke-linecap="round" stroke-linejoin="round"/>
<path id="Vector_3" d="M7.5 6.5V2C7.5 1.60218 7.65804 1.22064 7.93934 0.93934C8.22064 0.658035 8.60218 0.5 9 0.5C9.39782 0.5 9.77936 0.658035 10.0607 0.93934C10.342 1.22064 10.5 1.60218 10.5 2V6.5" stroke="black" stroke-linecap="round" stroke-linejoin="round"/>
</g>
</svg>