<svg xmlns="http://www.w3.org/2000/svg" width="16" height="16" viewBox="0 0 16 16" fill="none">
<g id="tools-hand-small[interface,toolbar]">
<path id="Vector" d="M13.6667 6.33332V9.44446C13.6667 10.8933 13.6667 11.6178 13.4459 12.1945C13.1085 13.0765 12.4138 13.7734 11.5346 14.1119C10.9597 14.3333 10.2375 14.3333 8.79306 14.3333C8.03559 14.3333 7.65686 14.3333 7.30439 14.2556C6.76659 14.1371 6.26666 13.8863 5.84945 13.5259C5.57598 13.2896 5.34873 12.9857 4.89424 12.3778L2.89158 9.69912C2.58386 9.28759 2.5927 8.71926 2.91309 8.31752C3.3318 7.79252 4.1125 7.74912 4.58646 8.22459L5.66739 9.30892V6.99999V3.99999C5.66739 3.4477 6.1151 2.99999 6.66739 2.99999C7.21966 2.99999 7.66739 3.4477 7.66739 3.99999M7.66739 3.99999V2.66666C7.66739 2.11437 8.11512 1.66666 8.66739 1.66666C9.21966 1.66666 9.66739 2.11437 9.66739 2.66666V3.99999M7.66739 3.99999V6.99999M9.66739 3.99999C9.66739 3.4477 10.1151 2.99999 10.6674 2.99999C11.2197 2.99999 11.6674 3.4477 11.6674 3.99999V5.33332M9.66739 3.99999V6.99999M11.6674 5.33332C11.6674 4.78104 12.1151 4.33332 12.6674 4.33332C13.2197 4.33332 13.6674 4.78104 13.6674 5.33332V6.99999M11.6674 5.33332V6.99999" stroke="black" stroke-linecap="round" stroke-linejoin="round"/>
</g>
</svg>