<svg xmlns="http://www.w3.org/2000/svg" width="16" height="16" viewBox="0 0 16 16" fill="none">
<g id="transforms-3d-rotate[interface,arrow,3d,axis]">
<path id="Vector" d="M9.733 5.25C9.3215 3.6185 8.476 2.5 7.5 2.5C6.1195 2.5 5 4.7385 5 7.5C5 10.2615 6.1195 12.5 7.5 12.5C7.671 12.5 7.8385 12.4655 8 12.4M9.097 8.3535L11.004 9.2835L10.074 11.1905M11 9.285C10.098 9.7275 8.863 10 7.5 10C4.7385 10 2.5 8.8805 2.5 7.5C2.5 6.1195 4.7385 5 7.5 5C9.919 5 11.9365 5.859 12.4 7" stroke="black" stroke-linecap="round" stroke-linejoin="round"/>
</g>
</svg>