<svg xmlns="http://www.w3.org/2000/svg" width="16" height="16" viewBox="0 0 16 16" fill="none">
<g id="transforms-scale[interface,sharing,expand]">
<path id="Vector" d="M8 3.5H4.5C4.23478 3.5 3.98043 3.60536 3.79289 3.79289C3.60536 3.98043 3.5 4.23478 3.5 4.5V11.5C3.5 11.7652 3.60536 12.0196 3.79289 12.2071C3.98043 12.3946 4.23478 12.5 4.5 12.5H11.5C11.7652 12.5 12.0196 12.3946 12.2071 12.2071C12.3946 12.0196 12.5 11.7652 12.5 11.5V8M9 9.5H6.5M6.5 9.5V7M6.5 9.5L12.5 3.5M12.5 3.5H10M12.5 3.5V6" stroke="black" stroke-linecap="round" stroke-linejoin="round"/>
</g>
</svg>