<svg xmlns="http://www.w3.org/2000/svg" width="16" height="16" viewBox="0 0 16 16" fill="none">
<g id="variables-object[field,type,data,table,variables]">
<path id="Vector" d="M4.5 7.5H4.505" stroke="black" stroke-linecap="round" stroke-linejoin="round"/>
<path id="Vector_2" d="M7.5 7.5H7.505" stroke="black" stroke-linecap="round" stroke-linejoin="round"/>
<path id="Vector_3" d="M10.5 7.5H10.505" stroke="black" stroke-linecap="round" stroke-linejoin="round"/>
<path id="Vector_4" d="M4.5 2.5C4.5 2.5 2.5 2.5 2.5 4.5V6C2.5 7.5 0.5 7.5 0.5 7.5C0.5 7.5 2.5 7.5 2.5 9V10.5C2.5 12.5 4.5 12.5 4.5 12.5M10.5 12.5C10.5 12.5 12.5 12.5 12.5 10.5V9C12.5 7.5 14.5 7.5 14.5 7.5C14.5 7.5 12.5 7.5 12.5 6V4.5C12.5 2.5 10.5 2.5 10.5 2.5" stroke="black" stroke-linecap="round" stroke-linejoin="round"/>
</g>
</svg>