<svg xmlns="http://www.w3.org/2000/svg" width="16" height="16" viewBox="0 0 16 16" fill="none">
<g id="variables-color[interface,variables,palette,design,paint,color,art,draw]">
<path id="Vector" d="M8.75 5.5C8.88807 5.5 9 5.38807 9 5.25C9 5.11193 8.88807 5 8.75 5C8.61193 5 8.5 5.11193 8.5 5.25C8.5 5.38807 8.61193 5.5 8.75 5.5Z" fill="black" stroke="black" stroke-linecap="round" stroke-linejoin="round"/>
<path id="Vector_2" d="M10.75 7.5C10.8881 7.5 11 7.38807 11 7.25C11 7.11193 10.8881 7 10.75 7C10.6119 7 10.5 7.11193 10.5 7.25C10.5 7.38807 10.6119 7.5 10.75 7.5Z" fill="black" stroke="black" stroke-linecap="round" stroke-linejoin="round"/>
<path id="Vector_3" d="M6.25 6C6.38807 6 6.5 5.88807 6.5 5.75C6.5 5.61193 6.38807 5.5 6.25 5.5C6.11193 5.5 6 5.61193 6 5.75C6 5.88807 6.11193 6 6.25 6Z" fill="black" stroke="black" stroke-linecap="round" stroke-linejoin="round"/>
<path id="Vector_4" d="M5.25 8.5C5.38807 8.5 5.5 8.38807 5.5 8.25C5.5 8.11193 5.38807 8 5.25 8C5.11193 8 5 8.11193 5 8.25C5 8.38807 5.11193 8.5 5.25 8.5Z" fill="black" stroke="black" stroke-linecap="round" stroke-linejoin="round"/>
<path id="Vector_5" d="M8 3C5.25 3 3 5.25 3 8C3 10.75 5.25 13 8 13C8.463 13 8.824 12.627 8.824 12.156C8.824 11.9375 8.734 11.7385 8.6055 11.5935C8.4605 11.449 8.3865 11.2675 8.3865 11.031C8.3846 10.921 8.40488 10.8116 8.44612 10.7096C8.48736 10.6076 8.54873 10.5149 8.62655 10.437C8.70438 10.3592 8.79707 10.2979 8.89911 10.2566C9.00116 10.2154 9.11046 10.1951 9.2205 10.197H10.2185C11.744 10.197 12.996 8.9455 12.996 7.42C12.9825 5.006 10.7305 3 8 3Z" stroke="black" stroke-linecap="round" stroke-linejoin="round"/>
</g>
</svg>