<svg xmlns="http://www.w3.org/2000/svg" width="16" height="16" viewBox="0 0 16 16" fill="none">
<g id="field-type-date-and-time[field,type,data,datasheet,table]">
<path id="Vector" d="M4.5 3.5H3.5C2.94771 3.5 2.5 3.94772 2.5 4.5V11.5C2.5 12.0523 2.94771 12.5 3.5 12.5H5.5M10.5 3.5H11.5C12.0523 3.5 12.5 3.94772 12.5 4.5V5.5M6.5 3.5H8.5" stroke="black" stroke-linecap="round" stroke-linejoin="round"/>
<path id="Vector_2" d="M2.5 6.5H7.5" stroke="black" stroke-linecap="round" stroke-linejoin="round"/>
<path id="Vector_3" d="M4.5 2.5V4.5M10.5 2.5V4.5" stroke="black" stroke-linecap="round" stroke-linejoin="round"/>
<path id="Vector_4" d="M11.5 11.5L10.5 10.5V9.5" stroke="black" stroke-linecap="round" stroke-linejoin="round"/>
<path id="Vector_5" d="M13.5 10.5C13.5 8.84315 12.1569 7.5 10.5 7.5C8.84315 7.5 7.5 8.84315 7.5 10.5C7.5 12.1569 8.84315 13.5 10.5 13.5C12.1569 13.5 13.5 12.1569 13.5 10.5Z" stroke="black" stroke-linecap="round" stroke-linejoin="round"/>
<path id="Vector_6" d="M4.5 8.5H4.505M4.5 10.5H4.505" stroke="black" stroke-linecap="round" stroke-linejoin="round"/>
</g>
</svg>