<svg xmlns="http://www.w3.org/2000/svg" width="16" height="16" viewBox="0 0 16 16" fill="none">
<g id="field-type-system-date[field,type,data,datasheet,table,dynamic]">
<path id="Vector" d="M10.5 13.5L12 12M12 12L9.5 10.5C9.5 10.5 10.1667 9.83333 11 9M12 12L13.5 10.5L11 9M12.5 7.5C11.8333 8.16667 11.8333 8.16667 11 9" stroke="#0055FF" stroke-linecap="round" stroke-linejoin="round"/>
<path id="Vector_2" d="M4.5 3.5H3.5C2.94771 3.5 2.5 3.94772 2.5 4.5V11.5C2.5 12.0523 2.94771 12.5 3.5 12.5H8.5M10.5 3.5H11.5C12.0523 3.5 12.5 3.94772 12.5 4.5V5.5M6.5 3.5H8.5" stroke="black" stroke-linecap="round" stroke-linejoin="round"/>
<path id="Vector_3" d="M2.5 6.5H10.5" stroke="black" stroke-linecap="round" stroke-linejoin="round"/>
<path id="Vector_4" d="M4.5 2.5V4.5M10.5 2.5V4.5" stroke="black" stroke-linecap="round" stroke-linejoin="round"/>
<path id="Vector_5" d="M4.5 8.5H4.505M4.5 10.5H4.505" stroke="black" stroke-linecap="round" stroke-linejoin="round"/>
<path id="Vector_6" d="M6.5 8.5H6.505M6.5 10.5H6.505" stroke="black" stroke-linecap="round" stroke-linejoin="round"/>
<path id="Vector_7" d="M8.5 8.5H8.505" stroke="black" stroke-linecap="round" stroke-linejoin="round"/>
</g>
</svg>