<svg xmlns="http://www.w3.org/2000/svg" width="32" height="32" viewBox="0 0 32 32" fill="none">
<g id="welcome-workflow[welcome,choiceform,tx,workflow]">
<path id="Vector 1404" d="M0.5 31.5H31.5" stroke="black" stroke-linecap="round" stroke-linejoin="round"/>
<path id="Vector 1023" d="M6.5 16.5L8 15M8.5 10.5C7.83333 11.1667 7.83333 11.1667 7 12M7 12C6.16667 12.8333 5.5 13.5 5.5 13.5L8 15M7 12L9.5 13.5L8 15" stroke="black" stroke-linecap="round" stroke-linejoin="round"/>
<path id="Vector 1426" d="M8.5 19.5C8.5 20.0523 8.05228 20.5 7.5 20.5C6.94772 20.5 6.5 20.0523 6.5 19.5C6.5 18.9477 6.94772 18.5 7.5 18.5C8.05228 18.5 8.5 18.9477 8.5 19.5Z" stroke="black" stroke-linecap="round" stroke-linejoin="round"/>
<path id="Vector 1430" d="M17.5 25.5C17.5 26.0523 17.0523 26.5 16.5 26.5C15.9477 26.5 15.5 26.0523 15.5 25.5C15.5 24.9477 15.9477 24.5 16.5 24.5C17.0523 24.5 17.5 24.9477 17.5 25.5Z" stroke="black" stroke-linecap="round" stroke-linejoin="round"/>
<path id="Vector 1427" d="M8.5 7.5C8.5 8.05228 8.05228 8.5 7.5 8.5C6.94772 8.5 6.5 8.05228 6.5 7.5C6.5 6.94772 6.94772 6.5 7.5 6.5C8.05228 6.5 8.5 6.94772 8.5 7.5Z" stroke="black" stroke-linecap="round" stroke-linejoin="round"/>
<path id="Vector 1428" d="M6.5 7.5H3.5C2.39543 7.5 1.5 8.39543 1.5 9.5V17.5C1.5 18.6046 2.39543 19.5 3.5 19.5H6.5M8.5 7.5H11.5C12.6046 7.5 13.5 8.39543 13.5 9.5V17.5C13.5 18.6046 12.6046 19.5 11.5 19.5H8.5" stroke="black" stroke-linecap="round" stroke-linejoin="round"/>
<path id="Vector 1429" d="M7.5 20.5V21.5C7.5 22.0523 7.94772 22.5 8.5 22.5H15.5C16.0523 22.5 16.5 22.9477 16.5 23.5V24.5" stroke="black" stroke-linecap="round" stroke-linejoin="round"/>
<path id="Vector" d="M17.5 25.5001L23.5 25.5C24.6046 25.5 25.5 26.3954 25.5 27.5L25.5 29.5001C25.5 30.6046 24.6046 31.5001 23.5 31.5001H9.49999C8.39542 31.5001 7.49999 30.6046 7.49999 29.5001V27.5001C7.49999 26.3955 8.39542 25.5001 9.49999 25.5001H15.5" stroke="black" stroke-linecap="round" stroke-linejoin="round"/>
<path id="Vector 1433" d="M14.5 28.5H10.5" stroke="black" stroke-linecap="round" stroke-linejoin="round"/>
<path id="Vector 1434" d="M22.5 28.5H18.5" stroke="black" stroke-linecap="round" stroke-linejoin="round"/>
<path id="Vector_2" d="M19.5873 11.7792C18.7718 12.4648 18.5 14.5 18.5 14.5C18.5 14.5 20.5333 14.2279 21.2183 13.4117C21.6043 12.9546 21.5989 12.2526 21.1694 11.8281C20.9581 11.6263 20.6797 11.5096 20.3877 11.5006C20.0957 11.4915 19.8107 11.5907 19.5873 11.7792Z" fill="black" fill-opacity="0.25" stroke="black" stroke-linecap="round" stroke-linejoin="round"/>
<path id="Vector_3" d="M23.5 11.5L21.5 9.5C22.7536 6.24766 26.0066 3.47796 29.5833 3.50014C29.5833 7.08408 26.7827 10.2515 23.5 11.5Z" stroke="black" stroke-linecap="round" stroke-linejoin="round"/>
<g id="Vector_4">
<path d="M21.5 9.5H18.5C18.5 9.5 18.5 7.14 19.5 6.64C20.5 6.14 22.5 7.14 22.5 7.14" fill="black" fill-opacity="0.25"/>
<path d="M21.5 9.5H18.5C18.5 9.5 18.5 7.14 19.5 6.64C20.5 6.14 22.5 7.14 22.5 7.14" stroke="black" stroke-linecap="round" stroke-linejoin="round"/>
</g>
<g id="Vector_5">
<path d="M23.5 11.5L23.5 14.5C23.5 14.5 25.86 14.5 26.36 13.5C26.86 12.5 25.86 10.5 25.86 10.5" fill="black" fill-opacity="0.25"/>
<path d="M23.5 11.5L23.5 14.5C23.5 14.5 25.86 14.5 26.36 13.5C26.86 12.5 25.86 10.5 25.86 10.5" stroke="black" stroke-linecap="round" stroke-linejoin="round"/>
</g>
<path id="Vector_6" d="M26.5 6.5H26.505" stroke="black" stroke-linecap="round" stroke-linejoin="round"/>
<path id="Vector 1415" d="M22.5 3.5V2.5C22.5 1.39543 21.6046 0.5 20.5 0.5H9.5C8.39543 0.5 7.5 1.39543 7.5 2.5V6.5M22.5 17.5V20.5C22.5 21.6046 21.6046 22.5 20.5 22.5H15.5" stroke="black" stroke-opacity="0.25" stroke-linecap="round" stroke-linejoin="round"/>
</g>
</svg>