<svg xmlns="http://www.w3.org/2000/svg" width="32" height="32" viewBox="0 0 32 32" fill="none">
<g id="welcome-charts[welcome,choiceform,tx,charts]">
<path id="Vector 1404" d="M0.5 31.5H31.5" stroke="black" stroke-linecap="round" stroke-linejoin="round"/>
<g id="Vector 969">
<path d="M13.5 26V24C13.5 23.7239 13.7239 23.5 14 23.5H15C15.2761 23.5 15.5 23.7239 15.5 24V26C15.5 26.2761 15.2761 26.5 15 26.5H14C13.7239 26.5 13.5 26.2761 13.5 26Z" fill="black" fill-opacity="0.25"/>
<path d="M19 18.5H18C17.7239 18.5 17.5 18.7239 17.5 19V26C17.5 26.2761 17.7239 26.5 18 26.5H19C19.2761 26.5 19.5 26.2761 19.5 26V19C19.5 18.7239 19.2761 18.5 19 18.5Z" fill="black" fill-opacity="0.25"/>
<path d="M23 26.5H22C21.7239 26.5 21.5 26.2761 21.5 26V21C21.5 20.7239 21.7239 20.5 22 20.5H23C23.2761 20.5 23.5 20.7239 23.5 21V26C23.5 26.2761 23.2761 26.5 23 26.5Z" fill="black" fill-opacity="0.25"/>
<path d="M13.5 26V24C13.5 23.7239 13.7239 23.5 14 23.5H15C15.2761 23.5 15.5 23.7239 15.5 24V26C15.5 26.2761 15.2761 26.5 15 26.5H14C13.7239 26.5 13.5 26.2761 13.5 26Z" stroke="black" stroke-linecap="round" stroke-linejoin="round"/>
<path d="M19 18.5H18C17.7239 18.5 17.5 18.7239 17.5 19V26C17.5 26.2761 17.7239 26.5 18 26.5H19C19.2761 26.5 19.5 26.2761 19.5 26V19C19.5 18.7239 19.2761 18.5 19 18.5Z" stroke="black" stroke-linecap="round" stroke-linejoin="round"/>
<path d="M23 26.5H22C21.7239 26.5 21.5 26.2761 21.5 26V21C21.5 20.7239 21.7239 20.5 22 20.5H23C23.2761 20.5 23.5 20.7239 23.5 21V26C23.5 26.2761 23.2761 26.5 23 26.5Z" stroke="black" stroke-linecap="round" stroke-linejoin="round"/>
</g>
<path id="Vector 1220" d="M6.5 29.5L9 27" stroke="black" stroke-linecap="round" stroke-linejoin="round"/>
<path id="Vector 1418" d="M10.5 22.5V11.5C10.5 10.3954 11.3954 9.5 12.5 9.5H16.5M23.5 31.5H24.5C25.6046 31.5 26.5 30.6046 26.5 29.5V19.5" stroke="black" stroke-linecap="round" stroke-linejoin="round"/>
<path id="Vector 1419" d="M13.5 28.5H23.5" stroke="black" stroke-linecap="round" stroke-linejoin="round"/>
<path id="Vector 1420" d="M1.91604 31.5C1.64845 30.8875 1.5 30.2111 1.5 29.5C1.5 26.7386 3.73858 24.5 6.5 24.5C9.26142 24.5 11.5 26.7386 11.5 29.5C11.5 30.2111 11.3516 30.8875 11.084 31.5" stroke="black" stroke-linecap="round" stroke-linejoin="round"/>
<path id="Vector 1421" d="M6.5 26.5C4.84315 26.5 3.5 27.8431 3.5 29.5" stroke="black" stroke-opacity="0.25" stroke-linecap="round" stroke-linejoin="round"/>
<path id="Vector" d="M26.5 7.89996V5.5C28.4591 5.89768 30.0023 7.44085 30.4 9.39998H28C28 8.89996 27 7.89996 26.5 7.89996Z" fill="black" fill-opacity="0.25" stroke="black" stroke-linecap="round" stroke-linejoin="round"/>
<path id="Vector_2" d="M19.5 11.3999C19.5 14.1613 21.7386 16.3999 24.5 16.3999C27.2614 16.3999 29.5 14.1613 29.5 11.3999H26.5C26.5 12.5045 25.6046 13.3999 24.5 13.3999C23.3954 13.3999 22.5 12.5045 22.5 11.3999C22.5 10.2953 23.3954 9.3999 24.5 9.3999V6.3999C21.7386 6.3999 19.5 8.63848 19.5 11.3999Z" stroke="black" stroke-linecap="round" stroke-linejoin="round"/>
<path id="Vector 1415" d="M2.5 8.5V17.5C2.5 18.6046 3.39543 19.5 4.5 19.5H7.5M16.5 6.5V4.5C16.5 3.39543 15.6046 2.5 14.5 2.5H10.5" stroke="black" stroke-opacity="0.25" stroke-linecap="round" stroke-linejoin="round"/>
<path id="Vector_3" d="M5.501 2.40898C5.634 1.84798 6.156 1.46398 6.722 1.50198C7.121 1.52898 7.51 1.71398 7.694 2.05798C7.728 2.12098 7.803 2.28098 7.804 2.51998C7.806 3.08098 7.393 3.47898 6.726 4.17598C6.44 4.47498 6.016 4.92498 5.5 5.49898H7.953M1.5 2.49998L2.5 1.49999V5.49999H1.5L3.5 5.5" stroke="black" stroke-linecap="round" stroke-linejoin="round"/>
</g>
</svg>