<svg xmlns="http://www.w3.org/2000/svg" width="32" height="32" viewBox="0 0 32 32" fill="none">
<g id="welcome-extension[welcome,choiceform,tx,extension]">
<path id="Vector 1404" d="M0.5 31.5H31.5" stroke="black" stroke-linecap="round" stroke-linejoin="round"/>
<path id="Vector" d="M5.5 28.5C6.60457 28.5 7.5 27.6046 7.5 26.5C7.5 25.3954 6.60457 24.5 5.5 24.5C4.39543 24.5 3.5 25.3954 3.5 26.5C3.5 27.6046 4.39543 28.5 5.5 28.5Z" stroke="black" stroke-linecap="round" stroke-linejoin="round"/>
<path id="Vector_2" d="M5.5 24.5V23.5M5.5 28.5V29.5M7.5 26.5H8.5M3.5 26.5H2.5M6.91421 25.0858L7.62132 24.3787M4.08579 27.9142L3.37868 28.6213M6.91421 27.9142L7.62132 28.6213M4.08579 25.0858L3.37868 24.3787" stroke="black" stroke-linecap="round" stroke-linejoin="round"/>
<path id="Vector 1416" d="M5.5 20.5V15.5C5.5 14.3954 6.39543 13.5 7.5 13.5H27.5C28.6046 13.5 29.5 14.3954 29.5 15.5V29.5C29.5 30.6046 28.6046 31.5 27.5 31.5H26.5" stroke="black" stroke-linecap="round" stroke-linejoin="round"/>
<path id="Vector_3" d="M7.5 15.5H7.505" stroke="black" stroke-linecap="round" stroke-linejoin="round"/>
<path id="Vector_4" d="M9.5 15.5H9.505" stroke="black" stroke-linecap="round" stroke-linejoin="round"/>
<path id="Vector_5" d="M11.5 15.5H11.505" stroke="black" stroke-linecap="round" stroke-linejoin="round"/>
<path id="Vector 1417" d="M29.5 17.5H5.5V15.5C5.5 14.3954 6.39543 13.5 7.5 13.5H27.5C28.6046 13.5 29.5 14.3954 29.5 15.5V17.5Z" fill="black" fill-opacity="0.25" stroke="black" stroke-linecap="round" stroke-linejoin="round"/>
<path id="Vector 1415" d="M26.5 10.5V4.5C26.5 3.39543 25.6046 2.5 24.5 2.5H17.5M2.5 20.5V20.5C1.39543 20.5 0.5 19.6046 0.5 18.5V4.5C0.5 3.39543 1.39543 2.5 2.5 2.5H4.5" stroke="black" stroke-opacity="0.25" stroke-linecap="round" stroke-linejoin="round"/>
<path id="Vector_6" d="M14.5 22.5L12.5 24.5L14.5 26.5M20.5 26.5L22.5 24.5L20.5 22.5" stroke="black" stroke-linecap="round" stroke-linejoin="round"/>
<path id="Vector 915" d="M19.5 20.5L15.5 28.5" stroke="black" stroke-linecap="round" stroke-linejoin="round"/>
<path id="Vector_7" d="M10.5 2.5C11.605 2.5 12.5 1.605 12.5 0.5C12.5 1.605 13.395 2.5 14.5 2.5C13.395 2.5 12.5 3.395 12.5 4.5C12.5 3.395 11.605 2.5 10.5 2.5Z" fill="black" stroke="black" stroke-linecap="round" stroke-linejoin="round"/>
<path id="Vector_8" d="M3.5 7.5C5.709 7.5 7.5 5.709 7.5 3.5C7.5 5.709 9.291 7.5 11.5 7.5C9.291 7.5 7.5 9.291 7.5 11.5C7.5 9.291 5.709 7.5 3.5 7.5Z" stroke="black" stroke-linecap="round" stroke-linejoin="round"/>
</g>
</svg>