<svg xmlns="http://www.w3.org/2000/svg" width="16" height="16" viewBox="0 0 16 16" fill="none">
<g id="biaxial[chart,data,statistics,report,analysis,visualization,performance,graph,business,bar]">
<path id="Vector" d="M1.5 12.5H3.5M3.5 12.5H13.5M3.5 12.5V1.5M3.5 12.5V14.5M7.5 10.5H8C8.27614 10.5 8.5 10.2761 8.5 10V9.5M6.5 5.5V3C6.5 2.72386 6.72386 2.5 7 2.5H8C8.27614 2.5 8.5 2.72386 8.5 3V3.5M11 10.5H12C12.2761 10.5 12.5 10.2761 12.5 10V9C12.5 8.72386 12.2761 8.5 12 8.5H11C10.7239 8.5 10.5 8.72386 10.5 9V10C10.5 10.2761 10.7239 10.5 11 10.5Z" stroke="black" stroke-linecap="round" stroke-linejoin="round"/>
<path id="Vector_2" d="M13.5 1.5L5.5 9.5" stroke="black" stroke-linecap="round" stroke-linejoin="round"/>
</g>
</svg>