<svg xmlns="http://www.w3.org/2000/svg" width="16" height="16" viewBox="0 0 16 16" fill="none">
<g id="column-stacked[chart,data,statistics,report,analysis,visualization,performance,graph,business,bar,column,stacked]">
<path id="Vector" d="M2.5 12V9.5H4.5V12C4.5 12.2761 4.27614 12.5 4 12.5H3C2.72386 12.5 2.5 12.2761 2.5 12Z" stroke="black" stroke-linecap="round" stroke-linejoin="round"/>
<path id="Vector_2" d="M8.5 6.5H6.5V12C6.5 12.2761 6.72386 12.5 7 12.5H8C8.27614 12.5 8.5 12.2761 8.5 12V6.5Z" stroke="black" stroke-linecap="round" stroke-linejoin="round"/>
<path id="Vector_3" d="M10.5 10.5V12C10.5 12.2761 10.7239 12.5 11 12.5H12C12.2761 12.5 12.5 12.2761 12.5 12V10.5H10.5Z" stroke="black" stroke-linecap="round" stroke-linejoin="round"/>
<path id="Vector_4" d="M2.5 8V9.5H4.5V8C4.5 7.72386 4.27614 7.5 4 7.5H3C2.72386 7.5 2.5 7.72386 2.5 8Z" fill="black" fill-opacity="0.25" stroke="black" stroke-linecap="round" stroke-linejoin="round"/>
<path id="Vector_5" d="M6.5 3V6.5H8.5V3C8.5 2.72386 8.27614 2.5 8 2.5H7C6.72386 2.5 6.5 2.72386 6.5 3Z" fill="black" fill-opacity="0.25" stroke="black" stroke-linecap="round" stroke-linejoin="round"/>
<path id="Vector_6" d="M10.5 5V10.5H12.5V5C12.5 4.72386 12.2761 4.5 12 4.5H11C10.7239 4.5 10.5 4.72386 10.5 5Z" fill="black" fill-opacity="0.25" stroke="black" stroke-linecap="round" stroke-linejoin="round"/>
</g>
</svg>