<svg xmlns="http://www.w3.org/2000/svg" width="16" height="16" viewBox="0 0 16 16" fill="none">
<g id="journey[chart,data,statistics,report,analysis,visualization,performance,graph,business]">
<path id="Vector" d="M13.5 3.5V2.5C13.5 1.94771 13.0523 1.5 12.5 1.5H2.5C1.94771 1.5 1.5 1.94771 1.5 2.5V6.5C1.5 7.05228 1.94771 7.5 2.5 7.5H14.5M14.5 7.5L12.5 5.5M14.5 7.5L12.5 9.5M13.5 11.5V12.5C13.5 13.0523 13.0523 13.5 12.5 13.5H2.5C1.94771 13.5 1.5 13.0523 1.5 12.5V9.5" stroke="black" stroke-linecap="round" stroke-linejoin="round"/>
<path id="Vector_2" d="M7.5 9.5V11.5M10.5 9.5V11.5M4.5 9.5V11.5" stroke="black" stroke-linecap="round" stroke-linejoin="round"/>
</g>
</svg>