<svg xmlns="http://www.w3.org/2000/svg" width="16" height="16" viewBox="0 0 16 16" fill="none">
<g id="picture[chart,data,statistics,report,analysis,visualization,performance,graph,business,image]">
<path id="Vector" d="M12.5 2.5H3.5C2.94772 2.5 2.5 2.94771 2.5 3.5V12.5C2.5 13.0523 2.94771 13.5 3.5 13.5H12.5C13.0523 13.5 13.5 13.0523 13.5 12.5V3.5C13.5 2.94772 13.0523 2.5 12.5 2.5Z" stroke="black" stroke-linecap="round" stroke-linejoin="round"/>
<path id="Vector_2" d="M9.34606 7.11034L3.42735 12.6345C3.09559 12.9441 3.3147 13.5 3.76851 13.5H12.5C13.0523 13.5 13.5 13.0523 13.5 12.5V9.5L10.6792 7.08214C10.2925 6.75068 9.71841 6.76282 9.34606 7.11034Z" fill="black" fill-opacity="0.25" stroke="black" stroke-linecap="round" stroke-linejoin="round"/>
<path id="Vector_3" d="M4.5 5.5C4.5 6.05228 4.94772 6.5 5.5 6.5C6.05228 6.5 6.5 6.05228 6.5 5.5C6.5 4.94772 6.05228 4.5 5.5 4.5C4.94772 4.5 4.5 4.94772 4.5 5.5Z" stroke="black" stroke-linecap="round" stroke-linejoin="round"/>
</g>
</svg>