<svg xmlns="http://www.w3.org/2000/svg" width="16" height="16" viewBox="0 0 16 16" fill="none">
<g id="quadrant[chart,data,statistics,report,analysis,visualization,performance,graph,business]">
<path id="Vector" d="M5.5 4.5C5.5 5.05228 5.94772 5.5 6.5 5.5C7.05228 5.5 7.5 5.05228 7.5 4.5C7.5 3.94772 7.05228 3.5 6.5 3.5C5.94772 3.5 5.5 3.94772 5.5 4.5Z" stroke="black" stroke-linecap="round" stroke-linejoin="round"/>
<path id="Vector_2" d="M5.5 9.5C5.5 10.0523 5.94772 10.5 6.5 10.5C7.05228 10.5 7.5 10.0523 7.5 9.5C7.5 8.94772 7.05228 8.5 6.5 8.5C5.94772 8.5 5.5 8.94772 5.5 9.5Z" stroke="black" stroke-linecap="round" stroke-linejoin="round"/>
<path id="Vector_3" d="M10.5 9.5C10.5 10.0523 10.9477 10.5 11.5 10.5C12.0523 10.5 12.5 10.0523 12.5 9.5C12.5 8.94772 12.0523 8.5 11.5 8.5C10.9477 8.5 10.5 8.94772 10.5 9.5Z" stroke="black" stroke-linecap="round" stroke-linejoin="round"/>
<path id="Vector_4" d="M1.5 12.5H3.5M3.5 12.5H13.5M3.5 12.5V1.5M3.5 12.5V14.5" stroke="black" stroke-linecap="round" stroke-linejoin="round"/>
</g>
</svg>