<svg xmlns="http://www.w3.org/2000/svg" width="16" height="16" viewBox="0 0 16 16" fill="none">
<g id="row-stacked[chart,data,statistics,report,analysis,visualization,performance,graph,business,bar,stacked]">
<path id="Vector" d="M3 12.5H5.5V10.5H3C2.72386 10.5 2.5 10.7239 2.5 11V12C2.5 12.2761 2.72386 12.5 3 12.5Z" stroke="black" stroke-linecap="round" stroke-linejoin="round"/>
<path id="Vector_2" d="M8.5 6.5V8.5H3C2.72386 8.5 2.5 8.27614 2.5 8V7C2.5 6.72386 2.72386 6.5 3 6.5H8.5Z" stroke="black" stroke-linecap="round" stroke-linejoin="round"/>
<path id="Vector_3" d="M4.5 4.5H3C2.72386 4.5 2.5 4.27614 2.5 4V3C2.5 2.72386 2.72386 2.5 3 2.5H4.5V4.5Z" stroke="black" stroke-linecap="round" stroke-linejoin="round"/>
<path id="Vector_4" d="M7 12.5H5.5V10.5H7C7.27614 10.5 7.5 10.7239 7.5 11V12C7.5 12.2761 7.27614 12.5 7 12.5Z" fill="black" fill-opacity="0.25" stroke="black" stroke-linecap="round" stroke-linejoin="round"/>
<path id="Vector_5" d="M12 8.5H8.5V6.5H12C12.2761 6.5 12.5 6.72386 12.5 7V8C12.5 8.27614 12.2761 8.5 12 8.5Z" fill="black" fill-opacity="0.25" stroke="black" stroke-linecap="round" stroke-linejoin="round"/>
<path id="Vector_6" d="M10 4.5H4.5V2.5H10C10.2761 2.5 10.5 2.72386 10.5 3V4C10.5 4.27614 10.2761 4.5 10 4.5Z" fill="black" fill-opacity="0.25" stroke="black" stroke-linecap="round" stroke-linejoin="round"/>
</g>
</svg>