<svg xmlns="http://www.w3.org/2000/svg" width="16" height="16" viewBox="0 0 16 16" fill="none">
<g id="stacked-bar[chart,data,statistics,report,analysis,visualization,performance,graph,business,bar,stacked]">
<path id="Vector" d="M2 2.5H6.5V4.5H2C1.72386 4.5 1.5 4.27614 1.5 4V3C1.5 2.72386 1.72386 2.5 2 2.5Z" stroke="black" stroke-linecap="round" stroke-linejoin="round"/>
<path id="Vector_2" d="M9.5 8.5V6.5H2C1.72386 6.5 1.5 6.72386 1.5 7V8C1.5 8.27614 1.72386 8.5 2 8.5H9.5Z" stroke="black" stroke-linecap="round" stroke-linejoin="round"/>
<path id="Vector_3" d="M5.5 10.5H2C1.72386 10.5 1.5 10.7239 1.5 11V12C1.5 12.2761 1.72386 12.5 2 12.5H5.5V10.5Z" stroke="black" stroke-linecap="round" stroke-linejoin="round"/>
<path id="Vector_4" d="M11 2.5H6.5V4.5H11C11.2761 4.5 11.5 4.27614 11.5 4V3C11.5 2.72386 11.2761 2.5 11 2.5Z" fill="black" fill-opacity="0.25" stroke="black" stroke-linecap="round" stroke-linejoin="round"/>
<path id="Vector_5" d="M13 6.5H9.5V8.5H13C13.2761 8.5 13.5 8.27614 13.5 8V7C13.5 6.72386 13.2761 6.5 13 6.5Z" fill="black" fill-opacity="0.25" stroke="black" stroke-linecap="round" stroke-linejoin="round"/>
<path id="Vector_6" d="M11 10.5H5.5V12.5H11C11.2761 12.5 11.5 12.2761 11.5 12V11C11.5 10.7239 11.2761 10.5 11 10.5Z" fill="black" fill-opacity="0.25" stroke="black" stroke-linecap="round" stroke-linejoin="round"/>
</g>
</svg>