<svg xmlns="http://www.w3.org/2000/svg" width="16" height="16" viewBox="0 0 16 16" fill="none">
<g id="action-update-record[workflow,action,record]">
<path id="Vector" d="M11.5 12.5H13.5C14.0523 12.5 14.5 12.0523 14.5 11.5V9.5C14.5 8.94772 14.0523 8.5 13.5 8.5H11.5M2.5 4.5V2.5C2.5 1.94771 2.94772 1.5 3.5 1.5H13.5C14.0523 1.5 14.5 1.94771 14.5 2.5V4.5C14.5 5.05228 14.0523 5.5 13.5 5.5H9.5" stroke="black" stroke-linecap="round" stroke-linejoin="round"/>
<path id="Vector_2" d="M9.36369 9.46479C8.79192 7.33093 6.59857 6.0646 4.46471 6.63636C2.33084 7.20813 1.06452 9.40148 1.63628 11.5353C2.20805 13.6692 4.40139 14.9355 6.53526 14.3638C7.79555 14.0261 8.75323 13.1227 9.20832 12.0001" stroke="black" stroke-linecap="round" stroke-linejoin="round"/>
<path id="Vector_3" d="M7.42171 9.09476L9.35356 9.61239L9.8712 7.68054" stroke="black" stroke-linecap="round" stroke-linejoin="round"/>
<path id="Vector_4" d="M4.5 10.5H4.505" stroke="black" stroke-linecap="round" stroke-linejoin="round"/>
<path id="Vector_5" d="M6.5 10.5H6.505" stroke="black" stroke-linecap="round" stroke-linejoin="round"/>
</g>
</svg>