<svg xmlns="http://www.w3.org/2000/svg" width="16" height="16" viewBox="0 0 16 16" fill="none">
<g id="action-get-records-from-webhook[workflow,action,webhook]">
<path id="Vector" d="M5.5 12.5C5.5 13.6046 4.60457 14.5 3.5 14.5C2.39543 14.5 1.5 13.6046 1.5 12.5C1.5 11.7597 1.9022 11.1134 2.5 10.7676" stroke="black" stroke-linecap="round" stroke-linejoin="round"/>
<path id="Vector_2" d="M11.5 14.5C12.6046 14.5 13.5 13.6046 13.5 12.5C13.5 11.3954 12.6046 10.5 11.5 10.5C10.3954 10.5 9.5 11.3954 9.5 12.5C9.5 13.6046 10.3954 14.5 11.5 14.5Z" fill="black" fill-opacity="0.25" stroke="black" stroke-linecap="round" stroke-linejoin="round"/>
<path id="Vector_3" d="M3.5 12.5H3.505" stroke="black" stroke-linecap="round" stroke-linejoin="round"/>
<path id="Vector_4" d="M14.5 9.5C14.5 8.94772 14.0523 8.5 13.5 8.5H11.5M11.5 5.5H13.5C14.0523 5.5 14.5 5.05228 14.5 4.5V2.5C14.5 1.94771 14.0523 1.5 13.5 1.5H3.5C2.94772 1.5 2.5 1.94772 2.5 2.5V4.5C2.5 5.05228 2.94772 5.5 3.5 5.5M9.50001 5.50001C9.50001 4.39544 8.60458 3.50001 7.50001 3.50001C6.39544 3.50001 5.50001 4.39544 5.50001 5.50001C5.50001 6.17099 5.83043 6.7648 6.33743 7.12759L4.5 10.5" stroke="black" stroke-linecap="round" stroke-linejoin="round"/>
<path id="Vector_5" d="M7.5 5.5L9.5 9" stroke="black" stroke-linecap="round" stroke-linejoin="round"/>
<path id="Vector_6" d="M5.5 12.5H9.5" stroke="black" stroke-linecap="round" stroke-linejoin="round"/>
</g>
</svg>