<svg xmlns="http://www.w3.org/2000/svg" width="16" height="16" viewBox="0 0 16 16" fill="none">
<g id="action-get-records-from-code-block[workflow,action,record]">
<path id="Vector" d="M11.5 12.5H13.5C14.0523 12.5 14.5 12.0523 14.5 11.5V9.5C14.5 8.94772 14.0523 8.5 13.5 8.5H11.5M2.5 4.5V2.5C2.5 1.94771 2.94772 1.5 3.5 1.5H13.5C14.0523 1.5 14.5 1.94771 14.5 2.5V4.5C14.5 5.05228 14.0523 5.5 13.5 5.5H11.5" stroke="black" stroke-linecap="round" stroke-linejoin="round"/>
<path id="Vector_2" d="M2.5 6.5H8.5C9.05228 6.5 9.5 6.94772 9.5 7.5V13.5C9.5 14.0523 9.05228 14.5 8.5 14.5H2.5C1.94771 14.5 1.5 14.0523 1.5 13.5V7.5C1.5 6.94772 1.94771 6.5 2.5 6.5Z" stroke="black" stroke-linecap="round" stroke-linejoin="round"/>
<path id="Vector_3" d="M4.5 8.5L6.5 10.5L4.5 12.5" stroke="black" stroke-linecap="round" stroke-linejoin="round"/>
</g>
</svg>