<svg xmlns="http://www.w3.org/2000/svg" width="16" height="16" viewBox="0 0 16 16" fill="none">
<g id="action-get-records-from-a-node[workflow,action,record]">
<path id="Vector" d="M8.5 12.5H3.5C2.94772 12.5 2.5 12.0523 2.5 11.5V9.5C2.5 8.94772 2.94772 8.5 3.5 8.5H10.5M2.5 4.5V2.5C2.5 1.94771 2.94772 1.5 3.5 1.5H13.5C14.0523 1.5 14.5 1.94771 14.5 2.5V4.5C14.5 5.05228 14.0523 5.5 13.5 5.5H3.5C2.94772 5.5 2.5 5.05228 2.5 4.5Z" stroke="black" stroke-linecap="round" stroke-linejoin="round"/>
<path id="Vector_2" d="M11.5 14.5L13 13M13 13L10.5 11.5C10.5 11.5 11.1667 10.8333 12 10M13 13L14.5 11.5L12 10M13.5 8.5C12.8333 9.16667 12.8333 9.16667 12 10" stroke="black" stroke-linecap="round" stroke-linejoin="round"/>
</g>
</svg>