<svg xmlns="http://www.w3.org/2000/svg" width="16" height="16" viewBox="0 0 16 16" fill="none">
<g id="action-connector-request-node[workflow,action,dynamic,plug,energy,power]">
<path id="Vector" d="M11.5 13.5L13 12M13 12L10.5 10.5C10.5 10.5 11.1667 9.83333 12 9M13 12L14.5 10.5L12 9M13.5 7.5C12.8333 8.16667 12.8333 8.16667 12 9" stroke="black" stroke-linecap="round" stroke-linejoin="round"/>
<path id="Vector_2" d="M7.5 13.5H6.5C4.84315 13.5 3.5 12.1569 3.5 10.5C3.5 8.84315 4.84315 7.5 6.5 7.5H7.5V13.5Z" fill="black" fill-opacity="0.25" stroke="black" stroke-linecap="round" stroke-linejoin="round"/>
<path id="Vector_3" d="M3.5 10.5H2.5C1.94771 10.5 1.5 10.0523 1.5 9.5V3.5C1.5 2.94772 1.94771 2.5 2.5 2.5H11.5" stroke="black" stroke-linecap="round" stroke-linejoin="round"/>
<path id="Vector_4" d="M7.5 12.5H9.5M7.5 8.5H9.5" stroke="black" stroke-linecap="round" stroke-linejoin="round"/>
<path id="Vector_5" d="M11.5 2.5C11.5 3.05228 11.9477 3.5 12.5 3.5C13.0523 3.5 13.5 3.05228 13.5 2.5C13.5 1.94771 13.0523 1.5 12.5 1.5C11.9477 1.5 11.5 1.94771 11.5 2.5Z" stroke="black" stroke-linecap="round" stroke-linejoin="round"/>
</g>
</svg>