<svg xmlns="http://www.w3.org/2000/svg" width="16" height="16" viewBox="0 0 16 16" fill="none">
<g id="circle-pause-solid[circle,solid,pause,control]">
<path id="Vector" fill-rule="evenodd" clip-rule="evenodd" d="M8 0C3.6 0 0 3.6 0 8C0 12.4 3.6 16 8 16C12.4 16 16 12.4 16 8C16 3.6 12.4 0 8 0ZM7 6C7 5.44772 6.55228 5 6 5C5.44772 5 5 5.44772 5 6V10C5 10.5523 5.44772 11 6 11C6.55228 11 7 10.5523 7 10V6ZM11 6C11 5.44772 10.5523 5 10 5C9.44772 5 9 5.44772 9 6V10C9 10.5523 9.44772 11 10 11C10.5523 11 11 10.5523 11 10V6Z" fill="black"/>
</g>
</svg>