<svg xmlns="http://www.w3.org/2000/svg" width="16" height="16" viewBox="0 0 16 16" fill="none">
<g id="add-branch-solid[workflow,nodes,solid,plus,create,add]">
<g id="Group">
<path id="Vector" d="M8 9C7.73478 9 7.48043 8.89464 7.29289 8.70711C7.10536 8.51957 7 8.26522 7 8V3C7 2.73478 7.10536 2.48043 7.29289 2.29289C7.48043 2.10536 7.73478 2 8 2C8.26522 2 8.51957 2.10536 8.70711 2.29289C8.89464 2.48043 9 2.73478 9 3V8C9 8.26522 8.89464 8.51957 8.70711 8.70711C8.51957 8.89464 8.26522 9 8 9Z" fill="black"/>
<path id="Vector_2" d="M8 14C6.81788 14.0012 5.66183 13.6527 4.67727 12.9984C3.69271 12.3442 2.92363 11.4134 2.46679 10.3231C2.00994 9.23282 1.88574 8.03179 2.10979 6.8711C2.33385 5.71041 2.89617 4.6419 3.726 3.80001C3.9142 3.6232 4.1635 3.52605 4.42171 3.52889C4.67991 3.53173 4.92701 3.63434 5.11128 3.81525C5.29554 3.99615 5.40268 4.24132 5.41028 4.49943C5.41787 4.75755 5.32532 5.00859 5.152 5.20001C4.59872 5.76183 4.22383 6.47464 4.07444 7.24888C3.92505 8.02311 4.00783 8.82423 4.31237 9.55157C4.61691 10.2789 5.12962 10.9 5.78609 11.3368C6.44256 11.7736 7.21348 12.0067 8.002 12.0067C8.79052 12.0067 9.56145 11.7736 10.2179 11.3368C10.8744 10.9 11.3871 10.2789 11.6916 9.55157C11.9962 8.82423 12.0789 8.02311 11.9296 7.24888C11.7802 6.47464 11.4053 5.76183 10.852 5.20001C10.7538 5.10777 10.6753 4.99663 10.6211 4.87328C10.5669 4.74993 10.5382 4.6169 10.5368 4.48219C10.5353 4.34748 10.561 4.21385 10.6125 4.08934C10.6639 3.96483 10.74 3.85199 10.8361 3.75761C10.9323 3.66323 11.0465 3.58924 11.1719 3.5401C11.2974 3.49095 11.4314 3.46766 11.5661 3.47162C11.7008 3.47558 11.8332 3.50671 11.9556 3.56314C12.0779 3.61957 12.1876 3.70014 12.278 3.80001C13.1081 4.64215 13.6705 5.71102 13.8944 6.87208C14.1183 8.03314 13.9938 9.2345 13.5364 10.3249C13.0791 11.4154 12.3094 12.3461 11.3242 13.0001C10.3391 13.6541 9.18246 14.002 8 14Z" fill="black"/>
</g>
</g>
</svg>