<svg xmlns="http://www.w3.org/2000/svg" width="16" height="16" viewBox="0 0 16 16" fill="none">
<g id="duplicate-solid[workflow,nodes,solid,duplicate,copy,clone,paste]">
<path id="Vector" fill-rule="evenodd" clip-rule="evenodd" d="M6 3C6 2.44771 6.44772 2 7 2H12C12.5523 2 13 2.44771 13 3V8C13 8.55228 12.5523 9 12 9H6.5C6.22386 9 6 8.77614 6 8.5V3Z" fill="black"/>
<path id="Vector_2" fill-rule="evenodd" clip-rule="evenodd" d="M2 7C2 6.44772 2.44771 6 3 6H4.5C4.77614 6 5 6.22386 5 6.5V10H8.5C8.77614 10 9 10.2239 9 10.5V12C9 12.5523 8.55229 13 8 13H3C2.44771 13 2 12.5523 2 12V7Z" fill="black"/>
</g>
</svg>