<svg xmlns="http://www.w3.org/2000/svg" width="16" height="16" viewBox="0 0 16 16" fill="none">
<g id="pbp-output[workflow,packaged,arrow,right,import,output,volume,axis,dimension,3d,cube]">
<path id="Vector" d="M13.5 8.5V4.80902C13.5 4.61963 13.393 4.4465 13.2236 4.3618L7.72361 1.61181C7.58284 1.54143 7.41716 1.54143 7.27639 1.61181L1.77639 4.3618C1.607 4.4465 1.5 4.61963 1.5 4.80902V11.191C1.5 11.3804 1.607 11.5535 1.77639 11.6382L7.27639 14.3882C7.41716 14.4586 7.58284 14.4586 7.72361 14.3882L9.5 13.5" stroke="black" stroke-linecap="round" stroke-linejoin="round"/>
<path id="Vector_2" d="M11.5 5.5L7.72361 7.3882C7.58284 7.45858 7.41716 7.45858 7.27639 7.3882L3.5 5.5" stroke="black" stroke-linecap="round" stroke-linejoin="round"/>
<path id="Vector_3" d="M3.5 7.5V10.5L5.5 11.5" stroke="black" stroke-opacity="0.25" stroke-linecap="round" stroke-linejoin="round"/>
<path id="Vector_4" d="M5.5 4.5L7.5 3.5L9.5 4.5" stroke="black" stroke-opacity="0.25" stroke-linecap="round" stroke-linejoin="round"/>
<path id="Vector_5" d="M11.5 13.5L13.5 11.5M13.5 11.5L11.5 9.5M13.5 11.5H9.5C8.39543 11.5 7.5 10.6046 7.5 9.5V7.5" stroke="black" stroke-linecap="round" stroke-linejoin="round"/>
</g>
</svg>