<svg xmlns="http://www.w3.org/2000/svg" width="16" height="16" viewBox="0 0 16 16" fill="none">
<g id="pin-solid[lock,fix,map,save,workflow]">
<path id="Vector" d="M12 10H8H4C3.44772 10 3 9.55228 3 9V8.5C3 7.67157 3.67157 7 4.5 7H5.0901C5.32844 7 5.53365 6.83177 5.58039 6.59806L5.94752 4.7624C5.98031 4.59847 5.929 4.429 5.81078 4.31078L5.29289 3.79289C5.10536 3.60536 5 3.351 5 3.08579V3C5 2.44772 5.44772 2 6 2H10C10.5523 2 11 2.44772 11 3V3.08579C11 3.351 10.8946 3.60536 10.7071 3.79289L10.1892 4.31078C10.071 4.429 10.0197 4.59847 10.0525 4.7624L10.4196 6.59806C10.4664 6.83177 10.6716 7 10.9099 7H11.5C12.3284 7 13 7.67157 13 8.5V9C13 9.55228 12.5523 10 12 10Z" fill="black"/>
<path id="Vector 31" d="M8.5 11H7.5C7.22386 11 7 11.2239 7 11.5V14C7 14.5523 7.44772 15 8 15C8.55228 15 9 14.5523 9 14V11.5C9 11.2239 8.77614 11 8.5 11Z" fill="black"/>
</g>
</svg>