<svg xmlns="http://www.w3.org/2000/svg" width="16" height="16" viewBox="0 0 16 16" fill="none">
<g id="trigger-started-at-a-specific-time[workflow,trigger,clock,time,date,watch]">
<path id="Vector" d="M1.5 7.5C1.5 10.8137 4.18629 13.5 7.5 13.5C10.8137 13.5 13.5 10.8137 13.5 7.5C13.5 4.18629 10.8137 1.5 7.5 1.5C4.18629 1.5 1.5 4.18629 1.5 7.5Z" stroke="black" stroke-linecap="round" stroke-linejoin="round"/>
<path id="Vector_2" d="M6.5 7.5C6.5 8.05228 6.94772 8.5 7.5 8.5C8.05228 8.5 8.5 8.05228 8.5 7.5C8.5 6.94772 8.05228 6.5 7.5 6.5C6.94772 6.5 6.5 6.94772 6.5 7.5Z" stroke="black" stroke-linecap="round" stroke-linejoin="round"/>
<path id="Vector_3" d="M7.5 3.5V6.5M8.5 8.5L9.5 9.5" stroke="black" stroke-linecap="round" stroke-linejoin="round"/>
</g>
</svg>