<svg xmlns="http://www.w3.org/2000/svg" width="16" height="16" viewBox="0 0 16 16" fill="none">
<g id="trigger-started-by-webhook[workflow,trigger,webhook]">
<path id="Vector" d="M9.5 11C9.5 12.3807 10.6193 13.5 12 13.5C13.3807 13.5 14.5 12.3807 14.5 11C14.5 9.61929 13.3807 8.5 12 8.5C10.6193 8.5 9.5 9.61929 9.5 11Z" stroke="black" stroke-linecap="round" stroke-linejoin="round"/>
<path id="Vector_2" d="M8 4.00005L9.71429 7.00006M4 11.0001L5.24056 8.82907L6.75 6.16511C5.55427 5.47476 5.14458 3.94578 5.83494 2.75005C6.52529 1.55432 8.05427 1.14463 9.25 1.83499C10.206 2.38692 10.6595 3.4749 10.4502 4.50006M6.29198 10.0001C6.42578 10.3063 6.5 10.6445 6.5 11.0001C6.5 12.3808 5.38071 13.5001 4 13.5001C2.61929 13.5001 1.5 12.3808 1.5 11.0001C1.5 9.79057 2.35888 8.7817 3.5 8.55006" stroke="black" stroke-linecap="round" stroke-linejoin="round"/>
<path id="Vector_3" d="M11.5 11C11.5 11.2761 11.7239 11.5 12 11.5C12.2761 11.5 12.5 11.2761 12.5 11C12.5 10.7239 12.2761 10.5 12 10.5C11.7239 10.5 11.5 10.7239 11.5 11Z" stroke="black" stroke-opacity="0.25" stroke-linecap="round" stroke-linejoin="round"/>
<path id="Vector_4" d="M3.5 11C3.5 11.2761 3.72386 11.5 4 11.5C4.27614 11.5 4.5 11.2761 4.5 11C4.5 10.7239 4.27614 10.5 4 10.5C3.72386 10.5 3.5 10.7239 3.5 11Z" stroke="black" stroke-linecap="round" stroke-linejoin="round"/>
<path id="Vector_5" d="M7.5 4C7.5 4.27614 7.72386 4.5 8 4.5C8.27614 4.5 8.5 4.27614 8.5 4C8.5 3.72386 8.27614 3.5 8 3.5C7.72386 3.5 7.5 3.72386 7.5 4Z" stroke="black" stroke-linecap="round" stroke-linejoin="round"/>
<path id="Vector_6" d="M9.5 11H6.5" stroke="black" stroke-linecap="round" stroke-linejoin="round"/>
</g>
</svg>