<svg xmlns="http://www.w3.org/2000/svg" width="16" height="16" viewBox="0 0 16 16" fill="none">
<g id="workspace-upload[workspaces,arrow,up,data,upload]">
<path id="Vector" d="M5.5 2.5H2.5C1.94771 2.5 1.5 2.94772 1.5 3.5V6.5C1.5 7.05228 1.94771 7.5 2.5 7.5H5.5C6.05228 7.5 6.5 7.05228 6.5 6.5V3.5C6.5 2.94772 6.05228 2.5 5.5 2.5Z" fill="black" fill-opacity="0.25" stroke="black" stroke-linecap="round" stroke-linejoin="round"/>
<path id="Vector_2" d="M12.5 14.5H9.5C8.94772 14.5 8.5 14.0523 8.5 13.5V10.5C8.5 9.94772 8.94772 9.5 9.5 9.5H12.5C13.0523 9.5 13.5 9.94772 13.5 10.5V13.5C13.5 14.0523 13.0523 14.5 12.5 14.5Z" stroke="black" stroke-linecap="round" stroke-linejoin="round"/>
<path id="Vector_3" d="M5.5 9.5H2.5C1.94771 9.5 1.5 9.94772 1.5 10.5V13.5C1.5 14.0523 1.94771 14.5 2.5 14.5H5.5C6.05228 14.5 6.5 14.0523 6.5 13.5V10.5C6.5 9.94772 6.05228 9.5 5.5 9.5Z" stroke="black" stroke-linecap="round" stroke-linejoin="round"/>
<path id="Vector_4" d="M11.5 6.5V1.5M11.5 1.5L13.5 3.5M11.5 1.5L9.5 3.5" stroke="black" stroke-linecap="round" stroke-linejoin="round"/>
</g>
</svg>