<svg xmlns="http://www.w3.org/2000/svg" width="16" height="16" viewBox="0 0 16 16" fill="none">
<g id="workspace-template-remove[workspaces,clear,remove,delete]">
<path id="Vector" d="M4.5 12.5H2.5C1.94771 12.5 1.5 12.0523 1.5 11.5V2.5C1.5 1.94771 1.94771 1.5 2.5 1.5H11.5C12.0523 1.5 12.5 1.94771 12.5 2.5V4.5" stroke="black" stroke-linecap="round"/>
<path id="Vector_2" d="M6.5 3.5H3.5V6.5H6.5V3.5Z" fill="black" stroke="black" stroke-linejoin="round"/>
<path id="Vector_3" d="M14.5 10.5C14.5 12.7091 12.7091 14.5 10.5 14.5C8.29086 14.5 6.5 12.7091 6.5 10.5C6.5 8.29086 8.29086 6.5 10.5 6.5C12.7091 6.5 14.5 8.29086 14.5 10.5Z" stroke="black" stroke-linecap="round" stroke-linejoin="round"/>
<path id="Vector_4" d="M9 9L12 12M12 9L9 12" stroke="black" stroke-linecap="round" stroke-linejoin="round"/>
</g>
</svg>